<?xml version="1.0" encoding="UTF-8"?>
<svg width="48px" height="48px" viewBox="0 0 48 48" version="1.1" xmlns="http://www.w3.org/2000/svg" xmlns:xlink="http://www.w3.org/1999/xlink">
    <!-- Generator: Sketch 40.2 (33826) - http://www.bohemiancoding.com/sketch -->
    <title>theicons.co/svg/social-08</title>
    <desc>Created with Sketch.</desc>
    <defs></defs>
    <g id="The-Icons" stroke="none" stroke-width="1" fill="none" fill-rule="evenodd">
        <g id="v-1.3" transform="translate(-768.000000, -3360.000000)" fill="#4D4D4D">
            <g id="Social" transform="translate(96.000000, 3360.000000)">
                <g id="Linked-In" transform="translate(672.000000, 0.000000)">
                    <path d="M4,38.0098214 C4,41.3189976 6.6815679,44 9.99017859,44 L38.0098214,44 C41.3189976,44 44,41.3184321 44,38.0098214 L44,9.99017859 C44,6.68100239 41.3184321,4 38.0098214,4 L9.99017859,4 C6.68100239,4 4,6.6815679 4,9.99017859 L4,38.0098214 Z M9.99017859,8 L38.0098214,8 C39.1094819,8 40,8.89033027 40,9.99017859 L40,38.0098214 C40,39.1094819 39.1096697,40 38.0098214,40 L9.99017859,40 C8.89051807,40 8,39.1096697 8,38.0098214 L8,9.99017859 C8,8.89051807 8.89033027,8 9.99017859,8 Z M14,22.0058587 C14,20.8980535 14.8877296,20 16,20 C17.1045695,20 18,20.8970601 18,22.0058587 L18,31.9941413 C18,33.1019465 17.1122704,34 16,34 C14.8954305,34 14,33.1029399 14,31.9941413 L14,22.0058587 Z M16,18 C17.1045695,18 18,17.1045695 18,16 C18,14.8954305 17.1045695,14 16,14 C14.8954305,14 14,14.8954305 14,16 C14,17.1045695 14.8954305,18 16,18 Z M25,26.5004946 C25,25.1215533 26.1223005,24 27.5,24 C28.8773425,24 30,25.1241641 30,26.5004946 L30,32 C30,33.1045695 30.8954305,34 32,34 C33.1045695,34 34,33.1045695 34,32 L34,26.5004946 C34,22.916225 31.0876833,20 27.5,20 C23.9137577,20 21,22.9118177 21,26.5004946 L21,32 C21,33.1045695 21.8954305,34 23,34 C24.1045695,34 25,33.1045695 25,32 L25,26.5004946 Z" id="Combined-Shape"></path>
                </g>
            </g>
        </g>
    </g>
</svg>