<?xml version="1.0" encoding="UTF-8"?>
<svg width="48px" height="48px" viewBox="0 0 48 48" version="1.1" xmlns="http://www.w3.org/2000/svg" xmlns:xlink="http://www.w3.org/1999/xlink">
    <!-- Generator: Sketch 40.2 (33826) - http://www.bohemiancoding.com/sketch -->
    <title>theicons.co/svg/social-12</title>
    <desc>Created with Sketch.</desc>
    <defs></defs>
    <g id="The-Icons" stroke="none" stroke-width="1" fill="none" fill-rule="evenodd">
        <g id="v-1.3" transform="translate(-1152.000000, -3360.000000)" fill="#4D4D4D">
            <g id="Social" transform="translate(96.000000, 3360.000000)">
                <g id="Pinterest" transform="translate(1056.000000, 0.000000)">
                    <path d="M22.3312646,26.1769668 C22.3457465,26.2125753 22.359298,26.2488078 22.371881,26.2856456 C23.2332185,28.8072822 24.5950626,30.0200195 27.4228516,30.0200195 C30.4397575,30.0200195 32.9393318,28.3567471 34.241075,26.1387829 C35.4698305,24.0451782 36,21.9313272 36,19 C36,12.0233263 31.293928,8 24,8 C17.1572233,8 12.0255127,12.6990938 12.024531,19.1848279 C12.0049594,20.1998017 12.2838853,21.701966 13.1280607,23.1475755 C13.6314077,24.0095329 14.2988601,24.7575196 15.1601547,25.3708772 C16.0598943,26.0116129 16.2698585,27.260415 15.6291228,28.1601547 C14.9883871,29.0598943 13.739585,29.2698585 12.8398453,28.6291228 C11.5032844,27.6773116 10.4554231,26.5030161 9.6738848,25.1646697 C8.9378061,23.9041706 8.47418617,22.5674182 8.2248327,21.2245171 C8.06517433,20.3646719 8.01503821,19.6385572 8.0255127,19.1223145 C8.0255127,10.4074756 15.0228854,4 24,4 C33.3761037,4 40,9.66291722 40,19 C40,22.6181633 39.2945216,25.4309921 37.6908097,28.1634632 C35.7156609,31.528804 31.9718495,34.0200195 27.4228516,34.0200195 C24.559419,34.0200195 22.4279414,33.1294923 20.8876547,31.5389466 L17.9312315,42.5199469 C17.6440727,43.5865367 16.5466428,44.2183903 15.4800531,43.9312315 C14.4134633,43.6440727 13.7816097,42.5466428 14.0687685,41.4800531 C14.0687685,41.4800531 17.283394,29.5400153 18.8907068,23.5699965 C19.6167274,20.8733487 18.5462251,19.5641579 19.2657471,16.717041 C20.0274658,13.7029534 22.1792599,13.2187006 23.2458496,13.5058594 C24.3124393,13.7930181 25.2183903,15.4533572 24.9312315,16.5199469 L22.3312646,26.1769668 Z" id="Combined-Shape"></path>
                </g>
            </g>
        </g>
    </g>
</svg>