<?xml version="1.0" encoding="UTF-8"?>
<svg width="48px" height="48px" viewBox="0 0 48 48" version="1.1" xmlns="http://www.w3.org/2000/svg" xmlns:xlink="http://www.w3.org/1999/xlink">
    <!-- Generator: Sketch 40.2 (33826) - http://www.bohemiancoding.com/sketch -->
    <title>theicons.co/svg/social-03</title>
    <desc>Created with Sketch.</desc>
    <defs></defs>
    <g id="The-Icons" stroke="none" stroke-width="1" fill="none" fill-rule="evenodd">
        <g id="v-1.3" transform="translate(-288.000000, -3360.000000)" fill="#4D4D4D">
            <g id="Social" transform="translate(96.000000, 3360.000000)">
                <g id="Twitter" transform="translate(192.000000, 0.000000)">
                    <path d="M9.3418567,22.7598912 C10.1336311,25.9933661 12.1330087,29.0125715 15.5805242,31.3430655 C16.8679461,32.2133527 16.714411,34.1552106 15.3062201,34.8123663 C14.7786939,35.0585452 11.7494315,35.9338452 10.9390462,36.1263989 C10.6646683,36.1915932 10.0891724,36.3250122 10.0891724,36.3250122 C11.9575305,37.4254631 14.5762604,38 18,38 C28.9852648,38 37.0010852,29.9311337 37.0092778,17.8546003 C37.0094193,17.6460472 37,17.0565753 37,17 C37,12.8413219 34.8188539,9.98013382 31.0104183,9.99997286 C27.1748298,10.0199534 25,12.8605745 25,17 C25,17.2403166 24.9936523,18.7330206 24.9936523,18.975708 C24.9936523,20.1752413 23.9450558,21.1049594 22.7541541,20.9613164 C17.7379717,20.3562792 13.1836404,18.1544245 9.66954889,14.7428931 L9.61683389,14.8986128 C9.38271374,15.6870389 9.20752817,16.4848556 9.09463348,17.2854427 C9.15997438,17.3630707 9.23649113,17.4510098 9.32422303,17.5478594 C9.80608325,18.0797978 10.4002343,18.6181238 11.1074424,19.1231039 C11.6501081,19.5105928 12.2376874,19.8618782 12.8709623,20.1682322 C13.8652934,20.6492514 14.2814149,21.8452591 13.8003957,22.8395902 C13.3193766,23.8339213 12.1233688,24.2500428 11.1290377,23.7690237 C10.5001617,23.4647976 9.90455969,23.1268292 9.3418567,22.7598912 Z M40.9852496,16.3296884 C40.9950653,16.551263 41,16.7747582 41,17 C41,17.0932951 41.0094579,17.5905458 41.0092769,17.8573138 C40.9995907,32.1354405 31.1998822,42 18,42 C11.4813035,42 7.26982513,40.2969802 4.36755631,36.3231396 C3.50173619,35.1376426 4.16558479,33.4543941 5.60753942,33.1790497 C5.67368207,33.1664196 5.8011584,33.1416812 5.98113634,33.1061144 C6.28295673,33.0464695 9.05271845,32.4632402 10.0143602,32.2347468 C10.1073727,32.2126464 10.2898279,32.1687402 10.2898279,32.1687402 L10.1873655,32.0706391 C3.98398243,25.870861 3.63164666,17.248162 7.23798399,10.1080852 C7.90340566,8.79063727 9.71776959,8.62313222 10.613146,9.79648475 C13.2056078,13.1937949 16.8482668,15.5771677 21.0120442,16.5883887 L21.0088284,16.4818976 C21.210814,10.5849898 24.8691011,6.03191017 30.9895817,6.00002714 C34.6401841,5.98101028 37.4192914,7.60250441 39.1122634,10.1692121 L41.8851895,10.0203402 C43.9014201,9.91209356 44.6100529,11.1665265 43.4468951,12.8233259 L40.9852496,16.3296884 Z" id="Combined-Shape"></path>
                </g>
            </g>
        </g>
    </g>
</svg>