<?xml version="1.0" encoding="UTF-8"?>
<svg width="48px" height="48px" viewBox="0 0 48 48" version="1.1" xmlns="http://www.w3.org/2000/svg" xmlns:xlink="http://www.w3.org/1999/xlink">
    <!-- Generator: Sketch 40.1 (33804) - http://www.bohemiancoding.com/sketch -->
    <title>theicons.co/svg/ui-01</title>
    <desc>Created with Sketch.</desc>
    <defs></defs>
    <g id="The-Icons" stroke="none" stroke-width="1" fill="none" fill-rule="evenodd">
        <g id="v-1.0" transform="translate(-96.000000, -2096.000000)" fill="#4D4D4D">
            <g id="UI" transform="translate(96.000000, 2096.000000)">
                <g id="Hot">
                    <path d="M40,27.979248 C40,23.6771701 38.2645042,20.5402349 35.229947,17.981835 C34.3486719,17.2388423 31.9740554,15.5870572 31.7847555,15.4177408 C29.0242521,12.9486509 27.9681813,10.6566924 28.9931441,6.39654784 C29.3886436,4.75269788 27.6925734,3.39020713 26.1726264,4.13076354 C19.6074383,7.32948839 16.9448853,14.0625004 17.458004,20.0492827 C16.688692,18.9413508 16.1606835,17.496198 15.9887201,15.7984527 C15.7973419,13.9090305 13.3273005,13.3250245 12.310034,14.9286798 C9.0951651,19.996714 8,23.0457503 8,27.979248 C8,36.9372965 15.2114559,44 24.0229921,44 C32.8266112,44 40,36.9421084 40,27.979248 Z M12,27.979248 C12,23.9061602 12.8450928,22.4600825 13.4325383,21.0697817 C14.9603228,24.0303479 17.460117,25.9643555 19.9890137,25.9643555 C21.2636013,25.9643555 22.2129915,24.7880644 21.9439511,23.5421949 C20.2084753,15.5055696 23.2875366,11.4447021 24.627523,10.1384576 C24.8475972,13.5044118 26.4678322,16.0286833 29.1180765,18.3991537 C29.5372913,18.774114 31.9767621,20.4710118 32.6516454,21.039998 C34.8492769,22.8927955 36,24.9727453 36,27.979248 C36,34.7183059 30.6318749,40 24.0229921,40 C17.4021495,40 12,34.7092819 12,27.979248 Z" id="Path-957-Copy"></path>
                </g>
            </g>
        </g>
    </g>
</svg>