<?xml version="1.0" encoding="UTF-8"?>
<svg width="48px" height="48px" viewBox="0 0 48 48" version="1.1" xmlns="http://www.w3.org/2000/svg" xmlns:xlink="http://www.w3.org/1999/xlink">
    <!-- Generator: Sketch 40.1 (33804) - http://www.bohemiancoding.com/sketch -->
    <title>theicons.co/svg/ui-03</title>
    <desc>Created with Sketch.</desc>
    <defs></defs>
    <g id="The-Icons" stroke="none" stroke-width="1" fill="none" fill-rule="evenodd">
        <g id="v-1.0" transform="translate(-256.000000, -2096.000000)" fill="#4D4D4D">
            <g id="UI" transform="translate(96.000000, 2096.000000)">
                <g id="Heart" transform="translate(160.000000, 0.000000)">
                    <path d="M8,18 C8,24.2484118 13.7971073,31.4307077 23.2470821,37.7753043 C23.5580601,37.9840911 23.9632719,38.2979781 24.0113045,38.2665777 C33.9014502,31.8010885 40,24.4090885 40,18 C40,13.581722 36.418278,10 32,10 C30.0009249,10 28.1261091,10.7307619 26.6676551,12.0361135 L24.7430907,13.7586454 C24.332693,14.1259612 23.6728931,14.1309609 23.2569093,13.7586454 L21.3323449,12.0361135 C19.8738909,10.7307619 17.9990751,10 16,10 C11.581722,10 8,13.581722 8,18 Z M16,6 L16,6 C19.0734177,6 21.876974,7.15541427 24,9.05557397 C26.123026,7.15541427 28.9265823,6 32,6 C38.627417,6 44,11.372583 44,18 C44,27.1922957 35.2130888,35.7528155 26.0478292,41.7138782 C25.3661592,42.1572348 24.8492397,42.4726905 24.8492397,42.4726905 C24.3847857,42.7617649 23.6224165,42.7656904 23.1566435,42.4766549 C23.1566435,42.4766549 22.6753261,42.1832485 22.0142159,41.7541888 C12.8266082,35.7914429 4,27.2130366 4,18 C4,11.372583 9.372583,6 16,6 L16,6 Z" id="Combined-Shape"></path>
                </g>
            </g>
        </g>
    </g>
</svg>