<?xml version="1.0" encoding="UTF-8"?>
<svg width="48px" height="48px" viewBox="0 0 48 48" version="1.1" xmlns="http://www.w3.org/2000/svg" xmlns:xlink="http://www.w3.org/1999/xlink">
    <!-- Generator: Sketch 40.1 (33804) - http://www.bohemiancoding.com/sketch -->
    <title>theicons.co/svg/ui-02</title>
    <desc>Created with Sketch.</desc>
    <defs></defs>
    <g id="The-Icons" stroke="none" stroke-width="1" fill="none" fill-rule="evenodd">
        <g id="v-1.0" transform="translate(-176.000000, -2096.000000)" fill="#4D4D4D">
            <g id="UI" transform="translate(96.000000, 2096.000000)">
                <g id="Star" transform="translate(80.000000, 0.000000)">
                    <path d="M22.1915033,34.8752841 L14.835924,38.7437921 L16.2409359,30.5519438 C16.4461926,29.3552054 15.9877169,27.9397391 15.1161322,27.090154 L9.16512797,21.2898478 L17.3890467,20.0948425 C18.5906404,19.9202407 19.7951521,19.0468012 20.333821,17.9553387 L24.0139428,10.5086025 L27.6891268,17.9553387 C28.2264959,19.0441672 29.4294007,19.9198183 30.6339012,20.0948425 L38.8483768,21.2985633 L32.9068156,27.090154 C32.0373343,27.9376888 31.5762587,29.3523104 31.7820119,30.5519438 L33.2051506,38.7518707 L25.8314446,34.8752841 C24.7567065,34.3102609 23.2688413,34.308894 22.1915033,34.8752841 Z M23.97008,38.4158098 L33.1410293,43.2372631 C35.5848021,44.5220305 37.9430142,42.8110132 37.4759407,40.0877656 L35.7244452,29.8757636 C35.7414765,29.9750632 35.7711431,29.8840431 35.6988624,29.9544994 L43.1183162,22.7223194 C45.0953699,20.7951683 44.1968234,18.0236419 41.4625274,17.6263254 L31.2090944,16.1364144 C31.3087969,16.150902 31.2313992,16.0945606 31.2760711,16.1850758 L26.6905965,6.89388942 C25.4687101,4.41807715 22.5551657,4.41619694 21.3323514,6.89388942 L16.7468767,16.1850758 C16.791465,16.0947301 16.7139639,16.1509292 16.8138535,16.1364144 L6.56042048,17.6263254 C3.82819942,18.0233404 2.9260765,20.7937048 4.90463167,22.7223194 L12.3240855,29.9544994 C12.2519401,29.884175 12.2814395,29.9752495 12.2985026,29.8757636 L10.5470072,40.0877656 C10.0802881,42.8089467 12.4362899,44.5230062 14.8819186,43.2372631 L24.0528678,38.4158098 C23.9636912,38.4626927 24.0594239,38.4627806 23.97008,38.4158098 L23.97008,38.4158098 Z" id="Star-7"></path>
                </g>
            </g>
        </g>
    </g>
</svg>