<?xml version="1.0" standalone="no"?>
<!DOCTYPE svg PUBLIC "-//W3C//DTD SVG 20010904//EN"
 "http://www.w3.org/TR/2001/REC-SVG-20010904/DTD/svg10.dtd">
<svg version="1.0" xmlns="http://www.w3.org/2000/svg"
 width="260.000000pt" height="260.000000pt" viewBox="0 0 260.000000 260.000000"
 preserveAspectRatio="xMidYMid meet">
<metadata>
Created by potrace 1.11, written by Peter Selinger 2001-2013
</metadata>
<g transform="translate(0.000000,260.000000) scale(0.100000,-0.100000)"
fill="#000000" stroke="none">
<path d="M486 1824 c-12 -11 -13 -20 -6 -34 8 -16 24 -20 81 -22 l71 -3 194
-450 c107 -247 197 -458 200 -467 5 -16 -2 -18 -45 -18 -59 0 -87 -20 -71 -51
10 -18 23 -19 174 -19 137 0 166 3 177 16 23 28 -1 49 -63 52 l-55 3 131 304
c72 167 134 301 138 297 3 -4 63 -140 131 -302 l126 -295 -56 -5 c-59 -5 -82
-23 -70 -54 6 -14 37 -16 291 -16 265 0 286 1 295 18 18 33 -3 47 -81 52 l-72
5 -198 460 c-109 253 -198 463 -198 467 0 5 25 8 55 8 43 0 56 4 65 19 7 15 6
23 -6 35 -22 22 -310 23 -340 2 -33 -25 -7 -50 58 -56 l56 -5 -131 -303 c-72
-166 -134 -299 -138 -295 -7 7 -259 590 -259 598 0 2 28 5 62 7 51 2 63 6 66
21 9 45 -4 47 -294 47 -234 0 -275 -2 -288 -16z m526 -404 c81 -189 148 -350
148 -356 0 -14 -59 -156 -69 -167 -6 -6 -381 848 -381 867 0 4 35 6 77 4 l77
-3 148 -345z m697 -137 c100 -232 184 -429 187 -438 5 -13 -6 -15 -72 -15
l-79 0 -148 348 c-81 191 -147 352 -147 358 0 6 12 38 26 70 14 33 30 70 35
83 5 13 11 22 13 20 2 -2 85 -194 185 -426z"/>
</g>
</svg>
