<?xml version="1.0" encoding="UTF-8"?>
<svg width="48px" height="48px" viewBox="0 0 48 48" version="1.1" xmlns="http://www.w3.org/2000/svg" xmlns:xlink="http://www.w3.org/1999/xlink">
    <!-- Generator: Sketch 41.2 (35397) - http://www.bohemiancoding.com/sketch -->
    <title>theicons.co/svg/common-05</title>
    <desc>Created with Sketch.</desc>
    <defs></defs>
    <g id="The-Icons" stroke="none" stroke-width="1" fill="none" fill-rule="evenodd">
        <g id="v-1.4" transform="translate(-480.000000, -3360.000000)" fill="#4D4D4D">
            <g id="Common" transform="translate(96.000000, 3360.000000)">
                <g id="Arrow-1" transform="translate(384.000000, 0.000000)">
                    <path d="M39.4142136,11.4142136 C40.1952621,10.633165 40.1952621,9.36683502 39.4142136,8.58578644 C38.633165,7.80473785 37.366835,7.80473785 36.5857864,8.58578644 L22.5857864,22.5857864 C21.8047379,23.366835 21.8047379,24.633165 22.5857864,25.4142136 L36.5857864,39.4142136 C37.366835,40.1952621 38.633165,40.1952621 39.4142136,39.4142136 C40.1952621,38.633165 40.1952621,37.366835 39.4142136,36.5857864 L26.8284271,24 L39.4142136,11.4142136 Z M22.4142136,14.4142136 C23.1952621,13.633165 23.1952621,12.366835 22.4142136,11.5857864 C21.633165,10.8047379 20.366835,10.8047379 19.5857864,11.5857864 L8.58578644,22.5857864 C7.80473785,23.366835 7.80473785,24.633165 8.58578644,25.4142136 L19.5857864,36.4142136 C20.366835,37.1952621 21.633165,37.1952621 22.4142136,36.4142136 C23.1952621,35.633165 23.1952621,34.366835 22.4142136,33.5857864 L12.8284271,24 L22.4142136,14.4142136 Z" id="Combined-Shape" transform="translate(24.000000, 24.000000) scale(-1, 1) translate(-24.000000, -24.000000) "></path>
                </g>
            </g>
        </g>
    </g>
</svg>