<?xml version="1.0" encoding="UTF-8"?>
<svg width="48px" height="48px" viewBox="0 0 48 48" version="1.1" xmlns="http://www.w3.org/2000/svg" xmlns:xlink="http://www.w3.org/1999/xlink">
    <!-- Generator: Sketch 41.2 (35397) - http://www.bohemiancoding.com/sketch -->
    <title>theicons.co/svg/common-01</title>
    <desc>Created with Sketch.</desc>
    <defs></defs>
    <g id="The-Icons" stroke="none" stroke-width="1" fill="none" fill-rule="evenodd">
        <g id="v-1.4" transform="translate(-96.000000, -3360.000000)" fill="#4D4D4D">
            <g id="Common" transform="translate(96.000000, 3360.000000)">
                <g id="Close">
                    <path d="M24,21.1721105 L36.5858111,8.58673834 C37.3668733,7.80570338 38.6332033,7.80572546 39.4142382,8.58678766 C40.1952732,9.36784987 40.1952511,10.6341798 39.4141889,11.4152148 L26.8284765,24.0004883 L39.4141889,36.5857618 C40.1952511,37.3667967 40.1952732,38.6331267 39.4142382,39.4141889 C38.6332033,40.1952511 37.3668733,40.1952732 36.5858111,39.4142382 L24,26.8288661 L11.4141889,39.4142382 C10.6331267,40.1952732 9.36679674,40.1952511 8.58576178,39.4141889 C7.80472681,38.6331267 7.8047489,37.3667967 8.5858111,36.5857618 L21.1715235,24.0004883 L8.5858111,11.4152148 C7.8047489,10.6341798 7.80472681,9.36784987 8.58576178,8.58678766 C9.36679674,7.80572546 10.6331267,7.80570338 11.4141889,8.58673834 L24,21.1721105 Z" id="Combined-Shape"></path>
                </g>
            </g>
        </g>
    </g>
</svg>