<?xml version="1.0" encoding="UTF-8"?>
<svg width="48px" height="48px" viewBox="0 0 48 48" version="1.1" xmlns="http://www.w3.org/2000/svg" xmlns:xlink="http://www.w3.org/1999/xlink">
    <!-- Generator: Sketch 40.1 (33804) - http://www.bohemiancoding.com/sketch -->
    <title>theicons.co/svg/tech-13</title>
    <desc>Created with Sketch.</desc>
    <defs></defs>
    <g id="The-Icons" stroke="none" stroke-width="1" fill="none" fill-rule="evenodd">
        <g id="v-1.0" transform="translate(-1056.000000, -656.000000)" fill="#4D4D4D">
            <g id="Tech" transform="translate(96.000000, 656.000000)">
                <g id="USB-Drive" transform="translate(960.000000, 0.000000)">
                    <path d="M31,16 L31,7.99620271 C31,8.00112789 17.0095579,8 17.0095579,8 C17.005531,8 17.0023883,13.0816835 17.0009155,16 L31,16 Z M13,16 L13,7.99620271 C13,5.78916089 14.8003523,4 17.0095579,4 L30.9904421,4 C33.2048598,4 35,5.78883037 35,7.99620271 L35,16 C37.2094637,16 39,17.7890275 39,20.0042577 L39,35.0010581 C39,39.9710365 34.9696426,44 29.9990108,44 L18.0009892,44 C13.0298801,44 9,39.9795796 9,35.0010581 L9,20.0042577 C9,17.7927672 10.7867947,16 12.9992748,16 Z M13,35.0010581 C13,37.7666986 15.2352753,40 18.0009892,40 L29.9990108,40 C32.7609049,40 35,37.7614962 35,35.0010581 L35,20.0042577 C35,19.9989212 12.9992748,20 12.9992748,20 C12.9989215,20 13,35.0010581 13,35.0010581 Z M25,11.0093689 C25,10.4519098 25.4433532,10 26.0093689,10 L27.9906311,10 C28.5480902,10 29,10.4433532 29,11.0093689 L29,12.9906311 C29,13.5480902 28.5566468,14 27.9906311,14 L26.0093689,14 C25.4519098,14 25,13.5566468 25,12.9906311 L25,11.0093689 Z M19,11.0093689 C19,10.4519098 19.4433532,10 20.0093689,10 L21.9906311,10 C22.5480902,10 23,10.4433532 23,11.0093689 L23,12.9906311 C23,13.5480902 22.5566468,14 21.9906311,14 L20.0093689,14 C19.4519098,14 19,13.5566468 19,12.9906311 L19,11.0093689 Z" id="Combined-Shape"></path>
                </g>
            </g>
        </g>
    </g>
</svg>