<?xml version="1.0" encoding="UTF-8"?>
<svg width="48px" height="48px" viewBox="0 0 48 48" version="1.1" xmlns="http://www.w3.org/2000/svg" xmlns:xlink="http://www.w3.org/1999/xlink">
    <!-- Generator: Sketch 40.1 (33804) - http://www.bohemiancoding.com/sketch -->
    <title>theicons.co/svg/tech-10</title>
    <desc>Created with Sketch.</desc>
    <defs></defs>
    <g id="The-Icons" stroke="none" stroke-width="1" fill="none" fill-rule="evenodd">
        <g id="v-1.0" transform="translate(-816.000000, -656.000000)" fill="#4D4D4D">
            <g id="Tech" transform="translate(96.000000, 656.000000)">
                <g id="Keyboard" transform="translate(720.000000, 0.000000)">
                    <path d="M21.9987985,20 L6.00180999,20 C3.79309123,20 2,21.7864076 2,23.990053 L2,40.009947 C2,42.2157067 3.79167136,44 6.00180999,44 L41.99819,44 C44.2069088,44 46,42.2135924 46,40.009947 L46,23.990053 C46,21.7842933 44.2083286,20 41.99819,20 L25.9989757,20 C25.9950735,19.586823 25.9947409,19.3435508 25.9980415,19.0629445 C26.0432471,15.2197254 26.9144862,14.0209961 30.979248,14.0209961 C35.1629796,14.0209961 38.0608664,12.5815546 39.694428,10.129491 C40.2744697,9.25881734 40.6438411,8.33334086 40.8481238,7.40655284 C40.9754537,6.82888328 41.0196598,6.35080678 41.0184212,6.01343731 C41.0184037,6.00936284 41.0184037,6.00936284 41.0183788,6.00565795 C41.0103123,4.9011179 40.1083665,4.01225049 39.0038265,4.020317 C37.8992864,4.02838352 37.010419,4.93032935 37.0184855,6.03486939 C37.0184619,6.03133713 37.0184619,6.03133713 37.0184482,6.02812209 C37.0186661,6.08749577 37.0011875,6.27652279 36.9418905,6.54554075 C36.8386249,7.01403555 36.6519039,7.48187324 36.3655081,7.91176878 C35.5005196,9.21016289 33.8681483,10.0209961 30.979248,10.0209961 C24.3853726,10.0209961 22.0665934,13.2113816 21.9983182,19.015898 C21.9947142,19.322291 21.9949521,19.5808734 21.9987985,20 Z M23.9928785,24 L6,24 L6,40 L42,40 L42,24 L24.0092854,24 C24.0038209,24.0000221 23.9983526,24.0000221 23.9928796,24 Z M10,28.0093689 C10,27.4519098 10.4433532,27 11.0093689,27 L12.9906311,27 C13.5480902,27 14,27.4433532 14,28.0093689 L14,29.9906311 C14,30.5480902 13.5566468,31 12.9906311,31 L11.0093689,31 C10.4519098,31 10,30.5566468 10,29.9906311 L10,28.0093689 Z M10,34.0093689 C10,33.4519098 10.4433532,33 11.0093689,33 L12.9906311,33 C13.5480902,33 14,33.4433532 14,34.0093689 L14,35.9906311 C14,36.5480902 13.5566468,37 12.9906311,37 L11.0093689,37 C10.4519098,37 10,36.5566468 10,35.9906311 L10,34.0093689 Z M16,28.0093689 C16,27.4519098 16.4433532,27 17.0093689,27 L18.9906311,27 C19.5480902,27 20,27.4433532 20,28.0093689 L20,29.9906311 C20,30.5480902 19.5566468,31 18.9906311,31 L17.0093689,31 C16.4519098,31 16,30.5566468 16,29.9906311 L16,28.0093689 Z M16,34.0093689 C16,33.4519098 16.4446309,33 17.0008717,33 L30.9991283,33 C31.5518945,33 32,33.4433532 32,34.0093689 L32,35.9906311 C32,36.5480902 31.5553691,37 30.9991283,37 L17.0008717,37 C16.4481055,37 16,36.5566468 16,35.9906311 L16,34.0093689 Z M22,28.0093689 C22,27.4519098 22.4433532,27 23.0093689,27 L24.9906311,27 C25.5480902,27 26,27.4433532 26,28.0093689 L26,29.9906311 C26,30.5480902 25.5566468,31 24.9906311,31 L23.0093689,31 C22.4519098,31 22,30.5566468 22,29.9906311 L22,28.0093689 Z M28,28.0093689 C28,27.4519098 28.4433532,27 29.0093689,27 L30.9906311,27 C31.5480902,27 32,27.4433532 32,28.0093689 L32,29.9906311 C32,30.5480902 31.5566468,31 30.9906311,31 L29.0093689,31 C28.4519098,31 28,30.5566468 28,29.9906311 L28,28.0093689 Z M34,28.0093689 C34,27.4519098 34.4433532,27 35.0093689,27 L36.9906311,27 C37.5480902,27 38,27.4433532 38,28.0093689 L38,29.9906311 C38,30.5480902 37.5566468,31 36.9906311,31 L35.0093689,31 C34.4519098,31 34,30.5566468 34,29.9906311 L34,28.0093689 Z M34,34.0093689 C34,33.4519098 34.4433532,33 35.0093689,33 L36.9906311,33 C37.5480902,33 38,33.4433532 38,34.0093689 L38,35.9906311 C38,36.5480902 37.5566468,37 36.9906311,37 L35.0093689,37 C34.4519098,37 34,36.5566468 34,35.9906311 L34,34.0093689 Z" id="Combined-Shape"></path>
                </g>
            </g>
        </g>
    </g>
</svg>