<?xml version="1.0" encoding="UTF-8"?>
<svg width="48px" height="48px" viewBox="0 0 48 48" version="1.1" xmlns="http://www.w3.org/2000/svg" xmlns:xlink="http://www.w3.org/1999/xlink">
    <!-- Generator: Sketch 40.1 (33804) - http://www.bohemiancoding.com/sketch -->
    <title>theicons.co/svg/tech-11</title>
    <desc>Created with Sketch.</desc>
    <defs></defs>
    <g id="The-Icons" stroke="none" stroke-width="1" fill="none" fill-rule="evenodd">
        <g id="v-1.0" transform="translate(-896.000000, -656.000000)" fill="#4D4D4D">
            <g id="Tech" transform="translate(96.000000, 656.000000)">
                <g id="Printer" transform="translate(800.000000, 0.000000)">
                    <path d="M36,16 L41.99819,16 C44.2083286,16 46,17.7842933 46,19.990053 L46,36.009947 C46,38.2135924 44.2069088,40 41.99819,40 L36,40 L36,42.0059397 C36,43.1072288 35.1029738,44 33.9950534,44 L14.0049466,44 C12.8976452,44 12,43.1054862 12,42.0059397 L12,40 L6.00180999,40 C3.79167136,40 2,38.2157067 2,36.009947 L2,19.990053 C2,17.7864076 3.79309123,16 6.00180999,16 L13,16 L13,5.99406028 C13,4.8927712 13.9016273,4 15.0008642,4 L33.9991358,4 C35.1041826,4 36,4.89451376 36,5.99406028 L36,16 Z M12,32 L12,36 L6,36 L6,20 L42,20 L42,36 L36,36 L36,32 L36.0087557,32 C37.1001025,32 38,31.1045695 38,30 C38,28.8877296 37.1084896,28 36.0087557,28 L11.9912443,28 C10.8998975,28 10,28.8954305 10,30 C10,31.1122704 10.8915104,32 11.9912443,32 L12,32 Z M16,32 L32,32 L32,40 L16,40 L16,32 Z M12,26 C13.1045695,26 14,25.1045695 14,24 C14,22.8954305 13.1045695,22 12,22 C10.8954305,22 10,22.8954305 10,24 C10,25.1045695 10.8954305,26 12,26 Z M17,8 L32,8 L32,16 L17,16 L17,8 Z" id="Combined-Shape"></path>
                </g>
            </g>
        </g>
    </g>
</svg>