<?xml version="1.0" encoding="UTF-8"?>
<svg width="48px" height="48px" viewBox="0 0 48 48" version="1.1" xmlns="http://www.w3.org/2000/svg" xmlns:xlink="http://www.w3.org/1999/xlink">
    <!-- Generator: Sketch 40.1 (33804) - http://www.bohemiancoding.com/sketch -->
    <title>theicons.co/svg/tech-30</title>
    <desc>Created with Sketch.</desc>
    <defs></defs>
    <g id="The-Icons" stroke="none" stroke-width="1" fill="none" fill-rule="evenodd">
        <g id="v-1.0" transform="translate(-1136.000000, -736.000000)" fill="#4D4D4D">
            <g id="Tech" transform="translate(96.000000, 656.000000)">
                <g id="USB-cable" transform="translate(1040.000000, 80.000000)">
                    <path d="M6.99961498,34 C5.89525812,34 5,33.1029399 5,31.9941413 L5,22.0058587 C5,20.8980535 5.88743329,20 6.99961498,20 L8,20 L8,13.0027555 C8,8.03321553 12.0347581,4 17,4 C21.9733552,4 26,8.02478027 26,13.0027555 L26,24 L22,24 L22,13.0027555 C22,10.2343341 19.7646308,8 17,8 C14.2435547,8 12,10.242697 12,13.0027555 L12,20 L13.000385,20 C14.1047419,20 15,20.8970601 15,22.0058587 L15,31.9941413 C15,33.1019465 14.1125667,34 13.000385,34 L13,36.0018986 C13,37.1054196 12.1017394,38 11.0020869,38 L8.99791312,38 C7.89449617,38 7,37.1132936 7,36.0018986 L7,34 Z M36,26 L34.0085302,26 C32.8992496,26 32,25.0980496 32,23.9914698 L32,16.0085302 C32,14.9021013 32.8973189,14.0046249 34,14.0000178 L34,11.9981014 C34,10.8945804 34.8867064,10 35.9981014,10 L40.0018986,10 C41.1054196,10 42,10.8867064 42,11.9981014 L42,14.0000161 C43.1053568,14.0046275 44,14.9047882 44,16.0085302 L44,23.9914698 C44,25.1007504 43.0980496,26 41.9914698,26 L40,26 L40,34.9972445 C40,39.9667845 35.9652419,44 31,44 C26.0266448,44 22,39.9752197 22,34.9972445 L22,24 L26,24 L26,34.9972445 C26,37.7656659 28.2353692,40 31,40 C33.7564453,40 36,37.757303 36,34.9972445 L36,26 Z M36,18 L40,18 L40,22 L36,22 L36,18 Z M9,24 L11,24 L11,30 L9,30 L9,24 Z" id="Combined-Shape"></path>
                </g>
            </g>
        </g>
    </g>
</svg>