<?xml version="1.0" encoding="UTF-8"?>
<svg width="48px" height="48px" viewBox="0 0 48 48" version="1.1" xmlns="http://www.w3.org/2000/svg" xmlns:xlink="http://www.w3.org/1999/xlink">
    <!-- Generator: Sketch 40.1 (33804) - http://www.bohemiancoding.com/sketch -->
    <title>theicons.co/svg/tech-20</title>
    <desc>Created with Sketch.</desc>
    <defs></defs>
    <g id="The-Icons" stroke="none" stroke-width="1" fill="none" fill-rule="evenodd">
        <g id="v-1.0" transform="translate(-336.000000, -736.000000)" fill="#4D4D4D">
            <g id="Tech" transform="translate(96.000000, 656.000000)">
                <g id="Speaker" transform="translate(240.000000, 80.000000)">
                    <path d="M9,6.00180999 C9,3.79167136 10.7890275,2 13.0042577,2 L36.9957423,2 C39.2072328,2 41,3.79309123 41,6.00180999 L41,41.99819 C41,44.2083286 39.2109725,46 36.9957423,46 L13.0042577,46 C10.7927672,46 9,44.2069088 9,41.99819 L9,6.00180999 Z M13,6 L37,6 L37,42 L13,42 L13,6 Z M25,40 C19.4771525,40 15,35.5228475 15,30 C15,24.4771525 19.4771525,20 25,20 C30.5228475,20 35,24.4771525 35,30 C35,35.5228475 30.5228475,40 25,40 Z M25,36 C28.3137085,36 31,33.3137085 31,30 C31,26.6862915 28.3137085,24 25,24 C21.6862915,24 19,26.6862915 19,30 C19,33.3137085 21.6862915,36 25,36 Z M25,18 C27.209139,18 29,16.209139 29,14 C29,11.790861 27.209139,10 25,10 C22.790861,10 21,11.790861 21,14 C21,16.209139 22.790861,18 25,18 Z M25,33 C26.6568542,33 28,31.6568542 28,30 C28,28.3431458 26.6568542,27 25,27 C23.3431458,27 22,28.3431458 22,30 C22,31.6568542 23.3431458,33 25,33 Z" id="Rectangle-756"></path>
                </g>
            </g>
        </g>
    </g>
</svg>