<?xml version="1.0" encoding="UTF-8"?>
<svg width="48px" height="48px" viewBox="0 0 48 48" version="1.1" xmlns="http://www.w3.org/2000/svg" xmlns:xlink="http://www.w3.org/1999/xlink">
    <!-- Generator: Sketch 40.1 (33804) - http://www.bohemiancoding.com/sketch -->
    <title>theicons.co/svg/tech-32</title>
    <desc>Created with Sketch.</desc>
    <defs></defs>
    <g id="The-Icons" stroke="none" stroke-width="1" fill="none" fill-rule="evenodd">
        <g id="v-1.0" transform="translate(-1296.000000, -736.000000)" fill="#4D4D4D">
            <g id="Tech" transform="translate(96.000000, 656.000000)">
                <g id="Battery" transform="translate(1200.000000, 80.000000)">
                    <path d="M27,17 L27,15.999615 C27,14.8874333 26.1045695,14 25,14 C23.8877296,14 23,14.8952581 23,15.999615 L23,17 L21.999615,17 C20.8874333,17 20,17.8954305 20,19 C20,20.1122704 20.8952581,21 21.999615,21 L23,21 L23,22.000385 C23,23.1125667 23.8954305,24 25,24 C26.1122704,24 27,23.1047419 27,22.000385 L27,21 L28.000385,21 C29.1125667,21 30,20.1045695 30,19 C30,17.8877296 29.1047419,17 28.000385,17 L27,17 Z M30,8 L30,5.99791312 C30,4.89826062 29.1047419,4 28.000385,4 L21.999615,4 C20.8874333,4 20,4.89449617 20,5.99791312 L20,8 L18.0000255,8 C15.7964248,8 14,9.78944571 14,11.9968389 L14,40.0031611 C14,42.2058797 15.7908724,44 18.0000255,44 L31.9999745,44 C34.2035752,44 36,42.2105543 36,40.0031611 L36,11.9968389 C36,9.79412025 34.2091276,8 31.9999745,8 L30,8 Z M18,40 C18,39.9932863 31.9999888,39.9955753 31.9999888,39.9955753 C31.9990918,39.9955753 32,11.9968389 32,11.9968389 C32,12.0035526 18.0000112,12.0012636 18.0000112,12.0012636 C18.0009082,12.0012636 18,40 18,40 Z M20,34 C20,32.8954305 20.8874333,32 21.999615,32 L28.000385,32 C29.1047419,32 30,32.8877296 30,34 C30,35.1045695 29.1125667,36 28.000385,36 L21.999615,36 C20.8952581,36 20,35.1122704 20,34 Z" id="Rectangle-892"></path>
                </g>
            </g>
        </g>
    </g>
</svg>