<?xml version="1.0" encoding="UTF-8"?>
<svg width="48px" height="48px" viewBox="0 0 48 48" version="1.1" xmlns="http://www.w3.org/2000/svg" xmlns:xlink="http://www.w3.org/1999/xlink">
    <!-- Generator: Sketch 40.1 (33804) - http://www.bohemiancoding.com/sketch -->
    <title>theicons.co/svg/tech-24</title>
    <desc>Created with Sketch.</desc>
    <defs></defs>
    <g id="The-Icons" stroke="none" stroke-width="1" fill="none" fill-rule="evenodd">
        <g id="v-1.0" transform="translate(-656.000000, -736.000000)" fill="#4D4D4D">
            <g id="Tech" transform="translate(96.000000, 656.000000)">
                <g id="Projector" transform="translate(560.000000, 80.000000)">
                    <path d="M9,19.6585886 L9,24 L6.99124431,24 C5.89989752,24 5,24.8913093 5,25.9907951 L5,42.0092049 C5,43.1017876 5.89151044,44 6.99124431,44 L31.0087557,44 C32.1001025,44 33,43.1086907 33,42.0092049 L33,40 L37,40 L41.4211798,42.2105899 C43.400308,43.200154 45,42.2094838 45,40.00077 L45,27.99923 C45,25.7924676 43.3977076,24.8011462 41.4211798,25.7894101 L37,28 L33,28 L33,26 L33,23.7999638 C37.5644806,22.8734231 41,18.8379158 41,14 C41,8.4771525 36.5228475,4 31,4 C29.801511,4 28.6522653,4.21083558 27.5873293,4.5974403 L10.3879195,8.03083686 C7.36171878,8.33745773 5,10.8929244 5,14 C5,16.6124377 6.66961525,18.8349158 9,19.6585886 Z M16.3536489,16.7118073 L21.867692,18.0805169 C21.3100786,16.8344631 21,15.4534429 21,14 C21,12.5030726 21.3289101,11.0829663 21.9184035,9.80800795 L16.1711822,10.9552851 C16.6978369,11.847835 17,12.8886305 17,14 C17,14.9758799 16.7670207,15.8973446 16.3536489,16.7118073 Z M29,23.9723033 L13,20.0007431 L13,24 L29,24 L29,23.9723033 Z M33,19.6585886 C35.3303847,18.8349158 37,16.6124377 37,14 C37,10.6862915 34.3137085,8 31,8 C27.6862915,8 25,10.6862915 25,14 C25,16.6124377 26.6696153,18.8349158 29,19.6585886 L29,13.9974219 C29,12.8942762 29.8877296,12 31,12 C32.1045695,12 33,12.8909254 33,13.9974219 L33,19.6585886 Z M33,36 L33,32 L37,32 L37,36 L33,36 Z M8.99124431,40 L28.9912443,40 L28.9912443,28 L8.99124431,28 L8.99124431,40 Z M11,16 C12.1045695,16 13,15.1045695 13,14 C13,12.8954305 12.1045695,12 11,12 C9.8954305,12 9,12.8954305 9,14 C9,15.1045695 9.8954305,16 11,16 Z M19,37 C20.6568542,37 22,35.6568542 22,34 C22,32.3431458 20.6568542,31 19,31 C17.3431458,31 16,32.3431458 16,34 C16,35.6568542 17.3431458,37 19,37 Z" id="Rectangle-845"></path>
                </g>
            </g>
        </g>
    </g>
</svg>