<?xml version="1.0" encoding="UTF-8"?>
<svg width="48px" height="48px" viewBox="0 0 48 48" version="1.1" xmlns="http://www.w3.org/2000/svg" xmlns:xlink="http://www.w3.org/1999/xlink">
    <!-- Generator: Sketch 40.1 (33804) - http://www.bohemiancoding.com/sketch -->
    <title>theicons.co/svg/tech-22</title>
    <desc>Created with Sketch.</desc>
    <defs></defs>
    <g id="The-Icons" stroke="none" stroke-width="1" fill="none" fill-rule="evenodd">
        <g id="v-1.1" transform="translate(-496.000000, -736.000000)" fill="#4D4D4D">
            <g id="Tech" transform="translate(96.000000, 656.000000)">
                <g id="Piano" transform="translate(400.000000, 80.000000)">
                    <path d="M32,28 L31.9981014,28 C30.8945804,28 30,27.1017876 30,26.0092049 L30,10 L28,10 L28,26.0092049 C28,27.1086907 27.1132936,28 26.0018986,28 L26,28 L26,38 L32,38 L32,28 Z M36,28 L36.0018986,28 C37.1132936,28 38,27.1086907 38,26.0092049 L38,10 L42,10 L42,38 L36,38 L36,28 Z M22,28 L21.9981014,28 C20.8945804,28 20,27.1017876 20,26.0092049 L20,10 L18,10 L18,26.0092049 C18,27.1086907 17.1132936,28 16.0018986,28 L16,28 L16,38 L22,38 L22,28 Z M12,28 L11.9981014,28 C10.8945804,28 10,27.1017876 10,26.0092049 L10,10 L6,10 L6,38 L12,38 L12,28 Z M2,9.99017859 C2,7.7864638 3.79309123,6 6.00180999,6 L41.99819,6 C44.2083286,6 46,7.7852456 46,9.99017859 L46,38.0098214 C46,40.2135362 44.2069088,42 41.99819,42 L6.00180999,42 C3.79167136,42 2,40.2147544 2,38.0098214 L2,9.99017859 Z" id="Combined-Shape"></path>
                </g>
            </g>
        </g>
    </g>
</svg>