<?xml version="1.0" encoding="UTF-8"?>
<svg width="48px" height="48px" viewBox="0 0 48 48" version="1.1" xmlns="http://www.w3.org/2000/svg" xmlns:xlink="http://www.w3.org/1999/xlink">
    <!-- Generator: Sketch 40.1 (33804) - http://www.bohemiancoding.com/sketch -->
    <title>theicons.co/svg/tech-21</title>
    <desc>Created with Sketch.</desc>
    <defs></defs>
    <g id="The-Icons" stroke="none" stroke-width="1" fill="none" fill-rule="evenodd">
        <g id="v-1.0" transform="translate(-416.000000, -736.000000)" fill="#4D4D4D">
            <g id="Tech" transform="translate(96.000000, 656.000000)">
                <g id="Mic" transform="translate(320.000000, 80.000000)">
                    <path d="M20.6005849,19.839461 L19.3972162,32.014863 L18.6214053,32.0148623 L17.4039874,19.8405488 C17.9197271,19.945188 18.4534633,20.0001311 19,20.0001311 C19.547943,20.0001311 20.0832446,19.9448183 20.6005849,19.839461 Z M24.8552119,17.4480185 L23.1990787,34.0095328 C23.1008686,34.9916446 22.3117903,35.8076565 21.3523422,35.9707022 C21.4725734,36.3546991 21.6232075,36.7293104 21.8066896,37.0851707 C22.7364453,38.8884155 24.3262469,39.9440487 26.9586575,40.0008207 C29.7134498,39.9438644 31.3075119,38.8895049 32.2236764,37.0930754 C32.5601526,36.4333076 32.7814411,35.7075064 32.9037055,34.9756101 C32.978021,34.5307449 33.0011973,34.1901733 33.0000703,34.0167475 C33.0020491,33.6372516 33.0431481,33.0940825 33.1574864,32.4171244 C33.3462993,31.2992281 33.6820256,30.1780074 34.2097511,29.1123757 C35.7913451,25.9186757 38.7256406,23.955368 43.0209311,24.0003281 C44.12544,24.0118893 45.0114492,24.9166528 44.9998881,26.0211738 C44.988327,27.1256949 44.0835735,28.0117139 42.9790646,28.0001527 C40.2844095,27.9719469 38.7196791,29.0188924 37.7942748,30.8875538 C37.4552811,31.5720809 37.2295265,32.3260305 37.1016228,33.0833043 C37.0259312,33.5314483 37.0008172,33.8633586 36.9998333,33.9746455 C37.0025191,34.3806014 36.9640165,34.9463876 36.8490332,35.6346978 C36.6635576,36.7449878 36.3249258,37.8556614 35.7870216,38.9103924 C34.2175502,41.9878364 31.3087854,43.9117789 26.958189,44 C22.730244,43.9115947 19.8346721,41.9889259 18.2514513,38.9182971 C17.765708,37.9762065 17.4373239,36.9899608 17.2339247,36.0003497 L16.9981009,36.0003497 C15.8945801,36.0003497 14.9114816,35.1151589 14.8009202,34.0095328 L13.1447782,17.4479301 C11.8140801,16.0183053 11,14.1022441 11,12.0001311 C11,7.58185312 14.5907123,4.00013112 19,4.00013112 C23.418278,4.00013112 27,7.59084343 27,12.0001311 C27,14.1048439 26.1851827,16.0197224 24.8552119,17.4480185 Z M22.9999992,12.0000874 C21.0749505,12.0000874 17.608398,12.0000874 14.9999997,12.0000874 C14.9999997,9.79092427 16.7908606,8.0000437 18.9999995,8.0000437 C21.2091383,8.0000437 22.9999992,9.79092427 22.9999992,12.0000874 Z" id="Path"></path>
                </g>
            </g>
        </g>
    </g>
</svg>