<?xml version="1.0" encoding="UTF-8"?>
<svg width="48px" height="48px" viewBox="0 0 48 48" version="1.1" xmlns="http://www.w3.org/2000/svg" xmlns:xlink="http://www.w3.org/1999/xlink">
    <!-- Generator: Sketch 40.1 (33804) - http://www.bohemiancoding.com/sketch -->
    <title>theicons.co/svg/tech-12</title>
    <desc>Created with Sketch.</desc>
    <defs></defs>
    <g id="The-Icons" stroke="none" stroke-width="1" fill="none" fill-rule="evenodd">
        <g id="v-1.0" transform="translate(-976.000000, -656.000000)" fill="#4D4D4D">
            <g id="Tech" transform="translate(96.000000, 656.000000)">
                <g id="Hotspot" transform="translate(880.000000, 0.000000)">
                    <path d="M36,24 L39.9999745,24 C42.2091276,24 44,25.7888304 44,27.9962027 L44,36.0037973 C44,38.2108391 42.2035752,40 39.9999745,40 L38,40 C38,42.209139 36.209139,44 34,44 C31.790861,44 30,42.209139 30,40 L18,40 C18,42.209139 16.209139,44 14,44 C11.790861,44 10,42.209139 10,40 L8.00002553,40 C5.79087243,40 4,38.2111696 4,36.0037973 L4,27.9962027 C4,25.7891609 5.79642476,24 8.00002553,24 L32,24 L32,13.2361065 C31.3862506,12.686786 31,11.8884998 31,11 C31,9.34314575 32.3431458,8 34,8 C35.6568542,8 37,9.34314575 37,11 C37,11.8884998 36.6137494,12.686786 36,13.2361065 L36,24 Z M8,28 L40,28 L40,36 L8,36 L8,28 Z M12,32 C12,30.8954305 12.9019504,30 14.0085302,30 L21.9914698,30 C23.1007504,30 24,30.8877296 24,32 C24,33.1045695 23.0980496,34 21.9914698,34 L14.0085302,34 C12.8992496,34 12,33.1122704 12,32 Z M42.6488934,16.0222437 C43.5291057,14.5090292 44,12.7865088 44,11 C44,9.24141878 43.543733,7.5445777 42.689366,6.04798867 C42.1417456,5.08872559 40.9201751,4.75502328 39.9609121,5.30264371 C39.001649,5.85026413 38.6679467,7.07183457 39.2155671,8.03109764 C39.7273363,8.92756035 40,9.94158718 40,11 C40,12.0751628 39.7186055,13.1044976 39.1912981,14.0110166 C38.635913,14.9658051 38.9596936,16.1900427 39.9144821,16.7454278 C40.8692707,17.3008128 42.0935083,16.9770323 42.6488934,16.0222437 Z M25.3248938,6.02309299 C24.461417,7.52560115 24,9.2315354 24,11 C24,12.8254109 24.4916564,14.5836229 25.4084013,16.1194743 C25.974532,17.0679309 27.2023476,17.3778672 28.1508041,16.8117365 C29.0992606,16.2456058 29.4091969,15.0177902 28.8430662,14.0693337 C28.2937887,13.1491118 28,12.0984943 28,11 C28,9.93565941 28.2757376,8.91621242 28.7929831,8.01617012 C29.3433562,7.0584837 29.0131634,5.83595995 28.055477,5.28558689 C27.0977906,4.73521384 25.8752668,5.06540657 25.3248938,6.02309299 Z M17.3248938,6.02309299 C16.461417,7.52560115 16,9.2315354 16,11 C16,12.8254109 16.4916564,14.5836229 17.4084013,16.1194743 C17.974532,17.0679309 19.2023476,17.3778672 20.1508041,16.8117365 C21.0992606,16.2456058 21.4091969,15.0177902 20.8430662,14.0693337 C20.2937887,13.1491118 20,12.0984943 20,11 C20,9.93565941 20.2757376,8.91621242 20.7929831,8.01617012 C21.3433562,7.0584837 21.0131634,5.83595995 20.055477,5.28558689 C19.0977906,4.73521384 17.8752668,5.06540657 17.3248938,6.02309299 Z" id="Combined-Shape"></path>
                </g>
            </g>
        </g>
    </g>
</svg>