<?xml version="1.0" encoding="UTF-8"?>
<svg width="48px" height="48px" viewBox="0 0 48 48" version="1.1" xmlns="http://www.w3.org/2000/svg" xmlns:xlink="http://www.w3.org/1999/xlink">
    <!-- Generator: Sketch 40.1 (33804) - http://www.bohemiancoding.com/sketch -->
    <title>theicons.co/svg/tech-17</title>
    <desc>Created with Sketch.</desc>
    <defs></defs>
    <g id="The-Icons" stroke="none" stroke-width="1" fill="none" fill-rule="evenodd">
        <g id="v-1.0" transform="translate(-96.000000, -736.000000)" fill="#4D4D4D">
            <g id="Tech" transform="translate(96.000000, 656.000000)">
                <g id="Old-TV" transform="translate(0.000000, 80.000000)">
                    <path d="M40.002837,35.999999 C42.2051308,35.9984501 44,34.2095984 44,32.0031611 L44,11.9968389 C44,9.79412025 42.2091276,8 39.9999745,8 L23.5480341,8 L25.2961364,6.53470568 C26.1426523,5.82513915 26.2536716,4.56368512 25.5441051,3.71716926 C24.8345386,2.87065339 23.5730845,2.75963403 22.7265687,3.46920057 L18.0310031,7.42514025 L13.3011773,3.468004 C12.4540006,2.7592266 11.1926505,2.8714214 10.4838731,3.71859811 C9.77509574,4.56577481 9.88729054,5.82712484 10.7344672,6.53590225 L12.4844518,8 L8.00002553,8 C5.79642476,8 4,9.78944571 4,11.9968389 L4,32.0031611 C4,34.2058713 5.79085863,35.9999862 8,36 L8,41.9914698 C8,43.0980496 8.89312465,44 9.99484974,44 L14.6061024,44 C15.7128944,44 16.9852229,43.19567 17.459245,42.2034788 L20.4229736,36 L27.5798634,36 L30.543592,42.2034788 C31.0176141,43.19567 32.2899426,44 33.3967346,44 L38.0079873,44 C39.1097124,44 40.002837,43.0980496 40.002837,41.9914698 L40.002837,35.9999991 Z M32,12 L40,12 L40,32 L32,32 L32,12 Z M8,15.99923 C8,13.7905162 9.79246765,12 11.99923,12 L24.00077,12 C26.2094838,12 28,13.7924676 28,15.99923 L28,28.00077 C28,30.2094838 26.2075324,32 24.00077,32 L11.99923,32 C9.79051625,32 8,30.2075324 8,28.00077 L8,15.99923 Z M36,18 C37.1045695,18 38,17.1045695 38,16 C38,14.8954305 37.1045695,14 36,14 C34.8954305,14 34,14.8954305 34,16 C34,17.1045695 34.8954305,18 36,18 Z M36,24 C37.1045695,24 38,23.1045695 38,22 C38,20.8954305 37.1045695,20 36,20 C34.8954305,20 34,20.8954305 34,22 C34,23.1045695 34.8954305,24 36,24 Z M12.0057329,40.0077903 L14.0727835,40.0157981 L16.0036621,36 L12.0057329,36 L12.0057329,40.0077903 Z M36.0036621,40.0077903 L33.9366115,40.0157981 L32.0057329,36 L36.0036621,36 L36.0036621,40.0077903 Z" id="Rectangle-860"></path>
                </g>
            </g>
        </g>
    </g>
</svg>