<?xml version="1.0" encoding="UTF-8"?>
<svg width="48px" height="48px" viewBox="0 0 48 48" version="1.1" xmlns="http://www.w3.org/2000/svg" xmlns:xlink="http://www.w3.org/1999/xlink">
    <!-- Generator: Sketch 40.1 (33804) - http://www.bohemiancoding.com/sketch -->
    <title>theicons.co/svg/tech-09</title>
    <desc>Created with Sketch.</desc>
    <defs></defs>
    <g id="The-Icons" stroke="none" stroke-width="1" fill="none" fill-rule="evenodd">
        <g id="v-1.0" transform="translate(-736.000000, -656.000000)" fill="#4D4D4D">
            <g id="Tech" transform="translate(96.000000, 656.000000)">
                <g id="Mouse" transform="translate(640.000000, 0.000000)">
                    <path d="M12,26 L8,26 L8,30 L20,30 L20,26 L16,26 L16,20 L12,20 L12,26 Z M12.1373434,16 C12.9587899,8.97654095 17.2844509,2.92552772 24.0221412,3.00012256 C31.3588221,3.081349 36.0393066,10.5158276 36.0393066,17.9748535 C36.0393066,21.2002606 37.2138804,23.9554897 42.0185629,24.0000861 C43.1230849,24.0103382 44.0101659,24.914041 43.9999139,26.0185629 C43.9896618,27.1230849 43.085959,28.0101659 41.9814371,27.9999139 C35.2551816,27.9374817 32.0393066,23.8697337 32.0393066,17.9748535 C32.0393066,12.4354496 28.6498268,7.05160209 23.9778588,6.99987744 C19.9026394,6.95475955 16.916037,10.9892928 16.1738705,16 L18.0037973,16 C21.3152877,16 24,18.6795997 24,21.990053 L24,34.0083475 C24,39.5243011 19.5161482,44 14,44 C8.47826174,44 4,39.5256024 4,34.0083475 L4,21.990053 C4,18.6810596 6.68503841,16 9.99620271,16 L12.1373434,16 Z M8,21.990053 C8,20.8915276 8.89285063,20 9.99620271,20 L18.0037973,20 C19.1078537,20 20,20.8904473 20,21.990053 L20,34.0083475 C20,37.3135308 17.3086372,40 14,40 C10.6866281,40 8,37.31569 8,34.0083475 L8,21.990053 Z" id="Combined-Shape"></path>
                </g>
            </g>
        </g>
    </g>
</svg>