<?xml version="1.0" encoding="UTF-8"?>
<svg width="48px" height="48px" viewBox="0 0 48 48" version="1.1" xmlns="http://www.w3.org/2000/svg" xmlns:xlink="http://www.w3.org/1999/xlink">
    <!-- Generator: Sketch 41.2 (35397) - http://www.bohemiancoding.com/sketch -->
    <title>theicons.co/svg/tech-35</title>
    <desc>Created with Sketch.</desc>
    <defs></defs>
    <g id="The-Icons" stroke="none" stroke-width="1" fill="none" fill-rule="evenodd">
        <g id="v-1.4" transform="translate(-1728.000000, -768.000000)" fill="#4D4D4D">
            <g id="Tech" transform="translate(96.000000, 768.000000)">
                <g id="Sim" transform="translate(1632.000000, 0.000000)">
                    <path d="M30,31 L30,34 L26,34 L26,31 L30,31 Z M30,27 L30,24 L26,24 L26,27 L30,27 Z M18,31 L18,34 L22,34 L22,31 L18,31 Z M18,27 L18,24 L22,24 L22,27 L18,27 Z M8,7.00041944 L8,40.9995806 C8,42.6479435 9.34007988,44 10.9965348,44 L37.0034652,44 C38.6676532,44 40,42.6525134 40,40.9965779 L40,15.9968262 C40,15.4662832 39.7891992,14.9574792 39.4139891,14.5823882 L29.4139891,4.585562 C29.0389346,4.21062654 28.530323,4 28,4 L10.9933977,4 C9.33720513,4 8,5.34648198 8,7.00041944 Z M27.1717588,8 L36,16.8254393 L36,40 L12,40 L12,8 L27.1717588,8 Z M14,23.0068455 L14,34.9931545 C14,36.6519319 15.3408344,38 17.0008717,38 L30.9991283,38 C32.662495,38 34,36.6512777 34,34.9931545 L34,23.0068455 C34,21.3480681 32.6591656,20 30.9991283,20 L17.0008717,20 C15.337505,20 14,21.3487223 14,23.0068455 Z" id="Combined-Shape"></path>
                </g>
            </g>
        </g>
    </g>
</svg>