<?xml version="1.0" encoding="UTF-8"?>
<svg width="48px" height="48px" viewBox="0 0 48 48" version="1.1" xmlns="http://www.w3.org/2000/svg" xmlns:xlink="http://www.w3.org/1999/xlink">
    <!-- Generator: Sketch 40.3 (33839) - http://www.bohemiancoding.com/sketch -->
    <title>theicons.co/svg/tech-34</title>
    <desc>Created with Sketch.</desc>
    <defs></defs>
    <g id="Page-1" stroke="none" stroke-width="1" fill="none" fill-rule="evenodd">
        <path d="M18.1095363,12.1343631 C18.390874,12.0470365 18.689944,12 19,12 C20.6568542,12 22,13.3431458 22,15 C22,16.6568542 20.6568542,18 19,18 C17.5363956,18 16.3175877,16.9519019 16.0531834,15.565313 L2.97090996,7.71492673 C2.02378208,7.146576 1.71672253,5.91803785 2.28507327,4.97090996 C2.853424,4.02378208 4.08196215,3.71672253 5.02909004,4.28507327 L18.1095363,12.1343631 Z M31.9470686,15.5639897 C31.6831877,16.951235 30.4640699,18 29,18 C27.3431458,18 26,16.6568542 26,15 C26,13.3431458 27.3431458,12 29,12 C29.309583,12 29.6082135,12.0468931 29.8891761,12.1339637 L42.9689568,4.28507327 C43.9160847,3.71672253 45.1446229,4.02378208 45.7129736,4.97090996 C46.2813243,5.91803785 45.9742648,7.146576 45.0271369,7.71492673 L31.9470686,15.5639897 Z M6,26 L6,40 L5.99729162,40 C4.89153983,40 4,40.8954305 4,42 C4,43.1122704 4.89421792,44 5.99729162,44 L42.0027084,44 C43.1084602,44 44,43.1045695 44,42 C44,40.8877296 43.1057821,40 42.0027084,40 L42,40 L42,26 C43.1084602,26 44,25.1045695 44,24 C44,22.8877296 43.1057821,22 42.0027084,22 L5.99729162,22 C4.89153983,22 4,22.8954305 4,24 C4,25.1122704 4.89421792,26 5.99729162,26 Z M11.0843625,26 L16,37 L20.9156375,26 L11.0843625,26 Z M27.0843625,26 L32,37 L36.9156375,26 L27.0843625,26 Z M38,40 L35.077524,40 L38,33.4244289 L38,40 Z M10,40 L12.922476,40 L10,33.4244289 L10,40 Z M19.0843625,40 L28.9156375,40 L24,29 L19.0843625,40 Z" id="Combined-Shape" fill="#4D4D4D"></path>
    </g>
</svg>