<?xml version="1.0" encoding="UTF-8"?>
<svg width="48px" height="48px" viewBox="0 0 48 48" version="1.1" xmlns="http://www.w3.org/2000/svg" xmlns:xlink="http://www.w3.org/1999/xlink">
    <!-- Generator: Sketch 40.1 (33804) - http://www.bohemiancoding.com/sketch -->
    <title>theicons.co/svg/tech-07</title>
    <desc>Created with Sketch.</desc>
    <defs></defs>
    <g id="The-Icons" stroke="none" stroke-width="1" fill="none" fill-rule="evenodd">
        <g id="v-1.0" transform="translate(-576.000000, -656.000000)" fill="#4D4D4D">
            <g id="Tech" transform="translate(96.000000, 656.000000)">
                <g id="iPhone" transform="translate(480.000000, 0.000000)">
                    <path d="M26,40 L32,40 L32,36 L16,36 L16,40 L22,40 L22,39.9979131 C22,38.8944962 22.8877296,38 24,38 C25.1045695,38 26,38.8982606 26,39.9979131 L26,40 Z M32,16 L32,32 L16,32 L16,16 L32,16 Z M32,12 L32,8 L16,8 L16,12 L32,12 Z M14.0049466,4 L33.9950534,4 C35.1023548,4 36,4.89153983 36,5.99729162 L36,42.0027084 C36,43.1057821 35.1029738,44 33.9950534,44 L14.0049466,44 C12.8976452,44 12,43.1084602 12,42.0027084 L12,5.99729162 C12,4.89421792 12.8970262,4 14.0049466,4 Z" id="Combined-Shape"></path>
                </g>
            </g>
        </g>
    </g>
</svg>