<?xml version="1.0" encoding="UTF-8"?>
<svg width="48px" height="48px" viewBox="0 0 48 48" version="1.1" xmlns="http://www.w3.org/2000/svg" xmlns:xlink="http://www.w3.org/1999/xlink">
    <!-- Generator: Sketch 40.1 (33804) - http://www.bohemiancoding.com/sketch -->
    <title>theicons.co/svg/tech-26</title>
    <desc>Created with Sketch.</desc>
    <defs></defs>
    <g id="The-Icons" stroke="none" stroke-width="1" fill="none" fill-rule="evenodd">
        <g id="v-1.0" transform="translate(-816.000000, -736.000000)" fill="#4D4D4D">
            <g id="Tech" transform="translate(96.000000, 656.000000)">
                <g id="Stopwatch" transform="translate(720.000000, 80.000000)">
                    <path d="M23,12.1237875 C15.1073768,13.1079837 9,19.8407647 9,28 C9,36.836556 16.163444,44 25,44 C33.836556,44 41,36.836556 41,28 C41,24.6658883 39.9801974,21.5699642 38.2355026,19.0071381 L40.5368765,16.7057642 C41.3227514,15.9198893 41.3172432,14.6603889 40.5370096,13.8801553 L39.1198447,12.4629904 C38.342273,11.6854187 37.0745429,11.6828164 36.2942358,12.4631235 L33.9928619,14.7644974 C31.9506708,13.3742352 29.5699774,12.4442592 27,12.1237875 L27,10 L28.9914698,10 C30.0980496,10 31,9.10550383 31,8.00208688 L31,5.99791312 C31,4.89826062 30.1007504,4 28.9914698,4 L21.0085302,4 C19.9019504,4 19,4.89449617 19,5.99791312 L19,8.00208688 C19,9.10173938 19.8992496,10 21.0085302,10 L23,10 L23,12.1237875 Z M25,40 C18.372583,40 13,34.627417 13,28 C13,21.372583 18.372583,16 25,16 C31.627417,16 37,21.372583 37,28 C37,34.627417 31.627417,40 25,40 Z M23,20.0085302 C23,18.8992496 23.8877296,18 25,18 C26.1045695,18 27,18.9019504 27,20.0085302 L27,27.9914698 C27,29.1007504 26.1122704,30 25,30 C23.8954305,30 23,29.0980496 23,27.9914698 L23,20.0085302 Z" id="Shape"></path>
                </g>
            </g>
        </g>
    </g>
</svg>