<?xml version="1.0" encoding="UTF-8"?>
<svg width="48px" height="48px" viewBox="0 0 48 48" version="1.1" xmlns="http://www.w3.org/2000/svg" xmlns:xlink="http://www.w3.org/1999/xlink">
    <!-- Generator: Sketch 40.1 (33804) - http://www.bohemiancoding.com/sketch -->
    <title>theicons.co/svg/tech-19</title>
    <desc>Created with Sketch.</desc>
    <defs></defs>
    <g id="The-Icons" stroke="none" stroke-width="1" fill="none" fill-rule="evenodd">
        <g id="v-1.0" transform="translate(-256.000000, -736.000000)" fill="#4D4D4D">
            <g id="Tech" transform="translate(96.000000, 656.000000)">
                <g id="Sound-Mixer" transform="translate(160.000000, 80.000000)">
                    <path d="M34,26 L34,14.0049466 C34,12.8970262 33.1045695,12 32,12 C30.8877296,12 30,12.8976452 30,14.0049466 L30,26 L28.999615,26 C27.8874333,26 27,26.8944962 27,27.9979131 L27,30.0020869 C27,31.1017394 27.8952581,32 28.999615,32 L30,32 L30,33.9950534 C30,35.1029738 30.8954305,36 32,36 C33.1122704,36 34,35.1023548 34,33.9950534 L34,32 L35.000385,32 C36.1125667,32 37,31.1055038 37,30.0020869 L37,27.9979131 C37,26.8982606 36.1047419,26 35.000385,26 L34,26 Z M20,16 L20,14.0049466 C20,12.8970262 19.1045695,12 18,12 C16.8877296,12 16,12.8976452 16,14.0049466 L16,16 L14.999615,16 C13.8874333,16 13,16.8944962 13,17.9979131 L13,20.0020869 C13,21.1017394 13.8952581,22 14.999615,22 L16,22 L16,33.9950534 C16,35.1029738 16.8954305,36 18,36 C19.1122704,36 20,35.1023548 20,33.9950534 L20,22 L21.000385,22 C22.1125667,22 23,21.1055038 23,20.0020869 L23,17.9979131 C23,16.8982606 22.1047419,16 21.000385,16 L20,16 Z M5,8.00002553 C5,5.79087243 6.79642476,4 9.00002553,4 L40.9999745,4 C43.2091276,4 45,5.79642476 45,8.00002553 L45,39.9999745 C45,42.2091276 43.2035752,44 40.9999745,44 L9.00002553,44 C6.79087243,44 5,42.2035752 5,39.9999745 L5,8.00002553 Z M9,8 L41,8 L41,40 L9,40 L9,8 Z" id="Rectangle-750"></path>
                </g>
            </g>
        </g>
    </g>
</svg>