<?xml version="1.0" encoding="UTF-8"?>
<svg width="48px" height="48px" viewBox="0 0 48 48" version="1.1" xmlns="http://www.w3.org/2000/svg" xmlns:xlink="http://www.w3.org/1999/xlink">
    <!-- Generator: Sketch 40.1 (33804) - http://www.bohemiancoding.com/sketch -->
    <title>theicons.co/svg/tech-14</title>
    <desc>Created with Sketch.</desc>
    <defs></defs>
    <g id="The-Icons" stroke="none" stroke-width="1" fill="none" fill-rule="evenodd">
        <g id="v-1.0" transform="translate(-1136.000000, -656.000000)" fill="#4D4D4D">
            <g id="Tech" transform="translate(96.000000, 656.000000)">
                <g id="CD" transform="translate(1040.000000, 0.000000)">
                    <path d="M24,44 C35.045695,44 44,35.045695 44,24 C44,12.954305 35.045695,4 24,4 C12.954305,4 4,12.954305 4,24 C4,35.045695 12.954305,44 24,44 Z M24,40 C15.163444,40 8,32.836556 8,24 C8,15.163444 15.163444,8 24,8 C32.836556,8 40,15.163444 40,24 C40,32.836556 32.836556,40 24,40 Z M24,30 C27.3137085,30 30,27.3137085 30,24 C30,20.6862915 27.3137085,18 24,18 C20.6862915,18 18,20.6862915 18,24 C18,27.3137085 20.6862915,30 24,30 Z M24,26 C22.8954305,26 22,25.1045695 22,24 C22,22.8954305 22.8954305,22 24,22 C25.1045695,22 26,22.8954305 26,24 C26,25.1045695 25.1045695,26 24,26 Z M10.4684658,27.5676096 C11.4152583,31.1474402 13.7315229,34.2236867 17.0031589,36.1125666 C17.9597441,36.6648513 19.1829249,36.337101 19.7352097,35.3805158 C20.2874944,34.4239305 19.9597441,33.2007497 19.0031589,32.648465 C16.6636562,31.2977524 15.012603,29.1049778 14.335503,26.5448568 C14.0530776,25.477004 12.9584609,24.8402892 11.890608,25.1227146 C10.8227552,25.40514 10.1860404,26.4997567 10.4684658,27.5676096 Z M37.5576383,20.4844745 C36.6240154,16.8733863 34.2984797,13.7664096 31.0031589,11.8638553 C30.0465736,11.3115705 28.8233928,11.6393208 28.2711081,12.5959061 C27.7188233,13.5524913 28.0465736,14.7756721 29.0031589,15.3279569 C31.3595651,16.6884287 33.0172769,18.9031751 33.6849781,21.4857252 C33.9614658,22.5551308 35.052528,23.1979177 36.1219335,22.92143 C37.1913391,22.6449422 37.8341261,21.5538801 37.5576383,20.4844745 Z" id="Combined-Shape"></path>
                </g>
            </g>
        </g>
    </g>
</svg>