<?xml version="1.0" encoding="UTF-8"?>
<svg width="48px" height="48px" viewBox="0 0 48 48" version="1.1" xmlns="http://www.w3.org/2000/svg" xmlns:xlink="http://www.w3.org/1999/xlink">
    <!-- Generator: Sketch 40.1 (33804) - http://www.bohemiancoding.com/sketch -->
    <title>theicons.co/svg/tech-31</title>
    <desc>Created with Sketch.</desc>
    <defs></defs>
    <g id="The-Icons" stroke="none" stroke-width="1" fill="none" fill-rule="evenodd">
        <g id="v-1.0" transform="translate(-1216.000000, -736.000000)" fill="#4D4D4D">
            <g id="Tech" transform="translate(96.000000, 656.000000)">
                <g id="Car-Battery" transform="translate(1120.000000, 80.000000)">
                    <path d="M18,21 L18,19.999615 C18,18.8874333 17.1045695,18 16,18 C14.8877296,18 14,18.8952581 14,19.999615 L14,21 L12.999615,21 C11.8874333,21 11,21.8954305 11,23 C11,24.1122704 11.8952581,25 12.999615,25 L14,25 L14,26.000385 C14,27.1125667 14.8954305,28 16,28 C17.1122704,28 18,27.1047419 18,26.000385 L18,25 L19.000385,25 C20.1125667,25 21,24.1045695 21,23 C21,21.8877296 20.1047419,21 19.000385,21 L18,21 Z M21,12 L21,9.99791312 C21,8.89826062 20.1047419,8 19.000385,8 L12.999615,8 C11.8874333,8 11,8.89449617 11,9.99791312 L11,12 L9.00002553,12 C6.79642476,12 5,13.7894457 5,15.9968389 L5,36.0031611 C5,38.2058797 6.79087243,40 9.00002553,40 L40.9999745,40 C43.2035752,40 45,38.2105543 45,36.0031611 L45,15.9968389 C45,13.7941203 43.2091276,12 40.9999745,12 L39,12 L39,9.99791312 C39,8.89826062 38.1047419,8 37.000385,8 L30.999615,8 C29.8874333,8 29,8.89449617 29,9.99791312 L29,12 L21,12 Z M9,36.0031611 C9,35.9983647 40.9999745,36 40.9999745,36 C40.9979241,36 41,15.9968389 41,15.9968389 C41,16.0016353 9.00002553,16 9.00002553,16 C9.0020759,16 9,36.0031611 9,36.0031611 Z M29,23 C29,21.8954305 29.8874333,21 30.999615,21 L37.000385,21 C38.1047419,21 39,21.8877296 39,23 C39,24.1045695 38.1125667,25 37.000385,25 L30.999615,25 C29.8952581,25 29,24.1122704 29,23 Z" id="Rectangle-892"></path>
                </g>
            </g>
        </g>
    </g>
</svg>