<?xml version="1.0" encoding="UTF-8"?>
<svg width="48px" height="48px" viewBox="0 0 48 48" version="1.1" xmlns="http://www.w3.org/2000/svg" xmlns:xlink="http://www.w3.org/1999/xlink">
    <!-- Generator: Sketch 40.3 (33839) - http://www.bohemiancoding.com/sketch -->
    <title>theicons.co/svg/tech-33</title>
    <desc>Created with Sketch.</desc>
    <defs></defs>
    <g id="Page-1" stroke="none" stroke-width="1" fill="none" fill-rule="evenodd">
        <path d="M13.9968389,2 L34.0031611,2 C36.2105543,2 38,3.79309123 38,6.00180999 L38,41.99819 C38,44.2083286 36.2058797,46 34.0031611,46 L13.9968389,46 C11.7894457,46 10,44.2069088 10,41.99819 L10,6.00180999 C10,3.79167136 11.7941203,2 13.9968389,2 Z M14,41.99819 C14,41.9995915 34.0031611,42 34.0031611,42 C33.9979652,42 34,6.00180999 34,6.00180999 C34,6.00040851 13.9968389,6 13.9968389,6 C14.0020348,6 14,41.99819 14,41.99819 Z M22,11.9979131 C22,10.8944962 22.8877296,10 24,10 C25.1045695,10 26,10.8982606 26,11.9979131 L26,14.0020869 C26,15.1055038 25.1122704,16 24,16 C22.8954305,16 22,15.1017394 22,14.0020869 L22,11.9979131 Z M20.0020869,16 C21.1055038,16 22,16.8877296 22,18 C22,19.1045695 21.1017394,20 20.0020869,20 L17.9979131,20 C16.8944962,20 16,19.1122704 16,18 C16,16.8954305 16.8982606,16 17.9979131,16 L20.0020869,16 Z M30.0020869,16 C31.1055038,16 32,16.8877296 32,18 C32,19.1045695 31.1017394,20 30.0020869,20 L27.9979131,20 C26.8944962,20 26,19.1122704 26,18 C26,16.8954305 26.8982606,16 27.9979131,16 L30.0020869,16 Z M22,21.9979131 C22,20.8944962 22.8877296,20 24,20 C25.1045695,20 26,20.8982606 26,21.9979131 L26,24.0020869 C26,25.1055038 25.1122704,26 24,26 C22.8954305,26 22,25.1017394 22,24.0020869 L22,21.9979131 Z M16,31.0093689 C16,30.4519098 16.4433532,30 17.0093689,30 L18.9906311,30 C19.5480902,30 20,30.4433532 20,31.0093689 L20,32.9906311 C20,33.5480902 19.5566468,34 18.9906311,34 L17.0093689,34 C16.4519098,34 16,33.5566468 16,32.9906311 L16,31.0093689 Z M22,31.0093689 C22,30.4519098 22.4433532,30 23.0093689,30 L24.9906311,30 C25.5480902,30 26,30.4433532 26,31.0093689 L26,32.9906311 C26,33.5480902 25.5566468,34 24.9906311,34 L23.0093689,34 C22.4519098,34 22,33.5566468 22,32.9906311 L22,31.0093689 Z M28,31.0093689 C28,30.4519098 28.4433532,30 29.0093689,30 L30.9906311,30 C31.5480902,30 32,30.4433532 32,31.0093689 L32,32.9906311 C32,33.5480902 31.5566468,34 30.9906311,34 L29.0093689,34 C28.4519098,34 28,33.5566468 28,32.9906311 L28,31.0093689 Z M28,37.0093689 C28,36.4519098 28.4433532,36 29.0093689,36 L30.9906311,36 C31.5480902,36 32,36.4433532 32,37.0093689 L32,38.9906311 C32,39.5480902 31.5566468,40 30.9906311,40 L29.0093689,40 C28.4519098,40 28,39.5566468 28,38.9906311 L28,37.0093689 Z M22,37.0093689 C22,36.4519098 22.4433532,36 23.0093689,36 L24.9906311,36 C25.5480902,36 26,36.4433532 26,37.0093689 L26,38.9906311 C26,39.5480902 25.5566468,40 24.9906311,40 L23.0093689,40 C22.4519098,40 22,39.5566468 22,38.9906311 L22,37.0093689 Z M16,37.0093689 C16,36.4519098 16.4433532,36 17.0093689,36 L18.9906311,36 C19.5480902,36 20,36.4433532 20,37.0093689 L20,38.9906311 C20,39.5480902 19.5566468,40 18.9906311,40 L17.0093689,40 C16.4519098,40 16,39.5566468 16,38.9906311 L16,37.0093689 Z" id="Combined-Shape" fill="#4D4D4D"></path>
    </g>
</svg>