<?xml version="1.0" encoding="UTF-8"?>
<svg width="48px" height="48px" viewBox="0 0 48 48" version="1.1" xmlns="http://www.w3.org/2000/svg" xmlns:xlink="http://www.w3.org/1999/xlink">
    <!-- Generator: Sketch 40.1 (33804) - http://www.bohemiancoding.com/sketch -->
    <title>theicons.co/svg/tech-02</title>
    <desc>Created with Sketch.</desc>
    <defs></defs>
    <g id="The-Icons" stroke="none" stroke-width="1" fill="none" fill-rule="evenodd">
        <g id="v-1.0" transform="translate(-176.000000, -656.000000)" fill="#4D4D4D">
            <g id="Tech" transform="translate(96.000000, 656.000000)">
                <g id="Gamepad" transform="translate(80.000000, 0.000000)">
                    <path d="M24,8.00022688 C25.6751709,8.00022688 26.4167417,7.82465491 28.153221,7.17742415 C28.2206586,7.15227882 28.2206586,7.15227882 28.2888875,7.12683123 C30.480876,6.30947041 31.7837255,6 33.9372559,6 C39.1620693,6 43.958225,11.1358543 45.9421838,17.3957582 C47.4645117,22.1990972 47.8709531,25.2757739 47.9996259,32.038684 C47.8725374,38.6080558 45.0739966,41.9675668 39.9882258,41.9999653 C36.8403505,41.9814332 34.6639374,40.5667042 32.6523344,37.9968679 C32.3246825,37.5782903 31.3916924,36.2937421 31.3892808,36.2905254 C29.3187244,33.5287233 27.1779999,32.0217413 24.0062161,32.0000021 C20.822011,32.0217337 18.6812809,33.5287163 16.6107192,36.2905254 C16.6083076,36.2937421 15.6753175,37.5782903 15.3476656,37.9968679 C13.3360626,40.5667042 11.1596495,41.9814332 7.98720004,41.999959 C2.92600343,41.9675668 0.127462608,38.6080558 0.000370321776,31.9615143 C0.129046885,25.2757739 0.535488302,22.1990972 2.05781622,17.3957582 C4.04177503,11.1358543 8.83793072,6 14.0627441,6 C16.2162745,6 17.519124,6.30947041 19.7111125,7.12683123 C19.7793414,7.15227882 19.7793414,7.15227882 19.846779,7.17742415 C21.5832583,7.82465491 22.3248291,8.00022688 24,8.00022688 Z M23.9999383,12.0002044 C26.0039063,12.0002044 27.3991252,11.7273115 29.5502391,10.9255357 C29.6186983,10.9000095 29.6186983,10.9000095 29.686431,10.8747469 C31.4705768,10.2094648 32.3524093,10 33.9372559,10 C37.046378,10 40.6123759,13.8185678 42.1291053,18.6042418 C43.5201067,22.9932115 43.8784953,25.7061386 44.0003703,32.0384857 C43.9122964,36.5141705 42.6889404,37.9827495 39.9872,38.000041 C38.2990878,37.9899517 37.1336674,37.2323961 35.8021006,35.5313105 C35.5275092,35.1805182 34.630421,33.9453999 34.5897231,33.8911152 C31.84466,30.2296255 28.721872,28.0316318 23.98757,28.0000872 C19.2781053,28.0316478 16.15533,30.2296388 13.4102769,33.8911152 C13.369579,33.9453999 12.4724908,35.1805182 12.1978994,35.5313105 C10.8663326,37.2323961 9.70091222,37.9899517 7.98822582,38.0000347 C5.31105964,37.9827495 4.08770357,36.5141705 3.99962585,31.961316 C4.12150469,25.7061386 4.4798933,22.9932115 5.87089472,18.6042418 C7.38762406,13.8185678 10.953622,10 14.0627441,10 C15.6475907,10 16.5294232,10.2094648 18.313569,10.8747469 C18.3813017,10.9000095 18.3813017,10.9000095 18.4497609,10.9255357 C20.6008748,11.7273115 21.9959703,12.0002044 23.9999383,12.0002044 Z M34,19 C35.1045695,19 36,18.1045695 36,17 C36,15.8954305 35.1045695,15 34,15 C32.8954305,15 32,15.8954305 32,17 C32,18.1045695 32.8954305,19 34,19 Z M34,27 C35.1045695,27 36,26.1045695 36,25 C36,23.8954305 35.1045695,23 34,23 C32.8954305,23 32,23.8954305 32,25 C32,26.1045695 32.8954305,27 34,27 Z M38,23 C39.1045695,23 40,22.1045695 40,21 C40,19.8954305 39.1045695,19 38,19 C36.8954305,19 36,19.8954305 36,21 C36,22.1045695 36.8954305,23 38,23 Z M30,23 C31.1045695,23 32,22.1045695 32,21 C32,19.8954305 31.1045695,19 30,19 C28.8954305,19 28,19.8954305 28,21 C28,22.1045695 28.8954305,23 30,23 Z M14,27 C17.3137085,27 20,24.3137085 20,21 C20,17.6862915 17.3137085,15 14,15 C10.6862915,15 8,17.6862915 8,21 C8,24.3137085 10.6862915,27 14,27 Z M14,23 C15.1045695,23 16,22.1045695 16,21 C16,19.8954305 15.1045695,19 14,19 C12.8954305,19 12,19.8954305 12,21 C12,22.1045695 12.8954305,23 14,23 Z" id="Combined-Shape"></path>
                </g>
            </g>
        </g>
    </g>
</svg>