<?xml version="1.0" encoding="UTF-8"?>
<svg width="48px" height="48px" viewBox="0 0 48 48" version="1.1" xmlns="http://www.w3.org/2000/svg" xmlns:xlink="http://www.w3.org/1999/xlink">
    <!-- Generator: Sketch 40.1 (33804) - http://www.bohemiancoding.com/sketch -->
    <title>theicons.co/svg/tech-16</title>
    <desc>Created with Sketch.</desc>
    <defs></defs>
    <g id="The-Icons" stroke="none" stroke-width="1" fill="none" fill-rule="evenodd">
        <g id="v-1.0" transform="translate(-1296.000000, -656.000000)" fill="#4D4D4D">
            <g id="Tech" transform="translate(96.000000, 656.000000)">
                <g id="Tape" transform="translate(1200.000000, 0.000000)">
                    <path d="M27.675257,24 C27.2422976,23.0901373 27,22.0727563 27,21 C27,19.9264027 27.2422977,18.9092554 27.6749457,18 L22.324743,18 C22.7577024,18.9098627 23,19.9272437 23,21 C23,22.0735973 22.7577023,23.0907446 22.3250543,24 L27.675257,24 Z M34,28 C37.8581267,28 41,24.8659932 41,21 C41,17.1418733 37.8659932,14 34,14 L16,14 C12.1418733,14 9,17.1340068 9,21 C9,24.8581267 12.1340068,28 16,28 L34,28 Z M31.9998683,39.9748212 L34.2733756,39.9713035 L33.5969238,36 L16.3848877,36 L15.7269287,40 L18.0000005,39.9964829 C18.0007672,38.8937233 18.8882102,38 20,38 C21.1020173,38 21.9958609,38.8941144 21.9999857,39.9902938 L28.0000695,39.98101 C28.0090807,38.8853755 28.8934148,38 30,38 C31.0968278,38 31.9874379,38.8857132 31.9998683,39.9748212 Z M38,38 L43,38 C43,38 43.698717,10 43,10 L7,10 L7,38 L12,38 L12.6697407,33.9815559 C12.8521379,32.8871728 13.8970262,32 15.0049466,32 L34.9950534,32 C36.1023548,32 37.1470648,32.8823887 37.3302593,33.9815559 L38,38 Z M11.333324,42.000056 L6.99881014,42.0001791 C4.79032828,42.0002419 3,40.2146965 3,38.0093305 L3,9.98418475 C3,7.78003717 4.79309123,5.99322252 7.00180999,5.99322252 L42.99819,5.99322252 C45.2083286,5.99322252 47,7.77846812 47,9.9834011 L47,38.0030439 C47,40.2067587 45.2122984,41.9944186 42.9964021,41.9959012 L38.6664664,41.9987981 L38.6697407,42.0184441 C38.8521379,43.1128272 38.1001025,44 37.0087557,44 L12.9912443,44 C11.8915104,44 11.1470648,43.1176113 11.3302593,42.0184441 L11.333324,42.000056 Z M31,21 C31,22.6523991 32.3465556,24 34,24 C35.6523991,24 37,22.6534444 37,21 C37,19.3476009 35.6534444,18 34,18 C32.3476009,18 31,19.3465556 31,21 Z M13,21 C13,22.6523991 14.3465556,24 16,24 C17.6523991,24 19,22.6534444 19,21 C19,19.3476009 17.6534444,18 16,18 C14.3476009,18 13,19.3465556 13,21 Z" id="Rectangle-875"></path>
                </g>
            </g>
        </g>
    </g>
</svg>