<?xml version="1.0" encoding="UTF-8"?>
<svg width="48px" height="48px" viewBox="0 0 48 48" version="1.1" xmlns="http://www.w3.org/2000/svg" xmlns:xlink="http://www.w3.org/1999/xlink">
    <!-- Generator: Sketch 40.1 (33804) - http://www.bohemiancoding.com/sketch -->
    <title>theicons.co/svg/tech-04</title>
    <desc>Created with Sketch.</desc>
    <defs></defs>
    <g id="The-Icons" stroke="none" stroke-width="1" fill="none" fill-rule="evenodd">
        <g id="v-1.0" transform="translate(-336.000000, -656.000000)" fill="#4D4D4D">
            <g id="Tech" transform="translate(96.000000, 656.000000)">
                <g id="iPod" transform="translate(240.000000, 0.000000)">
                    <path d="M10,8.00002553 C10,5.79087243 11.7867947,4 13.9992748,4 L36.0007252,4 C38.2094637,4 40,5.79642476 40,8.00002553 L40,39.9999745 C40,42.2091276 38.2132053,44 36.0007252,44 L13.9992748,44 C11.7905363,44 10,42.2035752 10,39.9999745 L10,8.00002553 Z M14,8 L36,8 L36,40 L14,40 L14,8 Z M16,12.0058587 C16,10.8980535 16.8926228,10 17.9950893,10 L32.0049107,10 C33.1067681,10 34,10.8970601 34,12.0058587 L34,21.9941413 C34,23.1019465 33.1073772,24 32.0049107,24 L17.9950893,24 C16.8932319,24 16,23.1029399 16,21.9941413 L16,12.0058587 Z M20,14 L30,14 L30,20 L20,20 L20,14 Z M25,38 C28.3137085,38 31,35.3137085 31,32 C31,28.6862915 28.3137085,26 25,26 C21.6862915,26 19,28.6862915 19,32 C19,35.3137085 21.6862915,38 25,38 Z M25,34 C26.1045695,34 27,33.1045695 27,32 C27,30.8954305 26.1045695,30 25,30 C23.8954305,30 23,30.8954305 23,32 C23,33.1045695 23.8954305,34 25,34 Z" id="Combined-Shape"></path>
                </g>
            </g>
        </g>
    </g>
</svg>