<?xml version="1.0" encoding="UTF-8"?>
<svg width="48px" height="48px" viewBox="0 0 48 48" version="1.1" xmlns="http://www.w3.org/2000/svg" xmlns:xlink="http://www.w3.org/1999/xlink">
    <!-- Generator: Sketch 40.1 (33804) - http://www.bohemiancoding.com/sketch -->
    <title>theicons.co/svg/tech-25</title>
    <desc>Created with Sketch.</desc>
    <defs></defs>
    <g id="The-Icons" stroke="none" stroke-width="1" fill="none" fill-rule="evenodd">
        <g id="v-1.0" transform="translate(-736.000000, -736.000000)" fill="#4D4D4D">
            <g id="Tech" transform="translate(96.000000, 656.000000)">
                <g id="Alarm-Clock" transform="translate(640.000000, 80.000000)">
                    <path d="M33.4525264,37.5876462 C30.9998428,39.1166304 28.1030824,40 25,40 C21.8969176,40 19.0001572,39.1166304 16.5474736,37.5876462 L14.7311015,40.7336951 C14.179341,41.6893722 12.9632544,42.0202368 12,41.4641016 C11.0434148,40.9118169 10.7113024,39.6961914 11.2669999,38.7336951 L13.2688985,35.2663049 C13.3148022,35.1867974 13.365304,35.1116144 13.4198757,35.040907 C10.6814071,32.1695488 9,28.2811313 9,24 C9,21.6171269 9.52090391,19.3559175 10.4550523,17.3240312 C8.95250578,16.0401338 8,14.1313017 8,12 C8,8.13400675 11.1340068,5 15,5 C17.5866158,5 19.8455556,6.40294812 21.0573882,8.48941329 C22.3185693,8.16981764 23.6394531,8 25,8 C26.2302298,8 27.4280307,8.13884437 28.5785876,8.40171788 C29.8022846,6.36373188 32.0339761,5 34.5841842,5 C38.4501775,5 41.5841842,8.13400675 41.5841842,12 C41.5841842,13.9899079 40.7538677,15.785885 39.4207957,17.0603701 C40.4328259,19.1595641 41,21.5135468 41,24 C41,28.2811313 39.3185929,32.1695488 36.5801243,35.040907 C36.634696,35.1116144 36.6851978,35.1867974 36.7311015,35.2663049 L38.7330001,38.7336951 C39.2886976,39.6961914 38.9565852,40.9118169 38,41.4641016 C37.0367456,42.0202368 35.820659,41.6893722 35.2688985,40.7336951 L33.4525264,37.5876462 Z M17.2410375,10.0038578 C16.6851963,9.38115661 15.8785629,9 15,9 C13.3431458,9 12,10.3431458 12,12 C12,12.6886033 12.2342955,13.3323721 12.6343906,13.8458622 C13.9103852,12.2937768 15.4728905,10.9861523 17.2410375,10.0038578 Z M32.4852198,9.85525558 C33.0321011,9.32106272 33.7778482,9 34.5841842,9 C36.2410385,9 37.5841842,10.3431458 37.5841842,12 C37.5841842,12.5723444 37.4223238,13.1137155 37.1379335,13.5750508 C35.8382727,12.0632256 34.2610063,10.796932 32.4852198,9.85525558 Z M25,36 C18.372583,36 13,30.627417 13,24 C13,17.372583 18.372583,12 25,12 C31.627417,12 37,17.372583 37,24 C37,30.627417 31.627417,36 25,36 Z M19,24 C19,22.8954305 19.8867064,22 20.9981014,22 L27,22 L27,24 C27,25.1045695 26.1132936,26 25.0018986,26 L20.9981014,26 C19.8945804,26 19,25.1122704 19,24 Z M23,15.9981014 C23,14.8945804 23.8877296,14 25,14 C26.1045695,14 27,14.8867064 27,15.9981014 L27,22 L23,22 L23,15.9981014 Z" id="Shape"></path>
                </g>
            </g>
        </g>
    </g>
</svg>