<?xml version="1.0" encoding="UTF-8"?>
<svg width="48px" height="48px" viewBox="0 0 48 48" version="1.1" xmlns="http://www.w3.org/2000/svg" xmlns:xlink="http://www.w3.org/1999/xlink">
    <!-- Generator: Sketch 40.1 (33804) - http://www.bohemiancoding.com/sketch -->
    <title>theicons.co/svg/tech-27</title>
    <desc>Created with Sketch.</desc>
    <defs></defs>
    <g id="The-Icons" stroke="none" stroke-width="1" fill="none" fill-rule="evenodd">
        <g id="v-1.0" transform="translate(-896.000000, -736.000000)" fill="#4D4D4D">
            <g id="Tech" transform="translate(96.000000, 656.000000)">
                <g id="Flashlight" transform="translate(800.000000, 80.000000)">
                    <path d="M32,18.706851 C33.8402975,17.0589353 35,14.6647078 35,12 L35,6.9947834 C35,4.79171562 33.2048598,3 30.9904421,3 L17.0095579,3 C14.8003523,3 13,4.78852545 13,6.9947834 L13,12 C13,14.6667544 14.1587981,17.062103 16,18.7099377 L16,38.0066453 C16,41.8695469 19.1315698,45 22.994557,45 L25.005443,45 C28.8580054,45 32,41.8689684 32,38.0066453 L32,18.706851 Z M28,20.7771886 C27.3578781,20.9230107 26.6898592,21 26.0041557,21 L21.9958443,21 C21.309925,21 20.6419359,20.9232174 20,20.7777706 L20,38.0066453 C20,39.660003 21.340304,41 22.994557,41 L25.005443,41 C26.6535414,41 28,39.6551573 28,38.0066453 L28,20.7771886 Z M17.0998724,13 C17.5626347,15.2828981 19.5787567,17 21.9958443,17 L26.0041557,17 C28.416586,17 30.4356692,15.2805449 30.8997114,13 L17.0998724,13 Z M31,9 L31,6.9947834 C31,7.0025695 17.0095579,7 17.0095579,7 C17.0069753,7 17.0048374,7.93714659 17.0032433,9 L31,9 Z M22,26.9979131 C22,25.8944962 22.8877296,25 24,25 C25.1045695,25 26,25.8982606 26,26.9979131 L26,29.0020869 C26,30.1055038 25.1122704,31 24,31 C22.8954305,31 22,30.1017394 22,29.0020869 L22,26.9979131 Z" id="Combined-Shape"></path>
                </g>
            </g>
        </g>
    </g>
</svg>