<?xml version="1.0" encoding="UTF-8"?>
<svg width="48px" height="48px" viewBox="0 0 48 48" version="1.1" xmlns="http://www.w3.org/2000/svg" xmlns:xlink="http://www.w3.org/1999/xlink">
    <!-- Generator: Sketch 40.1 (33804) - http://www.bohemiancoding.com/sketch -->
    <title>theicons.co/svg/tech-03</title>
    <desc>Created with Sketch.</desc>
    <defs></defs>
    <g id="The-Icons" stroke="none" stroke-width="1" fill="none" fill-rule="evenodd">
        <g id="v-1.0" transform="translate(-256.000000, -656.000000)" fill="#4D4D4D">
            <g id="Tech" transform="translate(96.000000, 656.000000)">
                <g id="Gameboy" transform="translate(160.000000, 0.000000)">
                    <path d="M19,30 L19,28.999615 C19,27.8874333 18.1045695,27 17,27 C15.8877296,27 15,27.8952581 15,28.999615 L15,30 L13.999615,30 C12.8874333,30 12,30.8954305 12,32 C12,33.1122704 12.8952581,34 13.999615,34 L15,34 L15,35.000385 C15,36.1125667 15.8954305,37 17,37 C18.1122704,37 19,36.1047419 19,35.000385 L19,34 L20.000385,34 C21.1125667,34 22,33.1045695 22,32 C22,30.8877296 21.1047419,30 20.000385,30 L19,30 Z M36,8.0002163 C37.2518124,8.00017833 38,8.00011726 38,8.00002553 L38,36.0015401 C38,38.2089911 36.2082672,40 33.9992587,40 C33.9992587,40 10,39.9994132 10,39.9999745 C10,39.9999745 9.99720474,8 9.99017859,8 C9.99017859,8 10.7422806,8.00001576 12,8.00003964 L12,20.00077 C12,22.2075324 13.7864076,24 15.990053,24 L30.0056959,24 C33.3167544,24 36,21.3134132 36,17.9993405 L36,8.0002163 Z M32,8.00026741 C27.277046,8.00027963 20.7254865,8.00018974 16,8.00011092 L16,20.00077 C16,20.0014227 30.0056959,20 30.0056959,20 C31.1064436,20 32,19.1054451 32,17.9993405 L32,8.00026741 Z M6,8.00002553 C6,5.79087243 7.7852456,4 9.99017859,4 L38.0098214,4 C40.2135362,4 42,5.79642476 42,8.00002553 L42,36.0015401 C42,40.4189675 38.4165688,44 33.9992587,44 L9.99017859,44 C7.7864638,44 6,42.2035752 6,39.9999745 L6,8.00002553 Z M30,35 C31.1045695,35 32,34.1045695 32,33 C32,31.8954305 31.1045695,31 30,31 C28.8954305,31 28,31.8954305 28,33 C28,34.1045695 28.8954305,35 30,35 Z M34,31 C35.1045695,31 36,30.1045695 36,29 C36,27.8954305 35.1045695,27 34,27 C32.8954305,27 32,27.8954305 32,29 C32,30.1045695 32.8954305,31 34,31 Z" id="Combined-Shape"></path>
                </g>
            </g>
        </g>
    </g>
</svg>