<?xml version="1.0" encoding="UTF-8"?>
<svg width="48px" height="48px" viewBox="0 0 48 48" version="1.1" xmlns="http://www.w3.org/2000/svg" xmlns:xlink="http://www.w3.org/1999/xlink">
    <!-- Generator: Sketch 40.1 (33804) - http://www.bohemiancoding.com/sketch -->
    <title>theicons.co/svg/tech-23</title>
    <desc>Created with Sketch.</desc>
    <defs></defs>
    <g id="The-Icons" stroke="none" stroke-width="1" fill="none" fill-rule="evenodd">
        <g id="v-1.0" transform="translate(-576.000000, -736.000000)" fill="#4D4D4D">
            <g id="Tech" transform="translate(96.000000, 656.000000)">
                <g id="Radio" transform="translate(480.000000, 80.000000)">
                    <path d="M7.34668443,14.0532739 C7.50818883,13.9334923 7.6909266,13.8359482 7.89206814,13.7666896 L40.2461874,2.62627296 C41.2911478,2.26646424 42.4272721,2.81414652 42.7893919,3.8658188 C43.1490045,4.91020978 42.600431,6.04612462 41.5484601,6.40834726 L19.5006996,14 L39.9999745,14 C42.2091276,14 44,15.7941203 44,17.9968389 L44,38.0031611 C44,40.2105543 42.2035752,42 39.9999745,42 L8.00002553,42 C5.79087243,42 4,40.2058797 4,38.0031611 L4,17.9968389 C4,16.0122326 5.45210619,14.3654662 7.34668443,14.0532739 Z M8,38.0031611 C8,37.9983647 39.9999745,38 39.9999745,38 C39.9979241,38 40,17.9968389 40,17.9968389 C40,18.0016353 8.00002553,18 8.00002553,18 C8.0020759,18 8,38.0031611 8,38.0031611 Z M18,34 C21.3137085,34 24,31.3137085 24,28 C24,24.6862915 21.3137085,22 18,22 C14.6862915,22 12,24.6862915 12,28 C12,31.3137085 14.6862915,34 18,34 Z M29,24 C29,22.8954305 29.8867064,22 30.9981014,22 L35.0018986,22 C36.1054196,22 37,22.8877296 37,24 C37,25.1045695 36.1132936,26 35.0018986,26 L30.9981014,26 C29.8945804,26 29,25.1122704 29,24 Z M29,32 C29,30.8954305 29.8867064,30 30.9981014,30 L35.0018986,30 C36.1054196,30 37,30.8877296 37,32 C37,33.1045695 36.1132936,34 35.0018986,34 L30.9981014,34 C29.8945804,34 29,33.1122704 29,32 Z M18,30 C19.1045695,30 20,29.1045695 20,28 C20,26.8954305 19.1045695,26 18,26 C16.8954305,26 16,26.8954305 16,28 C16,29.1045695 16.8954305,30 18,30 Z" id="Rectangle-631"></path>
                </g>
            </g>
        </g>
    </g>
</svg>