<?xml version="1.0" encoding="UTF-8"?>
<svg width="48px" height="48px" viewBox="0 0 48 48" version="1.1" xmlns="http://www.w3.org/2000/svg" xmlns:xlink="http://www.w3.org/1999/xlink">
    <!-- Generator: Sketch 40.1 (33804) - http://www.bohemiancoding.com/sketch -->
    <title>theicons.co/svg/tech-08</title>
    <desc>Created with Sketch.</desc>
    <defs></defs>
    <g id="The-Icons" stroke="none" stroke-width="1" fill="none" fill-rule="evenodd">
        <g id="v-1.0" transform="translate(-656.000000, -656.000000)" fill="#4D4D4D">
            <g id="Tech" transform="translate(96.000000, 656.000000)">
                <g id="Tablet" transform="translate(560.000000, 0.000000)">
                    <path d="M26,36 L42,36 L42,32 L6,32 L6,36 L22,36 C22,34.8954305 22.8954305,34 24,34 C25.1045695,34 26,34.8954305 26,36 Z M42,28 L42,12 L6,12 L6,28 L42,28 Z M2,10.0017433 C2,8.89621101 2.89885511,8 4.00492334,8 L43.9950767,8 C45.1023652,8 46,8.88926172 46,10.0017433 L46,37.9982567 C46,39.103789 45.1011449,40 43.9950767,40 L4.00492334,40 C2.89763476,40 2,39.1107383 2,37.9982567 L2,10.0017433 Z" id="Combined-Shape"></path>
                </g>
            </g>
        </g>
    </g>
</svg>