<?xml version="1.0" encoding="UTF-8"?>
<svg width="48px" height="48px" viewBox="0 0 48 48" version="1.1" xmlns="http://www.w3.org/2000/svg" xmlns:xlink="http://www.w3.org/1999/xlink">
    <!-- Generator: Sketch 40.1 (33804) - http://www.bohemiancoding.com/sketch -->
    <title>theicons.co/svg/tech-05</title>
    <desc>Created with Sketch.</desc>
    <defs></defs>
    <g id="The-Icons" stroke="none" stroke-width="1" fill="none" fill-rule="evenodd">
        <g id="v-1.0" transform="translate(-416.000000, -656.000000)" fill="#4D4D4D">
            <g id="Tech" transform="translate(96.000000, 656.000000)">
                <g id="Calc" transform="translate(320.000000, 0.000000)">
                    <path d="M11.9999204,16 L11.9999204,7.99729162 L37.9999204,7.99729162 L37.9999204,39.9972916 L11.9999204,39.9972916 L11.9999204,20 L38,20 L38,16 L11.9999204,16 Z M7.9993238,7.99731715 C7.99969726,5.78816405 9.79203613,3.99743437 12.0002217,3.99761027 L37.9998579,3.99968135 C40.2091193,3.99985734 42.000076,5.79630313 42.0000716,7.99975469 L42.000008,39.9975369 C42.0000036,42.2065405 40.2076117,43.9972916 37.9989921,43.9972916 L11.994246,43.9972916 C9.78455033,43.9972916 7.99354175,42.2008669 7.99391426,39.9972661 L7.9993238,7.99731715 Z M14,32.9979131 C14,31.8944962 14.8982606,31 15.9979131,31 L18.0020869,31 C19.1055038,31 20,31.8982606 20,32.9979131 L20,35.0020869 C20,36.1055038 19.1017394,37 18.0020869,37 L15.9979131,37 C14.8944962,37 14,36.1017394 14,35.0020869 L14,32.9979131 Z M30,24.9979131 C30,23.8944962 30.8982606,23 31.9979131,23 L34.0020869,23 C35.1055038,23 36,23.8982606 36,24.9979131 L36,27.0020869 C36,28.1055038 35.1017394,29 34.0020869,29 L31.9979131,29 C30.8944962,29 30,28.1017394 30,27.0020869 L30,24.9979131 Z M14,24.9979131 C14,23.8944962 14.8982606,23 15.9979131,23 L18.0020869,23 C19.1055038,23 20,23.8982606 20,24.9979131 L20,27.0020869 C20,28.1055038 19.1017394,29 18.0020869,29 L15.9979131,29 C14.8944962,29 14,28.1017394 14,27.0020869 L14,24.9979131 Z M30,32.9979131 C30,31.8944962 30.8982606,31 31.9979131,31 L34.0020869,31 C35.1055038,31 36,31.8982606 36,32.9979131 L36,35.0020869 C36,36.1055038 35.1017394,37 34.0020869,37 L31.9979131,37 C30.8944962,37 30,36.1017394 30,35.0020869 L30,32.9979131 Z M22,24.9979131 C22,23.8944962 22.8982606,23 23.9979131,23 L26.0020869,23 C27.1055038,23 28,23.8982606 28,24.9979131 L28,27.0020869 C28,28.1055038 27.1017394,29 26.0020869,29 L23.9979131,29 C22.8944962,29 22,28.1017394 22,27.0020869 L22,24.9979131 Z M22,32.9979131 C22,31.8944962 22.8982606,31 23.9979131,31 L26.0020869,31 C27.1055038,31 28,31.8982606 28,32.9979131 L28,35.0020869 C28,36.1055038 27.1017394,37 26.0020869,37 L23.9979131,37 C22.8944962,37 22,36.1017394 22,35.0020869 L22,32.9979131 Z" id="Rectangle-879"></path>
                </g>
            </g>
        </g>
    </g>
</svg>