<?xml version="1.0" encoding="UTF-8"?>
<svg width="48px" height="48px" viewBox="0 0 48 48" version="1.1" xmlns="http://www.w3.org/2000/svg" xmlns:xlink="http://www.w3.org/1999/xlink">
    <!-- Generator: Sketch 40.1 (33804) - http://www.bohemiancoding.com/sketch -->
    <title>theicons.co/svg/tech-29</title>
    <desc>Created with Sketch.</desc>
    <defs></defs>
    <g id="The-Icons" stroke="none" stroke-width="1" fill="none" fill-rule="evenodd">
        <g id="v-1.0" transform="translate(-1056.000000, -736.000000)" fill="#4D4D4D">
            <g id="Tech" transform="translate(96.000000, 656.000000)">
                <g id="Socket" transform="translate(960.000000, 80.000000)">
                    <path d="M27,20 L23,20 L23,15.999615 C23,14.8874333 22.1045695,14 21,14 C19.8877296,14 19,14.8952581 19,15.999615 L19,20 L18.9940603,20 C17.8945138,20 17,20.8992496 17,22.0085302 L17,26 C17,29.3069658 19.6877828,32 23.0033309,32 L23.0725098,32 L23.0725098,35.6320801 C23.0725098,38.372119 19.499755,39.5517386 16.4416593,37.5513643 C16.3678936,37.4849699 16.2882505,37.4232409 16.2028848,37.3669318 C11.7396219,34.422866 9,29.4459329 9,24 C9,15.163444 16.163444,8 25,8 C33.836556,8 41,15.163444 41,24 C41,28.3594115 39.2509302,32.4359779 36.1988235,35.4274466 C35.409978,36.2006196 35.397273,37.4668858 36.170446,38.2557313 C36.9436191,39.0445768 38.2098853,39.0572819 38.9987308,38.2841088 C42.810744,34.5478311 45,29.4453203 45,24 C45,12.954305 36.045695,4 25,4 C13.954305,4 5,12.954305 5,24 C5,30.7687128 8.39042432,36.96361 13.9124186,40.6475879 L13.9030646,40.6607438 C19.372106,44.5493326 27.0725098,42.1462032 27.0725098,35.6320801 L27.0725098,31.9995337 C30.3625845,31.9590579 33,29.2884786 33,26 L33,22.0085302 C33,20.9019504 32.1072288,20 31.0059397,20 L31,20 L31,15.999615 C31,14.8874333 30.1045695,14 29,14 C27.8877296,14 27,14.8952581 27,15.999615 L27,20 Z M21,26 C21,27.1003533 21.8994479,28 23.0033309,28 L26.9966691,28 C28.1089484,28 29,27.1084434 29,26 L28.9940603,24.0085302 L20.9940603,24.0085302 L21,26 Z" id="Path"></path>
                </g>
            </g>
        </g>
    </g>
</svg>