<?xml version="1.0" encoding="UTF-8"?>
<svg width="48px" height="48px" viewBox="0 0 48 48" version="1.1" xmlns="http://www.w3.org/2000/svg" xmlns:xlink="http://www.w3.org/1999/xlink">
    <!-- Generator: Sketch 40.1 (33804) - http://www.bohemiancoding.com/sketch -->
    <title>theicons.co/svg/tech-01</title>
    <desc>Created with Sketch.</desc>
    <defs></defs>
    <g id="The-Icons" stroke="none" stroke-width="1" fill="none" fill-rule="evenodd">
        <g id="v-1.0" transform="translate(-96.000000, -656.000000)" fill="#4D4D4D">
            <g id="Tech" transform="translate(96.000000, 656.000000)">
                <g id="Old-Gamepad">
                    <path d="M22.0382936,18 L12,18 C5.372583,18 0,23.372583 0,30 C0,36.627417 5.372583,42 12,42 C15.5539993,42 18.7471438,40.4549974 20.944426,38 L27.055574,38 C29.2528562,40.4549974 32.4460007,42 36,42 C42.627417,42 48,36.627417 48,30 C48,23.372583 42.627417,18 36,18 L26.0407544,18 C26.246,14.9786994 27.3120507,14.0007336 30.9834901,14.0007336 C35.1672216,14.0007336 38.0651084,12.5612921 39.69867,10.1092285 C40.2787117,9.23855481 40.6480832,8.31307833 40.8523658,7.38629031 C40.9796958,6.80862075 41.0239018,6.33054425 41.0226632,5.99317478 C41.0145543,4.88085537 40.1126085,3.99198795 39.0080685,4.00005447 C37.9035284,4.00812099 37.014661,4.91006682 37.0227275,6.01460686 C37.0229082,6.06723324 37.0054295,6.25626025 36.9461326,6.52527821 C36.8428669,6.99377302 36.6561459,7.4616107 36.3697501,7.89150625 C35.5047616,9.18990036 33.8723904,10.0007336 30.9834901,10.0007336 C24.7769148,10.0007336 22.3579775,12.8273426 22.0382936,18 Z M14,28 L14,26.0085302 C14,24.9019504 13.1045695,24 12,24 C10.8877296,24 10,24.8992496 10,26.0085302 L10,28 L8.0085302,28 C6.90195036,28 6,28.8954305 6,30 C6,31.1122704 6.8992496,32 8.0085302,32 L10,32 L10,33.9914698 C10,35.0980496 10.8954305,36 12,36 C13.1122704,36 14,35.1007504 14,33.9914698 L14,32 L15.9914698,32 C17.0980496,32 18,31.1045695 18,30 C18,28.8877296 17.1007504,28 15.9914698,28 L14,28 Z M18.4903972,34.7440807 C18.8582024,34.3331363 19.5977816,34 20.1565882,34 L27.8434118,34 C28.3958185,34 29.1445459,34.3362069 29.5096028,34.7440807 L30.0361135,35.3323449 C31.5476414,37.0211571 33.6902508,38 36,38 C40.418278,38 44,34.418278 44,30 C44,25.581722 40.418278,22 36,22 L12,22 C7.581722,22 4,25.581722 4,30 C4,34.418278 7.581722,38 12,38 C14.3097492,38 16.4523586,37.0211571 17.9638865,35.3323449 L18.4903972,34.7440807 Z M38,34 C39.1045695,34 40,33.1045695 40,32 C40,30.8954305 39.1045695,30 38,30 C36.8954305,30 36,30.8954305 36,32 C36,33.1045695 36.8954305,34 38,34 Z M33,30 C34.1045695,30 35,29.1045695 35,28 C35,26.8954305 34.1045695,26 33,26 C31.8954305,26 31,26.8954305 31,28 C31,29.1045695 31.8954305,30 33,30 Z" id="Combined-Shape"></path>
                </g>
            </g>
        </g>
    </g>
</svg>