<svg width="24" height="24" viewBox="0 0 24 24" fill="none" xmlns="http://www.w3.org/2000/svg">
<path d="M3.60002 12.3C3.60002 16.95 7.35002 20.7 12 20.7C13.1625 20.7 14.2875 20.475 15.3 20.025C15.45 20.3625 15.675 20.6625 15.9375 20.9625C15.975 20.9625 16.0125 21 16.0125 21.0375C14.8125 21.6 13.425 21.9 12 21.9C6.67502 21.9 2.40002 17.625 2.40002 12.3C2.40002 10.425 2.92502 8.625 3.90002 7.125C3.71252 6.825 3.60002 6.4125 3.60002 6C3.60002 4.875 4.53752 3.9 5.70002 3.9C6.07502 3.9 6.48752 4.05 6.78752 4.2375C6.93752 4.3125 7.05002 4.425 7.16252 4.5375L7.61252 5.1375C7.50002 4.9125 7.35002 4.725 7.16252 4.5375C7.35002 4.725 7.50002 4.9125 7.61252 5.1375C7.72502 5.4 7.80002 5.7 7.80002 6C7.80002 7.1625 6.82502 8.1 5.70002 8.1C5.36252 8.1 5.10002 8.0625 4.80002 7.9125C4.05002 9.225 3.60002 10.725 3.60002 12.3ZM17.175 20.4C17.025 20.325 16.9125 20.2125 16.8 20.1C16.6125 19.9125 16.4625 19.6875 16.3875 19.5C16.2375 19.2375 16.2 18.9375 16.2 18.6C16.2 17.475 17.1375 16.5 18.3 16.5C18.6 16.5 18.9 16.575 19.1625 16.6875C19.95 15.4125 20.4 13.9125 20.4 12.3C20.4 7.6875 16.6125 3.9 12 3.9C10.8 3.9 9.67502 4.1625 8.66252 4.6125C8.51252 4.275 8.28752 3.975 8.02502 3.675C7.98752 3.675 7.95002 3.6375 7.95002 3.6C9.15002 3.0375 10.5375 2.7 12 2.7C17.2875 2.7 21.6 7.0125 21.6 12.3C21.6 14.2125 21.0375 16.0125 20.0625 17.5125C20.25 17.8125 20.4 18.225 20.4 18.6C20.4 19.7625 19.425 20.7 18.3 20.7C17.8875 20.7 17.475 20.5875 17.175 20.4ZM6.60002 6C6.60002 5.5125 6.18752 5.1 5.70002 5.1C5.17502 5.1 4.80002 5.5125 4.80002 6C4.80002 6.525 5.17502 6.9 5.70002 6.9C6.18752 6.9 6.60002 6.525 6.60002 6ZM16.0875 9.825C15.9375 9.9 15.75 9.9 15.6 9.9C14.7375 9.9 14.1 9.2625 14.1 8.4C14.1 8.2875 14.1 8.1375 14.1375 8.025C13.5 7.6875 12.75 7.5 12 7.5C9.33752 7.5 7.20002 9.675 7.20002 12.3C7.20002 14.9625 9.33752 17.1 12 17.1C14.625 17.1 16.8 14.9625 16.8 12.3C16.8 11.4 16.5375 10.5375 16.0875 9.825ZM16.9875 9C17.625 9.9375 18 11.1 18 12.3C18 15.6375 15.3 18.3 12 18.3C8.66252 18.3 6.00002 15.6375 6.00002 12.3C6.00002 9 8.66252 6.3 12 6.3C13.05 6.3 14.025 6.6 14.925 7.0875C15.1125 6.975 15.3375 6.9 15.6 6.9C16.425 6.9 17.1 7.575 17.1 8.4C17.1 8.625 17.0625 8.8125 16.9875 9ZM10.2 12.3C10.2 12.975 10.5375 13.5375 11.1 13.875C11.625 14.2125 12.3375 14.2125 12.9 13.875C13.425 13.5375 13.8 12.975 13.8 12.3C13.8 11.6625 13.425 11.1 12.9 10.7625C12.3375 10.425 11.625 10.425 11.1 10.7625C10.5375 11.1 10.2 11.6625 10.2 12.3ZM12 15.3C10.9125 15.3 9.93752 14.7375 9.37502 13.8C8.85002 12.9 8.85002 11.7375 9.37502 10.8C9.93752 9.9 10.9125 9.3 12 9.3C13.05 9.3 14.025 9.9 14.5875 10.8C15.1125 11.7375 15.1125 12.9 14.5875 13.8C14.025 14.7375 13.05 15.3 12 15.3ZM18.3 19.5C18.7875 19.5 19.2 19.125 19.2 18.6C19.2 18.1125 18.7875 17.7 18.3 17.7C17.775 17.7 17.4 18.1125 17.4 18.6C17.4 19.125 17.775 19.5 18.3 19.5Z" fill="#545E66"/>
</svg>
