<svg width="24" height="24" viewBox="0 0 24 24" fill="none" xmlns="http://www.w3.org/2000/svg">
<path d="M21.225 5.9625C21.7125 5.5125 21.7125 4.725 21.225 4.275C20.775 3.7875 19.9875 3.7875 19.5375 4.275L13.35 10.425L15.0375 12.15L21.225 5.9625ZM14.2125 12.975L12.525 11.2875L11.1375 12.675L9.60002 14.175L11.325 15.9L11.475 15.7125L12.825 14.3625L14.2125 12.975ZM7.80002 14.7V14.7375C6.11252 14.7375 4.80002 16.05 4.80002 17.7375C4.80002 17.8125 4.80002 17.925 4.80002 18.0375C4.87502 18.675 4.68752 19.275 4.35002 19.8C3.97502 20.2875 3.37502 20.7 2.55002 20.7375H7.80002C9.45002 20.7375 10.8 19.3875 10.8 17.7375C10.8 17.475 10.7625 17.2125 10.6875 16.9875L8.51252 14.8125C8.28752 14.7375 8.02502 14.7 7.80002 14.7ZM11.925 16.9875C11.9625 17.2125 12 17.475 12 17.7C12 20.025 10.0875 21.9 7.80002 21.9H2.40002C1.72502 21.9 1.20002 21.375 1.20002 20.7C1.20002 20.0625 1.72502 19.5 2.40002 19.5H2.55002C3.22502 19.5 3.67502 18.825 3.60002 18.15C3.60002 18 3.60002 17.85 3.60002 17.7375C3.60002 15.4125 5.47502 13.5375 7.80002 13.5375C8.02502 13.5375 8.28752 13.5375 8.51252 13.575L18.675 3.4125C19.6125 2.475 21.15 2.475 22.0875 3.4125C23.025 4.35 23.025 5.8875 22.0875 6.825L11.925 16.9875ZM7.57502 3.3375L12.3375 8.1L11.475 8.925L9.63752 7.0875L6.78752 9.975L8.58752 11.8125L8.06252 12.3375C7.98752 12.3375 7.87502 12.3 7.80002 12.3C7.65002 12.3 7.53752 12.3375 7.42502 12.3375L3.03752 7.9125C2.21252 7.0875 2.21252 5.775 3.03752 4.95L4.61252 3.3375C5.43752 2.55 6.75002 2.55 7.57502 3.3375ZM16.575 14.025L17.4 13.1625L19.3125 15.075C19.725 15.525 20.0625 16.05 20.2125 16.6125L21.5625 21.15C21.6 21.375 21.5625 21.6 21.4125 21.75C21.2625 21.9 21.0375 21.975 20.8125 21.9L16.275 20.55C15.7125 20.4 15.1875 20.0625 14.7375 19.65L13.1625 18.075C13.1625 17.9625 13.1625 17.85 13.1625 17.7375C13.1625 17.625 13.1625 17.5125 13.1625 17.4L13.6875 16.9125L15.6 18.7875C15.8625 19.0875 16.2375 19.3125 16.6125 19.425L20.1 20.4375L19.0875 16.95C18.975 16.575 18.75 16.2 18.45 15.9375L16.575 14.025ZM5.47502 4.2L3.86252 5.8125C3.52502 6.15 3.52502 6.7125 3.86252 7.0875L5.92502 9.1125L8.81252 6.2625L6.75002 4.2C6.37502 3.8625 5.81252 3.8625 5.47502 4.2Z" fill="#545E66"/>
</svg>
