<svg width="24" height="24" viewBox="0 0 24 24" fill="none" xmlns="http://www.w3.org/2000/svg">
<path d="M4.79999 5.1C4.12499 5.1 3.59999 5.6625 3.59999 6.3V15.9H2.39999V6.3C2.39999 4.9875 3.44999 3.9 4.79999 3.9H19.2C20.5125 3.9 21.6 4.9875 21.6 6.3V15.9H20.4V6.3C20.4 5.6625 19.8375 5.1 19.2 5.1H4.79999ZM1.23749 18.3C1.46249 19.0125 2.09999 19.5 2.84999 19.5H21.1125C21.8625 19.5 22.5 19.0125 22.725 18.3H1.23749ZM0.712494 17.1H23.25C23.6625 17.1 24 17.4375 24 17.85C24 19.425 22.6875 20.7 21.1125 20.7H2.84999C1.27499 20.7 -5.72205e-06 19.425 -5.72205e-06 17.85C-5.72205e-06 17.4375 0.299994 17.1 0.712494 17.1ZM10.6125 9.15L8.62499 11.1L10.6125 13.0875C10.8375 13.3125 10.8375 13.725 10.6125 13.95C10.3875 14.175 9.97499 14.175 9.74999 13.95L7.34999 11.55C7.12499 11.325 7.12499 10.9125 7.34999 10.6875L9.74999 8.2875C9.97499 8.0625 10.3875 8.0625 10.6125 8.2875C10.8375 8.5125 10.8375 8.925 10.6125 9.15ZM14.2125 8.2875L16.6125 10.6875C16.8375 10.9125 16.8375 11.325 16.6125 11.55L14.2125 13.95C13.9875 14.175 13.575 14.175 13.35 13.95C13.125 13.725 13.125 13.3125 13.35 13.0875L15.3375 11.1L13.35 9.15C13.125 8.925 13.125 8.5125 13.35 8.2875C13.575 8.0625 13.9875 8.0625 14.2125 8.2875Z" fill="#2563EB"/>
</svg>
