<svg width="26" height="24" viewBox="0 0 26 24" fill="none" xmlns="http://www.w3.org/2000/svg">
<path d="M16.825 3.525C16.675 3.9 16.6 4.3125 16.6 4.725C15.475 4.2 14.275 3.9 13 3.9C8.34999 3.9 4.59999 7.6875 4.59999 12.3C4.59999 12.825 4.63749 13.35 4.71249 13.8375C4.67499 13.875 4.63749 13.875 4.59999 13.9125C4.22499 13.725 3.84999 13.6125 3.47499 13.5375C3.39999 13.125 3.39999 12.75 3.39999 12.3C3.39999 7.0125 7.67499 2.7 13 2.7C14.35 2.7 15.6625 3 16.825 3.525ZM21.025 9.9C21.4375 9.9375 21.85 9.9 22.225 9.75C22.45 10.575 22.6 11.4375 22.6 12.3C22.6 13.1625 22.4875 13.9875 22.2625 14.775C21.9625 14.85 21.6625 14.9625 21.4 15.1125C21.25 15.0375 21.1 14.9625 20.9875 14.925C21.25 14.1 21.4 13.2375 21.4 12.3C21.4 11.475 21.25 10.65 21.025 9.9ZM17.05 19.65C17.2 19.875 17.35 20.1 17.5375 20.2875L17.8375 20.5875C16.4125 21.45 14.7625 21.9 13 21.9C10.9 21.9 8.98749 21.2625 7.41249 20.1375L8.27499 19.275C9.58749 20.175 11.2375 20.7 13 20.7C14.4625 20.7 15.85 20.325 17.05 19.65ZM11.3125 11.475C10.6375 10.6125 9.32499 10.6125 8.64999 11.475C8.46249 11.7375 8.08749 11.8125 7.82499 11.5875C7.56249 11.4 7.48749 11.025 7.71249 10.7625C8.83749 9.225 11.125 9.225 12.25 10.7625C12.475 11.025 12.4 11.4 12.1375 11.5875C11.875 11.8125 11.5 11.7375 11.3125 11.475ZM8.68749 14.85C8.94999 14.6625 9.32499 14.6625 9.54999 14.925C10.225 15.7125 11.35 16.5 13 16.5C14.6125 16.5 15.775 15.7125 16.4125 14.925C16.6375 14.6625 17.0125 14.6625 17.275 14.85C17.5375 15.075 17.5375 15.45 17.35 15.7125C16.4875 16.6875 15.0625 17.7 13 17.7C10.9 17.7 9.47499 16.6875 8.61249 15.7125C8.42499 15.45 8.42499 15.075 8.68749 14.85ZM14.65 11.475C14.4625 11.7375 14.0875 11.8125 13.825 11.5875C13.5625 11.4 13.4875 11.025 13.7125 10.7625C14.8375 9.225 17.125 9.225 18.25 10.7625C18.475 11.025 18.4 11.4 18.1375 11.5875C17.875 11.8125 17.5 11.7375 17.3125 11.475C16.6375 10.6125 15.325 10.6125 14.65 11.475ZM19.225 4.1625C18.8875 4.5 18.8875 5.0625 19.225 5.4L21.325 7.5C21.3625 7.5375 21.4 7.5375 21.4375 7.5L23.5375 5.4C23.875 5.0625 23.875 4.5 23.5375 4.1625C23.2 3.825 22.6375 3.825 22.3375 4.1625L21.8125 4.6875C21.5875 4.9125 21.175 4.9125 20.95 4.6875L20.425 4.1625C20.125 3.825 19.5625 3.825 19.225 4.1625ZM21.2875 3.3375L21.4 3.4125L21.475 3.3375C22.2625 2.5125 23.575 2.5125 24.4 3.3375C25.1875 4.125 25.1875 5.4375 24.4 6.225L22.3 8.325C21.8125 8.85 20.9875 8.85 20.4625 8.325L18.4 6.225C17.575 5.4375 17.575 4.125 18.4 3.3375C19.1875 2.5125 20.5 2.5125 21.2875 3.3375ZM4.48749 15.3375L4.59999 15.4125L4.67499 15.3375C5.46249 14.5125 6.77499 14.5125 7.59999 15.3375C8.38749 16.125 8.38749 17.4375 7.59999 18.225L5.49999 20.325C5.01249 20.85 4.18749 20.85 3.66249 20.325L1.59999 18.225C0.774994 17.4375 0.774994 16.125 1.59999 15.3375C2.38749 14.5125 3.69999 14.5125 4.48749 15.3375ZM2.42499 16.1625C2.08749 16.5 2.08749 17.0625 2.42499 17.4L4.52499 19.5C4.56249 19.5375 4.59999 19.5375 4.63749 19.5L6.73749 17.4C7.07499 17.0625 7.07499 16.5 6.73749 16.1625C6.39999 15.825 5.83749 15.825 5.53749 16.1625L5.01249 16.6875C4.78749 16.9125 4.37499 16.9125 4.14999 16.6875L3.62499 16.1625C3.32499 15.825 2.76249 15.825 2.42499 16.1625ZM19.225 17.3625C18.8875 17.7 18.8875 18.2625 19.225 18.6L21.325 20.7C21.3625 20.7375 21.4 20.7375 21.4375 20.7L23.5375 18.6C23.875 18.2625 23.875 17.7 23.5375 17.3625C23.2 17.025 22.6375 17.025 22.3375 17.3625L21.8125 17.8875C21.5875 18.1125 21.175 18.1125 20.95 17.8875L20.425 17.3625C20.125 17.025 19.5625 17.025 19.225 17.3625ZM21.2875 16.5375L21.4 16.6125L21.475 16.5375C22.2625 15.7125 23.575 15.7125 24.4 16.5375C25.1875 17.325 25.1875 18.6375 24.4 19.425L22.3 21.525C21.8125 22.05 20.9875 22.05 20.4625 21.525L18.4 19.425C17.575 18.6375 17.575 17.325 18.4 16.5375C19.1875 15.7125 20.5 15.7125 21.2875 16.5375Z" fill="#2563EB"/>
</svg>
