<svg width="24" height="24" viewBox="0 0 24 24" fill="none" xmlns="http://www.w3.org/2000/svg">
<path d="M2.39999 18.3V4.8C2.39999 3.675 3.33749 2.7 4.49999 2.7H7.49999C8.62499 2.7 9.59999 3.675 9.59999 4.8V9.7875L13.0125 6.3375C13.8375 5.55 15.15 5.55 15.975 6.3375L18.1125 8.475C18.9 9.3 18.9 10.6125 18.1125 11.4375L14.8125 14.7H19.5C20.625 14.7 21.6 15.675 21.6 16.8V19.8C21.6 20.9625 20.625 21.9 19.5 21.9H5.99999C4.01249 21.9 2.39999 20.2875 2.39999 18.3ZM19.5 20.7C19.9875 20.7 20.4 20.325 20.4 19.8V16.8C20.4 16.3125 19.9875 15.9 19.5 15.9H13.6125L8.81249 20.7H19.5ZM17.25 10.6125C17.5875 10.2375 17.5875 9.675 17.25 9.3375L15.1125 7.2C14.775 6.8625 14.2125 6.8625 13.8375 7.2L9.59999 11.475V18.2625L17.25 10.6125ZM5.99999 20.7C7.31249 20.7 8.39999 19.65 8.39999 18.3V13.5H3.59999V18.3C3.59999 19.65 4.64999 20.7 5.99999 20.7ZM3.59999 12.3H8.39999V8.7H3.59999V12.3ZM3.59999 7.5H8.39999V4.8C8.39999 4.3125 7.98749 3.9 7.49999 3.9H4.49999C3.97499 3.9 3.59999 4.3125 3.59999 4.8V7.5ZM5.99999 19.2C5.47499 19.2 5.09999 18.825 5.09999 18.3C5.09999 17.8125 5.47499 17.4 5.99999 17.4C6.48749 17.4 6.89999 17.8125 6.89999 18.3C6.89999 18.825 6.48749 19.2 5.99999 19.2Z" fill="#2563EB"/>
</svg>
