<svg width="24" height="24" viewBox="0 0 24 24" fill="none" xmlns="http://www.w3.org/2000/svg">
<path d="M4.79999 5.1C4.27499 5.1 3.89999 5.5125 3.89999 6C3.89999 6.525 4.27499 6.9 4.79999 6.9C5.28749 6.9 5.69999 6.525 5.69999 6C5.69999 5.5125 5.28749 5.1 4.79999 5.1ZM4.79999 8.1C4.01249 8.1 3.33749 7.725 2.96249 7.05C2.58749 6.4125 2.58749 5.625 2.96249 4.95C3.33749 4.3125 4.01249 3.9 4.79999 3.9C5.54999 3.9 6.22499 4.3125 6.59999 4.95C6.97499 5.625 6.97499 6.4125 6.59999 7.05C6.22499 7.725 5.54999 8.1 4.79999 8.1ZM-5.72205e-06 13.2C-5.72205e-06 11.0625 1.72499 9.3 3.89999 9.3H5.69999C6.18749 9.3 6.67499 9.4125 7.08749 9.6C7.42499 9.7125 7.57499 10.05 7.42499 10.35C7.31249 10.65 6.97499 10.8375 6.67499 10.6875C6.37499 10.575 6.03749 10.5 5.69999 10.5H3.89999C3.78749 10.5 3.67499 10.5375 3.59999 10.5375V18.3H5.99999V17.1C5.99999 16.8 6.26249 16.5 6.59999 16.5C6.89999 16.5 7.19999 16.8 7.19999 17.1V18.6C7.19999 19.125 6.78749 19.5 6.29999 19.5H3.29999C2.77499 19.5 2.39999 19.125 2.39999 18.6V16.8C0.974994 16.2375 -5.72205e-06 14.85 -5.72205e-06 13.2ZM2.39999 15.45V10.9875C1.64999 11.4375 1.19999 12.2625 1.19999 13.2C1.19999 14.1375 1.64999 14.9625 2.39999 15.45ZM19.2 5.1C18.675 5.1 18.3 5.5125 18.3 6C18.3 6.525 18.675 6.9 19.2 6.9C19.6875 6.9 20.1 6.525 20.1 6C20.1 5.5125 19.6875 5.1 19.2 5.1ZM19.2 8.1C18.4125 8.1 17.7375 7.725 17.3625 7.05C16.9875 6.4125 16.9875 5.625 17.3625 4.95C17.7375 4.3125 18.4125 3.9 19.2 3.9C19.95 3.9 20.625 4.3125 21 4.95C21.375 5.625 21.375 6.4125 21 7.05C20.625 7.725 19.95 8.1 19.2 8.1ZM24 13.2C24 14.85 22.9875 16.2375 21.6 16.8V18.6C21.6 19.125 21.1875 19.5 20.7 19.5H17.7C17.175 19.5 16.8 19.125 16.8 18.6V17.1C16.8 16.8 17.0625 16.5 17.4 16.5C17.7 16.5 18 16.8 18 17.1V18.3H20.4V10.5375C20.2875 10.5375 20.175 10.5 20.1 10.5H18.3C17.925 10.5 17.5875 10.575 17.2875 10.6875C16.9875 10.8375 16.65 10.65 16.5375 10.35C16.3875 10.05 16.575 9.7125 16.875 9.6C17.2875 9.4125 17.775 9.3 18.3 9.3H20.1C22.2375 9.3 24 11.0625 24 13.2ZM21.6 15.45C22.3125 14.9625 22.8 14.1375 22.8 13.2C22.8 12.2625 22.3125 11.4375 21.6 10.9875V15.45ZM10.8 6.3C10.8 6.975 11.325 7.5 12 7.5C12.6375 7.5 13.2 6.975 13.2 6.3C13.2 5.6625 12.6375 5.1 12 5.1C11.325 5.1 10.8 5.6625 10.8 6.3ZM14.4 6.3C14.4 7.1625 13.9125 7.95 13.2 8.4C12.45 8.8125 11.5125 8.8125 10.8 8.4C10.05 7.95 9.59999 7.1625 9.59999 6.3C9.59999 5.475 10.05 4.6875 10.8 4.2375C11.5125 3.825 12.45 3.825 13.2 4.2375C13.9125 4.6875 14.4 5.475 14.4 6.3ZM11.4 9.9H12.6C14.7375 9.9 16.5 11.6625 16.5 13.8C16.5 15.3375 15.6375 16.6125 14.4 17.2875V19.8C14.4 20.325 13.9875 20.7 13.5 20.7H10.5C9.97499 20.7 9.59999 20.325 9.59999 19.8V17.2875C8.32499 16.6125 7.49999 15.3375 7.49999 13.8C7.49999 11.6625 9.22499 9.9 11.4 9.9ZM9.59999 11.8125C9.03749 12.3 8.69999 13.0125 8.69999 13.8C8.69999 14.625 9.03749 15.3375 9.59999 15.825V11.8125ZM10.8 19.5H13.2V11.175C12.975 11.1375 12.7875 11.1 12.6 11.1H11.4C11.175 11.1 10.9875 11.1375 10.8 11.175V19.5ZM14.4 15.825C14.925 15.3375 15.3 14.625 15.3 13.8C15.3 13.0125 14.925 12.3 14.4 11.8125V15.825Z" fill="#2563EB"/>
</svg>
