<svg width="24" height="24" viewBox="0 0 24 24" fill="none" xmlns="http://www.w3.org/2000/svg">
<path d="M4.79999 3.9C4.12499 3.9 3.59999 4.4625 3.59999 5.1V13.5H13.2V14.7H3.59999H2.39999H1.23749C1.46249 15.4125 2.09999 15.9 2.84999 15.9H13.2V17.1H2.84999C1.27499 17.1 -5.72205e-06 15.825 -5.72205e-06 14.25C-5.72205e-06 13.8375 0.299994 13.5 0.712494 13.5H2.39999V5.1C2.39999 3.7875 3.44999 2.7 4.79999 2.7H16.8C18.1125 2.7 19.2 3.7875 19.2 5.1V6.3H18V5.1C18 4.4625 17.4375 3.9 16.8 3.9H4.79999ZM15.6 9.3V20.1C15.6 20.4375 15.8625 20.7 16.2 20.7H22.2C22.5 20.7 22.8 20.4375 22.8 20.1V9.3C22.8 9 22.5 8.7 22.2 8.7H16.2C15.8625 8.7 15.6 9 15.6 9.3ZM14.4 9.3C14.4 8.325 15.1875 7.5 16.2 7.5H22.2C23.175 7.5 24 8.325 24 9.3V20.1C24 21.1125 23.175 21.9 22.2 21.9H16.2C15.1875 21.9 14.4 21.1125 14.4 20.1V9.3Z" fill="#545E66"/>
</svg>
