<svg width="4458" height="3884" viewBox="0 0 4458 3884" fill="none" xmlns="http://www.w3.org/2000/svg">
<path d="M3169.42 420.729C3169.42 424.829 3168.21 428.837 3165.93 432.246C3163.65 435.655 3160.41 438.312 3156.63 439.88C3152.84 441.449 3148.67 441.86 3144.65 441.06C3140.63 440.26 3136.94 438.286 3134.04 435.387C3131.14 432.488 3129.16 428.794 3128.36 424.773C3127.56 420.752 3127.97 416.584 3129.54 412.796C3131.11 409.009 3133.77 405.771 3137.18 403.494C3140.59 401.216 3144.59 400 3148.69 400C3151.42 400 3154.11 400.536 3156.63 401.578C3159.14 402.62 3161.43 404.147 3163.35 406.071C3165.28 407.996 3166.8 410.282 3167.85 412.796C3168.89 415.311 3169.42 418.007 3169.42 420.729Z" fill="#E0E0E0"/>
<path d="M3278.41 1818.92C3278.41 1818.92 3278.41 1817.92 3278.41 1816C3278.41 1814.07 3278.41 1811.15 3278.41 1807.52C3278.41 1799.9 3278.41 1788.86 3278.06 1774.75C3278.06 1746.26 3278.06 1704.51 3277.56 1652.73C3277.56 1548.8 3277.13 1403.41 3276.92 1238.21L3277.34 1239.42L3188.09 1131.93L3148.27 1083.71L3147.84 1083.21V1082.57C3147.84 898.07 3148.27 733.519 3148.41 615.341C3148.41 556.359 3148.84 508.49 3148.98 475.793C3148.98 459.552 3148.98 446.872 3149.34 438.039C3149.34 433.907 3149.34 430.915 3149.34 428.28C3149.34 425.644 3149.34 424.932 3149.34 424.932C3149.34 424.932 3149.34 426.071 3149.34 428.28C3149.34 430.488 3149.34 433.907 3149.34 438.039C3149.34 446.872 3149.34 459.409 3149.34 475.793C3149.34 508.774 3149.34 556.359 3149.91 615.341C3149.91 733.732 3150.26 898.07 3150.55 1082.57L3150.12 1081.36L3189.94 1129.58L3278.7 1237.07L3279.12 1237.57V1238.21C3279.12 1403.69 3278.63 1548.8 3278.48 1652.73C3278.48 1704.51 3278.06 1745.97 3277.91 1774.75C3277.91 1789 3277.91 1799.9 3277.91 1807.52C3277.91 1811.15 3277.91 1813.93 3277.91 1816C3277.91 1818.06 3278.41 1818.92 3278.41 1818.92Z" fill="#E0E0E0"/>
<path d="M3516.48 1697.32C3515.27 1701.34 3513.42 1705.15 3510.99 1708.57C3504.49 1718.24 3494.81 1725.32 3483.64 1728.59C3475.95 1730.92 3467.83 1731.41 3459.92 1730.02C3450.8 1728.36 3442.29 1724.31 3435.27 1718.26C3431.43 1715.03 3428.14 1711.21 3425.51 1706.94C3422.65 1702.56 3420.51 1697.75 3419.17 1692.69C3416.2 1682.03 3416.75 1670.69 3420.72 1660.36C3424.7 1650.03 3431.9 1641.26 3441.25 1635.35C3445.63 1632.48 3450.44 1630.34 3455.5 1629.01C3460.32 1627.65 3465.32 1627.05 3470.32 1627.23C3477.55 1627.32 3484.68 1628.95 3491.23 1632.01C3497.79 1635.07 3503.61 1639.49 3508.33 1644.97C3513.05 1650.45 3516.54 1656.88 3518.58 1663.81C3520.63 1670.75 3521.17 1678.05 3520.18 1685.21C3519.7 1689.39 3518.52 1693.46 3516.69 1697.25C3516.34 1697.25 3518.19 1692.97 3519.11 1685.07C3519.86 1678.19 3519.16 1671.22 3517.06 1664.63C3514.97 1658.03 3511.52 1651.94 3506.95 1646.75C3502.37 1641.55 3496.76 1637.37 3490.48 1634.46C3484.2 1631.56 3477.38 1629.99 3470.46 1629.86C3465.64 1629.72 3460.83 1630.35 3456.21 1631.71C3451.45 1632.96 3446.93 1634.98 3442.82 1637.7C3434.01 1643.32 3427.23 1651.62 3423.46 1661.37C3419.7 1671.12 3419.14 1681.82 3421.88 1691.91C3423.14 1696.71 3425.16 1701.28 3427.86 1705.44C3430.35 1709.46 3433.42 1713.08 3436.98 1716.2C3443.19 1721.63 3450.65 1725.43 3458.7 1727.25C3466.75 1729.07 3475.13 1728.84 3483.07 1726.6C3493.9 1723.54 3503.41 1716.94 3510.07 1707.86C3514.77 1701.45 3516.12 1697.18 3516.48 1697.32Z" fill="#E0E0E0"/>
<path d="M3564.06 1745.33H3565.84L3571.19 1745.97L3592.56 1748.82H3592.06L3608.37 1705.23V1706.08L3584.65 1690.34H3584.22V1689.84C3585.28 1679.68 3584.99 1669.43 3583.37 1659.35V1658.78L3583.86 1658.43L3606.66 1641.33L3606.3 1642.61L3587.07 1599.87L3588.35 1600.58L3560.43 1606.14H3559.72L3559.29 1605.57C3552.89 1597.64 3545.46 1590.6 3537.21 1584.63L3536.57 1584.2V1583.42C3537.85 1574.73 3539.2 1565.04 3540.63 1555.28L3541.48 1556.63L3497.46 1539.75L3499.02 1539.25L3483.21 1562.9L3482.71 1563.61H3481.93C3471.82 1562.56 3461.62 1562.84 3451.58 1564.47H3450.73L3450.23 1563.83L3433.2 1540.96L3434.91 1541.46L3391.82 1560.55L3392.67 1558.98C3394.38 1567.82 3396.3 1577.29 3398.16 1586.91V1587.76L3397.44 1588.33C3389.53 1594.7 3382.49 1602.07 3376.5 1610.27C3375.93 1610.27 3377.93 1609.7 3375.15 1610.91H3374.29H3373.37H3371.59L3368.1 1610.41L3360.97 1609.42L3346.73 1607.35L3348.29 1606.42C3342.59 1621.31 3336.9 1635.99 3331.34 1650.45L3330.77 1648.74L3354.42 1664.55L3355.13 1665.05V1665.91C3354.01 1676.01 3354.25 1686.21 3355.84 1696.25V1697.11L3355.2 1697.6L3332.34 1714.63L3332.76 1712.92C3339.25 1727.67 3345.66 1742.05 3351.85 1756.02L3350.36 1755.3L3378.28 1749.82H3379.07L3379.56 1750.39C3385.93 1758.35 3393.33 1765.42 3401.58 1771.4L3402.15 1771.83V1772.61C3400.72 1782.23 3399.3 1791.63 3397.94 1800.75L3397.23 1799.47L3441.18 1816.49L3439.83 1816.92L3455.79 1793.34L3456.14 1792.77H3456.71C3466.86 1793.89 3477.11 1793.68 3487.2 1792.13H3487.77L3488.13 1792.63C3494.25 1800.97 3499.81 1808.44 3505.08 1815.5H3504.01L3547.18 1796.55L3546.82 1797.26C3544.69 1786.08 3542.98 1776.89 3541.48 1769.27C3547.53 1764.46 3553.11 1759.09 3558.15 1753.24L3561.78 1748.82C3562.15 1748.3 3562.56 1747.8 3562.99 1747.33L3562 1748.96C3561.21 1749.96 3560.14 1751.53 3558.51 1753.52C3553.63 1759.56 3548.14 1765.08 3542.12 1769.98V1769.55L3547.82 1797.4V1797.97H3547.39L3504.65 1817.28H3504.01L3503.58 1816.78C3498.31 1809.66 3492.76 1802.53 3486.49 1793.98L3487.41 1794.34C3477.17 1796.04 3466.75 1796.32 3456.43 1795.2L3457.42 1794.77L3441.61 1818.42L3441.11 1819.2L3440.33 1818.85L3396.3 1802.03L3395.38 1801.68V1800.68C3396.66 1791.56 3398.01 1782.16 3399.44 1772.19L3399.94 1773.33C3391.51 1767.24 3383.94 1760.06 3377.43 1751.96L3378.71 1752.45L3350.71 1757.94H3349.72L3349.22 1757.01L3331.27 1713.06L3330.77 1712.06L3331.7 1711.42L3354.49 1694.33L3353.99 1695.68C3352.32 1685.41 3352.03 1674.97 3353.14 1664.62L3353.78 1665.91L3330.13 1650.09L3329.13 1649.45L3329.56 1648.38C3335.11 1634.13 3340.81 1619.25 3346.51 1604.36L3346.94 1603.29H3348.08L3362.33 1605.28L3369.45 1606.35L3373.01 1606.85H3374.79H3375.72H3376.57L3375.15 1607.49C3381.26 1599.09 3388.45 1591.53 3396.52 1584.98L3396.02 1586.41C3394.17 1576.79 3392.24 1567.32 3390.54 1558.48V1557.34L3391.6 1556.85L3434.7 1537.75L3435.7 1537.33L3436.41 1538.18L3453.36 1561.05L3452.08 1560.55C3462.35 1558.91 3472.8 1558.65 3483.14 1559.77L3481.86 1560.34L3497.74 1536.76L3498.31 1535.83L3499.31 1536.26L3543.33 1553.21L3544.26 1553.57V1554.64C3542.83 1564.47 3541.41 1574.08 3540.13 1582.77L3539.63 1581.63C3548.02 1587.74 3555.56 1594.92 3562.07 1603.01L3560.86 1602.58L3588.85 1597.09H3589.78L3590.13 1597.88C3596.76 1613.05 3603.17 1627.44 3609.15 1641.04V1641.76L3608.51 1642.26L3585.65 1659.21L3586 1658.35C3587.63 1668.58 3587.84 1678.98 3586.64 1689.27L3586.29 1688.49L3609.87 1704.44L3610.36 1704.8V1705.3C3603.24 1723.18 3597.61 1737.99 3593.2 1749.18V1749.53L3572.32 1746.19L3566.91 1745.33H3564.06Z" fill="#E0E0E0"/>
<path fill-rule="evenodd" clip-rule="evenodd" d="M3786.45 1340.86C3776.95 1354.02 3765.72 1365.84 3753.05 1375.98L3761.74 1420.08L3693.85 1450.21L3666.92 1413.88C3650.91 1416.46 3634.61 1416.87 3618.48 1415.09L3593.41 1452.42L3524.03 1425.7L3530.58 1381.25C3517.44 1371.71 3505.62 1360.45 3495.46 1347.77L3451.65 1356.89L3421.45 1288.93L3457.49 1262.08C3454.95 1246.06 3454.54 1229.77 3456.28 1213.64L3418.96 1188.64L3445.74 1119.25L3490.19 1125.74C3499.71 1112.59 3510.95 1100.78 3523.6 1090.62L3514.91 1046.52L3582.87 1016.39L3609.72 1052.44C3625.77 1049.86 3642.08 1049.45 3658.23 1051.22L3683.24 1013.9L3752.62 1040.61L3746.14 1085.06C3759.28 1094.61 3771.09 1105.86 3781.25 1118.54L3825.35 1109.78L3855.48 1177.81L3819.44 1204.66C3821.98 1220.68 3822.39 1236.97 3820.65 1253.1L3857.97 1278.11L3831.19 1347.49L3786.74 1341.01L3786.45 1340.86ZM3711.37 1265.07C3717.06 1250.34 3718.26 1234.26 3714.8 1218.86C3711.35 1203.45 3703.4 1189.42 3691.96 1178.53C3680.53 1167.65 3666.12 1160.4 3650.57 1157.7C3635.01 1155.01 3619.01 1156.99 3604.58 1163.4C3590.15 1169.8 3577.95 1180.35 3569.51 1193.69C3561.08 1207.04 3556.79 1222.58 3557.2 1238.37C3557.6 1254.15 3562.68 1269.46 3571.79 1282.35C3580.9 1295.24 3593.63 1305.15 3608.37 1310.8C3628.09 1318.37 3650.02 1317.81 3669.33 1309.23C3688.64 1300.66 3703.76 1284.78 3711.37 1265.07Z" fill="#EBEBEB"/>
<path d="M1096.01 1616.18C1107.81 1616.18 1117.38 1606.62 1117.38 1594.81C1117.38 1583.01 1107.81 1573.44 1096.01 1573.44C1084.2 1573.44 1074.63 1583.01 1074.63 1594.81C1074.63 1606.62 1084.2 1616.18 1096.01 1616.18Z" fill="#E0E0E0"/>
<path d="M1096.01 2272.89C1095.01 2272.89 1094.15 2124.58 1094.15 1941.65C1094.15 1758.72 1095.01 1610.34 1096.01 1610.34C1097 1610.34 1097.86 1758.58 1097.86 1941.65C1097.86 2124.73 1097.07 2272.89 1096.01 2272.89Z" fill="#E0E0E0"/>
<path d="M1894.97 566.19C1894.97 570.416 1893.72 574.548 1891.37 578.062C1889.02 581.577 1885.68 584.316 1881.78 585.933C1877.87 587.551 1873.58 587.974 1869.43 587.149C1865.28 586.325 1861.48 584.289 1858.49 581.301C1855.5 578.312 1853.46 574.504 1852.64 570.359C1851.81 566.213 1852.24 561.917 1853.86 558.012C1855.47 554.107 1858.21 550.769 1861.73 548.421C1865.24 546.073 1869.37 544.819 1873.6 544.819C1879.27 544.819 1884.7 547.071 1888.71 551.079C1892.72 555.086 1894.97 560.522 1894.97 566.19Z" fill="#E0E0E0"/>
<path d="M1873.6 1927.76C1872.53 1927.76 1871.75 1626.44 1871.75 1254.88C1871.75 883.325 1872.53 581.861 1873.6 581.861C1874.67 581.861 1875.45 883.111 1875.45 1254.88C1875.45 1626.66 1874.6 1927.76 1873.6 1927.76Z" fill="#E0E0E0"/>
<path d="M753.582 1364.37C753.582 1368.88 752.246 1373.3 749.743 1377.05C747.24 1380.81 743.681 1383.74 739.515 1385.47C735.349 1387.21 730.763 1387.68 726.333 1386.81C721.903 1385.95 717.829 1383.79 714.622 1380.61C711.416 1377.44 709.222 1373.38 708.315 1368.96C707.409 1364.54 707.832 1359.95 709.529 1355.77C711.227 1351.58 714.125 1348 717.857 1345.46C721.589 1342.92 725.989 1341.55 730.502 1341.5C733.523 1341.48 736.519 1342.05 739.318 1343.18C742.117 1344.32 744.663 1346 746.809 1348.13C748.955 1350.25 750.659 1352.78 751.821 1355.57C752.984 1358.36 753.582 1361.35 753.582 1364.37Z" fill="#E0E0E0"/>
<path d="M732.069 1364.37C732.069 1364.37 732.069 1365.58 732.069 1367.93C732.069 1370.28 732.069 1373.92 732.069 1378.47C732.069 1387.88 732.069 1401.55 732.069 1419.29C732.069 1454.91 732.069 1507.12 732.568 1572.52C732.568 1703.66 732.924 1888.51 733.209 2103.85V2104.42V2104.92C700.797 2149.87 666.819 2196.89 631.985 2245.25L632.341 2244.19V2429.39C632.341 2591.6 632.341 2745.6 632.341 2883.16L631.914 2882.09L754.793 3030.9V3031.25V3031.82C754.793 3169.02 754.294 3281.78 754.152 3360.36C754.152 3399.61 754.152 3430.24 754.152 3451.18C754.152 3461.58 754.152 3469.49 754.152 3474.97C754.152 3480.46 754.152 3483.09 754.152 3483.09C754.152 3483.09 754.152 3480.31 754.152 3474.97C754.152 3469.63 754.152 3461.58 754.152 3451.18C754.152 3430.24 754.152 3399.61 753.725 3360.36C753.725 3282 753.725 3169.02 753.083 3031.82V3032.75L629.492 2884.23L629.064 2883.73V2883.16C629.064 2745.6 629.064 2591.6 629.064 2429.39V2243.54L629.421 2243.12L730.502 2102.86L730.146 2103.85C730.146 1888.51 730.645 1703.66 730.787 1572.52C730.787 1507.12 731.214 1455.12 731.286 1419.29C731.286 1401.55 731.286 1387.88 731.286 1378.47C731.286 1373.92 731.286 1370.43 731.286 1367.93C731.286 1365.44 732.069 1364.37 732.069 1364.37Z" fill="#E0E0E0"/>
<path d="M2360.56 1073.81C2374.76 1073.81 2386.27 1062.29 2386.27 1048.09C2386.27 1033.89 2374.76 1022.37 2360.56 1022.37C2346.35 1022.37 2334.84 1033.89 2334.84 1048.09C2334.84 1062.29 2346.35 1073.81 2360.56 1073.81Z" fill="#E0E0E0"/>
<path d="M2219.3 2546.36C2233.5 2546.36 2245.02 2534.85 2245.02 2520.65C2245.02 2506.44 2233.5 2494.93 2219.3 2494.93C2205.1 2494.93 2193.58 2506.44 2193.58 2520.65C2193.58 2534.85 2205.1 2546.36 2219.3 2546.36Z" fill="#E0E0E0"/>
<path d="M2364.33 1048.09C2364.39 1048.85 2364.39 1049.61 2364.33 1050.37C2364.33 1052.01 2364.33 1054.22 2364.33 1056.99C2364.33 1063.05 2364.33 1071.67 2364.33 1082.92C2364.33 1105.65 2364.33 1138.63 2364.83 1180.3C2364.83 1263.93 2365.19 1382.18 2365.47 1521.37V1522.08L2364.97 1522.58L2220.01 1667.69L2220.58 1666.4V1747.04C2220.58 1956.61 2220.15 2146.38 2220.01 2283.86C2220.01 2352.39 2219.58 2407.95 2219.44 2446.49C2219.44 2465.58 2219.44 2480.47 2219.44 2490.73C2219.44 2495.64 2219.44 2499.49 2219.44 2502.2C2219.44 2504.9 2219.44 2506.11 2219.44 2506.11C2219.44 2506.11 2219.44 2504.83 2219.44 2502.2C2219.44 2499.56 2219.44 2495.64 2219.44 2490.73C2219.44 2480.47 2219.44 2465.58 2219.44 2446.49C2219.44 2407.95 2219.09 2352.39 2218.87 2283.86C2218.87 2146.38 2218.87 1956.61 2218.3 1747.04V1665.62L2218.87 1665.05C2270.09 1613.9 2319.1 1564.89 2363.98 1520.16L2363.48 1521.37C2363.48 1382.18 2363.98 1263.93 2364.12 1180.3C2364.12 1138.63 2364.55 1105.65 2364.62 1082.92C2364.62 1071.67 2364.62 1063.05 2364.62 1056.99C2364.62 1054.22 2364.62 1052.01 2364.62 1050.37C2364.46 1049.62 2364.37 1048.86 2364.33 1048.09Z" fill="#E0E0E0"/>
<path d="M3673.9 1742.34H2315.68V2583.47H3673.9V1742.34Z" fill="#FAFAFA"/>
<path d="M3673.9 2583.47C3673.9 2583.47 3673.9 2578.27 3673.9 2568.3C3673.9 2558.33 3673.9 2543.51 3673.9 2524.14C3673.9 2485.46 3673.9 2428.54 3673.9 2355.52C3673.9 2209.64 3673.48 1999.35 3673.12 1742.34L3674.62 1743.76L2316.53 1744.19L2318.38 1742.34C2318.38 2040.53 2318.38 2324.82 2318.38 2583.47L2316.68 2581.77L3294.37 2582.62L3574.46 2583.05H3649.04H3668.28H3649.26H3574.96L3295.29 2583.47L2316.46 2584.33H2314.75V2582.62C2314.75 2323.97 2314.75 2039.67 2314.75 1741.48V1739.63H2316.75L3674.83 1739.99H3676.25V1741.48C3676.25 1999.07 3675.68 2209.49 3675.47 2355.6C3675.47 2428.4 3675.47 2485.24 3675.11 2523.85C3675.11 2543.08 3675.11 2557.76 3675.11 2567.73C3675.11 2577.7 3673.9 2583.47 3673.9 2583.47Z" fill="#263238"/>
<path d="M3673.19 1824.4C3673.19 1825.47 3369.73 1826.25 2995.47 1826.25C2621.2 1826.25 2317.74 1825.47 2317.74 1824.4C2317.74 1823.33 2621.13 1822.55 2995.47 1822.55C3369.8 1822.55 3673.19 1823.4 3673.19 1824.4Z" fill="#263238"/>
<path d="M2387.91 1787.29C2387.91 1789.5 2387.25 1791.66 2386.02 1793.5C2384.79 1795.34 2383.05 1796.78 2381 1797.62C2378.96 1798.47 2376.71 1798.69 2374.54 1798.26C2372.37 1797.83 2370.38 1796.76 2368.82 1795.2C2367.25 1793.63 2366.19 1791.64 2365.76 1789.47C2365.32 1787.3 2365.55 1785.05 2366.39 1783.01C2367.24 1780.97 2368.67 1779.22 2370.51 1777.99C2372.35 1776.76 2374.51 1776.11 2376.72 1776.11C2378.2 1776.1 2379.65 1776.38 2381.02 1776.94C2382.38 1777.5 2383.61 1778.32 2384.65 1779.36C2385.69 1780.4 2386.52 1781.64 2387.08 1783C2387.64 1784.36 2387.92 1785.82 2387.91 1787.29Z" fill="#263238"/>
<path d="M2428.16 1787.29C2428.14 1789.48 2427.48 1791.63 2426.25 1793.44C2425.02 1795.26 2423.28 1796.67 2421.25 1797.5C2419.22 1798.34 2416.98 1798.55 2414.83 1798.11C2412.68 1797.67 2410.71 1796.61 2409.16 1795.05C2407.61 1793.49 2406.56 1791.51 2406.14 1789.36C2405.72 1787.21 2405.94 1784.98 2406.78 1782.95C2407.63 1780.92 2409.05 1779.19 2410.88 1777.97C2412.7 1776.76 2414.85 1776.11 2417.04 1776.11C2418.51 1776.11 2419.96 1776.4 2421.31 1776.96C2422.67 1777.52 2423.89 1778.35 2424.93 1779.39C2425.96 1780.42 2426.78 1781.66 2427.33 1783.01C2427.89 1784.37 2428.17 1785.82 2428.16 1787.29Z" fill="#263238"/>
<path d="M2457.29 1798.4C2463.43 1798.4 2468.4 1793.43 2468.4 1787.29C2468.4 1781.15 2463.43 1776.18 2457.29 1776.18C2451.15 1776.18 2446.18 1781.15 2446.18 1787.29C2446.18 1793.43 2451.15 1798.4 2457.29 1798.4Z" fill="#263238"/>
<path d="M2463.85 1974.92L2431.58 1987.31L2463.85 1999.78V2007.33L2423.1 1991.23V1983.75L2463.85 1967.72V1974.92Z" fill="#263238"/>
<path d="M2497.11 1942.65H2505.02L2475.03 2028.13H2467.12L2497.11 1942.65Z" fill="#263238"/>
<path d="M2548.76 1983.75V1991.59L2508.01 2007.69V2000.14L2540.35 1987.67L2508.01 1975.28V1967.37L2548.76 1983.75Z" fill="#263238"/>
<path d="M2559.01 2013.39C2559 2012.57 2559.16 2011.77 2559.47 2011.01C2559.78 2010.26 2560.23 2009.58 2560.81 2009.01C2561.39 2008.43 2562.08 2007.99 2562.83 2007.69C2563.59 2007.39 2564.4 2007.24 2565.21 2007.26C2566.01 2007.25 2566.81 2007.4 2567.55 2007.71C2568.29 2008.01 2568.96 2008.47 2569.52 2009.04C2570.08 2009.61 2570.51 2010.29 2570.8 2011.04C2571.09 2011.79 2571.22 2012.59 2571.2 2013.39C2571.22 2014.19 2571.09 2015 2570.8 2015.75C2570.52 2016.51 2570.08 2017.2 2569.52 2017.78C2568.97 2018.36 2568.3 2018.83 2567.56 2019.15C2566.82 2019.47 2566.02 2019.65 2565.21 2019.65C2564.39 2019.65 2563.58 2019.49 2562.82 2019.18C2562.07 2018.86 2561.38 2018.4 2560.8 2017.81C2560.23 2017.23 2559.77 2016.54 2559.47 2015.78C2559.16 2015.02 2559 2014.21 2559.01 2013.39Z" fill="#263238"/>
<path d="M2579.67 2013.39C2579.65 2012.57 2579.8 2011.76 2580.1 2011C2580.41 2010.24 2580.87 2009.56 2581.45 2008.98C2582.03 2008.41 2582.72 2007.96 2583.48 2007.66C2584.24 2007.37 2585.05 2007.23 2585.87 2007.26C2586.67 2007.25 2587.46 2007.4 2588.2 2007.71C2588.94 2008.01 2589.61 2008.47 2590.17 2009.04C2590.73 2009.61 2591.17 2010.29 2591.46 2011.04C2591.75 2011.79 2591.88 2012.59 2591.85 2013.39C2591.88 2014.19 2591.75 2015 2591.46 2015.75C2591.17 2016.51 2590.74 2017.2 2590.18 2017.78C2589.62 2018.36 2588.96 2018.83 2588.21 2019.15C2587.47 2019.48 2586.68 2019.65 2585.87 2019.65C2585.05 2019.66 2584.23 2019.51 2583.47 2019.2C2582.71 2018.88 2582.02 2018.42 2581.44 2017.84C2580.86 2017.25 2580.41 2016.56 2580.1 2015.79C2579.8 2015.03 2579.65 2014.21 2579.67 2013.39Z" fill="#263238"/>
<path d="M2600.33 2013.39C2600.31 2012.58 2600.46 2011.77 2600.76 2011.02C2601.06 2010.27 2601.51 2009.58 2602.08 2009.01C2602.65 2008.44 2603.34 2007.99 2604.09 2007.69C2604.84 2007.39 2605.65 2007.24 2606.46 2007.26C2607.26 2007.25 2608.05 2007.4 2608.79 2007.71C2609.53 2008.01 2610.2 2008.47 2610.76 2009.04C2611.32 2009.61 2611.76 2010.29 2612.05 2011.04C2612.33 2011.79 2612.47 2012.59 2612.44 2013.39C2612.47 2014.19 2612.34 2015 2612.05 2015.75C2611.76 2016.51 2611.33 2017.2 2610.77 2017.78C2610.21 2018.36 2609.54 2018.83 2608.8 2019.15C2608.06 2019.47 2607.26 2019.65 2606.46 2019.65C2605.64 2019.65 2604.83 2019.49 2604.08 2019.17C2603.33 2018.86 2602.64 2018.39 2602.07 2017.81C2601.5 2017.23 2601.05 2016.53 2600.75 2015.77C2600.46 2015.01 2600.31 2014.2 2600.33 2013.39Z" fill="#263238"/>
<path d="M3321.51 2095.02C3321.51 2096.02 3120.7 2096.87 2872.73 2096.87C2624.76 2096.87 2424.31 2096.02 2424.31 2095.02C2424.31 2094.02 2625.05 2093.1 2872.73 2093.1C3120.41 2093.1 3321.51 2093.95 3321.51 2095.02Z" fill="#2563EB"/>
<path d="M3467.97 2097.73C3439.29 2100.2 3410.45 2100.2 3381.77 2097.73C3410.45 2095.26 3439.29 2095.26 3467.97 2097.73Z" fill="#263238"/>
<path d="M3594.12 2097.73C3562.78 2100.2 3531.29 2100.2 3499.95 2097.73C3531.29 2095.26 3562.78 2095.26 3594.12 2097.73Z" fill="#263238"/>
<path d="M2995.75 2170.53C2995.75 2171.6 2868.1 2172.38 2710.81 2172.38C2553.53 2172.38 2425.88 2171.6 2425.88 2170.53C2425.88 2169.46 2553.46 2168.68 2710.81 2168.68C2868.17 2168.68 2995.75 2169.53 2995.75 2170.53Z" fill="#2563EB"/>
<path d="M2991.62 2452.47C2991.62 2453.54 2864.04 2454.33 2706.68 2454.33C2549.33 2454.33 2421.75 2453.54 2421.75 2452.47C2421.75 2451.41 2549.33 2450.62 2706.68 2450.62C2864.04 2450.62 2991.62 2451.48 2991.62 2452.47Z" fill="#2563EB"/>
<path d="M3202.83 2170.53C3202.83 2171.6 3168.07 2172.38 3125.26 2172.38C3082.44 2172.38 3047.68 2171.6 3047.68 2170.53C3047.68 2169.46 3082.44 2168.68 3125.26 2168.68C3168.07 2168.68 3202.83 2169.53 3202.83 2170.53Z" fill="#263238"/>
<path d="M3201.19 2452.47C3201.19 2453.54 3166.5 2454.33 3123.62 2454.33C3080.74 2454.33 3046.12 2453.54 3046.12 2452.47C3046.12 2451.41 3080.81 2450.62 3123.62 2450.62C3166.43 2450.62 3201.19 2451.48 3201.19 2452.47Z" fill="#263238"/>
<path d="M2463.13 2209C2450.43 2211.47 2437.37 2211.47 2424.67 2209C2437.37 2206.53 2450.43 2206.53 2463.13 2209Z" fill="#2563EB"/>
<path d="M2595.7 2209.78C2581.92 2211.66 2568 2212.31 2554.1 2211.7C2540.16 2212.34 2526.19 2211.72 2512.36 2209.85C2540.15 2207.38 2568.12 2207.38 2595.91 2209.85L2595.7 2209.78Z" fill="#263238"/>
<path d="M2680.54 2209.78C2656.74 2212.25 2632.75 2212.25 2608.95 2209.78C2632.75 2207.31 2656.74 2207.31 2680.54 2209.78Z" fill="#263238"/>
<path d="M2787.89 2209.78C2763.64 2212.25 2739.2 2212.25 2714.95 2209.78C2739.2 2207.31 2763.64 2207.31 2787.89 2209.78Z" fill="#263238"/>
<path d="M2881.78 2209.78C2859.76 2212.25 2837.54 2212.25 2815.53 2209.78C2837.54 2207.31 2859.76 2207.31 2881.78 2209.78Z" fill="#263238"/>
<path d="M3193.57 2209.78C3193.57 2210.85 3128.25 2211.63 3047.75 2211.63C2967.26 2211.63 2901.87 2210.85 2901.87 2209.78C2901.87 2208.71 2967.19 2207.93 3047.75 2207.93C3128.32 2207.93 3193.57 2208.78 3193.57 2209.78Z" fill="#263238"/>
<path d="M2457.79 2258.08C2446.89 2260.55 2435.57 2260.55 2424.67 2258.08C2435.56 2255.51 2446.9 2255.51 2457.79 2258.08Z" fill="#2563EB"/>
<path d="M2459.14 2308.44C2447.78 2310.91 2436.03 2310.91 2424.67 2308.44C2436.03 2305.97 2447.78 2305.97 2459.14 2308.44Z" fill="#2563EB"/>
<path d="M2459.14 2365.43C2447.78 2367.9 2436.03 2367.9 2424.67 2365.43C2436.03 2362.96 2447.78 2362.96 2459.14 2365.43Z" fill="#2563EB"/>
<path d="M2773.29 2362.79C2773.29 2363.79 2715.73 2364.64 2645.07 2364.64C2574.4 2364.64 2516.49 2363.79 2516.49 2362.79C2516.49 2361.79 2574.05 2360.94 2645.07 2360.94C2716.09 2360.94 2773.29 2361.72 2773.29 2362.79Z" fill="#263238"/>
<path d="M2750.78 2308.44C2750.78 2309.44 2695.86 2310.29 2628.18 2310.29C2560.51 2310.29 2505.52 2309.44 2505.52 2308.44C2505.52 2307.44 2560.44 2306.59 2628.18 2306.59C2695.93 2306.59 2750.78 2307.37 2750.78 2308.44Z" fill="#263238"/>
<path d="M3343.3 2255.37C3343.3 2256.44 3156.38 2257.22 2925.8 2257.22C2695.21 2257.22 2508.15 2256.44 2508.15 2255.37C2508.15 2254.3 2695.07 2253.52 2925.8 2253.52C3156.53 2253.52 3343.3 2254.44 3343.3 2255.37Z" fill="#263238"/>
<path d="M3051.46 605.44H2479.16V1588.47H3051.46V605.44Z" fill="#FAFAFA"/>
<path d="M3051.46 1588.47C3051.46 1588.47 3051.46 1586.84 3051.46 1583.63C3051.46 1580.42 3051.46 1575.79 3051.46 1569.38C3051.46 1556.99 3051.46 1538.82 3051.46 1515.24C3051.46 1468.02 3051.46 1399.13 3051.03 1312.23C3051.03 1138.56 3050.53 893.084 3050.18 605.155L3051.89 606.865H2479.66L2481.51 605.013C2481.51 980.061 2481.51 1324.05 2481.16 1588.05L2479.66 1586.62L2897.09 1587.41L3011.64 1587.76H3041.63H3051.96H3041.91H3012.21H2898.23L2479.87 1588.54H2478.45V1587.12C2478.45 1323.13 2478.45 979.135 2478.02 604.086V602.234H2479.94H3052.17H3053.88V603.944C3053.52 892.301 3053.24 1138.2 3053.02 1312.16C3053.02 1398.92 3052.67 1467.66 3052.6 1514.82C3052.6 1538.25 3052.6 1556.28 3052.6 1568.6C3052.6 1574.58 3052.6 1579.21 3052.6 1582.35C3052.6 1585.48 3051.46 1588.47 3051.46 1588.47Z" fill="#263238"/>
<path d="M2519.55 660.362C2525.96 660.362 2531.16 655.164 2531.16 648.751C2531.16 642.338 2525.96 637.14 2519.55 637.14C2513.14 637.14 2507.94 642.338 2507.94 648.751C2507.94 655.164 2513.14 660.362 2519.55 660.362Z" fill="#263238"/>
<path d="M2561.51 660.362C2567.92 660.362 2573.12 655.164 2573.12 648.751C2573.12 642.338 2567.92 637.14 2561.51 637.14C2555.1 637.14 2549.9 642.338 2549.9 648.751C2549.9 655.164 2555.1 660.362 2561.51 660.362Z" fill="#263238"/>
<path d="M2615.08 648.75C2615.13 651.058 2614.5 653.33 2613.26 655.277C2612.02 657.223 2610.23 658.756 2608.11 659.678C2605.99 660.601 2603.65 660.872 2601.38 660.457C2599.11 660.041 2597.01 658.959 2595.36 657.347C2593.71 655.735 2592.57 653.667 2592.1 651.407C2591.63 649.147 2591.84 646.798 2592.71 644.66C2593.58 642.522 2595.07 640.691 2596.99 639.402C2598.9 638.113 2601.16 637.425 2603.47 637.424C2606.5 637.423 2609.41 638.607 2611.58 640.723C2613.75 642.84 2615 645.72 2615.08 648.75Z" fill="#263238"/>
<path d="M2894.17 916.805C2894.17 917.874 2821.58 918.658 2732.11 918.658C2642.64 918.658 2570.13 917.874 2570.13 916.805C2570.13 915.737 2642.64 915.238 2732.19 915.238C2821.73 915.238 2894.17 915.808 2894.17 916.805Z" fill="#2563EB"/>
<path d="M2961.7 995.519C2961.7 996.588 2873.44 997.371 2764.53 997.371C2655.61 997.371 2567.35 996.588 2567.35 995.519C2567.35 994.451 2655.61 993.667 2764.53 993.667C2873.44 993.667 2961.7 994.522 2961.7 995.519Z" fill="#2563EB"/>
<path d="M2977.8 1289.22C2977.8 1290.29 2883.63 1291.07 2767.52 1291.07C2651.41 1291.07 2557.3 1290.29 2557.3 1289.22C2557.3 1288.15 2651.41 1287.37 2767.52 1287.37C2883.63 1287.37 2977.8 1288.22 2977.8 1289.22Z" fill="#2563EB"/>
<path d="M2600.47 1035.55C2587.24 1038.02 2573.67 1038.02 2560.44 1035.55C2573.67 1033.08 2587.24 1033.08 2600.47 1035.55Z" fill="#2563EB"/>
<path d="M2738.6 1036.34C2709.66 1038.81 2680.56 1038.81 2651.62 1036.34C2680.56 1033.87 2709.66 1033.87 2738.6 1036.34Z" fill="#2563EB"/>
<path d="M2826.93 1036.34C2802.15 1038.81 2777.19 1038.81 2752.42 1036.34C2777.19 1033.87 2802.15 1033.87 2826.93 1036.34Z" fill="#2563EB"/>
<path d="M2594.99 1086.7C2583.6 1089.17 2571.82 1089.17 2560.44 1086.7C2571.82 1084.23 2583.6 1084.23 2594.99 1086.7Z" fill="#2563EB"/>
<path d="M2596.34 1139.13C2584.59 1141.56 2572.47 1141.56 2560.72 1139.13C2572.47 1136.7 2584.59 1136.7 2596.34 1139.13Z" fill="#2563EB"/>
<path d="M2596.34 1198.54C2584.59 1200.97 2572.47 1200.97 2560.72 1198.54C2572.47 1196.11 2584.59 1196.11 2596.34 1198.54Z" fill="#2563EB"/>
<path d="M2923.59 1195.76C2923.59 1196.76 2863.61 1197.61 2789.67 1197.61C2715.73 1197.61 2655.75 1196.76 2655.75 1195.76C2655.75 1194.76 2715.66 1193.91 2789.67 1193.91C2863.68 1193.91 2923.59 1194.76 2923.59 1195.76Z" fill="#2563EB"/>
<path d="M2900.16 1139.13C2900.16 1140.2 2843.17 1140.98 2772.43 1140.98C2701.7 1140.98 2644.71 1140.2 2644.71 1139.13C2644.71 1138.06 2701.7 1137.28 2772.43 1137.28C2843.17 1137.28 2900.16 1138.13 2900.16 1139.13Z" fill="#2563EB"/>
<path d="M2622.48 1367.65C2610.74 1370.08 2598.62 1370.08 2586.87 1367.65C2598.62 1365.22 2610.74 1365.22 2622.48 1367.65Z" fill="#2563EB"/>
<path d="M2622.48 1426.99C2610.74 1429.42 2598.62 1429.42 2586.87 1426.99C2598.62 1424.56 2610.74 1424.56 2622.48 1426.99Z" fill="#2563EB"/>
<path d="M2949.74 1424.28C2949.74 1425.28 2889.76 1426.13 2815.81 1426.13C2741.87 1426.13 2681.89 1425.28 2681.89 1424.28C2681.89 1423.28 2741.8 1422.43 2815.81 1422.43C2889.83 1422.43 2949.74 1423.21 2949.74 1424.28Z" fill="#2563EB"/>
<path d="M2926.3 1367.65C2926.3 1368.64 2869.31 1369.5 2798.57 1369.5C2727.84 1369.5 2670.85 1368.64 2670.85 1367.65C2670.85 1366.65 2727.84 1365.79 2798.57 1365.79C2869.31 1365.79 2926.3 1366.65 2926.3 1367.65Z" fill="#2563EB"/>
<path d="M2995.11 1083.92C2995.11 1084.92 2917.25 1085.77 2821.3 1085.77C2725.35 1085.77 2647.42 1084.92 2647.42 1083.92C2647.42 1082.92 2725.28 1082.07 2821.3 1082.07C2917.32 1082.07 2995.11 1082.92 2995.11 1083.92Z" fill="#2563EB"/>
<path d="M3046.04 694.412C3046.04 695.48 2920.39 696.264 2765.45 696.264C2610.52 696.264 2484.79 695.48 2484.79 694.412C2484.79 693.343 2610.45 692.56 2765.45 692.56C2920.46 692.56 3046.04 693.129 3046.04 694.412Z" fill="#263238"/>
<path d="M2688.45 869.364C2668.75 871.199 2648.96 871.817 2629.18 871.216C2609.41 871.815 2589.61 871.196 2569.91 869.364C2589.61 867.531 2609.41 866.913 2629.18 867.511C2648.96 866.91 2668.75 867.529 2688.45 869.364Z" fill="#2563EB"/>
<path d="M2621.34 762.013C2602.81 764.483 2584.03 764.483 2565.5 762.013C2584.03 759.544 2602.81 759.544 2621.34 762.013Z" fill="#2563EB"/>
<path d="M2342.12 3479.67H1348.76L1476.98 2782.57C1479.16 2770.58 1485.49 2759.74 1494.85 2751.93C1504.2 2744.12 1516.01 2739.84 1528.2 2739.83H2420.76C2428.44 2739.83 2436.01 2741.53 2442.95 2744.79C2449.9 2748.06 2456.03 2752.82 2460.92 2758.74C2465.8 2764.65 2469.32 2771.57 2471.22 2779.01C2473.12 2786.44 2473.36 2794.2 2471.91 2801.74L2342.12 3479.67Z" fill="#455A64"/>
<path d="M1348.76 3479.67H972L973.567 3478.53C1007.16 3453.31 1047.76 3439.12 1089.75 3437.93L1359.16 3429.81L1348.76 3479.67Z" fill="#455A64"/>
<path d="M1587.39 2740.48C1587.39 2740.48 1584.61 2739.98 1579.34 2739.91C1571.66 2740.01 1564.1 2741.88 1557.26 2745.39C1546.44 2750.89 1537.31 2759.21 1530.83 2769.47C1522.63 2783.34 1517.12 2798.64 1514.59 2814.56C1511.31 2832.15 1508.47 2851.74 1504.97 2872.61C1501.48 2893.49 1497.85 2915.85 1493.15 2939.22C1484.53 2986.09 1474.27 3037.45 1463.09 3091.3C1440.65 3198.94 1419.92 3296.32 1406.1 3367.05C1398.98 3402.67 1393.99 3431.16 1390.43 3450.89C1388.65 3460.58 1387.3 3468.28 1386.3 3473.76L1385.09 3479.67C1384.99 3480.35 1384.82 3481.02 1384.59 3481.67C1384.51 3480.98 1384.51 3480.29 1384.59 3479.6C1384.59 3478.04 1385.09 3476.04 1385.37 3473.62L1388.86 3450.68C1392 3430.74 1396.91 3402.03 1403.11 3366.55C1416 3295.68 1436.38 3198.16 1458.81 3090.52C1470 3036.74 1480.18 2985.38 1489.16 2938.58C1493.65 2915.21 1497.57 2892.92 1501.27 2872.12C1504.97 2851.32 1507.9 2831.8 1511.39 2813.99C1514.09 2797.82 1519.87 2782.32 1528.41 2768.33C1535.24 2757.91 1544.77 2749.54 1555.98 2744.11C1563.04 2740.65 1570.84 2738.96 1578.7 2739.19C1581.65 2739.2 1584.57 2739.63 1587.39 2740.48Z" fill="#263238"/>
<path d="M3838.6 3479.67C3838.6 3480.74 3113.57 3481.53 2219.37 3481.53C1325.17 3481.53 600 3480.39 600 3479.67C600 3478.96 1324.88 3477.82 2219.37 3477.82C3113.86 3477.82 3838.6 3478.32 3838.6 3479.67Z" fill="#263238"/>
<path d="M3267.1 2953.83H3141.51V3103.14H3267.1V2953.83Z" fill="#F5F5F5"/>
<path d="M3145.79 2944.07H2578.19V3112.54H3145.79V2944.07Z" fill="#2563EB"/>
<path d="M3270.95 2958.25H3130.62V2944H3270.95C3272.84 2944 3274.65 2944.75 3275.98 2946.09C3277.32 2947.42 3278.07 2949.23 3278.07 2951.12C3278.07 2953.01 3277.32 2954.82 3275.98 2956.16C3274.65 2957.5 3272.84 2958.25 3270.95 2958.25Z" fill="#2563EB"/>
<path d="M3270.95 3112.54H3130.62V3098.29H3270.95C3272.84 3098.29 3274.65 3099.04 3275.98 3100.38C3277.32 3101.72 3278.07 3103.53 3278.07 3105.42C3278.07 3107.31 3277.32 3109.12 3275.98 3110.45C3274.65 3111.79 3272.84 3112.54 3270.95 3112.54Z" fill="#2563EB"/>
<g opacity="0.4">
<path d="M3101.2 2944.07H3034.16V3112.54H3101.2V2944.07Z" fill="black"/>
</g>
<g opacity="0.4">
<path d="M2695.59 2944.07H2628.55V3112.54H2695.59V2944.07Z" fill="black"/>
</g>
<path d="M3267.1 2978.55C3267.1 2978.91 3239.89 2979.26 3206.41 2979.26C3172.93 2979.26 3145.64 2978.91 3145.64 2978.55C3145.64 2978.19 3172.86 2977.77 3206.41 2977.77C3239.96 2977.77 3267.1 2978.05 3267.1 2978.55Z" fill="#E0E0E0"/>
<path d="M3267.1 3000.92C3267.1 3001.34 3239.89 3001.63 3206.41 3001.63C3172.93 3001.63 3145.64 3001.63 3145.64 3000.92C3145.64 3000.2 3172.86 3000.13 3206.41 3000.13C3239.96 3000.13 3267.1 3000.49 3267.1 3000.92Z" fill="#E0E0E0"/>
<path d="M3267.1 3028.48C3267.1 3028.91 3239.89 3029.2 3206.41 3029.2C3172.93 3029.2 3145.64 3029.2 3145.64 3028.48C3145.64 3027.77 3172.86 3027.77 3206.41 3027.77C3239.96 3027.77 3267.1 3027.91 3267.1 3028.48Z" fill="#E0E0E0"/>
<path d="M3267.1 3056.41C3267.1 3056.83 3239.89 3057.19 3206.41 3057.19C3172.93 3057.19 3145.64 3056.83 3145.64 3056.41C3145.64 3055.98 3172.86 3055.7 3206.41 3055.7C3239.96 3055.7 3267.1 3055.62 3267.1 3056.41Z" fill="#E0E0E0"/>
<path d="M3267.1 3083.62C3267.1 3084.05 3239.89 3084.4 3206.41 3084.4C3172.93 3084.4 3145.64 3084.05 3145.64 3083.62C3145.64 3083.19 3172.86 3082.91 3206.41 3082.91C3239.96 3082.91 3267.1 3083.19 3267.1 3083.62Z" fill="#E0E0E0"/>
<g opacity="0.2">
<path d="M2998.12 3013.31H2742.74V3043.66H2998.12V3013.31Z" fill="black"/>
</g>
<path d="M3265.82 3115.82H3138.31V3206.78H3265.82V3115.82Z" fill="#FAFAFA"/>
<path d="M3139.73 3112.54H2597V3210.13H3139.73V3112.54Z" fill="#455A64"/>
<path d="M3135.81 3119.17H3272.87C3273.74 3119.15 3274.58 3118.79 3275.19 3118.16C3275.8 3117.53 3276.15 3116.69 3276.15 3115.82C3276.13 3114.95 3275.78 3114.13 3275.17 3113.52C3274.56 3112.91 3273.73 3112.56 3272.87 3112.54H3135.81V3119.17Z" fill="#455A64"/>
<path d="M3135.81 3203.51H3273.15C3273.55 3203.51 3273.94 3203.58 3274.3 3203.73C3274.66 3203.88 3274.99 3204.1 3275.27 3204.38C3275.55 3204.66 3275.77 3204.99 3275.92 3205.35C3276.07 3205.72 3276.15 3206.1 3276.15 3206.5V3207.14C3276.15 3207.53 3276.07 3207.92 3275.92 3208.28C3275.77 3208.65 3275.55 3208.98 3275.27 3209.25C3274.99 3209.53 3274.66 3209.75 3274.3 3209.9C3273.94 3210.05 3273.55 3210.13 3273.15 3210.13H3135.81V3203.51Z" fill="#455A64"/>
<path d="M3265.82 3133.13C3265.82 3133.55 3237.32 3133.84 3202.77 3133.84C3168.23 3133.84 3139.73 3133.84 3139.73 3133.13C3139.73 3132.41 3168.23 3132.34 3202.77 3132.34C3237.32 3132.34 3265.82 3132.7 3265.82 3133.13Z" fill="#E0E0E0"/>
<path d="M3265.82 3150.37C3265.82 3150.72 3237.32 3151.08 3202.77 3151.08C3168.23 3151.08 3139.73 3150.72 3139.73 3150.37C3139.73 3150.01 3168.23 3149.58 3202.77 3149.58C3237.32 3149.58 3265.82 3149.94 3265.82 3150.37Z" fill="#E0E0E0"/>
<path d="M3265.82 3167.53C3265.82 3167.96 3237.32 3168.32 3202.77 3168.32C3168.23 3168.32 3139.73 3168.32 3139.73 3167.53C3139.73 3166.75 3168.23 3166.82 3202.77 3166.82C3237.32 3166.82 3265.82 3167.11 3265.82 3167.53Z" fill="#E0E0E0"/>
<path d="M3265.82 3184.63C3265.82 3185.06 3237.32 3185.34 3202.77 3185.34C3168.23 3185.34 3139.73 3185.34 3139.73 3184.63C3139.73 3183.92 3168.23 3183.85 3202.77 3183.85C3237.32 3183.85 3265.82 3184.63 3265.82 3184.63Z" fill="#E0E0E0"/>
<path d="M3285.12 3218.82H3154.98V3465.44H3285.12V3218.82Z" fill="#EBEBEB"/>
<path d="M3154.98 3210.13H2544V3477.54H3154.98V3210.13Z" fill="#2563EB"/>
<path d="M3295.38 3477.54H3138.31V3460.23H3295.38C3297.67 3460.23 3299.86 3461.14 3301.48 3462.76C3303.09 3464.38 3304 3466.57 3304 3468.85C3304 3471.15 3303.09 3473.35 3301.48 3474.97C3299.87 3476.6 3297.67 3477.53 3295.38 3477.54Z" fill="#2563EB"/>
<path d="M3138.31 3210.13H3296.16C3298.24 3210.13 3300.24 3210.96 3301.7 3212.43C3303.17 3213.9 3304 3215.89 3304 3217.97V3219.61C3304 3221.68 3303.17 3223.68 3301.7 3225.15C3300.24 3226.62 3298.24 3227.44 3296.16 3227.44H3138.31V3210.13Z" fill="#2563EB"/>
<path d="M3285.19 3251.88C3285.19 3252.3 3256.06 3252.59 3220.08 3252.59C3184.11 3252.59 3154.98 3252.59 3154.98 3251.88C3154.98 3251.16 3184.11 3251.09 3220.08 3251.09C3256.06 3251.09 3285.19 3251.45 3285.19 3251.88Z" fill="#E0E0E0"/>
<path d="M3285.19 3283.5C3285.19 3283.93 3256.06 3284.21 3220.08 3284.21C3184.11 3284.21 3154.98 3284.21 3154.98 3283.5C3154.98 3282.79 3184.11 3282.72 3220.08 3282.72C3256.06 3282.72 3285.19 3283.08 3285.19 3283.5Z" fill="#E0E0E0"/>
<path d="M3285.19 3315.13C3285.19 3315.56 3256.06 3315.84 3220.08 3315.84C3184.11 3315.84 3154.98 3315.84 3154.98 3315.13C3154.98 3314.42 3184.11 3314.35 3220.08 3314.35C3256.06 3314.35 3285.19 3314.7 3285.19 3315.13Z" fill="#E0E0E0"/>
<path d="M3285.19 3346.76C3285.19 3347.19 3256.06 3347.47 3220.08 3347.47C3184.11 3347.47 3154.98 3347.47 3154.98 3346.76C3154.98 3346.05 3184.11 3345.97 3220.08 3345.97C3256.06 3345.97 3285.19 3346.33 3285.19 3346.76Z" fill="#E0E0E0"/>
<path d="M3285.19 3378.39C3285.19 3378.81 3256.06 3379.1 3220.08 3379.1C3184.11 3379.1 3154.98 3379.1 3154.98 3378.39C3154.98 3377.67 3184.11 3377.67 3220.08 3377.67C3256.06 3377.67 3285.19 3377.96 3285.19 3378.39Z" fill="#E0E0E0"/>
<path d="M3285.19 3410.02C3285.19 3410.44 3256.06 3410.8 3220.08 3410.8C3184.11 3410.8 3154.98 3410.44 3154.98 3410.02C3154.98 3409.59 3184.11 3409.3 3220.08 3409.3C3256.06 3409.3 3285.19 3409.59 3285.19 3410.02Z" fill="#E0E0E0"/>
<path d="M3285.19 3441.64C3285.19 3442.07 3256.06 3442.43 3220.08 3442.43C3184.11 3442.43 3154.98 3442.07 3154.98 3441.64C3154.98 3441.22 3184.11 3440.93 3220.08 3440.93C3256.06 3440.93 3285.19 3441.07 3285.19 3441.64Z" fill="#E0E0E0"/>
<path d="M2753.07 3358.44V3373.33C2753.07 3391.28 2744.1 3401.82 2726.86 3401.82C2709.62 3401.82 2700.57 3391.56 2700.57 3373.33V3315.13C2700.57 3297.18 2709.55 3286.64 2726.86 3286.64C2744.17 3286.64 2753.07 3296.89 2753.07 3315.13V3325.96H2736.4V3313.99C2736.4 3306.01 2732.91 3302.95 2727.29 3302.95C2721.66 3302.95 2718.17 3306.01 2718.17 3313.99V3374.47C2718.17 3382.45 2721.73 3385.37 2727.29 3385.37C2732.84 3385.37 2736.4 3382.45 2736.4 3374.47V3358.44H2753.07Z" fill="#EBEBEB"/>
<path d="M2762.33 3315.13C2762.33 3297.18 2771.81 3286.64 2789.05 3286.64C2806.29 3286.64 2815.76 3296.89 2815.76 3315.13V3373.33C2815.76 3391.28 2806.36 3401.82 2789.05 3401.82C2771.74 3401.82 2762.33 3391.56 2762.33 3373.33V3315.13ZM2779.93 3374.47C2779.93 3382.45 2783.49 3385.51 2789.05 3385.51C2794.6 3385.51 2798.16 3382.45 2798.16 3374.47V3313.99C2798.16 3306.01 2794.67 3302.95 2789.05 3302.95C2783.42 3302.95 2779.93 3306.01 2779.93 3313.99V3374.47Z" fill="#EBEBEB"/>
<path d="M2827.16 3288.21H2845.04V3384.09H2873.53V3400.11H2827.01L2827.16 3288.21Z" fill="#EBEBEB"/>
<path d="M2879.94 3315.13C2879.94 3297.18 2889.34 3286.64 2906.65 3286.64C2923.96 3286.64 2933.37 3296.89 2933.37 3315.13V3373.33C2933.37 3391.28 2923.89 3401.82 2906.65 3401.82C2889.42 3401.82 2879.94 3391.56 2879.94 3373.33V3315.13ZM2897.54 3374.47C2897.54 3382.45 2901.03 3385.51 2906.65 3385.51C2912.28 3385.51 2915.77 3382.45 2915.77 3374.47V3313.99C2915.77 3306.01 2912.21 3302.95 2906.65 3302.95C2901.1 3302.95 2897.54 3306.01 2897.54 3313.99V3374.47Z" fill="#EBEBEB"/>
<path d="M2961.51 3288.21V3374.61C2961.51 3382.66 2965 3385.51 2970.62 3385.51C2976.25 3385.51 2979.74 3382.66 2979.74 3374.61V3288.21H2996.41V3373.69C2996.41 3391.64 2987.43 3402.18 2970.12 3402.18C2952.81 3402.18 2943.91 3391.92 2943.91 3373.69V3288.21H2961.51Z" fill="#EBEBEB"/>
<path d="M3045.13 3400.26C3043.71 3395.8 3043.18 3391.1 3043.57 3386.44V3368.84C3043.57 3358.44 3040.08 3354.6 3032.03 3354.6H3025.97V3400.26H3008.38V3288.21H3034.95C3053.18 3288.21 3061.02 3296.68 3061.02 3313.99V3322.75C3061.02 3334.29 3057.31 3341.84 3049.48 3345.48C3058.31 3349.18 3061.16 3357.66 3061.16 3369.34V3386.65C3060.84 3391.27 3061.49 3395.91 3063.08 3400.26H3045.13ZM3025.97 3304.23V3338.64H3033.1C3039.65 3338.64 3043.64 3335.72 3043.64 3326.81V3315.77C3043.64 3307.72 3040.93 3304.23 3034.66 3304.23H3025.97Z" fill="#EBEBEB"/>
<path d="M2749.3 3150.93H2736.4L2737.12 3147.66H2766.68L2765.97 3150.93H2753.22L2746.59 3183.99H2742.82L2749.3 3150.93Z" fill="#263238"/>
<path d="M2791.25 3156.71L2771.31 3187.55C2767.96 3192.75 2765.4 3194.32 2761.48 3194.32C2760.29 3194.37 2759.1 3194.19 2757.99 3193.77C2756.87 3193.36 2755.86 3192.72 2755 3191.89L2756.92 3189.19C2757.54 3189.85 2758.29 3190.36 2759.13 3190.71C2759.96 3191.05 2760.86 3191.21 2761.76 3191.18C2764.11 3191.18 2765.97 3190.11 2768.03 3186.77L2769.96 3183.85L2762.83 3156.71H2766.68L2772.38 3179.93L2787.27 3156.71H2791.25Z" fill="#263238"/>
<path d="M2821.67 3168.03C2821.79 3170.13 2821.47 3172.23 2820.75 3174.2C2820.02 3176.17 2818.9 3177.97 2817.45 3179.49C2816.01 3181.02 2814.26 3182.23 2812.33 3183.05C2810.39 3183.87 2808.31 3184.29 2806.21 3184.27C2804.07 3184.49 2801.91 3184.03 2800.05 3182.96C2798.18 3181.89 2796.7 3180.25 2795.81 3178.29L2792.68 3194.1H2788.97L2796.1 3156.71H2799.66L2798.8 3161.05C2800.13 3159.56 2801.77 3158.38 2803.61 3157.6C2805.44 3156.81 2807.42 3156.43 2809.42 3156.49C2811.01 3156.31 2812.62 3156.48 2814.14 3156.99C2815.66 3157.5 2817.05 3158.33 2818.21 3159.43C2819.38 3160.53 2820.29 3161.86 2820.89 3163.35C2821.49 3164.84 2821.75 3166.43 2821.67 3168.03ZM2817.9 3168.03C2817.99 3166.85 2817.82 3165.66 2817.4 3164.55C2816.97 3163.44 2816.31 3162.44 2815.45 3161.62C2814.59 3160.8 2813.55 3160.18 2812.42 3159.81C2811.3 3159.44 2810.1 3159.33 2808.92 3159.48C2807.29 3159.5 2805.68 3159.85 2804.19 3160.51C2802.7 3161.18 2801.36 3162.14 2800.26 3163.34C2799.15 3164.54 2798.31 3165.96 2797.78 3167.5C2797.25 3169.04 2797.04 3170.68 2797.17 3172.31C2797.08 3173.48 2797.26 3174.67 2797.69 3175.77C2798.12 3176.87 2798.79 3177.86 2799.65 3178.67C2800.51 3179.48 2801.53 3180.09 2802.66 3180.46C2803.78 3180.82 2804.97 3180.93 2806.14 3180.78C2807.75 3180.77 2809.33 3180.42 2810.8 3179.78C2812.27 3179.13 2813.6 3178.2 2814.7 3177.02C2815.79 3175.85 2816.64 3174.47 2817.19 3172.96C2817.74 3171.45 2817.98 3169.85 2817.9 3168.25V3168.03Z" fill="#263238"/>
<path d="M2825.95 3172.66C2825.86 3170.55 2826.2 3168.43 2826.96 3166.46C2827.72 3164.48 2828.88 3162.68 2830.36 3161.16C2831.84 3159.65 2833.62 3158.45 2835.58 3157.65C2837.54 3156.84 2839.64 3156.45 2841.76 3156.49C2843.36 3156.32 2844.97 3156.49 2846.5 3156.99C2848.02 3157.5 2849.42 3158.33 2850.6 3159.42C2851.78 3160.52 2852.7 3161.86 2853.31 3163.34C2853.93 3164.83 2854.21 3166.43 2854.15 3168.03C2854.26 3170.15 2853.93 3172.27 2853.19 3174.26C2852.44 3176.24 2851.29 3178.05 2849.82 3179.58C2848.34 3181.1 2846.56 3182.3 2844.6 3183.11C2842.64 3183.92 2840.53 3184.32 2838.41 3184.27C2836.8 3184.45 2835.18 3184.28 2833.64 3183.77C2832.11 3183.26 2830.7 3182.42 2829.52 3181.32C2828.34 3180.22 2827.41 3178.88 2826.79 3177.38C2826.17 3175.89 2825.88 3174.28 2825.95 3172.66ZM2850.52 3168.25C2850.6 3167.06 2850.42 3165.87 2849.99 3164.76C2849.56 3163.65 2848.88 3162.65 2848.02 3161.83C2847.15 3161.01 2846.12 3160.4 2844.99 3160.03C2843.85 3159.66 2842.65 3159.55 2841.47 3159.7C2839.84 3159.72 2838.23 3160.08 2836.75 3160.75C2835.26 3161.41 2833.92 3162.37 2832.81 3163.57C2831.71 3164.77 2830.86 3166.18 2830.31 3167.72C2829.77 3169.26 2829.54 3170.89 2829.65 3172.52C2829.57 3173.7 2829.74 3174.88 2830.17 3175.98C2830.6 3177.08 2831.27 3178.07 2832.13 3178.88C2832.99 3179.7 2834.02 3180.31 2835.14 3180.67C2836.26 3181.04 2837.45 3181.15 2838.62 3181C2840.26 3180.99 2841.87 3180.65 2843.37 3180C2844.87 3179.34 2846.22 3178.39 2847.33 3177.19C2848.44 3176 2849.3 3174.59 2849.85 3173.05C2850.4 3171.51 2850.63 3169.88 2850.52 3168.25Z" fill="#263238"/>
<path d="M2889.56 3156.71L2884.79 3180.71C2884.71 3182.68 2884.23 3184.61 2883.37 3186.39C2882.51 3188.16 2881.29 3189.74 2879.79 3191.02C2878.29 3192.29 2876.54 3193.25 2874.66 3193.82C2872.77 3194.39 2870.78 3194.56 2868.83 3194.32C2864.42 3194.56 2860.09 3193.11 2856.72 3190.26L2858.86 3187.41C2860.24 3188.67 2861.86 3189.65 2863.62 3190.28C2865.38 3190.92 2867.24 3191.2 2869.11 3191.11C2870.54 3191.27 2871.98 3191.14 2873.36 3190.72C2874.73 3190.31 2876.01 3189.63 2877.11 3188.71C2878.22 3187.79 2879.12 3186.66 2879.78 3185.38C2880.44 3184.11 2880.83 3182.71 2880.94 3181.28L2881.58 3178.29C2880.21 3179.81 2878.52 3181.02 2876.64 3181.83C2874.76 3182.64 2872.73 3183.04 2870.68 3182.99C2869.14 3183.17 2867.58 3183.01 2866.11 3182.53C2864.64 3182.05 2863.29 3181.26 2862.15 3180.21C2861.01 3179.17 2860.1 3177.89 2859.5 3176.46C2858.89 3175.04 2858.6 3173.5 2858.64 3171.95C2858.59 3169.89 2858.96 3167.85 2859.73 3165.94C2860.5 3164.04 2861.65 3162.31 2863.11 3160.86C2864.57 3159.41 2866.31 3158.28 2868.23 3157.53C2870.14 3156.78 2872.19 3156.42 2874.24 3156.49C2876.44 3156.27 2878.65 3156.76 2880.55 3157.87C2882.46 3158.98 2883.97 3160.67 2884.86 3162.69L2886 3156.71H2889.56ZM2883.29 3167.68C2883.29 3162.69 2879.94 3159.7 2874.24 3159.7C2872.66 3159.66 2871.08 3159.94 2869.61 3160.54C2868.14 3161.13 2866.8 3162.02 2865.69 3163.14C2864.58 3164.27 2863.7 3165.62 2863.13 3167.09C2862.55 3168.57 2862.29 3170.15 2862.35 3171.74C2862.35 3176.72 2865.69 3179.71 2871.39 3179.71C2872.98 3179.75 2874.55 3179.47 2876.03 3178.88C2877.5 3178.28 2878.83 3177.4 2879.95 3176.27C2881.06 3175.14 2881.93 3173.8 2882.51 3172.32C2883.08 3170.84 2883.35 3169.26 2883.29 3167.68Z" fill="#263238"/>
<path d="M2913.64 3156.49L2912.92 3160.05H2911.93C2909.12 3159.98 2906.4 3161 2904.33 3162.9C2902.27 3164.8 2901.03 3167.44 2900.88 3170.24L2898.11 3184.06H2894.4L2899.82 3156.78H2903.38L2902.38 3161.76C2903.62 3159.97 2905.32 3158.53 2907.29 3157.6C2909.27 3156.68 2911.46 3156.29 2913.64 3156.49Z" fill="#263238"/>
<path d="M2944.76 3156.71L2939.28 3183.99H2935.72L2936.64 3179.71C2935.28 3181.18 2933.63 3182.35 2931.79 3183.13C2929.95 3183.92 2927.96 3184.31 2925.96 3184.27C2924.39 3184.4 2922.81 3184.18 2921.33 3183.65C2919.85 3183.11 2918.5 3182.27 2917.38 3181.17C2916.25 3180.07 2915.37 3178.74 2914.8 3177.27C2914.23 3175.81 2913.98 3174.23 2914.06 3172.66C2913.96 3170.57 2914.28 3168.48 2915.01 3166.52C2915.74 3164.55 2916.86 3162.76 2918.31 3161.25C2919.75 3159.73 2921.5 3158.53 2923.42 3157.71C2925.35 3156.89 2927.43 3156.48 2929.52 3156.49C2931.65 3156.28 2933.8 3156.73 2935.66 3157.79C2937.53 3158.85 2939.02 3160.46 2939.92 3162.4L2941.06 3156.71H2944.76ZM2938.64 3168.25C2938.72 3167.06 2938.54 3165.87 2938.11 3164.76C2937.68 3163.65 2937 3162.65 2936.14 3161.83C2935.27 3161.01 2934.24 3160.4 2933.1 3160.03C2931.97 3159.66 2930.77 3159.55 2929.59 3159.7C2927.96 3159.72 2926.35 3160.08 2924.86 3160.75C2923.37 3161.41 2922.04 3162.37 2920.93 3163.57C2919.82 3164.77 2918.97 3166.18 2918.43 3167.72C2917.89 3169.26 2917.66 3170.89 2917.77 3172.52C2917.68 3173.7 2917.86 3174.88 2918.29 3175.98C2918.72 3177.08 2919.39 3178.07 2920.25 3178.88C2921.11 3179.69 2922.13 3180.3 2923.26 3180.67C2924.38 3181.04 2925.57 3181.15 2926.74 3181C2928.39 3181.02 2930.03 3180.7 2931.56 3180.06C2933.08 3179.42 2934.45 3178.47 2935.59 3177.27C2936.73 3176.07 2937.6 3174.65 2938.16 3173.1C2938.73 3171.55 2938.96 3169.89 2938.85 3168.25H2938.64Z" fill="#263238"/>
<path d="M2980.38 3168.03C2980.5 3170.14 2980.18 3172.24 2979.45 3174.22C2978.72 3176.19 2977.6 3178 2976.14 3179.52C2974.68 3181.04 2972.93 3182.25 2970.99 3183.07C2969.05 3183.89 2966.96 3184.3 2964.85 3184.27C2962.71 3184.49 2960.55 3184.03 2958.69 3182.96C2956.82 3181.89 2955.34 3180.25 2954.45 3178.29L2951.39 3194.1H2947.69L2954.81 3156.71H2958.37L2957.44 3161.05C2958.81 3159.58 2960.46 3158.42 2962.3 3157.63C2964.14 3156.85 2966.13 3156.46 2968.13 3156.49C2969.72 3156.31 2971.33 3156.48 2972.85 3156.99C2974.37 3157.5 2975.76 3158.33 2976.93 3159.43C2978.09 3160.53 2979 3161.86 2979.6 3163.35C2980.2 3164.84 2980.46 3166.43 2980.38 3168.03ZM2976.61 3168.03C2976.7 3166.85 2976.53 3165.66 2976.11 3164.55C2975.68 3163.44 2975.02 3162.44 2974.16 3161.62C2973.3 3160.8 2972.26 3160.18 2971.13 3159.81C2970.01 3159.44 2968.81 3159.33 2967.63 3159.48C2965.99 3159.49 2964.38 3159.83 2962.88 3160.49C2961.38 3161.15 2960.03 3162.11 2958.92 3163.32C2957.81 3164.52 2956.96 3165.94 2956.43 3167.49C2955.89 3169.03 2955.68 3170.67 2955.81 3172.31C2955.72 3173.48 2955.9 3174.67 2956.33 3175.77C2956.76 3176.87 2957.43 3177.86 2958.29 3178.67C2959.15 3179.48 2960.17 3180.09 2961.3 3180.46C2962.42 3180.82 2963.61 3180.93 2964.78 3180.78C2966.4 3180.79 2968 3180.46 2969.49 3179.82C2970.97 3179.18 2972.32 3178.25 2973.43 3177.08C2974.54 3175.9 2975.4 3174.51 2975.96 3173C2976.52 3171.48 2976.77 3169.86 2976.68 3168.25L2976.61 3168.03Z" fill="#263238"/>
<path d="M3013.51 3165.4C3013.57 3166.42 3013.57 3167.44 3013.51 3168.46L3010.37 3183.99H3006.67L3009.8 3168.39C3009.87 3167.58 3009.87 3166.77 3009.8 3165.97C3009.8 3162.05 3007.52 3159.77 3002.68 3159.77C2999.95 3159.65 2997.27 3160.58 2995.21 3162.36C2993.14 3164.15 2991.84 3166.67 2991.57 3169.39L2988.65 3183.99H2984.94L2992.63 3145.45H2996.34L2993.28 3160.77C2994.61 3159.34 2996.24 3158.22 2998.04 3157.48C2999.85 3156.75 3001.8 3156.41 3003.75 3156.49C3005 3156.31 3006.27 3156.41 3007.48 3156.78C3008.69 3157.15 3009.8 3157.79 3010.73 3158.64C3011.66 3159.49 3012.4 3160.54 3012.88 3161.71C3013.36 3162.87 3013.57 3164.14 3013.51 3165.4Z" fill="#263238"/>
<path d="M3048.05 3156.71L3028.11 3187.55C3024.69 3192.75 3022.12 3194.32 3018.21 3194.32C3017.02 3194.37 3015.83 3194.19 3014.72 3193.77C3013.6 3193.36 3012.58 3192.72 3011.72 3191.89L3013.72 3189.19C3014.32 3189.85 3015.06 3190.38 3015.88 3190.72C3016.71 3191.07 3017.6 3191.22 3018.49 3191.18C3020.84 3191.18 3022.69 3190.11 3024.83 3186.77L3026.76 3183.85L3019.63 3156.71H3023.41L3029.03 3179.93L3043.92 3156.71H3048.05Z" fill="#263238"/>
<g opacity="0.3">
<path d="M2695.66 3210.13L2611.53 3477.54H2544V3210.13H2695.66Z" fill="black"/>
</g>
<path d="M1770.23 829.294L1730.73 1122.62L2097.62 1172.04L2137.12 878.705L1770.23 829.294Z" fill="#EBEBEB"/>
<path d="M2137.17 878.708H2135.38L2130.26 878.067L2110.24 875.503L2035.09 865.672L1770.31 830.269L1771.45 829.414C1759.69 916.748 1746.23 1016.83 1732.06 1122.76L1731.13 1121.55L2097.99 1171.41L2096.99 1172.19C2109.1 1083.93 2119.07 1010.71 2126.12 959.488C2129.61 933.915 2132.46 913.827 2134.32 900.079C2135.31 892.955 2136.03 888.04 2136.52 884.407L2137.38 878.993C2137.38 878.993 2137.38 880.774 2136.74 884.265C2136.1 887.755 2135.67 893.026 2134.81 899.794C2132.96 913.471 2130.4 933.559 2127.05 959.061C2119.93 1010.42 2110.52 1083.86 2098.56 1172.76V1173.62H2097.7L1730.63 1123.68H1729.56V1122.61C1743.81 1016.69 1757.34 916.605 1769.17 829.272V828.346H1770.09L2035.59 864.604L2110.45 874.933L2130.18 877.711L2135.24 878.423L2137.17 878.708Z" fill="#263238"/>
<path d="M1780.49 849.458L1745.96 1105.87L2087.08 1151.81L2121.61 895.398L1780.49 849.458Z" fill="#2563EB"/>
<path d="M1745.88 1105.87L1886.49 962.551L1946.9 1072.18L2004.1 1025.59L2087.02 1151.82L1745.88 1105.87Z" fill="#2563EB"/>
<path d="M1994.27 957.137C1993.56 962.444 1991.29 967.422 1987.75 971.44C1984.21 975.458 1979.56 978.336 1974.39 979.71C1969.21 981.084 1963.75 980.893 1958.68 979.16C1953.61 977.427 1949.17 974.23 1945.92 969.974C1942.68 965.718 1940.76 960.594 1940.42 955.25C1940.09 949.906 1941.34 944.582 1944.03 939.952C1946.72 935.322 1950.72 931.593 1955.53 929.238C1960.34 926.883 1965.74 926.006 1971.05 926.72C1978.15 927.694 1984.58 931.44 1988.93 937.139C1993.28 942.838 1995.2 950.028 1994.27 957.137Z" fill="#2563EB"/>
<g opacity="0.2">
<path d="M1745.88 1105.87L1886.49 962.551L1946.9 1072.18L2004.1 1025.59L2087.02 1151.82L1745.88 1105.87Z" fill="black"/>
</g>
<g opacity="0.2">
<path d="M1994.27 957.137C1993.56 962.444 1991.29 967.422 1987.75 971.44C1984.21 975.458 1979.56 978.336 1974.39 979.71C1969.21 981.084 1963.75 980.893 1958.68 979.16C1953.61 977.427 1949.17 974.23 1945.92 969.974C1942.68 965.718 1940.76 960.594 1940.42 955.25C1940.09 949.906 1941.34 944.582 1944.03 939.952C1946.72 935.322 1950.72 931.593 1955.53 929.238C1960.34 926.883 1965.74 926.006 1971.05 926.72C1978.15 927.694 1984.58 931.44 1988.93 937.139C1993.28 942.838 1995.2 950.028 1994.27 957.137Z" fill="black"/>
</g>
<path d="M2028.49 580.519L1962.46 1022.9L2515.73 1105.49L2581.77 663.107L2028.49 580.519Z" fill="#EBEBEB"/>
<path d="M2581.95 663.296L2579.25 662.94L2571.48 661.871L2541.42 657.526L2428.09 640.999L2028.46 582.302L2030.1 581.02C2010.51 712.732 1988 863.678 1964.21 1023.39L1962.86 1021.6L2516.06 1104.45L2514.57 1105.59C2534.72 972.453 2551.46 862.111 2563.15 785.035C2569.06 746.426 2573.76 716.152 2576.9 695.422C2578.53 685.165 2579.74 677.258 2580.6 671.773C2581.45 666.288 2581.95 663.652 2581.95 663.652C2581.95 663.652 2581.95 666.288 2580.96 671.559C2579.96 676.83 2579.03 684.809 2577.61 694.995C2574.54 715.653 2570.48 745.856 2564.57 784.394L2517.2 1106.16V1107.51H2515.85L1962.64 1024.6H1961.07V1023.03C1985.01 863.322 2007.59 712.447 2027.32 580.735V579.311H2028.75L2429.08 639.86L2541.99 657.098L2571.69 661.729L2579.32 662.94L2581.95 663.296Z" fill="#263238"/>
<path d="M2043.43 611.235L1985.72 997.885L2500.17 1074.68L2557.89 688.029L2043.43 611.235Z" fill="#2563EB"/>
<path d="M1985.86 997.955L2201.42 784.466L2290.25 951.439L2377.72 882.342L2500.25 1074.82L1985.86 997.955Z" fill="#2563EB"/>
<path d="M2364.33 778.695C2363.09 786.69 2359.51 794.138 2354.03 800.099C2348.56 806.06 2341.45 810.267 2333.59 812.189C2325.73 814.112 2317.48 813.663 2309.87 810.9C2302.27 808.136 2295.65 803.183 2290.86 796.663C2286.06 790.144 2283.31 782.352 2282.94 774.269C2282.57 766.186 2284.61 758.175 2288.79 751.246C2292.96 744.318 2299.1 738.782 2306.42 735.338C2313.75 731.894 2321.92 730.696 2329.93 731.894C2335.26 732.694 2340.39 734.541 2345.01 737.329C2349.64 740.117 2353.66 743.792 2356.86 748.141C2360.06 752.49 2362.36 757.429 2363.65 762.672C2364.93 767.916 2365.16 773.361 2364.33 778.695Z" fill="#2563EB"/>
<g opacity="0.2">
<path d="M1985.86 997.955L2201.42 784.466L2290.25 951.439L2377.72 882.342L2500.25 1074.82L1985.86 997.955Z" fill="black"/>
</g>
<g opacity="0.2">
<path d="M2364.33 778.695C2363.09 786.69 2359.51 794.138 2354.03 800.099C2348.56 806.06 2341.45 810.267 2333.59 812.189C2325.73 814.112 2317.48 813.663 2309.87 810.9C2302.27 808.136 2295.65 803.183 2290.86 796.663C2286.06 790.144 2283.31 782.352 2282.94 774.269C2282.57 766.186 2284.61 758.175 2288.79 751.246C2292.96 744.318 2299.1 738.782 2306.42 735.338C2313.75 731.894 2321.92 730.696 2329.93 731.894C2335.26 732.694 2340.39 734.541 2345.01 737.329C2349.64 740.117 2353.66 743.792 2356.86 748.141C2360.06 752.49 2362.36 757.429 2363.65 762.672C2364.93 767.916 2365.16 773.361 2364.33 778.695Z" fill="black"/>
</g>
<path d="M1557.31 2060.22L1648.36 1909.57C1651.28 1904.77 1652.2 1899.02 1650.91 1893.56C1649.63 1888.09 1646.24 1883.35 1641.49 1880.36L1065.71 1532.35C1060.83 1529.58 1055.06 1528.84 1049.64 1530.29C1044.22 1531.74 1039.59 1535.27 1036.75 1540.11L945.623 1690.48C942.701 1695.28 941.784 1701.03 943.069 1706.5C944.354 1711.96 947.738 1716.7 952.49 1719.69L1528.27 2067.71C1533.12 2070.52 1538.89 2071.31 1544.32 2069.91C1549.76 2068.51 1554.42 2065.03 1557.31 2060.22Z" fill="#F5F5F5"/>
<path d="M1557.31 2060.22C1556.59 2061.63 1555.67 2062.92 1554.57 2064.05C1551.4 2067.56 1547.16 2069.91 1542.51 2070.75C1539.07 2071.38 1535.53 2071.14 1532.21 2070.04C1528.39 2068.41 1524.72 2066.43 1521.26 2064.13L1494.9 2048.33L1326.7 1947.38L1077.46 1797.2L1005.49 1753.72L968.289 1731.32C962.002 1727.39 955.845 1723.96 949.379 1719.64C946.223 1717.1 943.791 1713.78 942.326 1710C940.861 1706.23 940.416 1702.13 941.034 1698.13C941.738 1694.22 943.253 1690.5 945.481 1687.2L951.316 1677.6L963.016 1658.24L986.651 1619.02L1035.1 1538.93C1037.32 1535.24 1040.5 1532.23 1044.31 1530.24C1048.12 1528.24 1052.41 1527.33 1056.7 1527.61C1060.92 1527.96 1064.98 1529.42 1068.45 1531.83L1078.75 1537.78L1118.53 1561.85L1195.97 1608.66L1342.91 1697.97C1436.54 1754.82 1520.87 1805.89 1591.75 1848.85L1642.24 1879.57C1646.3 1882.16 1649.4 1886 1651.09 1890.51C1652.77 1895.02 1652.95 1899.95 1651.59 1904.57C1650.03 1908.7 1647.96 1912.63 1645.43 1916.25L1638.94 1926.99L1594.97 1999.02L1567.12 2044.54C1563.9 2049.6 1561.46 2053.43 1559.8 2056.31L1557.17 2060.26C1557.17 2060.26 1557.89 2058.81 1559.45 2056.1L1566.49 2044.12L1593.75 1998.32L1637.18 1925.91L1643.6 1915.19C1646.02 1911.71 1647.98 1907.94 1649.44 1903.97C1650.67 1899.83 1650.5 1895.4 1648.98 1891.37C1647.46 1887.33 1644.66 1883.9 1641.01 1881.59L1590.32 1850.93L1341.08 1700.75L1194.51 1612L1116.72 1564.99L1076.93 1540.92L1066.85 1534.92C1064.67 1533.35 1062.19 1532.26 1059.56 1531.7C1056.94 1531.14 1054.23 1531.13 1051.6 1531.68C1048.97 1532.22 1046.49 1533.31 1044.3 1534.86C1042.12 1536.42 1040.28 1538.41 1038.9 1540.71L990.448 1620.8L966.795 1659.96L955.025 1679.34L949.191 1688.94C947.176 1691.82 945.816 1695.1 945.206 1698.56C944.674 1701.91 945.032 1705.35 946.244 1708.52C947.456 1711.69 949.478 1714.48 952.11 1716.62C957.878 1720.54 964.559 1724.28 970.74 1728.08L1007.89 1750.57L1079.81 1794.13L1328.01 1945.11L1495.47 2047.14L1521.88 2063.15C1525.25 2065.47 1528.82 2067.48 1532.56 2069.14C1535.74 2070.2 1539.13 2070.48 1542.44 2069.96C1546.97 2069.24 1551.15 2067.09 1554.36 2063.81C1556.42 2061.56 1557.2 2060.1 1557.31 2060.22Z" fill="#263238"/>
<path d="M966.613 1706.84L1072.24 1769.76L1164 1615.72L1058.37 1552.8L966.613 1706.84Z" fill="#2563EB"/>
<path d="M1310.69 1911.8L1416.32 1974.71L1508.07 1820.67L1402.44 1757.75L1310.69 1911.8Z" fill="#2563EB"/>
<path d="M1195.86 1843.4L1301.5 1906.31L1393.25 1752.27L1287.62 1689.35L1195.86 1843.4Z" fill="#2563EB"/>
<path d="M1080.93 1774.95L1186.56 1837.87L1278.31 1683.83L1172.68 1620.91L1080.93 1774.95Z" fill="#2563EB"/>
<g opacity="0.8">
<path d="M966.613 1706.84L1072.24 1769.76L1164 1615.72L1058.37 1552.8L966.613 1706.84Z" fill="black"/>
</g>
<g opacity="0.5">
<path d="M1310.69 1911.8L1416.32 1974.71L1508.07 1820.67L1402.44 1757.75L1310.69 1911.8Z" fill="black"/>
</g>
<g opacity="0.6">
<path d="M1195.87 1843.4L1301.5 1906.31L1393.25 1752.27L1287.62 1689.35L1195.87 1843.4Z" fill="black"/>
</g>
<g opacity="0.7">
<path d="M1080.93 1774.95L1186.56 1837.87L1278.31 1683.83L1172.68 1620.91L1080.93 1774.95Z" fill="black"/>
</g>
<path d="M1534.2 2057.93L1660.91 1935.48C1664.94 1931.64 1667.3 1926.37 1667.5 1920.81C1667.71 1915.24 1665.73 1909.82 1662 1905.69L1201.82 1428.18C1197.85 1424.37 1192.57 1422.25 1187.07 1422.24C1181.57 1422.23 1176.29 1424.33 1172.3 1428.12L1045.67 1550.55C1041.62 1554.39 1039.24 1559.65 1039.03 1565.22C1038.81 1570.79 1040.78 1576.22 1044.51 1580.36L1504.36 2058.03C1508.37 2061.91 1513.73 2064.07 1519.3 2064.05C1524.88 2064.03 1530.23 2061.83 1534.2 2057.93Z" fill="#F5F5F5"/>
<path d="M1534.2 2057.93C1533.15 2059.07 1531.96 2060.09 1530.66 2060.94C1526.76 2063.54 1522.12 2064.78 1517.45 2064.48C1514 2064.28 1510.66 2063.2 1507.75 2061.33C1504.5 2058.84 1501.5 2056.04 1498.8 2052.96L1477.54 2031.15L1342.49 1891.82L1142.51 1684.93L1084.73 1625.04L1054.92 1594.16L1047.36 1586.31C1044.58 1583.74 1042.1 1580.87 1039.97 1577.74C1037.96 1574.29 1036.89 1570.37 1036.87 1566.38C1036.85 1562.38 1037.87 1558.46 1039.85 1554.98C1041.91 1551.68 1044.48 1548.73 1047.46 1546.23L1055.42 1538.5C1060.82 1533.36 1066.16 1528.24 1071.54 1522.97C1082.35 1512.7 1093.31 1502.39 1104.18 1491.51C1126.12 1470.44 1148.33 1449.02 1170.82 1427.26C1173.88 1424.31 1177.67 1422.23 1181.81 1421.25C1185.95 1420.28 1190.27 1420.43 1194.33 1421.7C1198.3 1423.07 1201.83 1425.49 1204.54 1428.7L1212.59 1437.02L1244.51 1470.28L1306.56 1534.77L1424.39 1657.18L1623.81 1864.74C1637.97 1879.61 1651.54 1893.37 1664.22 1907.09C1667.03 1910.94 1668.52 1915.6 1668.47 1920.37C1668.42 1925.14 1666.83 1929.77 1663.94 1933.56C1657.93 1940.33 1651.68 1945.62 1645.85 1951.39C1622.38 1973.9 1602.13 1993.27 1585.5 2009.08C1568.86 2024.89 1556.13 2037.08 1547.3 2045.42L1537.28 2054.82C1535.05 2056.96 1533.77 2057.97 1533.77 2057.97C1533.77 2057.97 1534.84 2056.73 1537 2054.6C1539.16 2052.47 1542.52 2049.06 1546.71 2044.62C1555.42 2036.09 1568.1 2023.7 1584.42 2007.82L1644.35 1949.65C1650.18 1943.89 1656.55 1938.2 1661.77 1932.08C1664.32 1928.66 1665.72 1924.51 1665.74 1920.25C1665.77 1915.98 1664.42 1911.82 1661.9 1908.37C1649.43 1895.12 1635.56 1881.06 1621.18 1866.48L1421.18 1659.52L1303.14 1537.16L1240.82 1472.74L1208.94 1439.62L1200.88 1431.3C1198.51 1428.53 1195.4 1426.47 1191.92 1425.37C1188.51 1424.31 1184.87 1424.19 1181.4 1425.02C1177.92 1425.85 1174.73 1427.59 1172.16 1430.08L1105.53 1494.32L1072.86 1525.71L1056.74 1541.24L1048.78 1548.98C1046.09 1551.23 1043.74 1553.87 1041.81 1556.82C1040.14 1559.75 1039.26 1563.07 1039.27 1566.44C1039.28 1569.82 1040.18 1573.13 1041.88 1576.05C1043.9 1578.9 1046.19 1581.54 1048.72 1583.95L1056.26 1591.74L1086.09 1622.68L1143.74 1682.61L1343.14 1890.09L1478.56 2029.99L1499.24 2052.11C1501.86 2055.18 1504.78 2057.98 1507.96 2060.46C1510.7 2062.31 1513.87 2063.41 1517.16 2063.68C1521.7 2064.1 1526.25 2063.06 1530.16 2060.71C1533.01 2058.98 1534.17 2057.79 1534.2 2057.93Z" fill="#263238"/>
<path d="M1072.32 1576.63L1158.16 1664.65L1286.52 1539.48L1200.68 1451.45L1072.32 1576.63Z" fill="#2563EB"/>
<path d="M1351.85 1863.32L1437.69 1951.35L1566.05 1826.17L1480.21 1738.14L1351.85 1863.32Z" fill="#2563EB"/>
<path d="M1258.6 1767.69L1344.44 1855.72L1472.8 1730.54L1386.96 1642.51L1258.6 1767.69Z" fill="#2563EB"/>
<path d="M1165.23 1671.96L1251.07 1759.98L1379.44 1634.8L1293.6 1546.78L1165.23 1671.96Z" fill="#2563EB"/>
<g opacity="0.5">
<path d="M1072.32 1576.63L1158.16 1664.65L1286.52 1539.48L1200.68 1451.45L1072.32 1576.63Z" fill="black"/>
</g>
<g opacity="0.2">
<path d="M1351.85 1863.32L1437.69 1951.35L1566.05 1826.17L1480.21 1738.14L1351.85 1863.32Z" fill="black"/>
</g>
<g opacity="0.3">
<path d="M1258.6 1767.69L1344.44 1855.72L1472.8 1730.54L1386.96 1642.52L1258.6 1767.69Z" fill="black"/>
</g>
<g opacity="0.4">
<path d="M1165.23 1671.96L1251.07 1759.98L1379.44 1634.8L1293.6 1546.78L1165.23 1671.96Z" fill="black"/>
</g>
<path d="M1538.43 2078.92L1694.79 1998.09C1697.32 1996.79 1699.57 1995 1701.4 1992.83C1703.23 1990.66 1704.6 1988.14 1705.45 1985.43C1706.3 1982.71 1706.59 1979.86 1706.32 1977.03C1706.05 1974.2 1705.22 1971.46 1703.87 1968.96L1384.04 1350C1382.77 1347.45 1381.01 1345.18 1378.85 1343.33C1376.7 1341.47 1374.19 1340.07 1371.48 1339.19C1368.78 1338.32 1365.92 1337.99 1363.09 1338.23C1360.25 1338.48 1357.49 1339.28 1354.98 1340.6L1198.66 1421.35C1196.12 1422.64 1193.87 1424.43 1192.03 1426.6C1190.19 1428.77 1188.81 1431.29 1187.95 1434C1187.1 1436.72 1186.8 1439.58 1187.07 1442.41C1187.33 1445.24 1188.16 1447.99 1189.51 1450.5L1509.41 2069.44C1510.67 2071.99 1512.43 2074.26 1514.58 2076.12C1516.73 2077.98 1519.22 2079.39 1521.93 2080.28C1524.63 2081.16 1527.48 2081.49 1530.31 2081.26C1533.15 2081.03 1535.9 2080.23 1538.43 2078.92Z" fill="#F5F5F5"/>
<path d="M1538.43 2078.92C1537.02 2079.76 1535.5 2080.39 1533.91 2080.79C1529.23 2082.08 1524.24 2081.72 1519.78 2079.79C1516.5 2078.34 1513.61 2076.13 1511.34 2073.35C1508.96 2069.82 1506.86 2066.12 1505.06 2062.27L1490.19 2034.32L1397.14 1855.49L1259.63 1589.98L1219.89 1513.23L1199.39 1473.59L1188.97 1453.45C1186.89 1449.98 1185.62 1446.08 1185.26 1442.06C1184.95 1437.89 1185.77 1433.73 1187.63 1429.99C1189.38 1426.12 1192.17 1422.82 1195.69 1420.45C1199.32 1418.3 1202.59 1416.76 1206.02 1414.96C1212.89 1411.42 1219.81 1407.8 1226.68 1404.26C1240.53 1397.06 1254.48 1389.85 1268.53 1382.65C1296.6 1368.14 1325.06 1353.44 1353.91 1338.53C1357.84 1336.51 1362.26 1335.65 1366.67 1336.05C1371.07 1336.45 1375.27 1338.09 1378.77 1340.79C1382.17 1343.46 1384.86 1346.92 1386.63 1350.85L1392.15 1361.54L1414.07 1403.98L1456.99 1487.09L1537.97 1644.01L1674.8 1909.71L1702.61 1963.69C1703.63 1965.85 1704.84 1967.88 1705.76 1970.22C1707.11 1973.63 1707.61 1977.32 1707.23 1980.96C1706.84 1984.61 1705.58 1988.11 1703.56 1991.16C1700.92 1995 1697.25 1998 1692.97 1999.83C1689.07 2001.76 1685.25 2003.74 1681.5 2005.7C1651.41 2021.14 1625.53 2034.34 1604.32 2045.19C1583.11 2056.04 1566.75 2064.33 1555.45 2070.08C1549.92 2072.82 1545.69 2074.91 1542.43 2076.52C1539.17 2078.13 1538.04 2078.58 1538.04 2078.58C1538.04 2078.58 1539.43 2077.7 1542.27 2076.2L1554.84 2069.44C1566.02 2063.56 1582.31 2054.7 1603.33 2043.98C1624.35 2033.26 1650.31 2019.52 1680.27 2003.89C1683.96 2001.95 1687.78 1999.97 1691.66 1997.96C1695.61 1996.32 1698.99 1993.57 1701.41 1990.04C1703.82 1986.37 1704.98 1982.03 1704.73 1977.65C1704.27 1973.08 1702.72 1968.69 1700.2 1964.85L1672.2 1911L1534.68 1645.48L1453.51 1488.69L1410.62 1405.71L1388.71 1363.28L1383.19 1352.59C1381.71 1349.1 1379.37 1346.05 1376.39 1343.72C1373.42 1341.49 1369.89 1340.14 1366.19 1339.82C1362.49 1339.51 1358.78 1340.24 1355.48 1341.94C1326.65 1356.9 1298.19 1371.6 1270.11 1386.06C1256.04 1393.37 1242.09 1400.57 1228.26 1407.67C1221.4 1411.28 1214.47 1414.83 1207.6 1418.37C1204.31 1420.14 1200.57 1421.87 1197.58 1423.64C1194.61 1425.57 1192.22 1428.27 1190.68 1431.46C1189.13 1434.66 1188.45 1438.2 1188.69 1441.74C1188.93 1445.29 1190.08 1448.71 1192.04 1451.67L1202.36 1471.76L1222.86 1511.4L1262.46 1588.18L1399.29 1853.88L1491.57 2033.14L1505.92 2061.38C1507.69 2065.17 1509.71 2068.85 1511.97 2072.37C1514.12 2075.07 1516.87 2077.24 1520 2078.7C1524.31 2080.62 1529.12 2081.09 1533.71 2080.04C1536.94 2079.69 1538.39 2078.78 1538.43 2078.92Z" fill="#263238"/>
<path d="M1539.48 2080.11C1540.1 2079.95 1541.7 2088.37 1548.32 2102.08C1557.71 2121.28 1571.81 2137.8 1589.29 2150.1C1615.39 2168.06 1647.47 2175.12 1678.71 2169.8C1705.42 2164.96 1729.68 2151.17 1747.49 2130.69C1765.31 2110.22 1775.61 2084.28 1776.71 2057.16C1777.81 2030.04 1769.64 2003.36 1753.54 1981.51C1737.44 1959.66 1714.38 1943.94 1688.15 1936.96C1667.48 1931.44 1645.74 1931.37 1625.04 1936.76C1621.39 1937.74 1618.16 1938.6 1615.27 1939.38C1612.38 1940.15 1610.26 1941.31 1608.59 1941.98C1606.69 1942.82 1604.67 1943.37 1602.61 1943.58C1604.24 1942.29 1606.03 1941.21 1607.94 1940.38C1609.76 1939.45 1611.93 1938.21 1614.44 1937.09C1616.94 1935.98 1620.46 1934.81 1624.09 1933.47C1645.23 1926.83 1667.79 1926.12 1689.32 1931.41C1705.38 1935.29 1720.49 1942.35 1733.77 1952.19C1747.05 1962.02 1758.21 1974.42 1766.6 1988.65C1777.04 2006.09 1783.04 2025.81 1784.08 2046.11C1785.12 2066.4 1781.17 2086.64 1772.57 2105.05C1768.03 2114.6 1762.33 2123.56 1755.6 2131.72C1735.38 2156.22 1706.59 2172.11 1675.08 2176.14C1643.57 2180.17 1611.71 2172.05 1585.97 2153.43C1568.1 2140.3 1554.08 2122.61 1545.4 2102.2C1543.12 2096.7 1541.31 2091.02 1539.97 2085.22C1539.53 2083.56 1539.36 2081.83 1539.48 2080.11Z" fill="#263238"/>
<path d="M1571.27 1932.06C1575.98 1929.63 1581.3 1928.65 1586.56 1929.24C1591.83 1929.84 1596.8 1931.97 1600.84 1935.39C1604.89 1938.81 1607.83 1943.35 1609.3 1948.43C1610.77 1953.52 1610.7 1958.93 1609.09 1963.98C1607.49 1969.03 1604.42 1973.48 1600.28 1976.79C1596.15 1980.09 1591.12 1982.1 1585.84 1982.55C1580.57 1983 1575.27 1981.87 1570.64 1979.32C1566 1976.76 1562.22 1972.88 1559.79 1968.18C1556.54 1961.87 1555.92 1954.52 1558.07 1947.75C1560.23 1940.98 1564.97 1935.34 1571.27 1932.06Z" fill="#263238"/>
<path d="M1210.38 1439.76L1266.83 1548.99L1426.11 1466.67L1369.66 1357.44L1210.38 1439.76Z" fill="#2563EB"/>
<path d="M1271.44 1557.97L1327.89 1667.19L1487.17 1584.87L1430.73 1475.65L1271.44 1557.97Z" fill="#2563EB"/>
<path d="M1332.88 1676.76L1389.32 1785.99L1548.61 1703.67L1492.16 1594.44L1332.88 1676.76Z" fill="#2563EB"/>
<path d="M1394.19 1795.46L1450.64 1904.69L1609.93 1822.37L1553.48 1713.14L1394.19 1795.46Z" fill="#2563EB"/>
<g opacity="0.8">
<path d="M1394.19 1795.46L1450.64 1904.69L1609.93 1822.37L1553.48 1713.14L1394.19 1795.46Z" fill="white"/>
</g>
<g opacity="0.6">
<path d="M1332.88 1676.76L1389.32 1785.99L1548.61 1703.67L1492.16 1594.44L1332.88 1676.76Z" fill="white"/>
</g>
<g opacity="0.4">
<path d="M1271.44 1557.97L1327.89 1667.19L1487.18 1584.87L1430.73 1475.65L1271.44 1557.97Z" fill="white"/>
</g>
<path d="M1919.08 3114.73C1913.92 3109.92 1911 3103.05 1911 3095.83V3094.97C1911 3082.94 1919.59 3072.62 1931.45 3070.73C1939.36 3069.36 1947.27 3071.94 1952.94 3077.44L1955 3079.5L1957.06 3077.44C1962.56 3071.94 1970.64 3069.36 1978.38 3070.73C1990.23 3072.62 1999 3082.94 1999 3094.97V3095.83C1999 3103.05 1995.91 3109.92 1990.75 3114.73L1959.64 3143.78C1958.44 3144.98 1956.72 3145.5 1955 3145.5C1953.11 3145.5 1951.39 3144.98 1950.19 3143.78L1919.08 3114.73Z" fill="white"/>
</svg>
