<svg width="3658" height="3884" viewBox="0 0 3658 3884" fill="none" xmlns="http://www.w3.org/2000/svg">
<path d="M2769.42 420.729C2769.42 424.829 2768.21 428.837 2765.93 432.246C2763.65 435.655 2760.41 438.312 2756.63 439.88C2752.84 441.449 2748.67 441.86 2744.65 441.06C2740.63 440.26 2736.94 438.286 2734.04 435.387C2731.14 432.488 2729.16 428.794 2728.36 424.773C2727.56 420.752 2727.97 416.584 2729.54 412.796C2731.11 409.009 2733.77 405.771 2737.18 403.494C2740.59 401.216 2744.59 400 2748.69 400C2751.42 400 2754.11 400.536 2756.63 401.578C2759.14 402.62 2761.43 404.147 2763.35 406.071C2765.28 407.996 2766.8 410.282 2767.85 412.796C2768.89 415.311 2769.42 418.007 2769.42 420.729Z" fill="#E0E0E0"/>
<path d="M2878.41 1818.92C2878.41 1818.92 2878.41 1817.92 2878.41 1816C2878.41 1814.07 2878.41 1811.15 2878.41 1807.52C2878.41 1799.9 2878.41 1788.86 2878.05 1774.75C2878.05 1746.26 2878.05 1704.51 2877.56 1652.73C2877.56 1548.8 2877.13 1403.41 2876.91 1238.21L2877.34 1239.42L2788.09 1131.93L2748.27 1083.71L2747.84 1083.21V1082.57C2747.84 898.07 2748.27 733.519 2748.41 615.341C2748.41 556.359 2748.84 508.49 2748.98 475.793C2748.98 459.552 2748.98 446.872 2749.33 438.039C2749.33 433.907 2749.33 430.915 2749.33 428.28C2749.33 425.644 2749.33 424.932 2749.33 424.932C2749.33 424.932 2749.33 426.071 2749.33 428.28C2749.33 430.488 2749.33 433.907 2749.33 438.039C2749.33 446.872 2749.33 459.409 2749.33 475.793C2749.33 508.774 2749.33 556.359 2749.9 615.341C2749.9 733.732 2750.26 898.07 2750.54 1082.57L2750.12 1081.36L2789.94 1129.58L2878.7 1237.07L2879.12 1237.57V1238.21C2879.12 1403.69 2878.62 1548.8 2878.48 1652.73C2878.48 1704.51 2878.05 1745.97 2877.91 1774.75C2877.91 1789 2877.91 1799.9 2877.91 1807.52C2877.91 1811.15 2877.91 1813.93 2877.91 1816C2877.91 1818.06 2878.41 1818.92 2878.41 1818.92Z" fill="#E0E0E0"/>
<path d="M3116.48 1697.32C3115.27 1701.34 3113.42 1705.15 3110.99 1708.57C3104.49 1718.24 3094.81 1725.32 3083.64 1728.59C3075.95 1730.92 3067.82 1731.41 3059.92 1730.02C3050.8 1728.36 3042.29 1724.31 3035.27 1718.26C3031.43 1715.03 3028.14 1711.21 3025.51 1706.94C3022.65 1702.56 3020.51 1697.75 3019.17 1692.69C3016.2 1682.03 3016.74 1670.69 3020.72 1660.36C3024.7 1650.03 3031.9 1641.26 3041.25 1635.35C3045.63 1632.48 3050.44 1630.34 3055.5 1629.01C3060.32 1627.65 3065.31 1627.05 3070.32 1627.23C3077.55 1627.32 3084.68 1628.95 3091.23 1632.01C3097.78 1635.07 3103.61 1639.49 3108.33 1644.97C3113.04 1650.45 3116.54 1656.88 3118.58 1663.81C3120.63 1670.75 3121.17 1678.05 3120.18 1685.21C3119.7 1689.39 3118.52 1693.46 3116.69 1697.25C3116.33 1697.25 3118.19 1692.97 3119.11 1685.07C3119.85 1678.19 3119.16 1671.22 3117.06 1664.63C3114.97 1658.03 3111.52 1651.94 3106.94 1646.75C3102.37 1641.55 3096.76 1637.37 3090.48 1634.46C3084.2 1631.56 3077.38 1629.99 3070.46 1629.86C3065.64 1629.72 3060.83 1630.35 3056.21 1631.71C3051.45 1632.96 3046.93 1634.98 3042.82 1637.7C3034.01 1643.32 3027.23 1651.62 3023.46 1661.37C3019.7 1671.12 3019.14 1681.82 3021.88 1691.91C3023.13 1696.71 3025.15 1701.28 3027.86 1705.44C3030.35 1709.46 3033.42 1713.08 3036.98 1716.2C3043.18 1721.63 3050.65 1725.43 3058.7 1727.25C3066.75 1729.07 3075.13 1728.84 3083.07 1726.6C3093.9 1723.54 3103.41 1716.94 3110.06 1707.86C3114.77 1701.45 3116.12 1697.18 3116.48 1697.32Z" fill="#E0E0E0"/>
<path d="M3164.06 1745.33H3165.84L3171.18 1745.97L3192.55 1748.82H3192.05L3208.37 1705.23V1706.08L3184.65 1690.34H3184.22V1689.84C3185.27 1679.68 3184.99 1669.43 3183.36 1659.35V1658.78L3183.86 1658.43L3206.66 1641.33L3206.3 1642.61L3187.07 1599.87L3188.35 1600.58L3160.43 1606.14H3159.71L3159.29 1605.57C3152.89 1597.64 3145.46 1590.6 3137.2 1584.63L3136.56 1584.2V1583.42C3137.85 1574.73 3139.2 1565.04 3140.62 1555.28L3141.48 1556.63L3097.46 1539.75L3099.02 1539.25L3083.21 1562.9L3082.71 1563.61H3081.93C3071.82 1562.56 3061.61 1562.84 3051.58 1564.47H3050.73L3050.23 1563.83L3033.2 1540.96L3034.91 1541.46L2991.82 1560.55L2992.67 1558.98C2994.38 1567.82 2996.3 1577.29 2998.15 1586.91V1587.76L2997.44 1588.33C2989.53 1594.7 2982.49 1602.07 2976.5 1610.27C2975.93 1610.27 2977.92 1609.7 2975.15 1610.91H2974.29H2973.37H2971.58L2968.09 1610.41L2960.97 1609.42L2946.72 1607.35L2948.29 1606.42C2942.59 1621.31 2936.89 1635.99 2931.34 1650.45L2930.77 1648.74L2954.42 1664.55L2955.13 1665.05V1665.91C2954.01 1676.01 2954.25 1686.21 2955.84 1696.25V1697.11L2955.2 1697.6L2932.33 1714.63L2932.76 1712.92C2939.24 1727.67 2945.66 1742.05 2951.85 1756.02L2950.36 1755.3L2978.28 1749.82H2979.06L2979.56 1750.39C2985.92 1758.35 2993.33 1765.42 3001.57 1771.4L3002.14 1771.83V1772.61C3000.72 1782.23 2999.29 1791.63 2997.94 1800.75L2997.23 1799.47L3041.18 1816.49L3039.83 1816.92L3055.78 1793.34L3056.14 1792.77H3056.71C3066.86 1793.89 3077.11 1793.68 3087.2 1792.13H3087.77L3088.12 1792.63C3094.25 1800.97 3099.81 1808.44 3105.08 1815.5H3104.01L3147.18 1796.55L3146.82 1797.26C3144.68 1786.08 3142.97 1776.89 3141.48 1769.27C3147.53 1764.46 3153.11 1759.09 3158.15 1753.24L3161.78 1748.82C3162.15 1748.3 3162.55 1747.8 3162.99 1747.33L3161.99 1748.96C3161.21 1749.96 3160.14 1751.53 3158.5 1753.52C3153.63 1759.56 3148.14 1765.08 3142.12 1769.98V1769.55L3147.82 1797.4V1797.97H3147.39L3104.65 1817.28H3104.01L3103.58 1816.78C3098.31 1809.66 3092.75 1802.53 3086.49 1793.98L3087.41 1794.34C3077.17 1796.04 3066.74 1796.32 3056.42 1795.2L3057.42 1794.77L3041.61 1818.42L3041.11 1819.2L3040.33 1818.85L2996.3 1802.03L2995.38 1801.68V1800.68C2996.66 1791.56 2998.01 1782.16 2999.44 1772.19L2999.94 1773.33C2991.51 1767.24 2983.94 1760.06 2977.43 1751.96L2978.71 1752.45L2950.71 1757.94H2949.72L2949.22 1757.01L2931.27 1713.06L2930.77 1712.06L2931.69 1711.42L2954.49 1694.33L2953.99 1695.68C2952.31 1685.41 2952.03 1674.97 2953.14 1664.62L2953.78 1665.91L2930.13 1650.09L2929.13 1649.45L2929.56 1648.38C2935.11 1634.13 2940.81 1619.25 2946.51 1604.36L2946.94 1603.29H2948.08L2962.32 1605.28L2969.45 1606.35L2973.01 1606.85H2974.79H2975.72H2976.57L2975.15 1607.49C2981.26 1599.09 2988.45 1591.53 2996.52 1584.98L2996.02 1586.41C2994.17 1576.79 2992.24 1567.32 2990.53 1558.48V1557.34L2991.6 1556.85L3034.7 1537.75L3035.7 1537.33L3036.41 1538.18L3053.36 1561.05L3052.08 1560.55C3062.35 1558.91 3072.8 1558.65 3083.14 1559.77L3081.86 1560.34L3097.74 1536.76L3098.31 1535.83L3099.31 1536.26L3143.33 1553.21L3144.26 1553.57V1554.64C3142.83 1564.47 3141.41 1574.08 3140.13 1582.77L3139.63 1581.63C3148.02 1587.74 3155.56 1594.92 3162.07 1603.01L3160.85 1602.58L3188.85 1597.09H3189.78L3190.13 1597.88C3196.76 1613.05 3203.17 1627.44 3209.15 1641.04V1641.76L3208.51 1642.26L3185.64 1659.21L3186 1658.35C3187.63 1668.58 3187.84 1678.98 3186.64 1689.27L3186.28 1688.49L3209.86 1704.44L3210.36 1704.8V1705.3C3203.24 1723.18 3197.61 1737.99 3193.19 1749.18V1749.53L3172.32 1746.19L3166.91 1745.33H3164.06Z" fill="#E0E0E0"/>
<path fill-rule="evenodd" clip-rule="evenodd" d="M3386.45 1340.86C3376.95 1354.02 3365.72 1365.84 3353.05 1375.98L3361.74 1420.08L3293.85 1450.21L3266.92 1413.88C3250.91 1416.46 3234.61 1416.87 3218.48 1415.09L3193.41 1452.42L3124.03 1425.7L3130.58 1381.25C3117.44 1371.71 3105.62 1360.45 3095.46 1347.77L3051.65 1356.89L3021.45 1288.93L3057.49 1262.08C3054.95 1246.06 3054.54 1229.77 3056.28 1213.64L3018.96 1188.64L3045.74 1119.25L3090.19 1125.74C3099.71 1112.59 3110.95 1100.78 3123.6 1090.62L3114.91 1046.52L3182.87 1016.39L3209.72 1052.44C3225.77 1049.86 3242.08 1049.45 3258.23 1051.22L3283.24 1013.9L3352.62 1040.61L3346.14 1085.06C3359.28 1094.61 3371.09 1105.86 3381.25 1118.54L3425.35 1109.78L3455.48 1177.81L3419.44 1204.66C3421.98 1220.68 3422.39 1236.97 3420.65 1253.1L3457.97 1278.11L3431.19 1347.49L3386.74 1341.01L3386.45 1340.86ZM3311.37 1265.07C3317.06 1250.34 3318.26 1234.26 3314.8 1218.86C3311.35 1203.45 3303.4 1189.42 3291.96 1178.53C3280.53 1167.65 3266.12 1160.4 3250.57 1157.7C3235.01 1155.01 3219.01 1156.99 3204.58 1163.4C3190.15 1169.8 3177.95 1180.35 3169.51 1193.69C3161.08 1207.04 3156.79 1222.58 3157.2 1238.37C3157.6 1254.15 3162.68 1269.46 3171.79 1282.35C3180.9 1295.24 3193.63 1305.15 3208.37 1310.8C3228.09 1318.37 3250.02 1317.81 3269.33 1309.23C3288.64 1300.66 3303.76 1284.78 3311.37 1265.07Z" fill="#EBEBEB"/>
<path d="M696.004 1616.18C707.807 1616.18 717.374 1606.62 717.374 1594.81C717.374 1583.01 707.807 1573.44 696.004 1573.44C684.202 1573.44 674.634 1583.01 674.634 1594.81C674.634 1606.62 684.202 1616.18 696.004 1616.18Z" fill="#E0E0E0"/>
<path d="M696.004 2272.89C695.007 2272.89 694.152 2124.58 694.152 1941.65C694.152 1758.72 695.007 1610.34 696.004 1610.34C697.002 1610.34 697.857 1758.58 697.857 1941.65C697.857 2124.73 697.073 2272.89 696.004 2272.89Z" fill="#E0E0E0"/>
<path d="M1494.97 566.19C1494.97 570.416 1493.72 574.548 1491.37 578.062C1489.02 581.577 1485.68 584.316 1481.78 585.933C1477.87 587.551 1473.58 587.974 1469.43 587.149C1465.28 586.325 1461.48 584.289 1458.49 581.301C1455.5 578.312 1453.46 574.504 1452.64 570.359C1451.81 566.213 1452.24 561.917 1453.86 558.012C1455.47 554.107 1458.21 550.769 1461.73 548.421C1465.24 546.073 1469.37 544.819 1473.6 544.819C1479.27 544.819 1484.7 547.071 1488.71 551.079C1492.72 555.086 1494.97 560.522 1494.97 566.19Z" fill="#E0E0E0"/>
<path d="M1473.6 1927.76C1472.53 1927.76 1471.75 1626.44 1471.75 1254.88C1471.75 883.325 1472.53 581.861 1473.6 581.861C1474.67 581.861 1475.45 883.111 1475.45 1254.88C1475.45 1626.66 1474.6 1927.76 1473.6 1927.76Z" fill="#E0E0E0"/>
<path d="M353.581 1364.37C353.581 1368.88 352.245 1373.3 349.742 1377.05C347.239 1380.81 343.68 1383.74 339.514 1385.47C335.348 1387.21 330.762 1387.68 326.332 1386.81C321.902 1385.95 317.828 1383.79 314.621 1380.61C311.415 1377.44 309.221 1373.38 308.314 1368.96C307.408 1364.54 307.831 1359.95 309.528 1355.77C311.226 1351.58 314.124 1348 317.856 1345.46C321.588 1342.92 325.988 1341.55 330.501 1341.5C333.522 1341.48 336.518 1342.05 339.317 1343.18C342.116 1344.32 344.662 1346 346.808 1348.13C348.954 1350.25 350.658 1352.78 351.82 1355.57C352.983 1358.36 353.581 1361.35 353.581 1364.37Z" fill="#E0E0E0"/>
<path d="M332.068 1364.37C332.068 1364.37 332.068 1365.58 332.068 1367.93C332.068 1370.28 332.068 1373.92 332.068 1378.47C332.068 1387.88 332.068 1401.55 332.068 1419.29C332.068 1454.91 332.068 1507.12 332.567 1572.52C332.567 1703.66 332.923 1888.51 333.208 2103.85V2104.42V2104.92C300.796 2149.87 266.818 2196.89 231.984 2245.25L232.34 2244.19V2429.39C232.34 2591.6 232.34 2745.6 232.34 2883.16L231.913 2882.09L354.792 3030.9V3031.25V3031.82C354.792 3169.02 354.293 3281.78 354.151 3360.36C354.151 3399.61 354.151 3430.24 354.151 3451.18C354.151 3461.58 354.151 3469.49 354.151 3474.97C354.151 3480.46 354.151 3483.09 354.151 3483.09C354.151 3483.09 354.151 3480.31 354.151 3474.97C354.151 3469.63 354.151 3461.58 354.151 3451.18C354.151 3430.24 354.151 3399.61 353.724 3360.36C353.724 3282 353.724 3169.02 353.082 3031.82V3032.75L229.491 2884.23L229.063 2883.73V2883.16C229.063 2745.6 229.063 2591.6 229.063 2429.39V2243.54L229.42 2243.12L330.501 2102.86L330.145 2103.85C330.145 1888.51 330.644 1703.66 330.786 1572.52C330.786 1507.12 331.214 1455.12 331.285 1419.29C331.285 1401.55 331.285 1387.88 331.285 1378.47C331.285 1373.92 331.285 1370.43 331.285 1367.93C331.285 1365.44 332.068 1364.37 332.068 1364.37Z" fill="#E0E0E0"/>
<path d="M1960.56 1073.81C1974.76 1073.81 1986.27 1062.29 1986.27 1048.09C1986.27 1033.89 1974.76 1022.37 1960.56 1022.37C1946.35 1022.37 1934.84 1033.89 1934.84 1048.09C1934.84 1062.29 1946.35 1073.81 1960.56 1073.81Z" fill="#E0E0E0"/>
<path d="M1819.3 2546.36C1833.5 2546.36 1845.02 2534.85 1845.02 2520.65C1845.02 2506.44 1833.5 2494.93 1819.3 2494.93C1805.1 2494.93 1793.58 2506.44 1793.58 2520.65C1793.58 2534.85 1805.1 2546.36 1819.3 2546.36Z" fill="#E0E0E0"/>
<path d="M1964.33 1048.09C1964.39 1048.85 1964.39 1049.61 1964.33 1050.37C1964.33 1052.01 1964.33 1054.22 1964.33 1056.99C1964.33 1063.05 1964.33 1071.67 1964.33 1082.92C1964.33 1105.65 1964.33 1138.63 1964.83 1180.3C1964.83 1263.93 1965.19 1382.18 1965.47 1521.37V1522.08L1964.97 1522.58L1820.01 1667.69L1820.58 1666.4V1747.04C1820.58 1956.61 1820.15 2146.38 1820.01 2283.86C1820.01 2352.39 1819.58 2407.95 1819.44 2446.49C1819.44 2465.58 1819.44 2480.47 1819.44 2490.73C1819.44 2495.64 1819.44 2499.49 1819.44 2502.2C1819.44 2504.9 1819.44 2506.11 1819.44 2506.11C1819.44 2506.11 1819.44 2504.83 1819.44 2502.2C1819.44 2499.56 1819.44 2495.64 1819.44 2490.73C1819.44 2480.47 1819.44 2465.58 1819.44 2446.49C1819.44 2407.95 1819.08 2352.39 1818.87 2283.86C1818.87 2146.38 1818.87 1956.61 1818.3 1747.04V1665.62L1818.87 1665.05C1870.09 1613.9 1919.1 1564.89 1963.97 1520.16L1963.48 1521.37C1963.48 1382.18 1963.97 1263.93 1964.12 1180.3C1964.12 1138.63 1964.54 1105.65 1964.62 1082.92C1964.62 1071.67 1964.62 1063.05 1964.62 1056.99C1964.62 1054.22 1964.62 1052.01 1964.62 1050.37C1964.46 1049.62 1964.36 1048.86 1964.33 1048.09Z" fill="#E0E0E0"/>
<path d="M3273.9 1742.34H1915.68V2583.47H3273.9V1742.34Z" fill="#FAFAFA"/>
<path d="M3273.9 2583.47C3273.9 2583.47 3273.9 2578.27 3273.9 2568.3C3273.9 2558.33 3273.9 2543.51 3273.9 2524.14C3273.9 2485.46 3273.9 2428.54 3273.9 2355.52C3273.9 2209.64 3273.48 1999.35 3273.12 1742.34L3274.62 1743.76L1916.53 1744.19L1918.38 1742.34C1918.38 2040.53 1918.38 2324.82 1918.38 2583.47L1916.68 2581.77L2894.37 2582.62L3174.46 2583.05H3249.04H3268.28H3249.26H3174.96L2895.29 2583.47L1916.46 2584.33H1914.75V2582.62C1914.75 2323.97 1914.75 2039.67 1914.75 1741.48V1739.63H1916.75L3274.83 1739.99H3276.25V1741.48C3276.25 1999.07 3275.68 2209.49 3275.47 2355.6C3275.47 2428.4 3275.47 2485.24 3275.11 2523.85C3275.11 2543.08 3275.11 2557.76 3275.11 2567.73C3275.11 2577.7 3273.9 2583.47 3273.9 2583.47Z" fill="#263238"/>
<path d="M3273.19 1824.4C3273.19 1825.47 2969.73 1826.25 2595.47 1826.25C2221.2 1826.25 1917.74 1825.47 1917.74 1824.4C1917.74 1823.33 2221.13 1822.55 2595.47 1822.55C2969.8 1822.55 3273.19 1823.4 3273.19 1824.4Z" fill="#263238"/>
<path d="M1987.91 1787.29C1987.91 1789.5 1987.25 1791.66 1986.02 1793.5C1984.79 1795.34 1983.05 1796.78 1981 1797.62C1978.96 1798.47 1976.71 1798.69 1974.54 1798.26C1972.37 1797.83 1970.38 1796.76 1968.82 1795.2C1967.25 1793.63 1966.19 1791.64 1965.76 1789.47C1965.32 1787.3 1965.55 1785.05 1966.39 1783.01C1967.24 1780.97 1968.67 1779.22 1970.51 1777.99C1972.35 1776.76 1974.51 1776.11 1976.72 1776.11C1978.2 1776.1 1979.65 1776.38 1981.02 1776.94C1982.38 1777.5 1983.61 1778.32 1984.65 1779.36C1985.69 1780.4 1986.52 1781.64 1987.08 1783C1987.64 1784.36 1987.92 1785.82 1987.91 1787.29Z" fill="#263238"/>
<path d="M2028.16 1787.29C2028.14 1789.48 2027.48 1791.63 2026.25 1793.44C2025.02 1795.26 2023.28 1796.67 2021.25 1797.5C2019.22 1798.34 2016.98 1798.55 2014.83 1798.11C2012.68 1797.67 2010.71 1796.61 2009.16 1795.05C2007.61 1793.49 2006.56 1791.51 2006.14 1789.36C2005.72 1787.21 2005.94 1784.98 2006.78 1782.95C2007.63 1780.92 2009.05 1779.19 2010.88 1777.97C2012.7 1776.76 2014.85 1776.11 2017.04 1776.11C2018.51 1776.11 2019.96 1776.4 2021.31 1776.96C2022.67 1777.52 2023.89 1778.35 2024.93 1779.39C2025.96 1780.42 2026.78 1781.66 2027.33 1783.01C2027.89 1784.37 2028.17 1785.82 2028.16 1787.29Z" fill="#263238"/>
<path d="M2057.29 1798.4C2063.43 1798.4 2068.4 1793.43 2068.4 1787.29C2068.4 1781.15 2063.43 1776.18 2057.29 1776.18C2051.15 1776.18 2046.18 1781.15 2046.18 1787.29C2046.18 1793.43 2051.15 1798.4 2057.29 1798.4Z" fill="#263238"/>
<path d="M2063.85 1974.92L2031.58 1987.31L2063.85 1999.78V2007.33L2023.1 1991.23V1983.75L2063.85 1967.72V1974.92Z" fill="#263238"/>
<path d="M2097.11 1942.65H2105.02L2075.03 2028.13H2067.12L2097.11 1942.65Z" fill="#263238"/>
<path d="M2148.76 1983.75V1991.59L2108.01 2007.69V2000.14L2140.35 1987.67L2108.01 1975.28V1967.37L2148.76 1983.75Z" fill="#263238"/>
<path d="M2159.01 2013.39C2159 2012.57 2159.16 2011.77 2159.47 2011.01C2159.78 2010.26 2160.23 2009.58 2160.81 2009.01C2161.39 2008.43 2162.08 2007.99 2162.83 2007.69C2163.59 2007.39 2164.4 2007.24 2165.21 2007.26C2166.01 2007.25 2166.81 2007.4 2167.55 2007.71C2168.29 2008.01 2168.96 2008.47 2169.52 2009.04C2170.08 2009.61 2170.51 2010.29 2170.8 2011.04C2171.09 2011.79 2171.22 2012.59 2171.2 2013.39C2171.22 2014.19 2171.09 2015 2170.8 2015.75C2170.52 2016.51 2170.08 2017.2 2169.52 2017.78C2168.97 2018.36 2168.3 2018.83 2167.56 2019.15C2166.82 2019.47 2166.02 2019.65 2165.21 2019.65C2164.39 2019.65 2163.58 2019.49 2162.82 2019.18C2162.07 2018.86 2161.38 2018.4 2160.8 2017.81C2160.23 2017.23 2159.77 2016.54 2159.47 2015.78C2159.16 2015.02 2159 2014.21 2159.01 2013.39Z" fill="#263238"/>
<path d="M2179.67 2013.39C2179.65 2012.57 2179.8 2011.76 2180.1 2011C2180.41 2010.24 2180.87 2009.56 2181.45 2008.98C2182.03 2008.41 2182.72 2007.96 2183.48 2007.66C2184.24 2007.37 2185.05 2007.23 2185.87 2007.26C2186.67 2007.25 2187.46 2007.4 2188.2 2007.71C2188.94 2008.01 2189.61 2008.47 2190.17 2009.04C2190.73 2009.61 2191.17 2010.29 2191.46 2011.04C2191.75 2011.79 2191.88 2012.59 2191.85 2013.39C2191.88 2014.19 2191.75 2015 2191.46 2015.75C2191.17 2016.51 2190.74 2017.2 2190.18 2017.78C2189.62 2018.36 2188.96 2018.83 2188.21 2019.15C2187.47 2019.48 2186.68 2019.65 2185.87 2019.65C2185.05 2019.66 2184.23 2019.51 2183.47 2019.2C2182.71 2018.88 2182.02 2018.42 2181.44 2017.84C2180.86 2017.25 2180.41 2016.56 2180.1 2015.79C2179.8 2015.03 2179.65 2014.21 2179.67 2013.39Z" fill="#263238"/>
<path d="M2200.33 2013.39C2200.31 2012.58 2200.46 2011.77 2200.76 2011.02C2201.06 2010.27 2201.51 2009.58 2202.08 2009.01C2202.65 2008.44 2203.34 2007.99 2204.09 2007.69C2204.84 2007.39 2205.65 2007.24 2206.46 2007.26C2207.26 2007.25 2208.05 2007.4 2208.79 2007.71C2209.53 2008.01 2210.2 2008.47 2210.76 2009.04C2211.32 2009.61 2211.76 2010.29 2212.05 2011.04C2212.33 2011.79 2212.47 2012.59 2212.44 2013.39C2212.47 2014.19 2212.34 2015 2212.05 2015.75C2211.76 2016.51 2211.33 2017.2 2210.77 2017.78C2210.21 2018.36 2209.54 2018.83 2208.8 2019.15C2208.06 2019.47 2207.26 2019.65 2206.46 2019.65C2205.64 2019.65 2204.83 2019.49 2204.08 2019.17C2203.33 2018.86 2202.64 2018.39 2202.07 2017.81C2201.5 2017.23 2201.05 2016.53 2200.75 2015.77C2200.46 2015.01 2200.31 2014.2 2200.33 2013.39Z" fill="#263238"/>
<path d="M2921.51 2095.02C2921.51 2096.02 2720.7 2096.87 2472.73 2096.87C2224.76 2096.87 2024.31 2096.02 2024.31 2095.02C2024.31 2094.02 2225.05 2093.1 2472.73 2093.1C2720.41 2093.1 2921.51 2093.95 2921.51 2095.02Z" fill="#2563EB"/>
<path d="M3067.97 2097.73C3039.29 2100.2 3010.45 2100.2 2981.77 2097.73C3010.45 2095.26 3039.29 2095.26 3067.97 2097.73Z" fill="#263238"/>
<path d="M3194.12 2097.73C3162.78 2100.2 3131.29 2100.2 3099.95 2097.73C3131.29 2095.26 3162.78 2095.26 3194.12 2097.73Z" fill="#263238"/>
<path d="M2595.75 2170.53C2595.75 2171.6 2468.1 2172.38 2310.81 2172.38C2153.53 2172.38 2025.88 2171.6 2025.88 2170.53C2025.88 2169.46 2153.46 2168.68 2310.81 2168.68C2468.17 2168.68 2595.75 2169.53 2595.75 2170.53Z" fill="#2563EB"/>
<path d="M2591.62 2452.47C2591.62 2453.54 2464.04 2454.33 2306.68 2454.33C2149.33 2454.33 2021.75 2453.54 2021.75 2452.47C2021.75 2451.41 2149.33 2450.62 2306.68 2450.62C2464.04 2450.62 2591.62 2451.48 2591.62 2452.47Z" fill="#2563EB"/>
<path d="M2802.83 2170.53C2802.83 2171.6 2768.07 2172.38 2725.26 2172.38C2682.44 2172.38 2647.68 2171.6 2647.68 2170.53C2647.68 2169.46 2682.44 2168.68 2725.26 2168.68C2768.07 2168.68 2802.83 2169.53 2802.83 2170.53Z" fill="#263238"/>
<path d="M2801.19 2452.47C2801.19 2453.54 2766.5 2454.33 2723.62 2454.33C2680.74 2454.33 2646.12 2453.54 2646.12 2452.47C2646.12 2451.41 2680.81 2450.62 2723.62 2450.62C2766.43 2450.62 2801.19 2451.48 2801.19 2452.47Z" fill="#263238"/>
<path d="M2063.13 2209C2050.43 2211.47 2037.37 2211.47 2024.67 2209C2037.37 2206.53 2050.43 2206.53 2063.13 2209Z" fill="#2563EB"/>
<path d="M2195.7 2209.78C2181.92 2211.66 2168 2212.31 2154.1 2211.7C2140.16 2212.34 2126.19 2211.72 2112.36 2209.85C2140.15 2207.38 2168.12 2207.38 2195.91 2209.85L2195.7 2209.78Z" fill="#263238"/>
<path d="M2280.54 2209.78C2256.74 2212.25 2232.75 2212.25 2208.95 2209.78C2232.75 2207.31 2256.74 2207.31 2280.54 2209.78Z" fill="#263238"/>
<path d="M2387.89 2209.78C2363.64 2212.25 2339.2 2212.25 2314.95 2209.78C2339.2 2207.31 2363.64 2207.31 2387.89 2209.78Z" fill="#263238"/>
<path d="M2481.78 2209.78C2459.76 2212.25 2437.54 2212.25 2415.53 2209.78C2437.54 2207.31 2459.76 2207.31 2481.78 2209.78Z" fill="#263238"/>
<path d="M2793.57 2209.78C2793.57 2210.85 2728.25 2211.63 2647.75 2211.63C2567.26 2211.63 2501.87 2210.85 2501.87 2209.78C2501.87 2208.71 2567.19 2207.93 2647.75 2207.93C2728.32 2207.93 2793.57 2208.78 2793.57 2209.78Z" fill="#263238"/>
<path d="M2057.79 2258.08C2046.89 2260.55 2035.57 2260.55 2024.67 2258.08C2035.56 2255.51 2046.9 2255.51 2057.79 2258.08Z" fill="#2563EB"/>
<path d="M2059.14 2308.44C2047.78 2310.91 2036.03 2310.91 2024.67 2308.44C2036.03 2305.97 2047.78 2305.97 2059.14 2308.44Z" fill="#2563EB"/>
<path d="M2059.14 2365.43C2047.78 2367.9 2036.03 2367.9 2024.67 2365.43C2036.03 2362.96 2047.78 2362.96 2059.14 2365.43Z" fill="#2563EB"/>
<path d="M2373.29 2362.79C2373.29 2363.79 2315.73 2364.64 2245.07 2364.64C2174.4 2364.64 2116.49 2363.79 2116.49 2362.79C2116.49 2361.79 2174.05 2360.94 2245.07 2360.94C2316.09 2360.94 2373.29 2361.72 2373.29 2362.79Z" fill="#263238"/>
<path d="M2350.78 2308.44C2350.78 2309.44 2295.86 2310.29 2228.18 2310.29C2160.51 2310.29 2105.52 2309.44 2105.52 2308.44C2105.52 2307.44 2160.44 2306.59 2228.18 2306.59C2295.93 2306.59 2350.78 2307.37 2350.78 2308.44Z" fill="#263238"/>
<path d="M2943.3 2255.37C2943.3 2256.44 2756.38 2257.22 2525.8 2257.22C2295.21 2257.22 2108.15 2256.44 2108.15 2255.37C2108.15 2254.3 2295.07 2253.52 2525.8 2253.52C2756.53 2253.52 2943.3 2254.44 2943.3 2255.37Z" fill="#263238"/>
<path d="M2651.46 605.44H2079.16V1588.47H2651.46V605.44Z" fill="#FAFAFA"/>
<path d="M2651.46 1588.47C2651.46 1588.47 2651.46 1586.84 2651.46 1583.63C2651.46 1580.42 2651.46 1575.79 2651.46 1569.38C2651.46 1556.99 2651.46 1538.82 2651.46 1515.24C2651.46 1468.02 2651.46 1399.13 2651.03 1312.23C2651.03 1138.56 2650.53 893.084 2650.18 605.155L2651.89 606.865H2079.66L2081.51 605.013C2081.51 980.061 2081.51 1324.05 2081.16 1588.05L2079.66 1586.62L2497.09 1587.41L2611.64 1587.76H2641.63H2651.96H2641.91H2612.21H2498.23L2079.87 1588.54H2078.45V1587.12C2078.45 1323.13 2078.45 979.135 2078.02 604.086V602.234H2079.94H2652.17H2653.88V603.944C2653.52 892.301 2653.24 1138.2 2653.02 1312.16C2653.02 1398.92 2652.67 1467.66 2652.6 1514.82C2652.6 1538.25 2652.6 1556.28 2652.6 1568.6C2652.6 1574.58 2652.6 1579.21 2652.6 1582.35C2652.6 1585.48 2651.46 1588.47 2651.46 1588.47Z" fill="#263238"/>
<path d="M2119.55 660.362C2125.96 660.362 2131.16 655.164 2131.16 648.751C2131.16 642.338 2125.96 637.14 2119.55 637.14C2113.14 637.14 2107.94 642.338 2107.94 648.751C2107.94 655.164 2113.14 660.362 2119.55 660.362Z" fill="#263238"/>
<path d="M2161.51 660.362C2167.92 660.362 2173.12 655.164 2173.12 648.751C2173.12 642.338 2167.92 637.14 2161.51 637.14C2155.1 637.14 2149.9 642.338 2149.9 648.751C2149.9 655.164 2155.1 660.362 2161.51 660.362Z" fill="#263238"/>
<path d="M2215.08 648.75C2215.13 651.058 2214.5 653.33 2213.26 655.277C2212.02 657.223 2210.23 658.756 2208.11 659.678C2205.99 660.601 2203.65 660.872 2201.38 660.457C2199.11 660.041 2197.01 658.959 2195.36 657.347C2193.71 655.735 2192.57 653.667 2192.1 651.407C2191.63 649.147 2191.84 646.798 2192.71 644.66C2193.58 642.522 2195.07 640.691 2196.99 639.402C2198.9 638.113 2201.16 637.425 2203.47 637.424C2206.5 637.423 2209.41 638.607 2211.58 640.723C2213.75 642.84 2215 645.72 2215.08 648.75Z" fill="#263238"/>
<path d="M2494.17 916.805C2494.17 917.874 2421.58 918.658 2332.11 918.658C2242.64 918.658 2170.13 917.874 2170.13 916.805C2170.13 915.737 2242.64 915.238 2332.19 915.238C2421.73 915.238 2494.17 915.808 2494.17 916.805Z" fill="#2563EB"/>
<path d="M2561.7 995.519C2561.7 996.588 2473.44 997.371 2364.53 997.371C2255.61 997.371 2167.35 996.588 2167.35 995.519C2167.35 994.451 2255.61 993.667 2364.53 993.667C2473.44 993.667 2561.7 994.522 2561.7 995.519Z" fill="#2563EB"/>
<path d="M2577.8 1289.22C2577.8 1290.29 2483.63 1291.07 2367.52 1291.07C2251.41 1291.07 2157.3 1290.29 2157.3 1289.22C2157.3 1288.15 2251.41 1287.37 2367.52 1287.37C2483.63 1287.37 2577.8 1288.22 2577.8 1289.22Z" fill="#2563EB"/>
<path d="M2200.47 1035.55C2187.24 1038.02 2173.67 1038.02 2160.44 1035.55C2173.67 1033.08 2187.24 1033.08 2200.47 1035.55Z" fill="#2563EB"/>
<path d="M2338.6 1036.34C2309.66 1038.81 2280.56 1038.81 2251.62 1036.34C2280.56 1033.87 2309.66 1033.87 2338.6 1036.34Z" fill="#2563EB"/>
<path d="M2426.93 1036.34C2402.15 1038.81 2377.19 1038.81 2352.42 1036.34C2377.19 1033.87 2402.15 1033.87 2426.93 1036.34Z" fill="#2563EB"/>
<path d="M2194.99 1086.7C2183.6 1089.17 2171.82 1089.17 2160.44 1086.7C2171.82 1084.23 2183.6 1084.23 2194.99 1086.7Z" fill="#2563EB"/>
<path d="M2196.34 1139.13C2184.59 1141.56 2172.47 1141.56 2160.72 1139.13C2172.47 1136.7 2184.59 1136.7 2196.34 1139.13Z" fill="#2563EB"/>
<path d="M2196.34 1198.54C2184.59 1200.97 2172.47 1200.97 2160.72 1198.54C2172.47 1196.11 2184.59 1196.11 2196.34 1198.54Z" fill="#2563EB"/>
<path d="M2523.59 1195.76C2523.59 1196.76 2463.61 1197.61 2389.67 1197.61C2315.73 1197.61 2255.75 1196.76 2255.75 1195.76C2255.75 1194.76 2315.66 1193.91 2389.67 1193.91C2463.68 1193.91 2523.59 1194.76 2523.59 1195.76Z" fill="#2563EB"/>
<path d="M2500.16 1139.13C2500.16 1140.2 2443.17 1140.98 2372.43 1140.98C2301.7 1140.98 2244.71 1140.2 2244.71 1139.13C2244.71 1138.06 2301.7 1137.28 2372.43 1137.28C2443.17 1137.28 2500.16 1138.13 2500.16 1139.13Z" fill="#2563EB"/>
<path d="M2222.48 1367.65C2210.74 1370.08 2198.62 1370.08 2186.87 1367.65C2198.62 1365.22 2210.74 1365.22 2222.48 1367.65Z" fill="#2563EB"/>
<path d="M2222.48 1426.99C2210.74 1429.42 2198.62 1429.42 2186.87 1426.99C2198.62 1424.56 2210.74 1424.56 2222.48 1426.99Z" fill="#2563EB"/>
<path d="M2549.74 1424.28C2549.74 1425.28 2489.76 1426.13 2415.81 1426.13C2341.87 1426.13 2281.89 1425.28 2281.89 1424.28C2281.89 1423.28 2341.8 1422.43 2415.81 1422.43C2489.83 1422.43 2549.74 1423.21 2549.74 1424.28Z" fill="#2563EB"/>
<path d="M2526.3 1367.65C2526.3 1368.64 2469.31 1369.5 2398.57 1369.5C2327.84 1369.5 2270.85 1368.64 2270.85 1367.65C2270.85 1366.65 2327.84 1365.79 2398.57 1365.79C2469.31 1365.79 2526.3 1366.65 2526.3 1367.65Z" fill="#2563EB"/>
<path d="M2595.11 1083.92C2595.11 1084.92 2517.25 1085.77 2421.3 1085.77C2325.35 1085.77 2247.42 1084.92 2247.42 1083.92C2247.42 1082.92 2325.28 1082.07 2421.3 1082.07C2517.32 1082.07 2595.11 1082.92 2595.11 1083.92Z" fill="#2563EB"/>
<path d="M2646.04 694.412C2646.04 695.48 2520.39 696.264 2365.45 696.264C2210.52 696.264 2084.79 695.48 2084.79 694.412C2084.79 693.343 2210.45 692.56 2365.45 692.56C2520.46 692.56 2646.04 693.129 2646.04 694.412Z" fill="#263238"/>
<path d="M2288.45 869.364C2268.75 871.199 2248.96 871.817 2229.18 871.216C2209.41 871.815 2189.61 871.196 2169.91 869.364C2189.61 867.531 2209.41 866.913 2229.18 867.511C2248.96 866.91 2268.75 867.529 2288.45 869.364Z" fill="#2563EB"/>
<path d="M2221.34 762.013C2202.81 764.483 2184.03 764.483 2165.5 762.013C2184.03 759.544 2202.81 759.544 2221.34 762.013Z" fill="#2563EB"/>
<path d="M1942.12 3479.67H948.759L1076.98 2782.57C1079.17 2770.58 1085.49 2759.74 1094.85 2751.93C1104.21 2744.12 1116.01 2739.84 1128.2 2739.83H2020.76C2028.44 2739.83 2036.01 2741.53 2042.96 2744.79C2049.9 2748.06 2056.03 2752.82 2060.92 2758.74C2065.8 2764.65 2069.32 2771.57 2071.22 2779.01C2073.12 2786.44 2073.36 2794.2 2071.91 2801.74L1942.12 3479.67Z" fill="#455A64"/>
<path d="M948.758 3479.67H572L573.567 3478.53C607.163 3453.31 647.755 3439.12 689.75 3437.93L959.159 3429.81L948.758 3479.67Z" fill="#455A64"/>
<path d="M1187.39 2740.48C1187.39 2740.48 1184.62 2739.98 1179.34 2739.91C1171.66 2740.01 1164.1 2741.88 1157.26 2745.39C1146.44 2750.89 1137.31 2759.21 1130.83 2769.47C1122.63 2783.34 1117.12 2798.64 1114.59 2814.56C1111.32 2832.15 1108.47 2851.74 1104.98 2872.61C1101.49 2893.49 1097.85 2915.85 1093.15 2939.22C1084.53 2986.09 1074.27 3037.45 1063.09 3091.3C1040.65 3198.94 1019.92 3296.32 1006.1 3367.05C998.979 3402.67 993.992 3431.16 990.431 3450.89C988.65 3460.58 987.296 3468.28 986.299 3473.76L985.088 3479.67C984.987 3480.35 984.82 3481.02 984.589 3481.67C984.511 3480.98 984.511 3480.29 984.589 3479.6C984.589 3478.04 985.088 3476.04 985.373 3473.62L988.864 3450.68C991.998 3430.74 996.913 3402.03 1003.11 3366.55C1016 3295.68 1036.38 3198.16 1058.82 3090.52C1070 3036.74 1080.19 2985.38 1089.16 2938.58C1093.65 2915.21 1097.57 2892.92 1101.27 2872.12C1104.98 2851.32 1107.9 2831.8 1111.39 2813.99C1114.09 2797.82 1119.87 2782.32 1128.41 2768.33C1135.24 2757.91 1144.77 2749.54 1155.98 2744.11C1163.04 2740.65 1170.84 2738.96 1178.7 2739.19C1181.65 2739.2 1184.57 2739.63 1187.39 2740.48Z" fill="#263238"/>
<path d="M3438.6 3479.67C3438.6 3480.74 2713.57 3481.53 1819.37 3481.53C925.165 3481.53 200 3480.39 200 3479.67C200 3478.96 924.88 3477.82 1819.37 3477.82C2713.86 3477.82 3438.6 3478.32 3438.6 3479.67Z" fill="#263238"/>
<path d="M2867.1 2953.83H2741.51V3103.14H2867.1V2953.83Z" fill="#F5F5F5"/>
<path d="M2745.79 2944.07H2178.19V3112.54H2745.79V2944.07Z" fill="#2563EB"/>
<path d="M2870.95 2958.25H2730.62V2944H2870.95C2872.84 2944 2874.65 2944.75 2875.98 2946.09C2877.32 2947.42 2878.07 2949.23 2878.07 2951.12C2878.07 2953.01 2877.32 2954.82 2875.98 2956.16C2874.65 2957.5 2872.84 2958.25 2870.95 2958.25Z" fill="#2563EB"/>
<path d="M2870.95 3112.54H2730.62V3098.29H2870.95C2872.84 3098.29 2874.65 3099.04 2875.98 3100.38C2877.32 3101.72 2878.07 3103.53 2878.07 3105.42C2878.07 3107.31 2877.32 3109.12 2875.98 3110.45C2874.65 3111.79 2872.84 3112.54 2870.95 3112.54Z" fill="#2563EB"/>
<g opacity="0.4">
<path d="M2701.2 2944.07H2634.16V3112.54H2701.2V2944.07Z" fill="black"/>
</g>
<g opacity="0.4">
<path d="M2295.59 2944.07H2228.55V3112.54H2295.59V2944.07Z" fill="black"/>
</g>
<path d="M2867.1 2978.55C2867.1 2978.91 2839.89 2979.26 2806.41 2979.26C2772.93 2979.26 2745.64 2978.91 2745.64 2978.55C2745.64 2978.19 2772.86 2977.77 2806.41 2977.77C2839.96 2977.77 2867.1 2978.05 2867.1 2978.55Z" fill="#E0E0E0"/>
<path d="M2867.1 3000.92C2867.1 3001.34 2839.89 3001.63 2806.41 3001.63C2772.93 3001.63 2745.64 3001.63 2745.64 3000.92C2745.64 3000.2 2772.86 3000.13 2806.41 3000.13C2839.96 3000.13 2867.1 3000.49 2867.1 3000.92Z" fill="#E0E0E0"/>
<path d="M2867.1 3028.48C2867.1 3028.91 2839.89 3029.2 2806.41 3029.2C2772.93 3029.2 2745.64 3029.2 2745.64 3028.48C2745.64 3027.77 2772.86 3027.77 2806.41 3027.77C2839.96 3027.77 2867.1 3027.91 2867.1 3028.48Z" fill="#E0E0E0"/>
<path d="M2867.1 3056.41C2867.1 3056.83 2839.89 3057.19 2806.41 3057.19C2772.93 3057.19 2745.64 3056.83 2745.64 3056.41C2745.64 3055.98 2772.86 3055.7 2806.41 3055.7C2839.96 3055.7 2867.1 3055.62 2867.1 3056.41Z" fill="#E0E0E0"/>
<path d="M2867.1 3083.62C2867.1 3084.05 2839.89 3084.4 2806.41 3084.4C2772.93 3084.4 2745.64 3084.05 2745.64 3083.62C2745.64 3083.19 2772.86 3082.91 2806.41 3082.91C2839.96 3082.91 2867.1 3083.19 2867.1 3083.62Z" fill="#E0E0E0"/>
<g opacity="0.2">
<path d="M2598.12 3013.31H2342.74V3043.66H2598.12V3013.31Z" fill="black"/>
</g>
<path d="M2865.82 3115.82H2738.31V3206.78H2865.82V3115.82Z" fill="#FAFAFA"/>
<path d="M2739.73 3112.54H2197V3210.13H2739.73V3112.54Z" fill="#455A64"/>
<path d="M2735.81 3119.17H2872.87C2873.74 3119.15 2874.58 3118.79 2875.19 3118.16C2875.8 3117.53 2876.15 3116.69 2876.15 3115.82C2876.13 3114.95 2875.78 3114.13 2875.17 3113.52C2874.56 3112.91 2873.73 3112.56 2872.87 3112.54H2735.81V3119.17Z" fill="#455A64"/>
<path d="M2735.81 3203.51H2873.15C2873.55 3203.51 2873.94 3203.58 2874.3 3203.73C2874.66 3203.88 2874.99 3204.1 2875.27 3204.38C2875.55 3204.66 2875.77 3204.99 2875.92 3205.35C2876.07 3205.72 2876.15 3206.1 2876.15 3206.5V3207.14C2876.15 3207.53 2876.07 3207.92 2875.92 3208.28C2875.77 3208.65 2875.55 3208.98 2875.27 3209.25C2874.99 3209.53 2874.66 3209.75 2874.3 3209.9C2873.94 3210.05 2873.55 3210.13 2873.15 3210.13H2735.81V3203.51Z" fill="#455A64"/>
<path d="M2865.82 3133.13C2865.82 3133.55 2837.32 3133.84 2802.77 3133.84C2768.23 3133.84 2739.73 3133.84 2739.73 3133.13C2739.73 3132.41 2768.23 3132.34 2802.77 3132.34C2837.32 3132.34 2865.82 3132.7 2865.82 3133.13Z" fill="#E0E0E0"/>
<path d="M2865.82 3150.37C2865.82 3150.72 2837.32 3151.08 2802.77 3151.08C2768.23 3151.08 2739.73 3150.72 2739.73 3150.37C2739.73 3150.01 2768.23 3149.58 2802.77 3149.58C2837.32 3149.58 2865.82 3149.94 2865.82 3150.37Z" fill="#E0E0E0"/>
<path d="M2865.82 3167.53C2865.82 3167.96 2837.32 3168.32 2802.77 3168.32C2768.23 3168.32 2739.73 3168.32 2739.73 3167.53C2739.73 3166.75 2768.23 3166.82 2802.77 3166.82C2837.32 3166.82 2865.82 3167.11 2865.82 3167.53Z" fill="#E0E0E0"/>
<path d="M2865.82 3184.63C2865.82 3185.06 2837.32 3185.34 2802.77 3185.34C2768.23 3185.34 2739.73 3185.34 2739.73 3184.63C2739.73 3183.92 2768.23 3183.85 2802.77 3183.85C2837.32 3183.85 2865.82 3184.63 2865.82 3184.63Z" fill="#E0E0E0"/>
<path d="M2885.12 3218.82H2754.98V3465.44H2885.12V3218.82Z" fill="#EBEBEB"/>
<path d="M2754.98 3210.13H2144V3477.54H2754.98V3210.13Z" fill="#2563EB"/>
<path d="M2895.38 3477.54H2738.31V3460.23H2895.38C2897.67 3460.23 2899.86 3461.14 2901.48 3462.76C2903.09 3464.38 2904 3466.57 2904 3468.85C2904 3471.15 2903.09 3473.35 2901.48 3474.97C2899.87 3476.6 2897.67 3477.53 2895.38 3477.54Z" fill="#2563EB"/>
<path d="M2738.31 3210.13H2896.16C2898.24 3210.13 2900.24 3210.96 2901.7 3212.43C2903.17 3213.9 2904 3215.89 2904 3217.97V3219.61C2904 3221.68 2903.17 3223.68 2901.7 3225.15C2900.24 3226.62 2898.24 3227.44 2896.16 3227.44H2738.31V3210.13Z" fill="#2563EB"/>
<path d="M2885.19 3251.88C2885.19 3252.3 2856.06 3252.59 2820.08 3252.59C2784.11 3252.59 2754.98 3252.59 2754.98 3251.88C2754.98 3251.16 2784.11 3251.09 2820.08 3251.09C2856.06 3251.09 2885.19 3251.45 2885.19 3251.88Z" fill="#E0E0E0"/>
<path d="M2885.19 3283.5C2885.19 3283.93 2856.06 3284.21 2820.08 3284.21C2784.11 3284.21 2754.98 3284.21 2754.98 3283.5C2754.98 3282.79 2784.11 3282.72 2820.08 3282.72C2856.06 3282.72 2885.19 3283.08 2885.19 3283.5Z" fill="#E0E0E0"/>
<path d="M2885.19 3315.13C2885.19 3315.56 2856.06 3315.84 2820.08 3315.84C2784.11 3315.84 2754.98 3315.84 2754.98 3315.13C2754.98 3314.42 2784.11 3314.35 2820.08 3314.35C2856.06 3314.35 2885.19 3314.7 2885.19 3315.13Z" fill="#E0E0E0"/>
<path d="M2885.19 3346.76C2885.19 3347.19 2856.06 3347.47 2820.08 3347.47C2784.11 3347.47 2754.98 3347.47 2754.98 3346.76C2754.98 3346.05 2784.11 3345.97 2820.08 3345.97C2856.06 3345.97 2885.19 3346.33 2885.19 3346.76Z" fill="#E0E0E0"/>
<path d="M2885.19 3378.39C2885.19 3378.81 2856.06 3379.1 2820.08 3379.1C2784.11 3379.1 2754.98 3379.1 2754.98 3378.39C2754.98 3377.67 2784.11 3377.67 2820.08 3377.67C2856.06 3377.67 2885.19 3377.96 2885.19 3378.39Z" fill="#E0E0E0"/>
<path d="M2885.19 3410.02C2885.19 3410.44 2856.06 3410.8 2820.08 3410.8C2784.11 3410.8 2754.98 3410.44 2754.98 3410.02C2754.98 3409.59 2784.11 3409.3 2820.08 3409.3C2856.06 3409.3 2885.19 3409.59 2885.19 3410.02Z" fill="#E0E0E0"/>
<path d="M2885.19 3441.64C2885.19 3442.07 2856.06 3442.43 2820.08 3442.43C2784.11 3442.43 2754.98 3442.07 2754.98 3441.64C2754.98 3441.22 2784.11 3440.93 2820.08 3440.93C2856.06 3440.93 2885.19 3441.07 2885.19 3441.64Z" fill="#E0E0E0"/>
<path d="M2353.07 3358.44V3373.33C2353.07 3391.28 2344.1 3401.82 2326.86 3401.82C2309.62 3401.82 2300.57 3391.56 2300.57 3373.33V3315.13C2300.57 3297.18 2309.55 3286.64 2326.86 3286.64C2344.17 3286.64 2353.07 3296.89 2353.07 3315.13V3325.96H2336.4V3313.99C2336.4 3306.01 2332.91 3302.95 2327.29 3302.95C2321.66 3302.95 2318.17 3306.01 2318.17 3313.99V3374.47C2318.17 3382.45 2321.73 3385.37 2327.29 3385.37C2332.84 3385.37 2336.4 3382.45 2336.4 3374.47V3358.44H2353.07Z" fill="#EBEBEB"/>
<path d="M2362.33 3315.13C2362.33 3297.18 2371.81 3286.64 2389.05 3286.64C2406.29 3286.64 2415.76 3296.89 2415.76 3315.13V3373.33C2415.76 3391.28 2406.36 3401.82 2389.05 3401.82C2371.74 3401.82 2362.33 3391.56 2362.33 3373.33V3315.13ZM2379.93 3374.47C2379.93 3382.45 2383.49 3385.51 2389.05 3385.51C2394.6 3385.51 2398.16 3382.45 2398.16 3374.47V3313.99C2398.16 3306.01 2394.67 3302.95 2389.05 3302.95C2383.42 3302.95 2379.93 3306.01 2379.93 3313.99V3374.47Z" fill="#EBEBEB"/>
<path d="M2427.16 3288.21H2445.04V3384.09H2473.53V3400.11H2427.01L2427.16 3288.21Z" fill="#EBEBEB"/>
<path d="M2479.94 3315.13C2479.94 3297.18 2489.34 3286.64 2506.65 3286.64C2523.96 3286.64 2533.37 3296.89 2533.37 3315.13V3373.33C2533.37 3391.28 2523.89 3401.82 2506.65 3401.82C2489.42 3401.82 2479.94 3391.56 2479.94 3373.33V3315.13ZM2497.54 3374.47C2497.54 3382.45 2501.03 3385.51 2506.65 3385.51C2512.28 3385.51 2515.77 3382.45 2515.77 3374.47V3313.99C2515.77 3306.01 2512.21 3302.95 2506.65 3302.95C2501.1 3302.95 2497.54 3306.01 2497.54 3313.99V3374.47Z" fill="#EBEBEB"/>
<path d="M2561.51 3288.21V3374.61C2561.51 3382.66 2565 3385.51 2570.62 3385.51C2576.25 3385.51 2579.74 3382.66 2579.74 3374.61V3288.21H2596.41V3373.69C2596.41 3391.64 2587.43 3402.18 2570.12 3402.18C2552.81 3402.18 2543.91 3391.92 2543.91 3373.69V3288.21H2561.51Z" fill="#EBEBEB"/>
<path d="M2645.13 3400.26C2643.71 3395.8 2643.18 3391.1 2643.57 3386.44V3368.84C2643.57 3358.44 2640.08 3354.6 2632.03 3354.6H2625.97V3400.26H2608.38V3288.21H2634.95C2653.18 3288.21 2661.02 3296.68 2661.02 3313.99V3322.75C2661.02 3334.29 2657.31 3341.84 2649.48 3345.48C2658.31 3349.18 2661.16 3357.66 2661.16 3369.34V3386.65C2660.84 3391.27 2661.49 3395.91 2663.08 3400.26H2645.13ZM2625.97 3304.23V3338.64H2633.1C2639.65 3338.64 2643.64 3335.72 2643.64 3326.81V3315.77C2643.64 3307.72 2640.93 3304.23 2634.66 3304.23H2625.97Z" fill="#EBEBEB"/>
<path d="M2349.3 3150.93H2336.4L2337.12 3147.66H2366.68L2365.97 3150.93H2353.22L2346.59 3183.99H2342.82L2349.3 3150.93Z" fill="#263238"/>
<path d="M2391.25 3156.71L2371.31 3187.55C2367.96 3192.75 2365.4 3194.32 2361.48 3194.32C2360.29 3194.37 2359.1 3194.19 2357.99 3193.77C2356.87 3193.36 2355.86 3192.72 2355 3191.89L2356.92 3189.19C2357.54 3189.85 2358.29 3190.36 2359.13 3190.71C2359.96 3191.05 2360.86 3191.21 2361.76 3191.18C2364.11 3191.18 2365.97 3190.11 2368.03 3186.77L2369.96 3183.85L2362.83 3156.71H2366.68L2372.38 3179.93L2387.27 3156.71H2391.25Z" fill="#263238"/>
<path d="M2421.67 3168.03C2421.79 3170.13 2421.47 3172.23 2420.75 3174.2C2420.02 3176.17 2418.9 3177.97 2417.45 3179.49C2416.01 3181.02 2414.26 3182.23 2412.33 3183.05C2410.39 3183.87 2408.31 3184.29 2406.21 3184.27C2404.07 3184.49 2401.91 3184.03 2400.05 3182.96C2398.18 3181.89 2396.7 3180.25 2395.81 3178.29L2392.68 3194.1H2388.97L2396.1 3156.71H2399.66L2398.8 3161.05C2400.13 3159.56 2401.77 3158.38 2403.61 3157.6C2405.44 3156.81 2407.42 3156.43 2409.42 3156.49C2411.01 3156.31 2412.62 3156.48 2414.14 3156.99C2415.66 3157.5 2417.05 3158.33 2418.21 3159.43C2419.38 3160.53 2420.29 3161.86 2420.89 3163.35C2421.49 3164.84 2421.75 3166.43 2421.67 3168.03ZM2417.9 3168.03C2417.99 3166.85 2417.82 3165.66 2417.4 3164.55C2416.97 3163.44 2416.31 3162.44 2415.45 3161.62C2414.59 3160.8 2413.55 3160.18 2412.42 3159.81C2411.3 3159.44 2410.1 3159.33 2408.92 3159.48C2407.29 3159.5 2405.68 3159.85 2404.19 3160.51C2402.7 3161.18 2401.36 3162.14 2400.26 3163.34C2399.15 3164.54 2398.31 3165.96 2397.78 3167.5C2397.25 3169.04 2397.04 3170.68 2397.17 3172.31C2397.08 3173.48 2397.26 3174.67 2397.69 3175.77C2398.12 3176.87 2398.79 3177.86 2399.65 3178.67C2400.51 3179.48 2401.53 3180.09 2402.66 3180.46C2403.78 3180.82 2404.97 3180.93 2406.14 3180.78C2407.75 3180.77 2409.33 3180.42 2410.8 3179.78C2412.27 3179.13 2413.6 3178.2 2414.7 3177.02C2415.79 3175.85 2416.64 3174.47 2417.19 3172.96C2417.74 3171.45 2417.98 3169.85 2417.9 3168.25V3168.03Z" fill="#263238"/>
<path d="M2425.95 3172.66C2425.86 3170.55 2426.2 3168.43 2426.96 3166.46C2427.72 3164.48 2428.88 3162.68 2430.36 3161.16C2431.84 3159.65 2433.62 3158.45 2435.58 3157.65C2437.54 3156.84 2439.64 3156.45 2441.76 3156.49C2443.36 3156.32 2444.97 3156.49 2446.5 3156.99C2448.02 3157.5 2449.42 3158.33 2450.6 3159.42C2451.78 3160.52 2452.7 3161.86 2453.31 3163.34C2453.93 3164.83 2454.21 3166.43 2454.15 3168.03C2454.26 3170.15 2453.93 3172.27 2453.19 3174.26C2452.44 3176.24 2451.29 3178.05 2449.82 3179.58C2448.34 3181.1 2446.56 3182.3 2444.6 3183.11C2442.64 3183.92 2440.53 3184.32 2438.41 3184.27C2436.8 3184.45 2435.18 3184.28 2433.64 3183.77C2432.11 3183.26 2430.7 3182.42 2429.52 3181.32C2428.34 3180.22 2427.41 3178.88 2426.79 3177.38C2426.17 3175.89 2425.88 3174.28 2425.95 3172.66ZM2450.52 3168.25C2450.6 3167.06 2450.42 3165.87 2449.99 3164.76C2449.56 3163.65 2448.88 3162.65 2448.02 3161.83C2447.15 3161.01 2446.12 3160.4 2444.99 3160.03C2443.85 3159.66 2442.65 3159.55 2441.47 3159.7C2439.84 3159.72 2438.23 3160.08 2436.75 3160.75C2435.26 3161.41 2433.92 3162.37 2432.81 3163.57C2431.71 3164.77 2430.86 3166.18 2430.31 3167.72C2429.77 3169.26 2429.54 3170.89 2429.65 3172.52C2429.57 3173.7 2429.74 3174.88 2430.17 3175.98C2430.6 3177.08 2431.27 3178.07 2432.13 3178.88C2432.99 3179.7 2434.02 3180.31 2435.14 3180.67C2436.26 3181.04 2437.45 3181.15 2438.62 3181C2440.26 3180.99 2441.87 3180.65 2443.37 3180C2444.87 3179.34 2446.22 3178.39 2447.33 3177.19C2448.44 3176 2449.3 3174.59 2449.85 3173.05C2450.4 3171.51 2450.63 3169.88 2450.52 3168.25Z" fill="#263238"/>
<path d="M2489.56 3156.71L2484.79 3180.71C2484.71 3182.68 2484.23 3184.61 2483.37 3186.39C2482.51 3188.16 2481.29 3189.74 2479.79 3191.02C2478.29 3192.29 2476.54 3193.25 2474.66 3193.82C2472.77 3194.39 2470.78 3194.56 2468.83 3194.32C2464.42 3194.56 2460.09 3193.11 2456.72 3190.26L2458.86 3187.41C2460.24 3188.67 2461.86 3189.65 2463.62 3190.28C2465.38 3190.92 2467.24 3191.2 2469.11 3191.11C2470.54 3191.27 2471.98 3191.14 2473.36 3190.72C2474.73 3190.31 2476.01 3189.63 2477.11 3188.71C2478.22 3187.79 2479.12 3186.66 2479.78 3185.38C2480.44 3184.11 2480.83 3182.71 2480.94 3181.28L2481.58 3178.29C2480.21 3179.81 2478.52 3181.02 2476.64 3181.83C2474.76 3182.64 2472.73 3183.04 2470.68 3182.99C2469.14 3183.17 2467.58 3183.01 2466.11 3182.53C2464.64 3182.05 2463.29 3181.26 2462.15 3180.21C2461.01 3179.17 2460.1 3177.89 2459.5 3176.46C2458.89 3175.04 2458.6 3173.5 2458.64 3171.95C2458.59 3169.89 2458.96 3167.85 2459.73 3165.94C2460.5 3164.04 2461.65 3162.31 2463.11 3160.86C2464.57 3159.41 2466.31 3158.28 2468.23 3157.53C2470.14 3156.78 2472.19 3156.42 2474.24 3156.49C2476.44 3156.27 2478.65 3156.76 2480.55 3157.87C2482.46 3158.98 2483.97 3160.67 2484.86 3162.69L2486 3156.71H2489.56ZM2483.29 3167.68C2483.29 3162.69 2479.94 3159.7 2474.24 3159.7C2472.66 3159.66 2471.08 3159.94 2469.61 3160.54C2468.14 3161.13 2466.8 3162.02 2465.69 3163.14C2464.58 3164.27 2463.7 3165.62 2463.13 3167.09C2462.55 3168.57 2462.29 3170.15 2462.35 3171.74C2462.35 3176.72 2465.69 3179.71 2471.39 3179.71C2472.98 3179.75 2474.55 3179.47 2476.03 3178.88C2477.5 3178.28 2478.83 3177.4 2479.95 3176.27C2481.06 3175.14 2481.93 3173.8 2482.51 3172.32C2483.08 3170.84 2483.35 3169.26 2483.29 3167.68Z" fill="#263238"/>
<path d="M2513.64 3156.49L2512.92 3160.05H2511.93C2509.12 3159.98 2506.4 3161 2504.33 3162.9C2502.27 3164.8 2501.03 3167.44 2500.88 3170.24L2498.11 3184.06H2494.4L2499.82 3156.78H2503.38L2502.38 3161.76C2503.62 3159.97 2505.32 3158.53 2507.29 3157.6C2509.27 3156.68 2511.46 3156.29 2513.64 3156.49Z" fill="#263238"/>
<path d="M2544.76 3156.71L2539.28 3183.99H2535.72L2536.64 3179.71C2535.28 3181.18 2533.63 3182.35 2531.79 3183.13C2529.95 3183.92 2527.96 3184.31 2525.96 3184.27C2524.39 3184.4 2522.81 3184.18 2521.33 3183.65C2519.85 3183.11 2518.5 3182.27 2517.38 3181.17C2516.25 3180.07 2515.37 3178.74 2514.8 3177.27C2514.23 3175.81 2513.98 3174.23 2514.06 3172.66C2513.96 3170.57 2514.28 3168.48 2515.01 3166.52C2515.74 3164.55 2516.86 3162.76 2518.31 3161.25C2519.75 3159.73 2521.5 3158.53 2523.42 3157.71C2525.35 3156.89 2527.43 3156.48 2529.52 3156.49C2531.65 3156.28 2533.8 3156.73 2535.66 3157.79C2537.53 3158.85 2539.02 3160.46 2539.92 3162.4L2541.06 3156.71H2544.76ZM2538.64 3168.25C2538.72 3167.06 2538.54 3165.87 2538.11 3164.76C2537.68 3163.65 2537 3162.65 2536.14 3161.83C2535.27 3161.01 2534.24 3160.4 2533.1 3160.03C2531.97 3159.66 2530.77 3159.55 2529.59 3159.7C2527.96 3159.72 2526.35 3160.08 2524.86 3160.75C2523.37 3161.41 2522.04 3162.37 2520.93 3163.57C2519.82 3164.77 2518.97 3166.18 2518.43 3167.72C2517.89 3169.26 2517.66 3170.89 2517.77 3172.52C2517.68 3173.7 2517.86 3174.88 2518.29 3175.98C2518.72 3177.08 2519.39 3178.07 2520.25 3178.88C2521.11 3179.69 2522.13 3180.3 2523.26 3180.67C2524.38 3181.04 2525.57 3181.15 2526.74 3181C2528.39 3181.02 2530.03 3180.7 2531.56 3180.06C2533.08 3179.42 2534.45 3178.47 2535.59 3177.27C2536.73 3176.07 2537.6 3174.65 2538.16 3173.1C2538.73 3171.55 2538.96 3169.89 2538.85 3168.25H2538.64Z" fill="#263238"/>
<path d="M2580.38 3168.03C2580.5 3170.14 2580.18 3172.24 2579.45 3174.22C2578.72 3176.19 2577.6 3178 2576.14 3179.52C2574.68 3181.04 2572.93 3182.25 2570.99 3183.07C2569.05 3183.89 2566.96 3184.3 2564.85 3184.27C2562.71 3184.49 2560.55 3184.03 2558.69 3182.96C2556.82 3181.89 2555.34 3180.25 2554.45 3178.29L2551.39 3194.1H2547.69L2554.81 3156.71H2558.37L2557.44 3161.05C2558.81 3159.58 2560.46 3158.42 2562.3 3157.63C2564.14 3156.85 2566.13 3156.46 2568.13 3156.49C2569.72 3156.31 2571.33 3156.48 2572.85 3156.99C2574.37 3157.5 2575.76 3158.33 2576.93 3159.43C2578.09 3160.53 2579 3161.86 2579.6 3163.35C2580.2 3164.84 2580.46 3166.43 2580.38 3168.03ZM2576.61 3168.03C2576.7 3166.85 2576.53 3165.66 2576.11 3164.55C2575.68 3163.44 2575.02 3162.44 2574.16 3161.62C2573.3 3160.8 2572.26 3160.18 2571.13 3159.81C2570.01 3159.44 2568.81 3159.33 2567.63 3159.48C2565.99 3159.49 2564.38 3159.83 2562.88 3160.49C2561.38 3161.15 2560.03 3162.11 2558.92 3163.32C2557.81 3164.52 2556.96 3165.94 2556.43 3167.49C2555.89 3169.03 2555.68 3170.67 2555.81 3172.31C2555.72 3173.48 2555.9 3174.67 2556.33 3175.77C2556.76 3176.87 2557.43 3177.86 2558.29 3178.67C2559.15 3179.48 2560.17 3180.09 2561.3 3180.46C2562.42 3180.82 2563.61 3180.93 2564.78 3180.78C2566.4 3180.79 2568 3180.46 2569.49 3179.82C2570.97 3179.18 2572.32 3178.25 2573.43 3177.08C2574.54 3175.9 2575.4 3174.51 2575.96 3173C2576.52 3171.48 2576.77 3169.86 2576.68 3168.25L2576.61 3168.03Z" fill="#263238"/>
<path d="M2613.51 3165.4C2613.57 3166.42 2613.57 3167.44 2613.51 3168.46L2610.37 3183.99H2606.67L2609.8 3168.39C2609.87 3167.58 2609.87 3166.77 2609.8 3165.97C2609.8 3162.05 2607.52 3159.77 2602.68 3159.77C2599.95 3159.65 2597.27 3160.58 2595.21 3162.36C2593.14 3164.15 2591.84 3166.67 2591.57 3169.39L2588.65 3183.99H2584.94L2592.63 3145.45H2596.34L2593.28 3160.77C2594.61 3159.34 2596.24 3158.22 2598.04 3157.48C2599.85 3156.75 2601.8 3156.41 2603.75 3156.49C2605 3156.31 2606.27 3156.41 2607.48 3156.78C2608.69 3157.15 2609.8 3157.79 2610.73 3158.64C2611.66 3159.49 2612.4 3160.54 2612.88 3161.71C2613.36 3162.87 2613.57 3164.14 2613.51 3165.4Z" fill="#263238"/>
<path d="M2648.05 3156.71L2628.11 3187.55C2624.69 3192.75 2622.12 3194.32 2618.21 3194.32C2617.02 3194.37 2615.83 3194.19 2614.72 3193.77C2613.6 3193.36 2612.58 3192.72 2611.72 3191.89L2613.72 3189.19C2614.32 3189.85 2615.06 3190.38 2615.88 3190.72C2616.71 3191.07 2617.6 3191.22 2618.49 3191.18C2620.84 3191.18 2622.69 3190.11 2624.83 3186.77L2626.76 3183.85L2619.63 3156.71H2623.41L2629.03 3179.93L2643.92 3156.71H2648.05Z" fill="#263238"/>
<g opacity="0.3">
<path d="M2295.66 3210.13L2211.53 3477.54H2144V3210.13H2295.66Z" fill="black"/>
</g>
<path d="M1370.23 829.294L1330.73 1122.62L1697.62 1172.04L1737.12 878.705L1370.23 829.294Z" fill="#EBEBEB"/>
<path d="M1737.17 878.708H1735.38L1730.26 878.067L1710.24 875.503L1635.09 865.672L1370.31 830.269L1371.45 829.414C1359.69 916.748 1346.23 1016.83 1332.06 1122.76L1331.13 1121.55L1697.99 1171.41L1696.99 1172.19C1709.1 1083.93 1719.07 1010.71 1726.12 959.488C1729.61 933.915 1732.46 913.827 1734.32 900.079C1735.31 892.955 1736.03 888.04 1736.52 884.407L1737.38 878.993C1737.38 878.993 1737.38 880.774 1736.74 884.265C1736.1 887.755 1735.67 893.026 1734.81 899.794C1732.96 913.471 1730.4 933.559 1727.05 959.061C1719.93 1010.42 1710.52 1083.86 1698.56 1172.76V1173.62H1697.7L1330.63 1123.68H1329.56V1122.61C1343.81 1016.69 1357.34 916.605 1369.17 829.272V828.346H1370.09L1635.59 864.604L1710.45 874.933L1730.18 877.711L1735.24 878.423L1737.17 878.708Z" fill="#263238"/>
<path d="M1380.49 849.458L1345.96 1105.87L1687.08 1151.81L1721.61 895.398L1380.49 849.458Z" fill="#2563EB"/>
<path d="M1345.88 1105.87L1486.49 962.551L1546.9 1072.18L1604.1 1025.59L1687.02 1151.82L1345.88 1105.87Z" fill="#2563EB"/>
<path d="M1594.27 957.137C1593.56 962.444 1591.29 967.422 1587.75 971.44C1584.21 975.458 1579.56 978.336 1574.39 979.71C1569.21 981.084 1563.75 980.893 1558.68 979.16C1553.61 977.427 1549.17 974.23 1545.92 969.974C1542.68 965.718 1540.76 960.594 1540.42 955.25C1540.09 949.906 1541.34 944.582 1544.03 939.952C1546.72 935.322 1550.72 931.593 1555.53 929.238C1560.34 926.883 1565.74 926.006 1571.05 926.72C1578.15 927.694 1584.58 931.44 1588.93 937.139C1593.28 942.838 1595.2 950.028 1594.27 957.137Z" fill="#2563EB"/>
<g opacity="0.2">
<path d="M1345.88 1105.87L1486.49 962.551L1546.9 1072.18L1604.1 1025.59L1687.02 1151.82L1345.88 1105.87Z" fill="black"/>
</g>
<g opacity="0.2">
<path d="M1594.27 957.137C1593.56 962.444 1591.29 967.422 1587.75 971.44C1584.21 975.458 1579.56 978.336 1574.39 979.71C1569.21 981.084 1563.75 980.893 1558.68 979.16C1553.61 977.427 1549.17 974.23 1545.92 969.974C1542.68 965.718 1540.76 960.594 1540.42 955.25C1540.09 949.906 1541.34 944.582 1544.03 939.952C1546.72 935.322 1550.72 931.593 1555.53 929.238C1560.34 926.883 1565.74 926.006 1571.05 926.72C1578.15 927.694 1584.58 931.44 1588.93 937.139C1593.28 942.838 1595.2 950.028 1594.27 957.137Z" fill="black"/>
</g>
<path d="M1628.49 580.519L1562.46 1022.9L2115.73 1105.49L2181.77 663.107L1628.49 580.519Z" fill="#EBEBEB"/>
<path d="M2181.95 663.296L2179.25 662.94L2171.48 661.871L2141.42 657.526L2028.09 640.999L1628.46 582.302L1630.1 581.02C1610.51 712.732 1588 863.678 1564.21 1023.39L1562.86 1021.6L2116.06 1104.45L2114.57 1105.59C2134.72 972.453 2151.46 862.111 2163.15 785.035C2169.06 746.426 2173.76 716.152 2176.9 695.422C2178.53 685.165 2179.74 677.258 2180.6 671.773C2181.45 666.288 2181.95 663.652 2181.95 663.652C2181.95 663.652 2181.95 666.288 2180.96 671.559C2179.96 676.83 2179.03 684.809 2177.61 694.995C2174.54 715.653 2170.48 745.856 2164.57 784.394L2117.2 1106.16V1107.51H2115.85L1562.64 1024.6H1561.07V1023.03C1585.01 863.322 1607.59 712.447 1627.32 580.735V579.311H1628.75L2029.08 639.86L2141.99 657.098L2171.69 661.729L2179.32 662.94L2181.95 663.296Z" fill="#263238"/>
<path d="M1643.43 611.235L1585.72 997.885L2100.17 1074.68L2157.89 688.029L1643.43 611.235Z" fill="#2563EB"/>
<path d="M1585.86 997.955L1801.42 784.466L1890.25 951.439L1977.72 882.342L2100.25 1074.82L1585.86 997.955Z" fill="#2563EB"/>
<path d="M1964.33 778.695C1963.09 786.69 1959.51 794.138 1954.03 800.099C1948.56 806.06 1941.45 810.267 1933.59 812.189C1925.73 814.112 1917.48 813.663 1909.87 810.9C1902.27 808.136 1895.65 803.183 1890.86 796.663C1886.06 790.144 1883.31 782.352 1882.94 774.269C1882.57 766.186 1884.61 758.175 1888.79 751.246C1892.96 744.318 1899.1 738.782 1906.42 735.338C1913.75 731.894 1921.92 730.696 1929.93 731.894C1935.26 732.694 1940.39 734.541 1945.01 737.329C1949.64 740.117 1953.66 743.792 1956.86 748.141C1960.06 752.49 1962.36 757.429 1963.65 762.672C1964.93 767.916 1965.16 773.361 1964.33 778.695Z" fill="#2563EB"/>
<g opacity="0.2">
<path d="M1585.86 997.955L1801.42 784.466L1890.25 951.439L1977.72 882.342L2100.25 1074.82L1585.86 997.955Z" fill="black"/>
</g>
<g opacity="0.2">
<path d="M1964.33 778.695C1963.09 786.69 1959.51 794.138 1954.03 800.099C1948.56 806.06 1941.45 810.267 1933.59 812.189C1925.73 814.112 1917.48 813.663 1909.87 810.9C1902.27 808.136 1895.65 803.183 1890.86 796.663C1886.06 790.144 1883.31 782.352 1882.94 774.269C1882.57 766.186 1884.61 758.175 1888.79 751.246C1892.96 744.318 1899.1 738.782 1906.42 735.338C1913.75 731.894 1921.92 730.696 1929.93 731.894C1935.26 732.694 1940.39 734.541 1945.01 737.329C1949.64 740.117 1953.66 743.792 1956.86 748.141C1960.06 752.49 1962.36 757.429 1963.65 762.672C1964.93 767.916 1965.16 773.361 1964.33 778.695Z" fill="black"/>
</g>
<path d="M1157.31 2060.22L1248.36 1909.57C1251.28 1904.77 1252.2 1899.02 1250.92 1893.56C1249.63 1888.09 1246.25 1883.35 1241.49 1880.36L665.717 1532.35C660.836 1529.58 655.062 1528.84 649.643 1530.29C644.223 1531.74 639.591 1535.27 636.749 1540.11L545.625 1690.48C542.703 1695.28 541.786 1701.03 543.071 1706.5C544.356 1711.96 547.74 1716.7 552.492 1719.69L1128.27 2067.71C1133.12 2070.52 1138.89 2071.31 1144.32 2069.91C1149.76 2068.51 1154.42 2065.03 1157.31 2060.22Z" fill="#F5F5F5"/>
<path d="M1157.31 2060.22C1156.6 2061.63 1155.67 2062.92 1154.58 2064.05C1151.41 2067.56 1147.16 2069.91 1142.51 2070.75C1139.07 2071.38 1135.53 2071.14 1132.21 2070.04C1128.39 2068.41 1124.72 2066.43 1121.26 2064.13L1094.91 2048.33L926.704 1947.38L677.464 1797.2L605.49 1753.72L568.291 1731.32C562.004 1727.39 555.847 1723.96 549.381 1719.64C546.225 1717.1 543.792 1713.78 542.328 1710C540.863 1706.23 540.417 1702.13 541.036 1698.13C541.74 1694.22 543.255 1690.5 545.483 1687.2L551.318 1677.6L563.018 1658.24L586.653 1619.02L635.105 1538.93C637.32 1535.24 640.507 1532.23 644.316 1530.24C648.126 1528.24 652.411 1527.33 656.704 1527.61C660.924 1527.96 664.978 1529.42 668.455 1531.83L678.75 1537.78L718.535 1561.85L795.973 1608.66L942.915 1697.97C1036.54 1754.82 1120.88 1805.89 1191.75 1848.85L1242.24 1879.57C1246.3 1882.16 1249.4 1886 1251.09 1890.51C1252.78 1895.02 1252.95 1899.95 1251.6 1904.57C1250.03 1908.7 1247.96 1912.63 1245.43 1916.25L1238.94 1926.99L1194.97 1999.02L1167.12 2044.54C1163.91 2049.6 1161.47 2053.43 1159.8 2056.31L1157.17 2060.26C1157.17 2060.26 1157.89 2058.81 1159.45 2056.1L1166.49 2044.12L1193.75 1998.32L1237.18 1925.91L1243.6 1915.19C1246.02 1911.71 1247.98 1907.94 1249.44 1903.97C1250.67 1899.83 1250.51 1895.4 1248.99 1891.37C1247.46 1887.33 1244.66 1883.9 1241.01 1881.59L1190.32 1850.93L941.079 1700.75L794.509 1612L716.721 1564.99L676.937 1540.92L666.849 1534.92C664.67 1533.35 662.19 1532.26 659.566 1531.7C656.942 1531.14 654.23 1531.13 651.603 1531.68C648.975 1532.22 646.49 1533.31 644.304 1534.86C642.117 1536.42 640.278 1538.41 638.902 1540.71L590.45 1620.8L566.797 1659.96L555.027 1679.34L549.193 1688.94C547.178 1691.82 545.818 1695.1 545.208 1698.56C544.676 1701.91 545.034 1705.35 546.246 1708.52C547.457 1711.69 549.48 1714.48 552.112 1716.62C557.88 1720.54 564.561 1724.28 570.742 1728.08L607.891 1750.57L679.814 1794.13L928.014 1945.11L1095.47 2047.14L1121.89 2063.15C1125.25 2065.47 1128.82 2067.48 1132.56 2069.14C1135.74 2070.2 1139.13 2070.48 1142.44 2069.96C1146.97 2069.24 1151.15 2067.09 1154.37 2063.81C1156.42 2061.56 1157.21 2060.1 1157.31 2060.22Z" fill="#263238"/>
<path d="M566.613 1706.84L672.244 1769.76L763.998 1615.72L658.366 1552.8L566.613 1706.84Z" fill="#2563EB"/>
<path d="M910.688 1911.8L1016.32 1974.71L1108.07 1820.67L1002.44 1757.75L910.688 1911.8Z" fill="#2563EB"/>
<path d="M795.867 1843.4L901.498 1906.31L993.252 1752.27L887.62 1689.35L795.867 1843.4Z" fill="#2563EB"/>
<path d="M680.93 1774.95L786.562 1837.87L878.315 1683.83L772.684 1620.91L680.93 1774.95Z" fill="#2563EB"/>
<g opacity="0.8">
<path d="M566.614 1706.84L672.245 1769.76L763.999 1615.72L658.367 1552.8L566.614 1706.84Z" fill="black"/>
</g>
<g opacity="0.5">
<path d="M910.688 1911.8L1016.32 1974.71L1108.07 1820.67L1002.44 1757.75L910.688 1911.8Z" fill="black"/>
</g>
<g opacity="0.6">
<path d="M795.867 1843.4L901.498 1906.31L993.252 1752.27L887.62 1689.35L795.867 1843.4Z" fill="black"/>
</g>
<g opacity="0.7">
<path d="M680.93 1774.95L786.562 1837.87L878.315 1683.83L772.684 1620.91L680.93 1774.95Z" fill="black"/>
</g>
<path d="M1134.2 2057.93L1260.91 1935.48C1264.94 1931.64 1267.3 1926.37 1267.51 1920.81C1267.71 1915.24 1265.73 1909.82 1262 1905.69L801.818 1428.18C797.849 1424.37 792.568 1422.25 787.072 1422.24C781.576 1422.23 776.287 1424.33 772.304 1428.12L645.667 1550.55C641.626 1554.39 639.243 1559.65 639.026 1565.22C638.81 1570.79 640.778 1576.22 644.51 1580.36L1104.36 2058.03C1108.37 2061.91 1113.73 2064.07 1119.31 2064.05C1124.88 2064.03 1130.23 2061.83 1134.2 2057.93Z" fill="#F5F5F5"/>
<path d="M1134.2 2057.93C1133.15 2059.07 1131.96 2060.09 1130.66 2060.94C1126.76 2063.54 1122.12 2064.78 1117.45 2064.48C1114 2064.28 1110.66 2063.2 1107.76 2061.33C1104.5 2058.84 1101.5 2056.04 1098.8 2052.96L1077.54 2031.15L942.495 1891.82L742.515 1684.93L684.728 1625.04L654.92 1594.16L647.357 1586.31C644.579 1583.74 642.102 1580.87 639.973 1577.74C637.961 1574.29 636.891 1570.37 636.869 1566.38C636.847 1562.38 637.875 1558.46 639.85 1554.98C641.91 1551.68 644.478 1548.73 647.461 1546.23L655.417 1538.5C660.826 1533.36 666.165 1528.24 671.537 1522.97C682.354 1512.7 693.308 1502.39 704.184 1491.51C726.12 1470.44 748.332 1449.02 770.821 1427.26C773.878 1424.31 777.675 1422.23 781.812 1421.25C785.949 1420.28 790.274 1420.43 794.331 1421.7C798.304 1423.07 801.833 1425.49 804.54 1428.7L812.594 1437.02L844.515 1470.28L906.561 1534.77L1024.39 1657.18L1223.81 1864.74C1237.97 1879.61 1251.54 1893.37 1264.22 1907.09C1267.03 1910.94 1268.52 1915.6 1268.47 1920.37C1268.42 1925.14 1266.83 1929.77 1263.94 1933.56C1257.93 1940.33 1251.68 1945.62 1245.85 1951.39C1222.38 1973.9 1202.13 1993.27 1185.5 2009.08C1168.86 2024.89 1156.13 2037.08 1147.3 2045.42L1137.28 2054.82C1135.05 2056.96 1133.77 2057.97 1133.77 2057.97C1133.77 2057.97 1134.84 2056.73 1137 2054.6C1139.16 2052.47 1142.52 2049.06 1146.72 2044.62C1155.42 2036.09 1168.1 2023.7 1184.42 2007.82L1244.35 1949.65C1250.18 1943.89 1256.55 1938.2 1261.77 1932.08C1264.32 1928.66 1265.72 1924.51 1265.74 1920.25C1265.77 1915.98 1264.42 1911.82 1261.91 1908.37C1249.43 1895.12 1235.56 1881.06 1221.18 1866.48L1021.18 1659.52L903.146 1537.16L840.824 1472.74L808.94 1439.62L800.886 1431.3C798.509 1428.53 795.404 1426.47 791.922 1425.37C788.509 1424.31 784.875 1424.19 781.399 1425.02C777.924 1425.85 774.734 1427.59 772.164 1430.08L705.527 1494.32L672.862 1525.71L656.742 1541.24L648.786 1548.98C646.088 1551.23 643.739 1553.87 641.816 1556.82C640.138 1559.75 639.261 1563.07 639.272 1566.44C639.283 1569.82 640.183 1573.13 641.88 1576.05C643.898 1578.9 646.188 1581.54 648.717 1583.95L656.261 1591.74L686.088 1622.68L743.737 1682.61L943.14 1890.09L1078.56 2029.99L1099.24 2052.11C1101.86 2055.18 1104.78 2057.98 1107.97 2060.46C1110.7 2062.31 1113.87 2063.41 1117.16 2063.68C1121.7 2064.1 1126.25 2063.06 1130.16 2060.71C1133.01 2058.98 1134.17 2057.79 1134.2 2057.93Z" fill="#263238"/>
<path d="M672.318 1576.63L758.158 1664.65L886.523 1539.48L800.684 1451.45L672.318 1576.63Z" fill="#2563EB"/>
<path d="M951.849 1863.32L1037.69 1951.35L1166.05 1826.17L1080.21 1738.14L951.849 1863.32Z" fill="#2563EB"/>
<path d="M858.601 1767.69L944.44 1855.72L1072.81 1730.54L986.966 1642.51L858.601 1767.69Z" fill="#2563EB"/>
<path d="M765.234 1671.96L851.073 1759.98L979.438 1634.8L893.599 1546.78L765.234 1671.96Z" fill="#2563EB"/>
<g opacity="0.5">
<path d="M672.318 1576.63L758.158 1664.65L886.523 1539.48L800.684 1451.45L672.318 1576.63Z" fill="black"/>
</g>
<g opacity="0.2">
<path d="M951.849 1863.32L1037.69 1951.35L1166.05 1826.17L1080.21 1738.14L951.849 1863.32Z" fill="black"/>
</g>
<g opacity="0.3">
<path d="M858.601 1767.69L944.44 1855.72L1072.81 1730.54L986.966 1642.52L858.601 1767.69Z" fill="black"/>
</g>
<g opacity="0.4">
<path d="M765.234 1671.96L851.073 1759.98L979.438 1634.8L893.599 1546.78L765.234 1671.96Z" fill="black"/>
</g>
<path d="M1138.43 2078.92L1294.79 1998.09C1297.32 1996.79 1299.57 1995 1301.4 1992.83C1303.23 1990.66 1304.61 1988.14 1305.45 1985.43C1306.3 1982.71 1306.59 1979.86 1306.32 1977.03C1306.05 1974.2 1305.22 1971.46 1303.88 1968.96L984.044 1350C982.776 1347.45 981.012 1345.18 978.855 1343.33C976.699 1341.47 974.194 1340.07 971.486 1339.19C968.779 1338.32 965.924 1337.99 963.089 1338.23C960.254 1338.48 957.497 1339.28 954.978 1340.6L798.662 1421.35C796.125 1422.64 793.872 1424.43 792.033 1426.6C790.195 1428.77 788.808 1431.29 787.956 1434C787.103 1436.72 786.802 1439.58 787.069 1442.41C787.336 1445.24 788.166 1447.99 789.511 1450.5L1109.41 2069.44C1110.67 2071.99 1112.43 2074.26 1114.58 2076.12C1116.73 2077.98 1119.23 2079.39 1121.93 2080.28C1124.63 2081.16 1127.48 2081.49 1130.31 2081.26C1133.15 2081.03 1135.91 2080.23 1138.43 2078.92Z" fill="#F5F5F5"/>
<path d="M1138.43 2078.92C1137.02 2079.76 1135.5 2080.39 1133.91 2080.79C1129.23 2082.08 1124.24 2081.72 1119.78 2079.79C1116.5 2078.34 1113.61 2076.13 1111.34 2073.35C1108.96 2069.82 1106.86 2066.12 1105.06 2062.27L1090.19 2034.32L997.143 1855.49L859.626 1589.98L819.889 1513.23L799.385 1473.59L788.972 1453.45C786.893 1449.98 785.623 1446.08 785.256 1442.06C784.955 1437.89 785.774 1433.73 787.627 1429.99C789.376 1426.12 792.169 1422.82 795.692 1420.45C799.319 1418.3 802.593 1416.76 806.019 1414.96C812.889 1411.42 819.808 1407.8 826.678 1404.26C840.53 1397.06 854.48 1389.85 868.528 1382.65C896.599 1368.14 925.058 1353.44 953.906 1338.53C957.838 1336.51 962.265 1335.65 966.668 1336.05C971.072 1336.45 975.271 1338.09 978.774 1340.79C982.166 1343.46 984.863 1346.92 986.633 1350.85L992.152 1361.54L1014.07 1403.98L1056.99 1487.09L1137.97 1644.01L1274.8 1909.71L1302.61 1963.69C1303.63 1965.85 1304.84 1967.88 1305.76 1970.22C1307.11 1973.63 1307.61 1977.32 1307.23 1980.96C1306.84 1984.61 1305.58 1988.11 1303.56 1991.16C1300.92 1995 1297.25 1998 1292.97 1999.83C1289.07 2001.76 1285.25 2003.74 1281.5 2005.7C1251.41 2021.14 1225.53 2034.34 1204.32 2045.19C1183.11 2056.04 1166.75 2064.33 1155.45 2070.08C1149.92 2072.82 1145.69 2074.91 1142.43 2076.52C1139.17 2078.13 1138.04 2078.58 1138.04 2078.58C1138.04 2078.58 1139.43 2077.7 1142.27 2076.2L1154.84 2069.44C1166.02 2063.56 1182.31 2054.7 1203.33 2043.98C1224.35 2033.26 1250.31 2019.52 1280.27 2003.89C1283.96 2001.95 1287.78 1999.97 1291.66 1997.96C1295.61 1996.32 1298.99 1993.57 1301.41 1990.04C1303.82 1986.37 1304.98 1982.03 1304.73 1977.65C1304.27 1973.08 1302.72 1968.69 1300.2 1964.85L1272.2 1911L1134.68 1645.48L1053.51 1488.69L1010.62 1405.71L988.708 1363.28L983.189 1352.59C981.711 1349.1 979.371 1346.05 976.387 1343.72C973.422 1341.49 969.888 1340.14 966.191 1339.82C962.493 1339.51 958.782 1340.24 955.484 1341.94C926.648 1356.9 898.189 1371.6 870.106 1386.06C856.037 1393.37 842.087 1400.57 828.256 1407.67C821.405 1411.28 814.466 1414.83 807.597 1418.37C804.309 1420.14 800.571 1421.87 797.577 1423.64C794.607 1425.57 792.221 1428.27 790.676 1431.46C789.134 1434.66 788.449 1438.2 788.687 1441.74C788.926 1445.29 790.079 1448.71 792.036 1451.67L802.361 1471.76L822.864 1511.4L862.464 1588.18L999.293 1853.88L1091.57 2033.14L1105.92 2061.38C1107.69 2065.17 1109.71 2068.85 1111.97 2072.37C1114.12 2075.07 1116.87 2077.24 1120 2078.7C1124.31 2080.62 1129.12 2081.09 1133.71 2080.04C1136.94 2079.69 1138.39 2078.78 1138.43 2078.92Z" fill="#263238"/>
<path d="M1139.48 2080.11C1140.1 2079.95 1141.7 2088.37 1148.32 2102.08C1157.71 2121.28 1171.81 2137.8 1189.29 2150.1C1215.39 2168.06 1247.47 2175.12 1278.71 2169.8C1305.42 2164.96 1329.68 2151.17 1347.49 2130.69C1365.31 2110.22 1375.61 2084.28 1376.71 2057.16C1377.81 2030.04 1369.64 2003.36 1353.54 1981.51C1337.44 1959.66 1314.38 1943.94 1288.15 1936.96C1267.48 1931.44 1245.74 1931.37 1225.04 1936.76C1221.39 1937.74 1218.16 1938.6 1215.27 1939.38C1212.38 1940.15 1210.26 1941.31 1208.59 1941.98C1206.69 1942.82 1204.67 1943.37 1202.61 1943.58C1204.24 1942.29 1206.03 1941.21 1207.94 1940.38C1209.76 1939.45 1211.93 1938.21 1214.44 1937.09C1216.94 1935.98 1220.46 1934.81 1224.09 1933.47C1245.23 1926.83 1267.79 1926.12 1289.32 1931.41C1305.38 1935.29 1320.49 1942.35 1333.77 1952.19C1347.05 1962.02 1358.21 1974.42 1366.6 1988.65C1377.04 2006.09 1383.04 2025.81 1384.08 2046.11C1385.12 2066.4 1381.17 2086.64 1372.57 2105.05C1368.03 2114.6 1362.33 2123.56 1355.6 2131.72C1335.38 2156.22 1306.59 2172.11 1275.08 2176.14C1243.57 2180.17 1211.71 2172.05 1185.97 2153.43C1168.1 2140.3 1154.08 2122.61 1145.4 2102.2C1143.12 2096.7 1141.31 2091.02 1139.97 2085.22C1139.53 2083.56 1139.36 2081.83 1139.48 2080.11Z" fill="#263238"/>
<path d="M1171.28 1932.06C1175.98 1929.63 1181.3 1928.65 1186.57 1929.24C1191.83 1929.84 1196.8 1931.97 1200.84 1935.39C1204.89 1938.81 1207.84 1943.35 1209.3 1948.43C1210.77 1953.52 1210.7 1958.93 1209.09 1963.98C1207.49 1969.03 1204.42 1973.48 1200.29 1976.79C1196.15 1980.09 1191.12 1982.1 1185.85 1982.55C1180.57 1983 1175.28 1981.87 1170.64 1979.32C1166 1976.76 1162.23 1972.88 1159.79 1968.18C1156.54 1961.87 1155.92 1954.52 1158.07 1947.75C1160.23 1940.98 1164.97 1935.34 1171.28 1932.06Z" fill="#263238"/>
<path d="M810.382 1439.76L866.83 1548.99L1026.11 1466.67L969.665 1357.44L810.382 1439.76Z" fill="#2563EB"/>
<path d="M871.444 1557.97L927.893 1667.19L1087.18 1584.87L1030.73 1475.65L871.444 1557.97Z" fill="#2563EB"/>
<path d="M932.877 1676.76L989.325 1785.99L1148.61 1703.67L1092.16 1594.44L932.877 1676.76Z" fill="#2563EB"/>
<path d="M994.194 1795.46L1050.64 1904.69L1209.93 1822.37L1153.48 1713.14L994.194 1795.46Z" fill="#2563EB"/>
<g opacity="0.8">
<path d="M994.194 1795.46L1050.64 1904.69L1209.93 1822.37L1153.48 1713.14L994.194 1795.46Z" fill="white"/>
</g>
<g opacity="0.6">
<path d="M932.876 1676.76L989.324 1785.99L1148.61 1703.67L1092.16 1594.44L932.876 1676.76Z" fill="white"/>
</g>
<g opacity="0.4">
<path d="M871.443 1557.97L927.892 1667.19L1087.17 1584.87L1030.73 1475.65L871.443 1557.97Z" fill="white"/>
</g>
<path d="M1519.08 3114.73C1513.92 3109.92 1511 3103.05 1511 3095.83V3094.97C1511 3082.94 1519.59 3072.62 1531.45 3070.73C1539.36 3069.36 1547.27 3071.94 1552.94 3077.44L1555 3079.5L1557.06 3077.44C1562.56 3071.94 1570.64 3069.36 1578.38 3070.73C1590.23 3072.62 1599 3082.94 1599 3094.97V3095.83C1599 3103.05 1595.91 3109.92 1590.75 3114.73L1559.64 3143.78C1558.44 3144.98 1556.72 3145.5 1555 3145.5C1553.11 3145.5 1551.39 3144.98 1550.19 3143.78L1519.08 3114.73Z" fill="white"/>
</svg>
