<svg width="4232" height="3160" viewBox="0 0 4232 3160" fill="none" xmlns="http://www.w3.org/2000/svg">
<path d="M2569.42 20.7292C2569.42 24.8291 2568.21 28.8368 2565.93 32.2457C2563.65 35.6546 2560.41 38.3115 2556.63 39.8805C2552.84 41.4494 2548.67 41.8599 2544.65 41.0601C2540.63 40.2603 2536.94 38.286 2534.04 35.387C2531.14 32.4879 2529.16 28.7943 2528.36 24.7733C2527.56 20.7522 2527.97 16.5843 2529.54 12.7965C2531.11 9.00873 2533.77 5.77126 2537.18 3.49351C2540.59 1.21576 2544.59 0 2548.69 0C2551.42 0 2554.11 0.536185 2556.63 1.57792C2559.14 2.61966 2561.43 4.14657 2563.35 6.07146C2565.28 7.99634 2566.8 10.2815 2567.85 12.7965C2568.89 15.3115 2569.42 18.007 2569.42 20.7292Z" fill="#E0E0E0"/>
<path d="M2678.41 1418.92C2678.41 1418.92 2678.41 1417.92 2678.41 1416C2678.41 1414.07 2678.41 1411.15 2678.41 1407.52C2678.41 1399.9 2678.41 1388.86 2678.06 1374.75C2678.06 1346.26 2678.06 1304.51 2677.56 1252.73C2677.56 1148.8 2677.13 1003.41 2676.92 838.214L2677.34 839.425L2588.09 731.933L2548.27 683.707L2547.84 683.209V682.568C2547.84 498.071 2548.27 333.519 2548.41 215.342C2548.41 156.359 2548.84 108.49 2548.98 75.7935C2548.98 59.552 2548.98 46.8723 2549.34 38.0392C2549.34 33.9077 2549.34 30.9158 2549.34 28.2802C2549.34 25.6445 2549.34 24.9321 2549.34 24.9321C2549.34 24.9321 2549.34 26.0719 2549.34 28.2802C2549.34 30.4884 2549.34 33.9077 2549.34 38.0392C2549.34 46.8723 2549.34 59.4096 2549.34 75.7935C2549.34 108.775 2549.34 156.359 2549.91 215.342C2549.91 333.733 2550.26 498.071 2550.55 682.568L2550.12 681.357L2589.94 729.582L2678.7 837.075L2679.12 837.573V838.214C2679.12 1003.69 2678.63 1148.8 2678.48 1252.73C2678.48 1304.51 2678.06 1345.97 2677.91 1374.75C2677.91 1389 2677.91 1399.9 2677.91 1407.52C2677.91 1411.15 2677.91 1413.93 2677.91 1416C2677.91 1418.06 2678.41 1418.92 2678.41 1418.92Z" fill="#E0E0E0"/>
<path d="M2916.48 1297.32C2915.27 1301.34 2913.42 1305.15 2910.99 1308.57C2904.49 1318.24 2894.81 1325.32 2883.64 1328.59C2875.95 1330.92 2867.83 1331.41 2859.92 1330.02C2850.8 1328.36 2842.29 1324.31 2835.27 1318.26C2831.43 1315.03 2828.14 1311.21 2825.51 1306.94C2822.65 1302.56 2820.51 1297.75 2819.17 1292.69C2816.2 1282.03 2816.75 1270.69 2820.72 1260.36C2824.7 1250.03 2831.9 1241.26 2841.25 1235.35C2845.63 1232.48 2850.44 1230.34 2855.5 1229.01C2860.32 1227.65 2865.32 1227.05 2870.32 1227.23C2877.55 1227.32 2884.68 1228.95 2891.23 1232.01C2897.79 1235.07 2903.61 1239.49 2908.33 1244.97C2913.05 1250.45 2916.54 1256.88 2918.58 1263.81C2920.63 1270.75 2921.17 1278.05 2920.18 1285.21C2919.7 1289.39 2918.52 1293.46 2916.69 1297.25C2916.34 1297.25 2918.19 1292.97 2919.11 1285.07C2919.86 1278.19 2919.16 1271.22 2917.06 1264.63C2914.97 1258.03 2911.52 1251.94 2906.95 1246.75C2902.37 1241.55 2896.76 1237.37 2890.48 1234.46C2884.2 1231.56 2877.38 1229.99 2870.46 1229.86C2865.64 1229.72 2860.83 1230.35 2856.21 1231.71C2851.45 1232.96 2846.93 1234.98 2842.82 1237.7C2834.01 1243.32 2827.23 1251.62 2823.46 1261.37C2819.7 1271.12 2819.14 1281.82 2821.88 1291.91C2823.14 1296.71 2825.16 1301.28 2827.86 1305.44C2830.35 1309.46 2833.42 1313.08 2836.98 1316.2C2843.19 1321.63 2850.65 1325.43 2858.7 1327.25C2866.75 1329.07 2875.13 1328.84 2883.07 1326.6C2893.9 1323.54 2903.41 1316.94 2910.07 1307.86C2914.77 1301.45 2916.12 1297.18 2916.48 1297.32Z" fill="#E0E0E0"/>
<path d="M2964.06 1345.33H2965.84L2971.19 1345.97L2992.56 1348.82H2992.06L3008.37 1305.23V1306.08L2984.65 1290.34H2984.22V1289.84C2985.28 1279.68 2984.99 1269.43 2983.37 1259.35V1258.78L2983.86 1258.43L3006.66 1241.33L3006.3 1242.61L2987.07 1199.87L2988.35 1200.58L2960.43 1206.14H2959.72L2959.29 1205.57C2952.89 1197.64 2945.46 1190.6 2937.21 1184.63L2936.57 1184.2V1183.42C2937.85 1174.73 2939.2 1165.04 2940.63 1155.28L2941.48 1156.63L2897.46 1139.75L2899.02 1139.25L2883.21 1162.9L2882.71 1163.61H2881.93C2871.82 1162.56 2861.62 1162.84 2851.58 1164.47H2850.73L2850.23 1163.83L2833.2 1140.96L2834.91 1141.46L2791.82 1160.55L2792.67 1158.98C2794.38 1167.82 2796.3 1177.29 2798.16 1186.91V1187.76L2797.44 1188.33C2789.53 1194.7 2782.49 1202.07 2776.5 1210.27C2775.93 1210.27 2777.93 1209.7 2775.15 1210.91H2774.29H2773.37H2771.59L2768.1 1210.41L2760.97 1209.42L2746.73 1207.35L2748.29 1206.42C2742.59 1221.31 2736.9 1235.99 2731.34 1250.45L2730.77 1248.74L2754.42 1264.55L2755.13 1265.05V1265.9C2754.01 1276.01 2754.25 1286.21 2755.84 1296.25V1297.11L2755.2 1297.6L2732.34 1314.63L2732.76 1312.92C2739.25 1327.67 2745.66 1342.05 2751.85 1356.02L2750.36 1355.3L2778.28 1349.82H2779.07L2779.56 1350.39C2785.93 1358.35 2793.33 1365.42 2801.58 1371.4L2802.15 1371.83V1372.61C2800.72 1382.23 2799.3 1391.63 2797.94 1400.75L2797.23 1399.47L2841.18 1416.49L2839.83 1416.92L2855.79 1393.34L2856.14 1392.77H2856.71C2866.86 1393.89 2877.11 1393.68 2887.2 1392.13H2887.77L2888.13 1392.63C2894.25 1400.97 2899.81 1408.44 2905.08 1415.5H2904.01L2947.18 1396.55L2946.82 1397.26C2944.69 1386.08 2942.98 1376.89 2941.48 1369.27C2947.53 1364.46 2953.11 1359.09 2958.15 1353.24L2961.78 1348.82C2962.15 1348.3 2962.56 1347.8 2962.99 1347.33L2962 1348.96C2961.21 1349.96 2960.14 1351.53 2958.51 1353.52C2953.63 1359.56 2948.14 1365.08 2942.12 1369.98V1369.55L2947.82 1397.4V1397.97H2947.39L2904.65 1417.28H2904.01L2903.58 1416.78C2898.31 1409.66 2892.76 1402.53 2886.49 1393.98L2887.41 1394.34C2877.17 1396.04 2866.75 1396.32 2856.43 1395.2L2857.42 1394.77L2841.61 1418.42L2841.11 1419.2L2840.33 1418.85L2796.31 1402.03L2795.38 1401.68V1400.68C2796.66 1391.56 2798.01 1382.16 2799.44 1372.19L2799.94 1373.33C2791.51 1367.24 2783.94 1360.06 2777.43 1351.96L2778.71 1352.45L2750.71 1357.94H2749.72L2749.22 1357.01L2731.27 1313.06L2730.77 1312.06L2731.7 1311.42L2754.49 1294.33L2753.99 1295.68C2752.32 1285.41 2752.03 1274.97 2753.14 1264.62L2753.78 1265.9L2730.13 1250.09L2729.13 1249.45L2729.56 1248.38C2735.11 1234.13 2740.81 1219.25 2746.51 1204.36L2746.94 1203.29H2748.08L2762.33 1205.28L2769.45 1206.35L2773.01 1206.85H2774.79H2775.72H2776.57L2775.15 1207.49C2781.26 1199.09 2788.45 1191.53 2796.52 1184.98L2796.02 1186.41C2794.17 1176.79 2792.24 1167.32 2790.54 1158.48V1157.34L2791.6 1156.85L2834.7 1137.75L2835.7 1137.33L2836.41 1138.18L2853.36 1161.05L2852.08 1160.55C2862.35 1158.91 2872.8 1158.65 2883.14 1159.77L2881.86 1160.34L2897.74 1136.76L2898.31 1135.83L2899.31 1136.26L2943.33 1153.21L2944.26 1153.57V1154.64C2942.83 1164.47 2941.41 1174.08 2940.13 1182.77L2939.63 1181.63C2948.02 1187.74 2955.56 1194.92 2962.07 1203.01L2960.86 1202.58L2988.85 1197.09H2989.78L2990.13 1197.88C2996.76 1213.05 3003.17 1227.44 3009.15 1241.04V1241.76L3008.51 1242.26L2985.65 1259.21L2986 1258.35C2987.63 1268.58 2987.84 1278.98 2986.64 1289.27L2986.29 1288.49L3009.87 1304.44L3010.36 1304.8V1305.3C3003.24 1323.18 2997.61 1337.99 2993.2 1349.18V1349.53L2972.32 1346.19L2966.91 1345.33H2964.06Z" fill="#E0E0E0"/>
<path fill-rule="evenodd" clip-rule="evenodd" d="M3186.45 940.863C3176.95 954.023 3165.72 965.836 3153.05 975.982L3161.74 1020.08L3093.85 1050.21L3066.92 1013.88C3050.91 1016.46 3034.61 1016.87 3018.48 1015.09L2993.41 1052.42L2924.03 1025.7L2930.58 981.253C2917.44 971.708 2905.62 960.448 2895.46 947.773L2851.65 956.891L2821.45 888.933L2857.49 862.078C2854.95 846.056 2854.54 829.767 2856.28 813.639L2818.96 788.635L2845.74 719.253L2890.19 725.735C2899.71 712.591 2910.95 700.78 2923.6 690.617L2914.91 646.523L2982.87 616.391L3009.72 652.435C3025.77 649.856 3042.08 649.449 3058.23 651.224L3083.24 613.897L3152.62 640.61L3146.14 685.061C3159.28 694.605 3171.09 705.865 3181.25 718.541L3225.35 709.779L3255.48 777.808L3219.44 804.663C3221.98 820.685 3222.39 836.973 3220.65 853.102L3257.97 878.106L3231.19 947.488L3186.74 941.006L3186.45 940.863ZM3111.37 865.07C3117.06 850.343 3118.26 834.26 3114.8 818.856C3111.35 803.451 3103.4 789.418 3091.96 778.532C3080.53 767.647 3066.12 760.398 3050.57 757.704C3035.01 755.01 3019.01 756.991 3004.58 763.397C2990.15 769.804 2977.95 780.347 2969.51 793.692C2961.08 807.037 2956.79 822.585 2957.2 838.367C2957.6 854.149 2962.68 869.456 2971.79 882.35C2980.9 895.244 2993.63 905.146 3008.37 910.802C3028.09 918.372 3050.02 917.808 3069.33 909.235C3088.64 900.661 3103.76 884.778 3111.37 865.07Z" fill="#EBEBEB"/>
<path d="M496.005 1216.18C507.808 1216.18 517.375 1206.62 517.375 1194.81C517.375 1183.01 507.808 1173.44 496.005 1173.44C484.203 1173.44 474.635 1183.01 474.635 1194.81C474.635 1206.62 484.203 1216.18 496.005 1216.18Z" fill="#E0E0E0"/>
<path d="M496.006 1872.89C495.009 1872.89 494.154 1724.58 494.154 1541.65C494.154 1358.72 495.009 1210.34 496.006 1210.34C497.004 1210.34 497.858 1358.58 497.858 1541.65C497.858 1724.73 497.075 1872.89 496.006 1872.89Z" fill="#E0E0E0"/>
<path d="M1294.97 166.19C1294.97 170.416 1293.72 174.548 1291.37 178.062C1289.02 181.577 1285.68 184.316 1281.78 185.933C1277.87 187.551 1273.58 187.974 1269.43 187.149C1265.28 186.325 1261.48 184.289 1258.49 181.301C1255.5 178.312 1253.46 174.504 1252.64 170.359C1251.81 166.213 1252.24 161.917 1253.86 158.012C1255.47 154.107 1258.21 150.769 1261.73 148.421C1265.24 146.073 1269.37 144.819 1273.6 144.819C1279.27 144.819 1284.7 147.071 1288.71 151.079C1292.72 155.086 1294.97 160.522 1294.97 166.19Z" fill="#E0E0E0"/>
<path d="M1273.6 1527.76C1272.53 1527.76 1271.75 1226.44 1271.75 854.883C1271.75 483.325 1272.53 181.861 1273.6 181.861C1274.67 181.861 1275.45 483.111 1275.45 854.883C1275.45 1226.66 1274.6 1527.76 1273.6 1527.76Z" fill="#E0E0E0"/>
<path d="M153.582 964.37C153.582 968.884 152.246 973.296 149.743 977.051C147.24 980.807 143.681 983.738 139.515 985.475C135.349 987.211 130.763 987.676 126.333 986.811C121.903 985.946 117.829 983.79 114.622 980.613C111.416 977.436 109.222 973.382 108.315 968.961C107.409 964.539 107.832 959.948 109.529 955.767C111.227 951.585 114.125 947.999 117.857 945.461C121.589 942.923 125.989 941.546 130.502 941.504C133.523 941.476 136.519 942.046 139.318 943.183C142.117 944.319 144.663 945.999 146.809 948.125C148.955 950.251 150.659 952.782 151.821 955.57C152.984 958.358 153.582 961.349 153.582 964.37Z" fill="#E0E0E0"/>
<path d="M132.069 964.37C132.069 964.37 132.069 965.581 132.069 967.932C132.069 970.283 132.069 973.915 132.069 978.474C132.069 987.877 132.069 1001.55 132.069 1019.29C132.069 1054.91 132.069 1107.12 132.568 1172.52C132.568 1303.66 132.924 1488.51 133.209 1703.85V1704.42V1704.92C100.797 1749.87 66.8186 1796.89 31.9851 1845.25L32.3412 1844.19V2029.39C32.3412 2191.6 32.3412 2345.6 32.3412 2483.16L31.9138 2482.09L154.793 2630.9V2631.25V2631.82C154.793 2769.02 154.294 2881.78 154.152 2960.36C154.152 2999.61 154.152 3030.24 154.152 3051.18C154.152 3061.58 154.152 3069.49 154.152 3074.97C154.152 3080.46 154.152 3083.09 154.152 3083.09C154.152 3083.09 154.152 3080.31 154.152 3074.97C154.152 3069.63 154.152 3061.58 154.152 3051.18C154.152 3030.24 154.152 2999.61 153.725 2960.36C153.725 2882 153.725 2769.02 153.083 2631.82V2632.75L29.4919 2484.23L29.0645 2483.73V2483.16C29.0645 2345.6 29.0645 2191.6 29.0645 2029.39V1843.54L29.4206 1843.12L130.502 1702.86L130.146 1703.85C130.146 1488.51 130.645 1303.66 130.787 1172.52C130.787 1107.12 131.214 1055.12 131.286 1019.29C131.286 1001.55 131.286 987.877 131.286 978.474C131.286 973.915 131.286 970.425 131.286 967.932C131.286 965.439 132.069 964.37 132.069 964.37Z" fill="#E0E0E0"/>
<path d="M1760.56 673.805C1774.76 673.805 1786.27 662.292 1786.27 648.09C1786.27 633.887 1774.76 622.374 1760.56 622.374C1746.35 622.374 1734.84 633.887 1734.84 648.09C1734.84 662.292 1746.35 673.805 1760.56 673.805Z" fill="#E0E0E0"/>
<path d="M1619.3 2146.36C1633.5 2146.36 1645.02 2134.85 1645.02 2120.65C1645.02 2106.44 1633.5 2094.93 1619.3 2094.93C1605.1 2094.93 1593.58 2106.44 1593.58 2120.65C1593.58 2134.85 1605.1 2146.36 1619.3 2146.36Z" fill="#E0E0E0"/>
<path d="M1764.33 648.09C1764.39 648.848 1764.39 649.611 1764.33 650.369C1764.33 652.008 1764.33 654.216 1764.33 656.994C1764.33 663.049 1764.33 671.668 1764.33 682.923C1764.33 705.647 1764.33 738.629 1764.83 780.301C1764.83 863.93 1765.19 982.179 1765.47 1121.37V1122.08L1764.97 1122.58L1620.01 1267.69L1620.58 1266.4V1347.04C1620.58 1556.61 1620.15 1746.38 1620.01 1883.86C1620.01 1952.39 1619.58 2007.95 1619.44 2046.49C1619.44 2065.58 1619.44 2080.47 1619.44 2090.73C1619.44 2095.64 1619.44 2099.49 1619.44 2102.2C1619.44 2104.9 1619.44 2106.11 1619.44 2106.11C1619.44 2106.11 1619.44 2104.83 1619.44 2102.2C1619.44 2099.56 1619.44 2095.64 1619.44 2090.73C1619.44 2080.47 1619.44 2065.58 1619.44 2046.49C1619.44 2007.95 1619.09 1952.39 1618.87 1883.86C1618.87 1746.38 1618.87 1556.61 1618.3 1347.04V1265.62L1618.87 1265.05C1670.09 1213.9 1719.1 1164.89 1763.98 1120.16L1763.48 1121.37C1763.48 982.179 1763.98 863.93 1764.12 780.301C1764.12 738.629 1764.55 705.647 1764.62 682.923C1764.62 671.668 1764.62 663.049 1764.62 656.994C1764.62 654.216 1764.62 652.008 1764.62 650.369C1764.46 649.618 1764.37 648.856 1764.33 648.09Z" fill="#E0E0E0"/>
<path d="M3073.9 1342.34H1715.68V2183.47H3073.9V1342.34Z" fill="#FAFAFA"/>
<path d="M3073.9 2183.47C3073.9 2183.47 3073.9 2178.27 3073.9 2168.3C3073.9 2158.33 3073.9 2143.51 3073.9 2124.14C3073.9 2085.46 3073.9 2028.54 3073.9 1955.52C3073.9 1809.64 3073.48 1599.35 3073.12 1342.34L3074.62 1343.76L1716.53 1344.19L1718.38 1342.34C1718.38 1640.53 1718.38 1924.82 1718.38 2183.47L1716.68 2181.77L2694.37 2182.62L2974.46 2183.05H3049.04H3068.28H3049.26H2974.96L2695.29 2183.47L1716.46 2184.33H1714.75V2182.62C1714.75 1923.97 1714.75 1639.67 1714.75 1341.48V1339.63H1716.75L3074.83 1339.99H3076.25V1341.48C3076.25 1599.07 3075.68 1809.49 3075.47 1955.6C3075.47 2028.4 3075.47 2085.24 3075.11 2123.85C3075.11 2143.08 3075.11 2157.76 3075.11 2167.73C3075.11 2177.7 3073.9 2183.47 3073.9 2183.47Z" fill="#263238"/>
<path d="M3073.19 1424.4C3073.19 1425.47 2769.73 1426.25 2395.47 1426.25C2021.2 1426.25 1717.74 1425.47 1717.74 1424.4C1717.74 1423.33 2021.13 1422.55 2395.47 1422.55C2769.8 1422.55 3073.19 1423.4 3073.19 1424.4Z" fill="#263238"/>
<path d="M1787.91 1387.29C1787.91 1389.5 1787.25 1391.66 1786.02 1393.5C1784.79 1395.34 1783.05 1396.77 1781 1397.62C1778.96 1398.47 1776.71 1398.69 1774.54 1398.26C1772.37 1397.83 1770.38 1396.76 1768.82 1395.2C1767.25 1393.63 1766.19 1391.64 1765.76 1389.47C1765.32 1387.3 1765.55 1385.05 1766.39 1383.01C1767.24 1380.97 1768.67 1379.22 1770.51 1377.99C1772.35 1376.76 1774.51 1376.1 1776.72 1376.1C1778.2 1376.1 1779.65 1376.38 1781.02 1376.94C1782.38 1377.5 1783.61 1378.32 1784.65 1379.36C1785.69 1380.4 1786.52 1381.64 1787.08 1383C1787.64 1384.36 1787.92 1385.82 1787.91 1387.29Z" fill="#263238"/>
<path d="M1828.16 1387.29C1828.14 1389.48 1827.48 1391.63 1826.25 1393.44C1825.02 1395.26 1823.28 1396.67 1821.25 1397.5C1819.22 1398.34 1816.98 1398.55 1814.83 1398.11C1812.68 1397.67 1810.71 1396.61 1809.16 1395.05C1807.61 1393.49 1806.56 1391.51 1806.14 1389.36C1805.72 1387.21 1805.94 1384.98 1806.78 1382.95C1807.63 1380.92 1809.05 1379.19 1810.88 1377.97C1812.7 1376.76 1814.85 1376.11 1817.04 1376.11C1818.51 1376.11 1819.96 1376.4 1821.31 1376.96C1822.67 1377.52 1823.89 1378.35 1824.93 1379.39C1825.96 1380.42 1826.78 1381.66 1827.33 1383.01C1827.89 1384.37 1828.17 1385.82 1828.16 1387.29Z" fill="#263238"/>
<path d="M1857.29 1398.4C1863.43 1398.4 1868.4 1393.43 1868.4 1387.29C1868.4 1381.15 1863.43 1376.18 1857.29 1376.18C1851.15 1376.18 1846.18 1381.15 1846.18 1387.29C1846.18 1393.43 1851.15 1398.4 1857.29 1398.4Z" fill="#263238"/>
<path d="M1863.85 1574.92L1831.58 1587.32L1863.85 1599.78V1607.33L1823.1 1591.23V1583.75L1863.85 1567.73V1574.92Z" fill="#263238"/>
<path d="M1897.11 1542.65H1905.02L1875.03 1628.13H1867.12L1897.11 1542.65Z" fill="#263238"/>
<path d="M1948.76 1583.75V1591.59L1908.01 1607.69V1600.14L1940.35 1587.67L1908.01 1575.28V1567.37L1948.76 1583.75Z" fill="#263238"/>
<path d="M1959.01 1613.39C1959 1612.57 1959.16 1611.77 1959.47 1611.01C1959.78 1610.26 1960.23 1609.58 1960.81 1609.01C1961.39 1608.44 1962.08 1607.99 1962.83 1607.69C1963.59 1607.39 1964.4 1607.24 1965.21 1607.26C1966.01 1607.25 1966.81 1607.4 1967.55 1607.71C1968.29 1608.02 1968.96 1608.47 1969.52 1609.04C1970.08 1609.61 1970.51 1610.29 1970.8 1611.04C1971.09 1611.79 1971.22 1612.59 1971.2 1613.39C1971.22 1614.19 1971.09 1615 1970.8 1615.75C1970.52 1616.51 1970.08 1617.2 1969.52 1617.78C1968.97 1618.37 1968.3 1618.83 1967.56 1619.15C1966.82 1619.48 1966.02 1619.65 1965.21 1619.66C1964.39 1619.66 1963.58 1619.49 1962.82 1619.18C1962.07 1618.86 1961.38 1618.4 1960.8 1617.81C1960.23 1617.23 1959.77 1616.54 1959.47 1615.78C1959.16 1615.02 1959 1614.21 1959.01 1613.39Z" fill="#263238"/>
<path d="M1979.67 1613.39C1979.65 1612.57 1979.8 1611.76 1980.1 1611C1980.41 1610.24 1980.87 1609.56 1981.45 1608.98C1982.03 1608.41 1982.72 1607.96 1983.48 1607.66C1984.24 1607.37 1985.05 1607.23 1985.87 1607.26C1986.67 1607.25 1987.46 1607.4 1988.2 1607.71C1988.94 1608.01 1989.61 1608.47 1990.17 1609.04C1990.73 1609.61 1991.17 1610.29 1991.46 1611.04C1991.75 1611.79 1991.88 1612.59 1991.85 1613.39C1991.88 1614.19 1991.75 1615 1991.46 1615.75C1991.17 1616.51 1990.74 1617.2 1990.18 1617.78C1989.62 1618.36 1988.96 1618.83 1988.21 1619.15C1987.47 1619.48 1986.68 1619.65 1985.87 1619.65C1985.05 1619.66 1984.23 1619.51 1983.47 1619.2C1982.71 1618.88 1982.02 1618.42 1981.44 1617.84C1980.86 1617.25 1980.41 1616.56 1980.1 1615.79C1979.8 1615.03 1979.65 1614.21 1979.67 1613.39Z" fill="#263238"/>
<path d="M2000.33 1613.39C2000.31 1612.58 2000.46 1611.77 2000.76 1611.02C2001.06 1610.27 2001.51 1609.58 2002.08 1609.01C2002.65 1608.44 2003.34 1607.99 2004.09 1607.69C2004.84 1607.39 2005.65 1607.24 2006.46 1607.26C2007.26 1607.25 2008.05 1607.4 2008.79 1607.71C2009.53 1608.02 2010.2 1608.47 2010.76 1609.04C2011.32 1609.61 2011.76 1610.29 2012.05 1611.04C2012.33 1611.79 2012.47 1612.59 2012.44 1613.39C2012.47 1614.19 2012.34 1615 2012.05 1615.75C2011.76 1616.51 2011.33 1617.2 2010.77 1617.78C2010.21 1618.37 2009.54 1618.83 2008.8 1619.15C2008.06 1619.48 2007.26 1619.65 2006.46 1619.66C2005.64 1619.66 2004.83 1619.49 2004.08 1619.18C2003.33 1618.86 2002.64 1618.4 2002.07 1617.81C2001.5 1617.23 2001.05 1616.53 2000.75 1615.77C2000.46 1615.02 2000.31 1614.2 2000.33 1613.39Z" fill="#263238"/>
<path d="M2721.51 1695.02C2721.51 1696.02 2520.7 1696.87 2272.73 1696.87C2024.76 1696.87 1824.31 1696.02 1824.31 1695.02C1824.31 1694.02 2025.05 1693.1 2272.73 1693.1C2520.41 1693.1 2721.51 1693.95 2721.51 1695.02Z" fill="#2563EB"/>
<path d="M2867.97 1697.73C2839.29 1700.2 2810.45 1700.2 2781.77 1697.73C2810.45 1695.26 2839.29 1695.26 2867.97 1697.73Z" fill="#263238"/>
<path d="M2994.12 1697.73C2962.78 1700.2 2931.29 1700.2 2899.95 1697.73C2931.29 1695.26 2962.78 1695.26 2994.12 1697.73Z" fill="#263238"/>
<path d="M2395.75 1770.53C2395.75 1771.6 2268.1 1772.38 2110.81 1772.38C1953.53 1772.38 1825.88 1771.6 1825.88 1770.53C1825.88 1769.46 1953.46 1768.68 2110.81 1768.68C2268.17 1768.68 2395.75 1769.53 2395.75 1770.53Z" fill="#2563EB"/>
<path d="M2391.62 2052.47C2391.62 2053.54 2264.04 2054.33 2106.68 2054.33C1949.33 2054.33 1821.75 2053.54 1821.75 2052.47C1821.75 2051.41 1949.33 2050.62 2106.68 2050.62C2264.04 2050.62 2391.62 2051.48 2391.62 2052.47Z" fill="#2563EB"/>
<path d="M2602.83 1770.53C2602.83 1771.6 2568.07 1772.38 2525.26 1772.38C2482.44 1772.38 2447.68 1771.6 2447.68 1770.53C2447.68 1769.46 2482.44 1768.68 2525.26 1768.68C2568.07 1768.68 2602.83 1769.53 2602.83 1770.53Z" fill="#263238"/>
<path d="M2601.19 2052.47C2601.19 2053.54 2566.5 2054.33 2523.62 2054.33C2480.74 2054.33 2446.12 2053.54 2446.12 2052.47C2446.12 2051.41 2480.81 2050.62 2523.62 2050.62C2566.43 2050.62 2601.19 2051.48 2601.19 2052.47Z" fill="#263238"/>
<path d="M1863.13 1809C1850.43 1811.46 1837.37 1811.46 1824.67 1809C1837.37 1806.53 1850.43 1806.53 1863.13 1809Z" fill="#2563EB"/>
<path d="M1995.7 1809.78C1981.92 1811.66 1968 1812.31 1954.1 1811.7C1940.16 1812.34 1926.19 1811.72 1912.36 1809.85C1940.15 1807.38 1968.12 1807.38 1995.91 1809.85L1995.7 1809.78Z" fill="#263238"/>
<path d="M2080.54 1809.78C2056.74 1812.25 2032.75 1812.25 2008.95 1809.78C2032.75 1807.31 2056.74 1807.31 2080.54 1809.78Z" fill="#263238"/>
<path d="M2187.89 1809.78C2163.64 1812.25 2139.2 1812.25 2114.95 1809.78C2139.2 1807.31 2163.64 1807.31 2187.89 1809.78Z" fill="#263238"/>
<path d="M2281.78 1809.78C2259.76 1812.25 2237.54 1812.25 2215.53 1809.78C2237.54 1807.31 2259.76 1807.31 2281.78 1809.78Z" fill="#263238"/>
<path d="M2593.57 1809.78C2593.57 1810.85 2528.25 1811.63 2447.75 1811.63C2367.26 1811.63 2301.87 1810.85 2301.87 1809.78C2301.87 1808.71 2367.19 1807.93 2447.75 1807.93C2528.32 1807.93 2593.57 1808.78 2593.57 1809.78Z" fill="#263238"/>
<path d="M1857.79 1858.08C1846.89 1860.55 1835.57 1860.55 1824.67 1858.08C1835.56 1855.51 1846.9 1855.51 1857.79 1858.08Z" fill="#2563EB"/>
<path d="M1859.14 1908.44C1847.78 1910.91 1836.03 1910.91 1824.67 1908.44C1836.03 1905.97 1847.78 1905.97 1859.14 1908.44Z" fill="#2563EB"/>
<path d="M1859.14 1965.43C1847.78 1967.9 1836.03 1967.9 1824.67 1965.43C1836.03 1962.96 1847.78 1962.96 1859.14 1965.43Z" fill="#2563EB"/>
<path d="M2173.29 1962.79C2173.29 1963.79 2115.73 1964.64 2045.07 1964.64C1974.4 1964.64 1916.49 1963.79 1916.49 1962.79C1916.49 1961.79 1974.05 1960.94 2045.07 1960.94C2116.09 1960.94 2173.29 1961.72 2173.29 1962.79Z" fill="#263238"/>
<path d="M2150.78 1908.44C2150.78 1909.44 2095.86 1910.29 2028.18 1910.29C1960.51 1910.29 1905.52 1909.44 1905.52 1908.44C1905.52 1907.44 1960.44 1906.59 2028.18 1906.59C2095.93 1906.59 2150.78 1907.37 2150.78 1908.44Z" fill="#263238"/>
<path d="M2743.3 1855.37C2743.3 1856.44 2556.38 1857.22 2325.8 1857.22C2095.21 1857.22 1908.15 1856.44 1908.15 1855.37C1908.15 1854.3 2095.07 1853.52 2325.8 1853.52C2556.53 1853.52 2743.3 1854.44 2743.3 1855.37Z" fill="#263238"/>
<path d="M2451.46 205.44H1879.16V1188.47H2451.46V205.44Z" fill="#FAFAFA"/>
<path d="M2451.46 1188.47C2451.46 1188.47 2451.46 1186.84 2451.46 1183.63C2451.46 1180.42 2451.46 1175.79 2451.46 1169.38C2451.46 1156.99 2451.46 1138.82 2451.46 1115.24C2451.46 1068.02 2451.46 999.133 2451.03 912.227C2451.03 738.558 2450.53 493.084 2450.18 205.155L2451.89 206.865H1879.66L1881.51 205.013C1881.51 580.061 1881.51 924.052 1881.16 1188.05L1879.66 1186.62L2297.09 1187.41L2411.64 1187.76H2441.63H2451.96H2441.91H2412.21H2298.23L1879.87 1188.54H1878.45V1187.12C1878.45 923.126 1878.45 579.135 1878.02 204.086V202.234H1879.94H2452.17H2453.88V203.944C2453.52 492.301 2453.24 738.202 2453.02 912.156C2453.02 998.919 2452.67 1067.66 2452.6 1114.82C2452.6 1138.25 2452.6 1156.28 2452.6 1168.6C2452.6 1174.58 2452.6 1179.21 2452.6 1182.35C2452.6 1185.48 2451.46 1188.47 2451.46 1188.47Z" fill="#263238"/>
<path d="M1919.55 260.362C1925.96 260.362 1931.16 255.164 1931.16 248.751C1931.16 242.338 1925.96 237.14 1919.55 237.14C1913.14 237.14 1907.94 242.338 1907.94 248.751C1907.94 255.164 1913.14 260.362 1919.55 260.362Z" fill="#263238"/>
<path d="M1961.51 260.362C1967.92 260.362 1973.12 255.164 1973.12 248.751C1973.12 242.338 1967.92 237.14 1961.51 237.14C1955.1 237.14 1949.9 242.338 1949.9 248.751C1949.9 255.164 1955.1 260.362 1961.51 260.362Z" fill="#263238"/>
<path d="M2015.08 248.75C2015.13 251.058 2014.5 253.33 2013.26 255.277C2012.02 257.223 2010.23 258.756 2008.11 259.678C2005.99 260.601 2003.65 260.872 2001.38 260.457C1999.11 260.041 1997.01 258.959 1995.36 257.347C1993.71 255.735 1992.57 253.667 1992.1 251.407C1991.63 249.147 1991.84 246.798 1992.71 244.66C1993.58 242.522 1995.07 240.691 1996.99 239.402C1998.9 238.113 2001.16 237.425 2003.47 237.424C2006.5 237.423 2009.41 238.607 2011.58 240.723C2013.75 242.84 2015 245.72 2015.08 248.75Z" fill="#263238"/>
<path d="M2294.17 516.805C2294.17 517.874 2221.58 518.658 2132.11 518.658C2042.64 518.658 1970.13 517.874 1970.13 516.805C1970.13 515.737 2042.64 515.238 2132.19 515.238C2221.73 515.238 2294.17 515.808 2294.17 516.805Z" fill="#2563EB"/>
<path d="M2361.7 595.519C2361.7 596.588 2273.44 597.371 2164.53 597.371C2055.61 597.371 1967.35 596.588 1967.35 595.519C1967.35 594.451 2055.61 593.667 2164.53 593.667C2273.44 593.667 2361.7 594.522 2361.7 595.519Z" fill="#2563EB"/>
<path d="M2377.8 889.218C2377.8 890.287 2283.63 891.07 2167.52 891.07C2051.41 891.07 1957.3 890.287 1957.3 889.218C1957.3 888.15 2051.41 887.366 2167.52 887.366C2283.63 887.366 2377.8 888.221 2377.8 889.218Z" fill="#2563EB"/>
<path d="M2000.47 635.553C1987.24 638.023 1973.67 638.023 1960.44 635.553C1973.67 633.083 1987.24 633.083 2000.47 635.553Z" fill="#2563EB"/>
<path d="M2138.6 636.336C2109.66 638.806 2080.56 638.806 2051.62 636.336C2080.56 633.867 2109.66 633.867 2138.6 636.336Z" fill="#2563EB"/>
<path d="M2226.93 636.337C2202.15 638.806 2177.19 638.806 2152.42 636.337C2177.19 633.867 2202.15 633.867 2226.93 636.337Z" fill="#2563EB"/>
<path d="M1994.99 686.7C1983.6 689.169 1971.82 689.169 1960.44 686.7C1971.82 684.23 1983.6 684.23 1994.99 686.7Z" fill="#2563EB"/>
<path d="M1996.34 739.128C1984.59 741.558 1972.47 741.558 1960.72 739.128C1972.47 736.697 1984.59 736.697 1996.34 739.128Z" fill="#2563EB"/>
<path d="M1996.34 798.537C1984.59 800.967 1972.47 800.967 1960.72 798.537C1972.47 796.106 1984.59 796.106 1996.34 798.537Z" fill="#2563EB"/>
<path d="M2323.59 795.758C2323.59 796.756 2263.61 797.61 2189.67 797.61C2115.73 797.61 2055.75 796.756 2055.75 795.758C2055.75 794.761 2115.66 793.906 2189.67 793.906C2263.68 793.906 2323.59 794.761 2323.59 795.758Z" fill="#2563EB"/>
<path d="M2300.16 739.127C2300.16 740.196 2243.17 740.98 2172.43 740.98C2101.7 740.98 2044.71 740.196 2044.71 739.127C2044.71 738.059 2101.7 737.275 2172.43 737.275C2243.17 737.275 2300.16 738.13 2300.16 739.127Z" fill="#2563EB"/>
<path d="M2022.48 967.647C2010.74 970.078 1998.62 970.078 1986.87 967.647C1998.62 965.217 2010.74 965.217 2022.48 967.647Z" fill="#2563EB"/>
<path d="M2022.48 1026.99C2010.74 1029.42 1998.62 1029.42 1986.87 1026.99C1998.62 1024.56 2010.74 1024.56 2022.48 1026.99Z" fill="#2563EB"/>
<path d="M2349.74 1024.28C2349.74 1025.28 2289.76 1026.13 2215.81 1026.13C2141.87 1026.13 2081.89 1025.28 2081.89 1024.28C2081.89 1023.28 2141.8 1022.43 2215.81 1022.43C2289.83 1022.43 2349.74 1023.21 2349.74 1024.28Z" fill="#2563EB"/>
<path d="M2326.3 967.647C2326.3 968.644 2269.31 969.499 2198.57 969.499C2127.84 969.499 2070.85 968.644 2070.85 967.647C2070.85 966.65 2127.84 965.795 2198.57 965.795C2269.31 965.795 2326.3 966.65 2326.3 967.647Z" fill="#2563EB"/>
<path d="M2395.11 683.92C2395.11 684.918 2317.25 685.773 2221.3 685.773C2125.35 685.773 2047.42 684.918 2047.42 683.92C2047.42 682.923 2125.28 682.068 2221.3 682.068C2317.32 682.068 2395.11 682.923 2395.11 683.92Z" fill="#2563EB"/>
<path d="M2446.04 294.412C2446.04 295.48 2320.39 296.264 2165.45 296.264C2010.52 296.264 1884.79 295.48 1884.79 294.412C1884.79 293.343 2010.45 292.56 2165.45 292.56C2320.46 292.56 2446.04 293.129 2446.04 294.412Z" fill="#263238"/>
<path d="M2088.45 469.364C2068.75 471.199 2048.96 471.817 2029.18 471.216C2009.41 471.815 1989.61 471.196 1969.91 469.364C1989.61 467.531 2009.41 466.913 2029.18 467.511C2048.96 466.91 2068.75 467.529 2088.45 469.364Z" fill="#2563EB"/>
<path d="M2021.34 362.013C2002.81 364.483 1984.03 364.483 1965.5 362.013C1984.03 359.544 2002.81 359.544 2021.34 362.013Z" fill="#2563EB"/>
<path d="M2328.79 3079.67H1335.43L1463.65 2382.57C1465.84 2370.58 1472.16 2359.74 1481.52 2351.93C1490.88 2344.12 1502.68 2339.84 1514.87 2339.83H2407.44C2415.11 2339.83 2422.69 2341.53 2429.63 2344.79C2436.57 2348.06 2442.7 2352.82 2447.59 2358.74C2452.48 2364.65 2455.99 2371.57 2457.9 2379.01C2459.8 2386.44 2460.03 2394.2 2458.58 2401.74L2328.79 3079.67Z" fill="#455A64"/>
<path d="M1335.43 3079.67H958.672L960.239 3078.53C993.835 3053.31 1034.43 3039.12 1076.42 3037.93L1345.83 3029.81L1335.43 3079.67Z" fill="#455A64"/>
<path d="M1574.06 2340.48C1574.06 2340.48 1571.29 2339.98 1566.02 2339.91C1558.33 2340.01 1550.77 2341.88 1543.93 2345.39C1533.11 2350.89 1523.98 2359.21 1517.5 2369.47C1509.3 2383.34 1503.79 2398.64 1501.26 2414.56C1497.99 2432.15 1495.14 2451.74 1491.65 2472.61C1488.16 2493.49 1484.52 2515.85 1479.82 2539.22C1471.2 2586.09 1460.94 2637.45 1449.76 2691.3C1427.32 2798.94 1406.59 2896.32 1392.77 2967.05C1385.65 3002.67 1380.66 3031.16 1377.1 3050.89C1375.32 3060.58 1373.97 3068.28 1372.97 3073.76L1371.76 3079.67C1371.66 3080.35 1371.49 3081.02 1371.26 3081.67C1371.18 3080.98 1371.18 3080.29 1371.26 3079.6C1371.26 3078.04 1371.76 3076.04 1372.04 3073.62L1375.53 3050.68C1378.67 3030.74 1383.58 3002.03 1389.78 2966.55C1402.67 2895.68 1423.05 2798.16 1445.49 2690.52C1456.67 2636.74 1466.86 2585.38 1475.83 2538.58C1480.32 2515.21 1484.24 2492.92 1487.94 2472.12C1491.65 2451.32 1494.57 2431.8 1498.06 2413.99C1500.76 2397.82 1506.54 2382.32 1515.08 2368.33C1521.91 2357.91 1531.44 2349.54 1542.65 2344.11C1549.71 2340.65 1557.51 2338.96 1565.37 2339.19C1568.32 2339.2 1571.25 2339.63 1574.06 2340.48Z" fill="#263238"/>
<path d="M1993.56 2693.73C1993.58 2703.24 1990.77 2712.55 1985.49 2720.47C1980.21 2728.38 1972.7 2734.56 1963.92 2738.21C1955.13 2741.85 1945.45 2742.81 1936.12 2740.96C1926.78 2739.11 1918.21 2734.53 1911.48 2727.8C1904.75 2721.07 1900.17 2712.49 1898.32 2703.16C1896.47 2693.83 1897.42 2684.15 1901.07 2675.36C1904.72 2666.57 1910.89 2659.07 1918.81 2653.79C1926.73 2648.51 1936.04 2645.7 1945.55 2645.71C1951.86 2645.71 1958.1 2646.96 1963.93 2649.37C1969.75 2651.78 1975.04 2655.32 1979.5 2659.78C1983.96 2664.23 1987.5 2669.53 1989.91 2675.35C1992.32 2681.18 1993.56 2687.42 1993.56 2693.73Z" fill="#F5F5F5"/>
<path d="M3238.6 3079.67C3238.6 3080.74 2513.57 3081.53 1619.37 3081.53C725.165 3081.53 0 3080.39 0 3079.67C0 3078.96 724.88 3077.82 1619.37 3077.82C2513.86 3077.82 3238.6 3078.32 3238.6 3079.67Z" fill="#263238"/>
<path d="M3162.02 2566.79C3162.02 2566.79 3162.02 2566.22 3161.38 2565.22L3159.03 2560.87C3156.82 2557.03 3153.47 2551.54 3148.7 2544.77C3135.2 2525.45 3117.89 2509.08 3097.84 2496.69C3083.87 2488.15 3068.35 2482.44 3052.18 2479.88C3033.48 2477.17 3014.41 2479.18 2996.69 2485.72C2976.9 2492.6 2960.13 2506.15 2949.24 2524.05C2938.34 2543.14 2935 2565.5 2928.44 2586.8C2925.48 2597.36 2921.02 2607.43 2915.19 2616.72C2909.06 2625.4 2901.44 2632.92 2892.68 2638.95C2884.14 2645.22 2875.3 2650.84 2867.25 2657.47C2859.34 2663.9 2852.38 2671.44 2846.59 2679.84C2836 2695.4 2828.73 2712.98 2825.22 2731.48C2822.17 2747.46 2821.23 2763.77 2822.45 2779.99C2824.36 2803.34 2828.51 2826.46 2834.84 2849.02C2836.91 2857.07 2838.69 2863.26 2839.9 2867.4C2840.45 2869.56 2841.16 2871.68 2842.04 2873.74C2841.71 2871.53 2841.26 2869.34 2840.68 2867.18C2839.61 2862.62 2838.12 2856.5 2836.27 2848.66C2830.57 2826.09 2826.86 2803.06 2825.15 2779.85C2824.12 2763.87 2825.2 2747.82 2828.36 2732.12C2831.87 2714.11 2838.99 2697.01 2849.3 2681.83C2854.96 2673.79 2861.72 2666.6 2869.39 2660.46C2877.23 2654.05 2886.06 2648.49 2894.68 2642.15C2903.8 2635.89 2911.75 2628.07 2918.19 2619.07C2924.27 2609.47 2928.97 2599.07 2932.15 2588.16C2938.56 2566.43 2942.12 2544.42 2952.52 2526.18C2962.82 2508.77 2978.9 2495.54 2997.97 2488.78C3015.09 2482.34 3033.56 2480.28 3051.68 2482.8C3067.49 2485.15 3082.68 2490.58 3096.41 2498.76C3116.33 2510.79 3133.68 2526.62 3147.49 2545.34C3152.4 2551.97 3155.97 2557.31 3158.32 2560.95C3159.43 2562.97 3160.67 2564.92 3162.02 2566.79Z" fill="#E0E0E0"/>
<path d="M2882.71 2645.14C2888.55 2639.73 2891.4 2643.51 2899.31 2645.14C2907.21 2646.87 2914.56 2650.54 2920.68 2655.83C2934.22 2667 2944.19 2681.89 2949.37 2698.66C2954.55 2715.43 2954.7 2733.36 2949.81 2750.21C2937.2 2750.82 2924.65 2748.01 2913.5 2742.09C2902.34 2736.17 2892.99 2727.34 2886.43 2716.55C2879.87 2705.76 2876.33 2693.4 2876.21 2680.77C2876.08 2668.14 2879.36 2655.71 2885.7 2644.79" fill="#E0E0E0"/>
<path d="M3124.34 2534.8C3127.33 2527.32 3131.46 2529.53 3139.3 2527.68C3147.16 2525.83 3155.37 2525.97 3163.16 2528.11C3180.19 2532.36 3195.6 2541.51 3207.49 2554.42C3219.37 2567.33 3227.22 2583.44 3230.05 2600.77C3218.92 2606.82 3206.36 2609.75 3193.71 2609.25C3181.05 2608.76 3168.76 2604.84 3158.14 2597.93C3147.53 2591.01 3138.98 2581.36 3133.4 2569.98C3127.83 2558.6 3125.43 2545.93 3126.47 2533.31" fill="#E0E0E0"/>
<path d="M2829.43 2793.67C2837.47 2784.37 2847.52 2777.03 2858.82 2772.2C2870.12 2767.36 2882.38 2765.16 2894.65 2765.76C2906.93 2766.35 2918.91 2769.73 2929.69 2775.64C2940.47 2781.55 2949.76 2789.84 2956.86 2799.86C2938.76 2816.34 2915.24 2825.62 2890.76 2825.94C2866.06 2825.29 2842.43 2815.72 2824.23 2799.01" fill="#E0E0E0"/>
<path d="M2849.3 2682.47C2836.96 2682.87 2824.69 2680.47 2813.4 2675.46C2802.11 2670.46 2792.1 2662.97 2784.11 2653.55C2776.12 2644.14 2770.35 2633.04 2767.25 2621.09C2764.14 2609.14 2763.77 2596.64 2766.17 2584.52C2779.09 2581.59 2792.56 2582.19 2805.16 2586.27C2817.77 2590.35 2829.04 2597.75 2837.79 2607.7C2846.54 2617.64 2852.45 2629.77 2854.89 2642.79C2857.33 2655.81 2856.21 2669.25 2851.65 2681.69" fill="#E0E0E0"/>
<path d="M2934.36 2551.83C2922.85 2556.27 2910.48 2558.06 2898.19 2557.06C2885.89 2556.06 2873.98 2552.31 2863.33 2546.07C2852.69 2539.84 2843.59 2531.28 2836.71 2521.04C2829.82 2510.8 2825.34 2499.14 2823.59 2486.93C2834.8 2479.86 2847.71 2475.95 2860.96 2475.59C2874.21 2475.24 2887.31 2478.47 2898.88 2484.94C2910.45 2491.41 2920.07 2500.87 2926.71 2512.34C2933.35 2523.81 2936.78 2536.86 2936.63 2550.12" fill="#E0E0E0"/>
<path d="M2962.85 2509.16C2974.35 2504.73 2986.71 2502.95 2998.99 2503.95C3011.28 2504.95 3023.19 2508.7 3033.82 2514.93C3044.46 2521.15 3053.57 2529.69 3060.45 2539.92C3067.34 2550.14 3071.84 2561.78 3073.62 2573.98C3062.41 2581.08 3049.49 2585.01 3036.23 2585.38C3022.97 2585.74 3009.86 2582.51 2998.28 2576.04C2986.7 2569.57 2977.09 2560.09 2970.45 2548.61C2963.81 2537.12 2960.4 2524.06 2960.57 2510.8" fill="#E0E0E0"/>
<path d="M2996.83 2486.15C2985.15 2482.2 2974.51 2475.67 2965.69 2467.05C2956.88 2458.42 2950.13 2447.92 2945.93 2436.33C2941.74 2424.74 2940.21 2412.34 2941.46 2400.08C2942.71 2387.81 2946.71 2375.99 2953.16 2365.48C2966.34 2367.18 2978.82 2372.42 2989.27 2380.64C2999.72 2388.86 3007.76 2399.75 3012.52 2412.16C3017.29 2424.57 3018.61 2438.04 3016.35 2451.14C3014.09 2464.24 3008.33 2476.48 2999.68 2486.58" fill="#E0E0E0"/>
<path d="M3083.95 2490.35C3079.75 2478.77 3078.2 2466.39 3079.44 2454.13C3080.67 2441.87 3084.65 2430.04 3091.07 2419.53C3097.49 2409.01 3106.2 2400.08 3116.55 2393.38C3126.89 2386.69 3138.61 2382.41 3150.84 2380.86C3157.71 2392.21 3161.38 2405.2 3161.48 2418.46C3161.58 2431.72 3158.1 2444.76 3151.4 2456.21C3144.71 2467.66 3135.04 2477.08 3123.43 2483.49C3111.82 2489.9 3098.7 2493.06 3085.44 2492.63" fill="#E0E0E0"/>
<path d="M2732.83 3079.1L2686.46 2787.83L3042.06 2792.17L3007.01 3075.26" fill="#263238"/>
<path d="M2886.27 2734.61C2894.86 2740.43 2904.81 2743.94 2915.15 2744.82C2925.49 2745.69 2935.88 2743.89 2945.32 2739.6C2954.48 2734.4 2962.21 2727.03 2967.84 2718.13C2973.46 2709.24 2976.82 2699.09 2977.59 2688.6C2968.64 2683.73 2958.71 2680.93 2948.54 2680.4C2938.36 2679.88 2928.2 2681.64 2918.79 2685.55C2909.38 2689.47 2900.97 2695.44 2894.17 2703.03C2887.37 2710.62 2882.36 2719.63 2879.5 2729.41" fill="#2563EB"/>
<path d="M3048.83 2797.37C3057.43 2803.17 3067.37 2806.67 3077.71 2807.54C3088.04 2808.41 3098.43 2806.63 3107.88 2802.36C3117.03 2797.16 3124.76 2789.79 3130.39 2780.89C3136.02 2772 3139.37 2761.85 3140.15 2751.35C3131.2 2746.47 3121.27 2743.66 3111.09 2743.13C3100.91 2742.6 3090.74 2744.35 3081.33 2748.27C3071.92 2752.19 3063.5 2758.16 3056.71 2765.76C3049.91 2773.36 3044.91 2782.38 3042.06 2792.17" fill="#2563EB"/>
<path d="M2957.58 2657.25C2961.55 2666.84 2967.92 2675.25 2976.08 2681.66C2984.24 2688.07 2993.91 2692.28 3004.16 2693.87C3014.67 2694.6 3025.2 2692.7 3034.79 2688.37C3044.39 2684.03 3052.76 2677.38 3059.16 2669.01C3054.13 2660.18 3047.3 2652.52 3039.11 2646.5C3030.93 2640.49 3021.57 2636.27 3011.64 2634.1C3001.62 2632.43 2991.35 2632.91 2981.52 2635.52C2971.7 2638.12 2962.54 2642.79 2954.66 2649.2" fill="#2563EB"/>
<path d="M3016.92 2729.84C3006.56 2729.32 2996.24 2731.46 2986.95 2736.06C2977.66 2740.66 2969.71 2747.57 2963.85 2756.13C2958.71 2765.31 2955.91 2775.62 2955.7 2786.14C2955.49 2796.67 2957.87 2807.08 2962.64 2816.46C2972.79 2815.99 2982.72 2813.25 2991.68 2808.45C3000.64 2803.65 3008.42 2796.9 3014.44 2788.71C3020.46 2780.52 3024.58 2771.08 3026.49 2761.09C3028.39 2751.11 3028.04 2740.82 3025.46 2730.98" fill="#2563EB"/>
<path d="M3074.19 2844.6C3069.35 2853.78 3066.94 2864.05 3067.19 2874.42C3067.44 2884.79 3070.34 2894.93 3075.61 2903.87C3081.77 2912.41 3089.94 2919.3 3099.4 2923.93C3108.85 2928.57 3119.3 2930.8 3129.82 2930.44C3133.42 2920.93 3134.98 2910.77 3134.41 2900.63C3133.83 2890.48 3131.13 2880.56 3126.47 2871.53C3117.14 2854.57 3100.26 2846.17 3079.18 2841.32" fill="#2563EB"/>
<path d="M3168.72 2857.99C3164.61 2854.09 3159.77 2851.03 3154.47 2849.02C3148.26 2846.85 3141.74 2845.72 3135.17 2845.67C3126.41 2845.66 3117.65 2846.16 3108.95 2847.16C3098.1 2848.56 3087.07 2847.61 3076.61 2844.39C3064.71 2839.59 3055.16 2830.33 3049.97 2818.6C3044.31 2806.1 3040.42 2792.86 3038.43 2779.28C3036.5 2765.08 3031.86 2751.4 3024.75 2738.96C3016.34 2727.29 3006.2 2716.96 2994.69 2708.33C2983.85 2700 2974.25 2690.17 2966.2 2679.12C2953.42 2659.32 2948.35 2635.52 2951.95 2612.23C2954.11 2596.75 2960.11 2582.06 2969.4 2569.49C2971.95 2566.1 2974.81 2562.95 2977.95 2560.09C2980.02 2558.1 2981.23 2557.1 2981.3 2557.24C2980.46 2558.47 2979.5 2559.61 2978.45 2560.66C2975.63 2563.71 2973.01 2566.95 2970.61 2570.35C2961.91 2583.09 2956.44 2597.76 2954.66 2613.09C2951.46 2635.62 2956.52 2658.54 2968.9 2677.63C2977.02 2688.41 2986.61 2698.01 2997.4 2706.12C3009.24 2714.94 3019.66 2725.51 3028.31 2737.46C3035.69 2750.34 3040.52 2764.51 3042.56 2779.21C3044.46 2792.47 3048.15 2805.41 3053.53 2817.67C3058.28 2828.68 3067.11 2837.42 3078.18 2842.04C3088.18 2845.23 3098.74 2846.27 3109.16 2845.1C3117.97 2844.23 3126.82 2843.9 3135.66 2844.1C3142.45 2844.36 3149.14 2845.76 3155.47 2848.23C3159.45 2849.91 3163.07 2852.33 3166.15 2855.36C3166.96 2856.1 3167.69 2856.91 3168.36 2857.78C3168.57 2857.64 3168.79 2857.92 3168.72 2857.99Z" fill="#2563EB"/>
<path d="M3168.72 2857.99C3164.61 2854.09 3159.77 2851.03 3154.47 2849.02C3148.26 2846.85 3141.74 2845.72 3135.17 2845.67C3126.41 2845.66 3117.65 2846.16 3108.95 2847.16C3098.1 2848.56 3087.07 2847.61 3076.61 2844.39C3064.71 2839.59 3055.16 2830.33 3049.97 2818.6C3044.31 2806.1 3040.42 2792.86 3038.43 2779.28C3036.5 2765.08 3031.86 2751.4 3024.75 2738.96C3016.34 2727.29 3006.2 2716.96 2994.69 2708.33C2983.85 2700 2974.25 2690.17 2966.2 2679.12C2953.42 2659.32 2948.35 2635.52 2951.95 2612.23C2954.11 2596.75 2960.11 2582.06 2969.4 2569.49C2971.95 2566.1 2974.81 2562.95 2977.95 2560.09C2980.02 2558.1 2981.23 2557.1 2981.3 2557.24C2980.46 2558.47 2979.5 2559.61 2978.45 2560.66C2975.63 2563.71 2973.01 2566.95 2970.61 2570.35C2961.91 2583.09 2956.44 2597.76 2954.66 2613.09C2951.46 2635.62 2956.52 2658.54 2968.9 2677.63C2977.02 2688.41 2986.61 2698.01 2997.4 2706.12C3009.24 2714.94 3019.66 2725.51 3028.31 2737.46C3035.69 2750.34 3040.52 2764.51 3042.56 2779.21C3044.46 2792.47 3048.15 2805.41 3053.53 2817.67C3058.28 2828.68 3067.11 2837.42 3078.18 2842.04C3088.18 2845.23 3098.74 2846.27 3109.16 2845.1C3117.97 2844.23 3126.82 2843.9 3135.66 2844.1C3142.45 2844.36 3149.14 2845.76 3155.47 2848.23C3159.45 2849.91 3163.07 2852.33 3166.15 2855.36C3166.96 2856.1 3167.69 2856.91 3168.36 2857.78C3168.57 2857.64 3168.79 2857.92 3168.72 2857.99Z" fill="#2563EB"/>
<path d="M2489.85 2887.84C2490.62 2872.91 2487.64 2858.02 2481.21 2844.53C2474.77 2831.04 2465.06 2819.37 2452.98 2810.57C2440.89 2801.77 2426.8 2796.12 2411.98 2794.14C2397.16 2792.16 2382.09 2793.91 2368.11 2799.22C2378.69 2822.77 2395.16 2843.2 2415.94 2858.52C2436.72 2873.84 2461.09 2883.55 2486.72 2886.7" fill="#2563EB"/>
<path d="M2466.42 2900.23C2449.04 2919.32 2450.11 2950.1 2462.57 2972.68C2475.04 2995.26 2496.41 3011.43 2517.85 3025.75C2525.13 3001.2 2524.16 2974.95 2515.07 2951.01C2505.99 2927.07 2489.29 2906.78 2467.56 2893.25" fill="#2563EB"/>
<path d="M2550.62 2810.69C2551.99 2824.64 2556.18 2838.17 2562.93 2850.46C2569.67 2862.74 2578.84 2873.54 2589.86 2882.19C2600.89 2890.85 2613.56 2897.18 2627.1 2900.8C2640.64 2904.43 2654.77 2905.28 2668.65 2903.3C2661.88 2875.3 2650.63 2847.16 2629.04 2828.22C2607.46 2809.27 2573.41 2802.14 2549.55 2818.1" fill="#2563EB"/>
<path d="M2550.12 2782.13C2545.7 2756.7 2520.63 2738.25 2494.91 2735.82C2469.2 2733.4 2443.84 2744.44 2423.18 2759.97C2438.78 2777.87 2460.63 2789.14 2484.27 2791.47C2507.9 2793.8 2531.53 2787.02 2550.33 2772.51" fill="#2563EB"/>
<path d="M2417.62 2998.54C2393.19 3019.41 2387.06 3056.52 2397.25 3087.01C2407.44 3117.5 2431.16 3141.79 2457.87 3159.6C2468.13 3129.39 2474.54 3096.98 2469.12 3065.57C2463.71 3034.15 2444.76 3003.81 2415.56 2990.99" fill="#2563EB"/>
<path d="M2546.13 2710.75C2552.58 2701.23 2561.14 2693.32 2571.13 2687.63C2581.13 2681.94 2592.3 2678.62 2603.78 2677.93C2615.26 2677.24 2626.75 2679.2 2637.36 2683.66C2647.96 2688.11 2657.4 2694.95 2664.95 2703.63C2659.97 2714.81 2651.92 2724.35 2641.74 2731.15C2631.56 2737.95 2619.67 2741.73 2607.43 2742.05C2595.19 2742.37 2583.11 2739.22 2572.59 2732.96C2562.07 2726.71 2553.54 2717.6 2547.98 2706.69" fill="#2563EB"/>
<path d="M2576.05 2637.38C2562.85 2641.39 2548.96 2642.55 2535.28 2640.8C2521.61 2639.04 2508.46 2634.41 2496.71 2627.2C2484.95 2619.99 2474.86 2610.37 2467.1 2598.97C2459.34 2587.58 2454.08 2574.66 2451.67 2561.09C2471.21 2558.81 2490.97 2559.09 2510.44 2561.94C2530 2564.95 2548.15 2573.9 2562.44 2587.59C2568.88 2593.97 2573.53 2601.94 2575.92 2610.7C2578.31 2619.45 2578.35 2628.68 2576.05 2637.45" fill="#2563EB"/>
<path d="M2632.46 2618.43C2623.36 2610.98 2616.01 2601.61 2610.95 2590.99C2605.89 2580.37 2603.25 2568.77 2603.2 2557C2603.15 2545.24 2605.7 2533.61 2610.68 2522.95C2615.65 2512.29 2622.92 2502.86 2631.96 2495.34C2649.61 2516.82 2661.59 2542.39 2666.8 2569.71C2669.36 2579.8 2669.36 2590.38 2666.8 2600.48C2665.4 2605.46 2662.68 2609.97 2658.91 2613.53C2655.15 2617.08 2650.49 2619.54 2645.43 2620.64" fill="#2563EB"/>
<g opacity="0.4">
<path d="M2489.85 2887.84C2490.62 2872.91 2487.64 2858.02 2481.21 2844.53C2474.77 2831.04 2465.06 2819.37 2452.98 2810.57C2440.89 2801.77 2426.8 2796.12 2411.98 2794.14C2397.16 2792.16 2382.09 2793.91 2368.11 2799.22C2378.69 2822.77 2395.16 2843.2 2415.94 2858.52C2436.72 2873.84 2461.09 2883.55 2486.72 2886.7" fill="black"/>
</g>
<g opacity="0.4">
<path d="M2466.42 2900.23C2449.04 2919.32 2450.11 2950.1 2462.57 2972.68C2475.04 2995.26 2496.41 3011.43 2517.85 3025.75C2525.13 3001.2 2524.16 2974.95 2515.07 2951.01C2505.99 2927.07 2489.29 2906.78 2467.56 2893.25" fill="black"/>
</g>
<g opacity="0.4">
<path d="M2550.62 2810.69C2551.99 2824.64 2556.18 2838.17 2562.93 2850.46C2569.67 2862.74 2578.84 2873.54 2589.86 2882.19C2600.89 2890.85 2613.56 2897.18 2627.1 2900.8C2640.64 2904.43 2654.77 2905.28 2668.65 2903.3C2661.88 2875.3 2650.63 2847.16 2629.04 2828.22C2607.46 2809.27 2573.41 2802.14 2549.55 2818.1" fill="black"/>
</g>
<g opacity="0.4">
<path d="M2550.12 2782.13C2545.7 2756.7 2520.63 2738.25 2494.91 2735.82C2469.2 2733.4 2443.84 2744.44 2423.18 2759.97C2438.78 2777.87 2460.63 2789.14 2484.27 2791.47C2507.9 2793.8 2531.53 2787.02 2550.33 2772.51" fill="black"/>
</g>
<g opacity="0.4">
<path d="M2417.62 2998.54C2393.19 3019.41 2387.06 3056.52 2397.25 3087.01C2407.44 3117.5 2431.16 3141.79 2457.87 3159.6C2468.13 3129.39 2474.54 3096.98 2469.12 3065.57C2463.71 3034.15 2444.76 3003.81 2415.56 2990.99" fill="black"/>
</g>
<g opacity="0.4">
<path d="M2546.13 2710.75C2552.58 2701.23 2561.14 2693.32 2571.13 2687.63C2581.13 2681.94 2592.3 2678.62 2603.78 2677.93C2615.26 2677.24 2626.75 2679.2 2637.36 2683.66C2647.96 2688.11 2657.4 2694.95 2664.95 2703.63C2659.97 2714.81 2651.92 2724.35 2641.74 2731.15C2631.56 2737.95 2619.67 2741.73 2607.43 2742.05C2595.19 2742.37 2583.11 2739.22 2572.59 2732.96C2562.07 2726.71 2553.54 2717.6 2547.98 2706.69" fill="black"/>
</g>
<g opacity="0.4">
<path d="M2576.05 2637.38C2562.85 2641.39 2548.96 2642.55 2535.28 2640.8C2521.61 2639.04 2508.46 2634.41 2496.71 2627.2C2484.95 2619.99 2474.86 2610.37 2467.1 2598.97C2459.34 2587.58 2454.08 2574.66 2451.67 2561.09C2471.21 2558.81 2490.97 2559.09 2510.44 2561.94C2530 2564.95 2548.15 2573.9 2562.44 2587.59C2568.88 2593.97 2573.53 2601.94 2575.92 2610.7C2578.31 2619.45 2578.35 2628.68 2576.05 2637.45" fill="black"/>
</g>
<g opacity="0.4">
<path d="M2632.46 2618.43C2623.36 2610.98 2616.01 2601.61 2610.95 2590.99C2605.89 2580.37 2603.25 2568.77 2603.2 2557C2603.15 2545.24 2605.7 2533.61 2610.68 2522.95C2615.65 2512.29 2622.92 2502.86 2631.96 2495.34C2649.61 2516.82 2661.59 2542.39 2666.8 2569.71C2669.36 2579.8 2669.36 2590.38 2666.8 2600.48C2665.4 2605.46 2662.68 2609.97 2658.91 2613.53C2655.15 2617.08 2650.49 2619.54 2645.43 2620.64" fill="black"/>
</g>
<path d="M2729.98 2797.23C2729.89 2796.54 2729.89 2795.85 2729.98 2795.16C2729.98 2793.67 2729.98 2791.74 2730.34 2789.32C2730.34 2784.19 2731.2 2776.57 2731.34 2766.81C2732.51 2739.27 2728.03 2711.78 2718.16 2686.03C2710.94 2668.51 2699.8 2652.86 2685.61 2640.3C2669.34 2625.87 2648.22 2618.11 2626.48 2618.57C2614.87 2618.7 2603.45 2621.55 2593.14 2626.91C2582.48 2632.61 2573.56 2641.11 2567.36 2651.48C2554.46 2672.85 2551.26 2699.5 2552.4 2725.78C2553.54 2752.07 2557.1 2778.49 2554.18 2804.14C2552.85 2816.66 2549.56 2828.9 2544.42 2840.4C2539.52 2851.51 2532.02 2861.28 2522.55 2868.89C2513.29 2875.64 2503.02 2880.91 2492.13 2884.49C2482.22 2887.87 2472.68 2892.24 2463.64 2897.53C2447.58 2907.55 2434.55 2921.76 2425.96 2938.63C2418.85 2952.55 2415.12 2967.95 2415.06 2983.58C2415 2995.4 2416.93 3007.15 2420.76 3018.34C2424.18 3027.83 2428.7 3036.89 2434.22 3045.34C2434.22 3045.34 2433.72 3044.84 2432.94 3043.84C2432.15 3042.85 2430.87 3041.21 2429.52 3039.07C2425.33 3032.76 2421.91 3025.97 2419.33 3018.84C2415.18 3007.54 2413.01 2995.61 2412.92 2983.58C2412.74 2967.57 2416.38 2951.74 2423.53 2937.42C2432.15 2919.88 2445.47 2905.09 2462 2894.68C2479.6 2882.92 2502.75 2880.07 2520.63 2866.18C2538.51 2852.29 2547.98 2828.07 2550.69 2803.64C2553.39 2779.21 2549.83 2752.85 2548.84 2726C2547.84 2699.14 2550.9 2671.86 2564.44 2649.63C2570.98 2638.65 2580.42 2629.68 2591.72 2623.7C2602.53 2618.09 2614.52 2615.14 2626.69 2615.08C2649.22 2614.8 2671.03 2622.99 2687.81 2638.02C2702.27 2650.97 2713.53 2667.08 2720.72 2685.11C2726.61 2699.89 2730.38 2715.43 2731.91 2731.27C2733.07 2743.1 2733.41 2755 2732.9 2766.88C2732.48 2776.71 2731.77 2784.26 2731.2 2789.39C2731.2 2791.74 2730.7 2793.67 2730.48 2795.23C2730.4 2795.92 2730.23 2796.59 2729.98 2797.23Z" fill="#2563EB"/>
<g opacity="0.4">
<path d="M2729.98 2797.23C2729.89 2796.54 2729.89 2795.85 2729.98 2795.16C2729.98 2793.67 2729.98 2791.74 2730.34 2789.32C2730.34 2784.19 2731.2 2776.57 2731.34 2766.81C2732.51 2739.27 2728.03 2711.78 2718.16 2686.03C2710.94 2668.51 2699.8 2652.86 2685.61 2640.3C2669.34 2625.87 2648.22 2618.11 2626.48 2618.57C2614.87 2618.7 2603.45 2621.55 2593.14 2626.91C2582.48 2632.61 2573.56 2641.11 2567.36 2651.48C2554.46 2672.85 2551.26 2699.5 2552.4 2725.78C2553.54 2752.07 2557.1 2778.49 2554.18 2804.14C2552.85 2816.66 2549.56 2828.9 2544.42 2840.4C2539.52 2851.51 2532.02 2861.28 2522.55 2868.89C2513.29 2875.64 2503.02 2880.91 2492.13 2884.49C2482.22 2887.87 2472.68 2892.24 2463.64 2897.53C2447.58 2907.55 2434.55 2921.76 2425.96 2938.63C2418.85 2952.55 2415.12 2967.95 2415.06 2983.58C2415 2995.4 2416.93 3007.15 2420.76 3018.34C2424.18 3027.83 2428.7 3036.89 2434.22 3045.34C2434.22 3045.34 2433.72 3044.84 2432.94 3043.84C2432.15 3042.85 2430.87 3041.21 2429.52 3039.07C2425.33 3032.76 2421.91 3025.97 2419.33 3018.84C2415.18 3007.54 2413.01 2995.61 2412.92 2983.58C2412.74 2967.57 2416.38 2951.74 2423.53 2937.42C2432.15 2919.88 2445.47 2905.09 2462 2894.68C2479.6 2882.92 2502.75 2880.07 2520.63 2866.18C2538.51 2852.29 2547.98 2828.07 2550.69 2803.64C2553.39 2779.21 2549.83 2752.85 2548.84 2726C2547.84 2699.14 2550.9 2671.86 2564.44 2649.63C2570.98 2638.65 2580.42 2629.68 2591.72 2623.7C2602.53 2618.09 2614.52 2615.14 2626.69 2615.08C2649.22 2614.8 2671.03 2622.99 2687.81 2638.02C2702.27 2650.97 2713.53 2667.08 2720.72 2685.11C2726.61 2699.89 2730.38 2715.43 2731.91 2731.27C2733.07 2743.1 2733.41 2755 2732.9 2766.88C2732.48 2776.71 2731.77 2784.26 2731.2 2789.39C2731.2 2791.74 2730.7 2793.67 2730.48 2795.23C2730.4 2795.92 2730.23 2796.59 2729.98 2797.23Z" fill="black"/>
</g>
<path d="M3247.79 2733.62C3251.08 2725.31 3252.89 2716.48 3253.13 2707.55C3253.18 2697.1 3250.74 2686.79 3246.01 2677.48C3239.66 2665.21 3229.45 2655.37 3216.94 2649.49C3209.79 2646.03 3202.06 2643.93 3194.15 2643.29C3185.51 2642.82 3176.85 2643.85 3168.57 2646.36C3151.12 2650.91 3133.88 2660.6 3113.3 2664.88C3102.72 2667.32 3091.69 2667.05 3081.24 2664.09C3070.35 2660.49 3061.1 2653.11 3055.17 2643.29C3042.7 2623.99 3039.21 2599.84 3024.25 2582.1C3016.77 2573.47 3007.02 2567.11 2996.12 2563.72C2985.53 2560.29 2974.34 2559.15 2963.28 2560.38C2942.15 2562.67 2922.66 2572.84 2908.71 2588.87C2896.08 2603.26 2886.83 2620.3 2881.64 2638.73C2876.86 2654.9 2874.81 2671.75 2875.59 2688.6C2877.02 2712.99 2880.09 2737.27 2884.78 2761.26C2886.2 2769.52 2887.34 2776.07 2888.2 2780.92C2888.2 2782.98 2888.77 2784.69 2888.98 2786.05C2889.06 2786.64 2889.06 2787.24 2888.98 2787.83C2888.69 2787.29 2888.5 2786.72 2888.41 2786.12L2887.27 2781.06L2883.21 2761.47C2877.98 2737.5 2874.57 2713.16 2873.02 2688.67C2872.04 2671.58 2873.96 2654.46 2878.72 2638.02C2883.87 2618.95 2893.27 2601.29 2906.22 2586.38C2913.4 2578.43 2921.82 2571.7 2931.15 2566.43C2941.22 2560.99 2952.27 2557.62 2963.67 2556.53C2975.06 2555.44 2986.55 2556.65 2997.47 2560.09C3009.03 2563.67 3019.37 2570.41 3027.32 2579.54C3043.2 2598.56 3046.55 2622.92 3058.45 2641.23C3063.9 2650.35 3072.44 2657.22 3082.52 2660.6C3092.39 2663.39 3102.8 2663.66 3112.8 2661.39C3132.6 2657.61 3149.98 2647.85 3167.86 2643.22C3176.5 2640.71 3185.52 2639.74 3194.5 2640.37C3205.77 2641.37 3216.6 2645.21 3225.97 2651.54C3235.34 2657.87 3242.94 2666.48 3248.07 2676.56C3252.72 2686.23 3254.95 2696.89 3254.55 2707.62C3254.35 2714.34 3253.05 2720.98 3250.71 2727.28C3250 2729.5 3249.02 2731.63 3247.79 2733.62Z" fill="#2563EB"/>
<path d="M3039.85 2604.61C3049.32 2610.32 3060.02 2613.67 3071.05 2614.39C3082.08 2615.11 3093.12 2613.17 3103.25 2608.74C3112.4 2603.54 3120.14 2596.17 3125.76 2587.28C3131.39 2578.38 3134.74 2568.24 3135.52 2557.74C3126.57 2552.87 3116.64 2550.07 3106.46 2549.55C3096.29 2549.02 3086.12 2550.78 3076.72 2554.69C3067.31 2558.61 3058.9 2564.58 3052.1 2572.17C3045.3 2579.76 3040.29 2588.78 3037.43 2598.56" fill="#2563EB"/>
<path d="M3107.24 2665.73C3107.27 2676.79 3109.95 2687.67 3115.05 2697.48C3120.16 2707.28 3127.55 2715.72 3136.59 2722.08C3145.8 2727.19 3156.13 2729.96 3166.67 2730.14C3177.2 2730.31 3187.62 2727.88 3197 2723.07C3196.48 2712.9 3193.7 2702.97 3188.85 2694.01C3184 2685.05 3177.21 2677.28 3168.98 2671.29C3160.74 2665.29 3151.27 2661.21 3141.25 2659.35C3131.23 2657.49 3120.93 2657.89 3111.09 2660.53" fill="#2563EB"/>
<path d="M3224.21 2652.27C3234.22 2656.95 3245.22 2659.15 3256.26 2658.69C3267.31 2658.23 3278.08 2655.13 3287.68 2649.63C3296.32 2643.51 3303.3 2635.34 3308.02 2625.85C3312.73 2616.37 3315.01 2605.86 3314.68 2595.28C3305.25 2591.4 3295.08 2589.67 3284.91 2590.23C3274.73 2590.79 3264.81 2593.62 3255.87 2598.51C3246.93 2603.4 3239.2 2610.23 3233.24 2618.49C3227.28 2626.76 3223.24 2636.26 3221.43 2646.28" fill="#2563EB"/>
<path d="M2941.62 2564.08C2924.52 2549.4 2913.13 2523.62 2916.4 2504.24C2918.66 2493.95 2923.41 2484.38 2930.25 2476.37C2937.08 2468.35 2945.78 2462.15 2955.58 2458.3C2962.88 2465.41 2968.49 2474.07 2972.01 2483.63C2975.52 2493.2 2976.85 2503.43 2975.89 2513.57C2974.94 2523.72 2971.72 2533.52 2966.48 2542.26C2961.24 2551 2954.11 2558.46 2945.61 2564.08" fill="#2563EB"/>
<path d="M2484.94 2480.38C2484.94 2480.38 2484.94 2479.81 2485.65 2478.81L2488.36 2474.18C2491.49 2468.63 2494.94 2463.25 2498.69 2458.08C2512.16 2438.74 2529.48 2422.37 2549.55 2410C2563.51 2401.44 2579.03 2395.73 2595.21 2393.19C2613.88 2390.52 2632.92 2392.53 2650.63 2399.03C2670.5 2406.27 2687.19 2420.26 2697.79 2438.56C2708.68 2457.58 2712.03 2479.95 2718.59 2501.25C2721.49 2511.85 2725.95 2521.96 2731.84 2531.24C2737.97 2539.89 2745.59 2547.4 2754.35 2553.39C2762.82 2559.66 2771.73 2565.29 2779.78 2571.91C2787.67 2578.35 2794.6 2585.88 2800.36 2594.28C2810.95 2609.85 2818.23 2627.43 2821.73 2645.93C2824.85 2661.9 2825.81 2678.21 2824.58 2694.44C2822.66 2717.81 2818.51 2740.95 2812.19 2763.53C2810.05 2771.51 2808.27 2777.78 2807.06 2781.84C2806.55 2784.01 2805.86 2786.13 2804.99 2788.18C2805.28 2785.99 2805.73 2783.82 2806.35 2781.7C2807.42 2777.14 2808.84 2770.94 2810.69 2763.11C2816.45 2740.55 2820.19 2717.52 2821.88 2694.3C2822.88 2678.31 2821.78 2662.27 2818.6 2646.57C2815.12 2628.55 2807.99 2611.44 2797.66 2596.28C2792.03 2588.24 2785.29 2581.05 2777.64 2574.91C2769.8 2568.5 2760.97 2562.94 2752.35 2556.6C2743.2 2550.37 2735.24 2542.56 2728.84 2533.52C2722.76 2523.92 2718.13 2513.48 2715.1 2502.53C2708.61 2480.81 2705.12 2458.79 2694.72 2440.56C2684.37 2423.2 2668.3 2409.98 2649.28 2403.16C2632.13 2396.71 2613.64 2394.66 2595.49 2397.18C2579.69 2399.55 2564.5 2404.97 2550.76 2413.13C2530.86 2425.16 2513.53 2440.99 2499.75 2459.72C2494.77 2466.35 2491.21 2471.69 2488.86 2475.32C2487.7 2477.12 2486.39 2478.81 2484.94 2480.38Z" fill="#2563EB"/>
<path d="M2764.32 2558.67C2758.41 2553.25 2755.56 2557.03 2747.65 2558.67C2739.77 2560.47 2732.45 2564.13 2726.28 2569.35C2712.75 2580.53 2702.79 2595.42 2697.61 2612.19C2692.44 2628.96 2692.27 2646.88 2697.14 2663.74C2709.8 2664.43 2722.4 2661.69 2733.62 2655.8C2744.85 2649.91 2754.26 2641.09 2760.87 2630.28C2767.48 2619.47 2771.04 2607.07 2771.17 2594.4C2771.3 2581.73 2768 2569.25 2761.61 2558.31" fill="#2563EB"/>
<path d="M2522.69 2448.68C2519.7 2441.2 2515.57 2443.41 2507.73 2441.56C2499.87 2439.7 2491.66 2439.85 2483.87 2441.98C2466.84 2446.25 2451.43 2455.4 2439.53 2468.31C2427.63 2481.22 2419.77 2497.32 2416.91 2514.64C2428.03 2520.72 2440.6 2523.68 2453.27 2523.19C2465.93 2522.7 2478.23 2518.79 2488.86 2511.87C2499.48 2504.95 2508.03 2495.28 2513.6 2483.89C2519.17 2472.5 2521.55 2459.82 2520.48 2447.18" fill="#2563EB"/>
<path d="M2817.53 2707.55C2809.49 2698.27 2799.44 2690.94 2788.14 2686.11C2776.85 2681.28 2764.61 2679.08 2752.34 2679.68C2740.07 2680.28 2728.1 2683.65 2717.33 2689.55C2706.56 2695.45 2697.27 2703.73 2690.16 2713.74C2708.23 2730.24 2731.73 2739.52 2756.2 2739.81C2780.9 2739.18 2804.54 2729.61 2822.73 2712.89" fill="#2563EB"/>
<path d="M2797.73 2596.42C2810.06 2596.77 2822.3 2594.34 2833.57 2589.31C2844.83 2584.28 2854.81 2576.78 2862.77 2567.36C2870.74 2557.95 2876.48 2546.86 2879.58 2534.92C2882.67 2522.98 2883.03 2510.5 2880.64 2498.4C2867.73 2495.41 2854.24 2495.96 2841.61 2499.98C2828.98 2504.01 2817.66 2511.37 2808.86 2521.29C2800.06 2531.2 2794.1 2543.31 2791.6 2556.33C2789.1 2569.36 2790.16 2582.81 2794.66 2595.28" fill="#2563EB"/>
<path d="M2712.67 2465.7C2724.17 2470.08 2736.5 2471.82 2748.76 2470.79C2761.01 2469.76 2772.88 2465.99 2783.49 2459.76C2794.09 2453.53 2803.16 2445 2810.03 2434.8C2816.89 2424.6 2821.38 2412.98 2823.16 2400.81C2811.94 2393.75 2799.03 2389.83 2785.77 2389.49C2772.52 2389.14 2759.42 2392.36 2747.85 2398.83C2736.27 2405.29 2726.65 2414.76 2720 2426.22C2713.35 2437.69 2709.91 2450.74 2710.04 2464" fill="#2563EB"/>
<path d="M2684.11 2423.04C2672.6 2418.61 2660.25 2416.83 2647.96 2417.83C2635.68 2418.83 2623.77 2422.58 2613.13 2428.8C2602.49 2435.03 2593.39 2443.57 2586.5 2453.79C2579.61 2464.02 2575.12 2475.66 2573.34 2487.86C2584.55 2494.95 2597.46 2498.89 2610.72 2499.25C2623.98 2499.62 2637.1 2496.39 2648.67 2489.92C2660.25 2483.45 2669.87 2473.97 2676.51 2462.49C2683.15 2451 2686.56 2437.94 2686.39 2424.67" fill="#2563EB"/>
<path d="M2650.13 2400.03C2661.82 2396.09 2672.47 2389.56 2681.28 2380.94C2690.1 2372.32 2696.87 2361.82 2701.07 2350.23C2705.27 2338.63 2706.81 2326.24 2705.56 2313.97C2704.31 2301.7 2700.32 2289.87 2693.87 2279.36C2680.68 2281.05 2668.19 2286.28 2657.73 2294.5C2647.27 2302.71 2639.23 2313.6 2634.46 2326.01C2629.68 2338.42 2628.35 2351.89 2630.61 2365C2632.87 2378.1 2638.63 2390.36 2647.28 2400.45" fill="#2563EB"/>
<path d="M2563.01 2404.23C2567.23 2392.64 2568.78 2380.24 2567.54 2367.97C2566.31 2355.69 2562.32 2343.85 2555.88 2333.33C2549.44 2322.81 2540.71 2313.88 2530.34 2307.2C2519.97 2300.52 2508.22 2296.26 2495.98 2294.74C2489.13 2306.1 2485.47 2319.09 2485.39 2332.34C2485.3 2345.6 2488.8 2358.64 2495.5 2370.08C2502.2 2381.52 2511.86 2390.94 2523.47 2397.35C2535.07 2403.77 2548.19 2406.93 2561.44 2406.51" fill="#2563EB"/>
<path d="M2681.9 3045.34L2709.11 3079.1H3043.77L3066.57 3045.34H2681.9Z" fill="#263238"/>
<path d="M3059.23 3045.05C3059.23 3046.12 2977.02 3046.98 2875.59 3046.98C2774.15 3046.98 2691.87 3046.12 2691.87 3045.05C2691.87 3043.98 2774.08 3043.13 2875.59 3043.13C2977.1 3043.13 3059.23 3044.06 3059.23 3045.05Z" fill="#455A64"/>
<path d="M3021.62 2917.97C3021.03 2918.95 3020.34 2919.86 3019.55 2920.68C3017.33 2923.2 3014.95 2925.58 3012.43 2927.8C3003.51 2936.13 2993.44 2943.11 2982.51 2948.53C2966.23 2956.58 2948.44 2961.14 2930.3 2961.92C2919.56 2962.44 2908.81 2961.55 2898.31 2959.29C2887.15 2956.67 2876.26 2953.05 2865.76 2948.46C2844.39 2939.27 2824.58 2928.8 2805.49 2922.74C2788.85 2916.66 2770.92 2914.95 2753.42 2917.76C2741.63 2919.75 2730.58 2924.87 2721.44 2932.57C2715.1 2938.13 2712.67 2942.26 2712.32 2942.05C2712.76 2940.96 2713.34 2939.93 2714.03 2938.99C2715.94 2936.28 2718.08 2933.76 2720.44 2931.44C2729.52 2923.08 2740.74 2917.4 2752.85 2915.05C2770.83 2911.77 2789.35 2913.27 2806.56 2919.4C2826.08 2925.38 2845.95 2935.85 2867.25 2944.9C2877.55 2949.4 2888.23 2952.98 2899.17 2955.58C2909.34 2957.81 2919.75 2958.77 2930.15 2958.43C2947.87 2957.75 2965.28 2953.56 2981.37 2946.11C2996.16 2938.86 3009.73 2929.37 3021.62 2917.97Z" fill="#455A64"/>
<path d="M3024.97 2891.83C3024.31 2892.79 3023.52 2893.65 3022.62 2894.39C3020.39 2896.78 3018.01 2899.01 3015.49 2901.09C3006.06 2908.84 2995.64 2915.31 2984.5 2920.32C2967.9 2927.77 2950.04 2932.02 2931.86 2932.86C2921.13 2933.4 2910.37 2932.68 2899.81 2930.72C2888.55 2928.53 2877.5 2925.41 2866.75 2921.39C2844.67 2913.34 2824.01 2904.15 2804.99 2898.74C2788.05 2893.35 2770.13 2891.72 2752.49 2893.96C2740.64 2895.63 2729.31 2899.96 2719.37 2906.64C2712.25 2911.49 2709.4 2915.26 2709.11 2914.98C2708.83 2914.69 2709.68 2913.91 2711.18 2912.2C2713.35 2909.74 2715.74 2907.48 2718.3 2905.43C2728.17 2898.04 2739.68 2893.15 2751.85 2891.19C2769.91 2888.52 2788.33 2889.91 2805.78 2895.25C2825.51 2900.59 2845.95 2909.49 2867.82 2917.69C2878.4 2921.59 2889.26 2924.68 2900.31 2926.95C2910.59 2928.87 2921.05 2929.66 2931.51 2929.3C2949.28 2928.59 2966.77 2924.68 2983.15 2917.76C2998.19 2911.03 3012.25 2902.31 3024.97 2891.83Z" fill="#455A64"/>
<path d="M754.1 2554.83H628.514V2704.14H754.1V2554.83Z" fill="#F5F5F5"/>
<path d="M632.789 2545.07H65.1934V2713.54H632.789V2545.07Z" fill="#2563EB"/>
<path d="M757.947 2559.25H617.615V2545H757.947C759.836 2545 761.648 2545.75 762.984 2547.09C764.32 2548.42 765.07 2550.23 765.07 2552.12C765.07 2554.01 764.32 2555.82 762.984 2557.16C761.648 2558.5 759.836 2559.25 757.947 2559.25Z" fill="#2563EB"/>
<path d="M757.947 2713.54H617.615V2699.29H757.947C759.836 2699.29 761.648 2700.04 762.984 2701.38C764.32 2702.72 765.07 2704.53 765.07 2706.42C765.07 2708.31 764.32 2710.12 762.984 2711.45C761.648 2712.79 759.836 2713.54 757.947 2713.54Z" fill="#2563EB"/>
<g opacity="0.4">
<path d="M588.196 2545.07H521.164V2713.54H588.196V2545.07Z" fill="black"/>
</g>
<g opacity="0.4">
<path d="M182.586 2545.07H115.555V2713.54H182.586V2545.07Z" fill="black"/>
</g>
<path d="M754.099 2579.55C754.099 2579.9 726.888 2580.26 693.407 2580.26C659.927 2580.26 632.645 2579.9 632.645 2579.55C632.645 2579.19 659.856 2578.76 693.407 2578.76C726.959 2578.76 754.099 2579.05 754.099 2579.55Z" fill="#E0E0E0"/>
<path d="M754.099 2601.92C754.099 2602.34 726.888 2602.63 693.407 2602.63C659.927 2602.63 632.645 2602.63 632.645 2601.92C632.645 2601.2 659.856 2601.13 693.407 2601.13C726.959 2601.13 754.099 2601.49 754.099 2601.92Z" fill="#E0E0E0"/>
<path d="M754.099 2629.48C754.099 2629.91 726.888 2630.2 693.407 2630.2C659.927 2630.2 632.645 2630.2 632.645 2629.48C632.645 2628.77 659.856 2628.77 693.407 2628.77C726.959 2628.77 754.099 2628.91 754.099 2629.48Z" fill="#E0E0E0"/>
<path d="M754.099 2657.41C754.099 2657.83 726.888 2658.19 693.407 2658.19C659.927 2658.19 632.645 2657.83 632.645 2657.41C632.645 2656.98 659.856 2656.7 693.407 2656.7C726.959 2656.7 754.099 2656.62 754.099 2657.41Z" fill="#E0E0E0"/>
<path d="M754.099 2684.62C754.099 2685.05 726.888 2685.4 693.407 2685.4C659.927 2685.4 632.645 2685.05 632.645 2684.62C632.645 2684.19 659.856 2683.91 693.407 2683.91C726.959 2683.91 754.099 2684.19 754.099 2684.62Z" fill="#E0E0E0"/>
<g opacity="0.2">
<path d="M485.119 2614.31H229.744V2644.66H485.119V2614.31Z" fill="black"/>
</g>
<path d="M752.818 2716.82H625.309V2807.78H752.818V2716.82Z" fill="#FAFAFA"/>
<path d="M626.732 2713.54H83.998V2811.13H626.732V2713.54Z" fill="#455A64"/>
<path d="M622.814 2720.16H759.869C760.745 2720.15 761.578 2719.79 762.191 2719.16C762.803 2718.53 763.146 2717.69 763.146 2716.82C763.128 2715.95 762.777 2715.13 762.166 2714.52C761.556 2713.91 760.733 2713.56 759.869 2713.54H622.814V2720.16Z" fill="#455A64"/>
<path d="M622.814 2804.51H760.154C760.547 2804.51 760.936 2804.58 761.299 2804.73C761.662 2804.89 761.992 2805.11 762.27 2805.38C762.548 2805.66 762.768 2805.99 762.918 2806.35C763.069 2806.72 763.146 2807.11 763.146 2807.5V2808.14C763.146 2808.53 763.069 2808.92 762.918 2809.28C762.768 2809.65 762.548 2809.98 762.27 2810.26C761.992 2810.53 761.662 2810.75 761.299 2810.9C760.936 2811.05 760.547 2811.13 760.154 2811.13H622.814V2804.51Z" fill="#455A64"/>
<path d="M752.817 2734.13C752.817 2734.55 724.324 2734.84 689.775 2734.84C655.226 2734.84 626.732 2734.84 626.732 2734.13C626.732 2733.41 655.226 2733.34 689.775 2733.34C724.324 2733.34 752.817 2733.7 752.817 2734.13Z" fill="#E0E0E0"/>
<path d="M752.817 2751.37C752.817 2751.72 724.324 2752.08 689.775 2752.08C655.226 2752.08 626.732 2751.72 626.732 2751.37C626.732 2751.01 655.226 2750.58 689.775 2750.58C724.324 2750.58 752.817 2750.94 752.817 2751.37Z" fill="#E0E0E0"/>
<path d="M752.817 2768.53C752.817 2768.96 724.324 2769.32 689.775 2769.32C655.226 2769.32 626.732 2769.32 626.732 2768.53C626.732 2767.75 655.226 2767.82 689.775 2767.82C724.324 2767.82 752.817 2768.11 752.817 2768.53Z" fill="#E0E0E0"/>
<path d="M752.817 2785.63C752.817 2786.06 724.324 2786.34 689.775 2786.34C655.226 2786.34 626.732 2786.34 626.732 2785.63C626.732 2784.92 655.226 2784.85 689.775 2784.85C724.324 2784.85 752.817 2785.63 752.817 2785.63Z" fill="#E0E0E0"/>
<path d="M772.122 2819.82H641.977V3066.44H772.122V2819.82Z" fill="#EBEBEB"/>
<path d="M641.977 2811.13H31V3078.55H641.977V2811.13Z" fill="#2563EB"/>
<path d="M782.38 3078.55H625.309V3061.24H782.38C784.666 3061.24 786.859 3062.14 788.475 3063.76C790.091 3065.38 791 3067.57 791 3069.85C791 3072.15 790.094 3074.35 788.48 3075.97C786.865 3077.6 784.673 3078.53 782.38 3078.55Z" fill="#2563EB"/>
<path d="M625.309 2811.13H783.164C785.242 2811.13 787.235 2811.96 788.705 2813.43C790.174 2814.9 791 2816.89 791 2818.97V2820.61C791 2822.68 790.174 2824.68 788.705 2826.15C787.235 2827.62 785.242 2828.44 783.164 2828.44H625.309V2811.13Z" fill="#2563EB"/>
<path d="M772.193 2852.87C772.193 2853.3 743.058 2853.59 707.085 2853.59C671.111 2853.59 641.977 2853.59 641.977 2852.87C641.977 2852.16 671.111 2852.09 707.085 2852.09C743.058 2852.09 772.193 2852.45 772.193 2852.87Z" fill="#E0E0E0"/>
<path d="M772.193 2884.5C772.193 2884.93 743.058 2885.21 707.085 2885.21C671.111 2885.21 641.977 2885.21 641.977 2884.5C641.977 2883.79 671.111 2883.72 707.085 2883.72C743.058 2883.72 772.193 2884.08 772.193 2884.5Z" fill="#E0E0E0"/>
<path d="M772.193 2916.13C772.193 2916.56 743.058 2916.84 707.085 2916.84C671.111 2916.84 641.977 2916.84 641.977 2916.13C641.977 2915.42 671.111 2915.35 707.085 2915.35C743.058 2915.35 772.193 2915.7 772.193 2916.13Z" fill="#E0E0E0"/>
<path d="M772.193 2947.76C772.193 2948.19 743.058 2948.47 707.085 2948.47C671.111 2948.47 641.977 2948.47 641.977 2947.76C641.977 2947.05 671.111 2946.98 707.085 2946.98C743.058 2946.98 772.193 2947.33 772.193 2947.76Z" fill="#E0E0E0"/>
<path d="M772.193 2979.39C772.193 2979.81 743.058 2980.1 707.085 2980.1C671.111 2980.1 641.977 2980.1 641.977 2979.39C641.977 2978.67 671.111 2978.67 707.085 2978.67C743.058 2978.67 772.193 2978.96 772.193 2979.39Z" fill="#E0E0E0"/>
<path d="M772.193 3011.02C772.193 3011.44 743.058 3011.8 707.085 3011.8C671.111 3011.8 641.977 3011.44 641.977 3011.02C641.977 3010.59 671.111 3010.3 707.085 3010.3C743.058 3010.3 772.193 3010.59 772.193 3011.02Z" fill="#E0E0E0"/>
<path d="M772.193 3042.64C772.193 3043.07 743.058 3043.43 707.085 3043.43C671.111 3043.43 641.977 3043.07 641.977 3042.64C641.977 3042.22 671.111 3041.93 707.085 3041.93C743.058 3041.93 772.193 3042.07 772.193 3042.64Z" fill="#E0E0E0"/>
<path d="M240.072 2959.44V2974.33C240.072 2992.28 231.096 3002.82 213.858 3002.82C196.619 3002.82 187.572 2992.56 187.572 2974.33V2916.13C187.572 2898.18 196.548 2887.64 213.858 2887.64C231.168 2887.64 240.072 2897.89 240.072 2916.13V2926.96H223.403V2914.99C223.403 2907.01 219.913 2903.95 214.285 2903.95C208.658 2903.95 205.167 2907.01 205.167 2914.99V2975.47C205.167 2983.45 208.729 2986.37 214.285 2986.37C219.841 2986.37 223.403 2983.45 223.403 2975.47V2959.44H240.072Z" fill="#EBEBEB"/>
<path d="M249.334 2916.13C249.334 2898.18 258.808 2887.64 276.047 2887.64C293.286 2887.64 302.76 2897.89 302.76 2916.13V2974.33C302.76 2992.28 293.357 3002.82 276.047 3002.82C258.737 3002.82 249.334 2992.56 249.334 2974.33V2916.13ZM266.929 2975.47C266.929 2983.45 270.491 2986.51 276.047 2986.51C281.603 2986.51 285.165 2983.45 285.165 2975.47V2914.99C285.165 2907.01 281.674 2903.95 276.047 2903.95C270.419 2903.95 266.929 2907.01 266.929 2914.99V2975.47Z" fill="#EBEBEB"/>
<path d="M314.156 2889.2H332.036V2985.09H360.53V3001.11H314.014L314.156 2889.2Z" fill="#EBEBEB"/>
<path d="M366.941 2916.13C366.941 2898.18 376.344 2887.64 393.654 2887.64C410.964 2887.64 420.367 2897.89 420.367 2916.13V2974.33C420.367 2992.28 410.893 3002.82 393.654 3002.82C376.416 3002.82 366.941 2992.56 366.941 2974.33V2916.13ZM384.536 2975.47C384.536 2983.45 388.027 2986.51 393.654 2986.51C399.282 2986.51 402.772 2983.45 402.772 2975.47V2914.99C402.772 2907.01 399.211 2903.95 393.654 2903.95C388.098 2903.95 384.536 2907.01 384.536 2914.99V2975.47Z" fill="#EBEBEB"/>
<path d="M448.505 2889.2V2975.61C448.505 2983.66 451.996 2986.51 457.623 2986.51C463.251 2986.51 466.741 2983.66 466.741 2975.61V2889.2H483.41V2974.69C483.41 2992.64 474.434 3003.18 457.124 3003.18C439.814 3003.18 430.91 2992.92 430.91 2974.69V2889.2H448.505Z" fill="#EBEBEB"/>
<path d="M532.134 3001.26C530.708 2996.8 530.176 2992.1 530.567 2987.44V2969.84C530.567 2959.44 527.076 2955.59 519.027 2955.59H512.972V3001.26H495.377V2889.2H521.947C540.183 2889.2 548.019 2897.68 548.019 2914.99V2923.75C548.019 2935.29 544.315 2942.84 536.479 2946.48C545.312 2950.18 548.162 2958.66 548.162 2970.34V2987.65C547.836 2992.27 548.492 2996.91 550.085 3001.26H532.134ZM512.972 2905.23V2939.64H520.095C526.649 2939.64 530.638 2936.72 530.638 2927.81V2916.77C530.638 2908.72 527.931 2905.23 521.662 2905.23H512.972Z" fill="#EBEBEB"/>
<path d="M236.298 2751.94H223.404L224.117 2748.66H253.679L252.966 2751.94H240.216L233.591 2784.99H229.815L236.298 2751.94Z" fill="#263238"/>
<path d="M278.254 2757.71L258.309 2788.55C254.961 2793.75 252.396 2795.32 248.478 2795.32C247.29 2795.38 246.103 2795.19 244.988 2794.77C243.874 2794.36 242.856 2793.72 241.996 2792.9L243.919 2790.19C244.538 2790.85 245.29 2791.37 246.126 2791.71C246.961 2792.05 247.86 2792.22 248.763 2792.18C251.114 2792.18 252.966 2791.11 255.032 2787.77L256.955 2784.85L249.832 2757.71H253.679L259.377 2780.93L274.265 2757.71H278.254Z" fill="#263238"/>
<path d="M308.671 2769.03C308.788 2771.13 308.474 2773.23 307.749 2775.2C307.023 2777.17 305.902 2778.97 304.454 2780.49C303.006 2782.02 301.261 2783.23 299.328 2784.05C297.395 2784.87 295.314 2785.29 293.213 2785.27C291.071 2785.49 288.914 2785.03 287.047 2783.96C285.18 2782.89 283.699 2781.25 282.813 2779.29L279.679 2795.1H275.975L283.098 2757.71H286.66L285.805 2762.05C287.134 2760.56 288.773 2759.38 290.607 2758.6C292.44 2757.81 294.424 2757.43 296.419 2757.49C298.01 2757.31 299.621 2757.48 301.14 2757.99C302.659 2758.5 304.049 2759.33 305.215 2760.43C306.38 2761.53 307.293 2762.86 307.89 2764.35C308.487 2765.84 308.753 2767.43 308.671 2769.03ZM304.896 2769.03C304.99 2767.85 304.819 2766.66 304.396 2765.55C303.972 2764.44 303.305 2763.44 302.445 2762.62C301.585 2761.8 300.553 2761.18 299.424 2760.81C298.295 2760.44 297.098 2760.33 295.92 2760.48C294.289 2760.5 292.678 2760.85 291.188 2761.51C289.697 2762.18 288.36 2763.14 287.257 2764.34C286.155 2765.54 285.312 2766.96 284.78 2768.5C284.248 2770.04 284.039 2771.68 284.167 2773.31C284.083 2774.48 284.262 2775.67 284.691 2776.77C285.12 2777.87 285.788 2778.86 286.647 2779.67C287.506 2780.48 288.534 2781.09 289.657 2781.46C290.78 2781.82 291.97 2781.93 293.142 2781.78C294.748 2781.77 296.333 2781.42 297.803 2780.78C299.273 2780.13 300.597 2779.2 301.696 2778.02C302.794 2776.85 303.643 2775.47 304.193 2773.96C304.743 2772.45 304.982 2770.85 304.896 2769.25V2769.03Z" fill="#263238"/>
<path d="M312.945 2773.66C312.857 2771.54 313.203 2769.43 313.962 2767.45C314.721 2765.48 315.877 2763.67 317.358 2762.16C318.84 2760.65 320.615 2759.45 322.576 2758.65C324.537 2757.84 326.641 2757.45 328.759 2757.49C330.357 2757.32 331.973 2757.49 333.499 2757.99C335.024 2758.5 336.422 2759.33 337.599 2760.42C338.775 2761.52 339.701 2762.85 340.315 2764.34C340.928 2765.83 341.214 2767.43 341.154 2769.03C341.262 2771.15 340.932 2773.27 340.186 2775.26C339.44 2777.24 338.292 2779.05 336.815 2780.58C335.338 2782.1 333.564 2783.3 331.602 2784.11C329.64 2784.92 327.532 2785.31 325.411 2785.27C323.804 2785.45 322.178 2785.27 320.644 2784.77C319.11 2784.26 317.704 2783.42 316.521 2782.32C315.338 2781.22 314.406 2779.87 313.789 2778.38C313.172 2776.89 312.884 2775.28 312.945 2773.66ZM337.521 2769.25C337.604 2768.06 337.423 2766.87 336.99 2765.76C336.558 2764.65 335.885 2763.65 335.019 2762.83C334.154 2762.01 333.118 2761.4 331.986 2761.03C330.855 2760.66 329.655 2760.55 328.474 2760.7C326.843 2760.72 325.234 2761.08 323.745 2761.75C322.256 2762.41 320.918 2763.37 319.812 2764.57C318.706 2765.77 317.856 2767.18 317.312 2768.72C316.768 2770.26 316.543 2771.89 316.649 2773.52C316.566 2774.7 316.745 2775.88 317.174 2776.98C317.603 2778.08 318.271 2779.07 319.129 2779.88C319.988 2780.69 321.016 2781.3 322.14 2781.67C323.263 2782.04 324.453 2782.15 325.625 2782C327.258 2781.99 328.874 2781.65 330.371 2781C331.868 2780.34 333.215 2779.39 334.33 2778.19C335.444 2777 336.302 2775.59 336.851 2774.05C337.4 2772.51 337.628 2770.88 337.521 2769.25Z" fill="#263238"/>
<path d="M376.558 2757.71L371.785 2781.71C371.711 2783.68 371.229 2785.61 370.369 2787.39C369.51 2789.16 368.292 2790.74 366.792 2792.02C365.293 2793.29 363.544 2794.25 361.657 2794.82C359.77 2795.39 357.785 2795.56 355.829 2795.32C351.421 2795.56 347.087 2794.11 343.719 2791.26L345.856 2788.41C347.239 2789.67 348.856 2790.65 350.616 2791.28C352.376 2791.92 354.244 2792.2 356.114 2792.11C357.54 2792.27 358.984 2792.14 360.358 2791.72C361.733 2791.31 363.01 2790.63 364.113 2789.71C365.217 2788.79 366.124 2787.66 366.782 2786.38C367.439 2785.11 367.832 2783.71 367.938 2782.28L368.58 2779.29C367.208 2780.81 365.524 2782.02 363.643 2782.83C361.762 2783.64 359.729 2784.04 357.681 2783.99C356.142 2784.17 354.585 2784.01 353.112 2783.53C351.64 2783.05 350.288 2782.26 349.147 2781.21C348.006 2780.17 347.103 2778.89 346.499 2777.46C345.894 2776.04 345.602 2774.5 345.642 2772.95C345.592 2770.89 345.963 2768.85 346.731 2766.94C347.5 2765.04 348.649 2763.31 350.11 2761.86C351.571 2760.41 353.311 2759.28 355.226 2758.53C357.14 2757.78 359.187 2757.42 361.242 2757.49C363.439 2757.27 365.648 2757.76 367.554 2758.87C369.46 2759.98 370.966 2761.67 371.856 2763.69L372.996 2757.71H376.558ZM370.289 2768.68C370.289 2763.69 366.941 2760.7 361.242 2760.7C359.657 2760.66 358.08 2760.94 356.61 2761.54C355.139 2762.13 353.805 2763.02 352.69 2764.14C351.576 2765.27 350.704 2766.62 350.129 2768.09C349.554 2769.57 349.287 2771.15 349.346 2772.74C349.346 2777.72 352.694 2780.71 358.393 2780.71C359.978 2780.75 361.555 2780.47 363.026 2779.88C364.497 2779.28 365.83 2778.4 366.945 2777.27C368.06 2776.14 368.931 2774.8 369.507 2773.32C370.082 2771.84 370.348 2770.26 370.289 2768.68Z" fill="#263238"/>
<path d="M400.636 2757.49L399.923 2761.05H398.926C396.12 2760.98 393.395 2762 391.332 2763.9C389.27 2765.8 388.032 2768.44 387.885 2771.24L385.107 2785.06H381.402L386.816 2757.78H390.378L389.381 2762.76C390.621 2760.97 392.317 2759.53 394.295 2758.6C396.273 2757.68 398.461 2757.29 400.636 2757.49Z" fill="#263238"/>
<path d="M431.765 2757.71L426.28 2784.99H422.718L423.644 2780.71C422.283 2782.18 420.628 2783.35 418.787 2784.13C416.946 2784.92 414.96 2785.31 412.959 2785.27C411.39 2785.4 409.812 2785.18 408.331 2784.65C406.851 2784.11 405.502 2783.27 404.376 2782.17C403.249 2781.07 402.37 2779.74 401.799 2778.27C401.228 2776.81 400.977 2775.23 401.063 2773.66C400.956 2771.57 401.278 2769.48 402.008 2767.52C402.737 2765.55 403.86 2763.76 405.307 2762.25C406.755 2760.73 408.495 2759.53 410.424 2758.71C412.352 2757.89 414.427 2757.48 416.521 2757.49C418.654 2757.28 420.8 2757.73 422.664 2758.79C424.528 2759.85 426.015 2761.46 426.921 2763.4L428.061 2757.71H431.765ZM425.639 2769.25C425.722 2768.06 425.541 2766.87 425.108 2765.76C424.676 2764.65 424.003 2763.65 423.137 2762.83C422.272 2762.01 421.236 2761.4 420.104 2761.03C418.973 2760.66 417.773 2760.55 416.592 2760.7C414.961 2760.72 413.352 2761.08 411.863 2761.75C410.374 2762.41 409.036 2763.37 407.93 2764.57C406.824 2765.77 405.974 2767.18 405.43 2768.72C404.886 2770.26 404.661 2771.89 404.767 2773.52C404.684 2774.7 404.863 2775.88 405.292 2776.98C405.721 2778.08 406.389 2779.07 407.247 2779.88C408.106 2780.69 409.134 2781.3 410.257 2781.67C411.381 2782.04 412.571 2782.15 413.743 2782C415.394 2782.02 417.033 2781.7 418.555 2781.06C420.078 2780.42 421.451 2779.47 422.588 2778.27C423.726 2777.07 424.603 2775.65 425.165 2774.1C425.727 2772.55 425.961 2770.89 425.852 2769.25H425.639Z" fill="#263238"/>
<path d="M467.382 2769.03C467.499 2771.14 467.183 2773.24 466.454 2775.22C465.724 2777.19 464.596 2779 463.14 2780.52C461.684 2782.04 459.931 2783.25 457.99 2784.07C456.048 2784.89 453.96 2785.3 451.853 2785.27C449.711 2785.49 447.553 2785.03 445.687 2783.96C443.82 2782.89 442.339 2781.25 441.453 2779.29L438.39 2795.1H434.686L441.809 2757.71H445.371L444.445 2762.05C445.805 2760.58 447.46 2759.42 449.301 2758.63C451.142 2757.85 453.128 2757.46 455.13 2757.49C456.721 2757.31 458.332 2757.48 459.851 2757.99C461.37 2758.5 462.76 2759.33 463.926 2760.43C465.091 2761.53 466.004 2762.86 466.601 2764.35C467.198 2765.84 467.464 2767.43 467.382 2769.03ZM463.607 2769.03C463.701 2767.85 463.53 2766.66 463.106 2765.55C462.682 2764.44 462.016 2763.44 461.156 2762.62C460.296 2761.8 459.264 2761.18 458.135 2760.81C457.006 2760.44 455.809 2760.33 454.631 2760.48C452.994 2760.49 451.375 2760.83 449.876 2761.49C448.378 2762.15 447.031 2763.11 445.921 2764.32C444.811 2765.52 443.962 2766.94 443.426 2768.49C442.89 2770.03 442.679 2771.67 442.806 2773.31C442.723 2774.48 442.902 2775.67 443.331 2776.77C443.76 2777.87 444.428 2778.86 445.286 2779.67C446.145 2780.48 447.173 2781.09 448.297 2781.46C449.42 2781.82 450.61 2781.93 451.782 2781.78C453.399 2781.79 455.001 2781.46 456.487 2780.82C457.974 2780.18 459.315 2779.25 460.429 2778.08C461.542 2776.9 462.405 2775.51 462.963 2774C463.522 2772.48 463.765 2770.86 463.678 2769.25L463.607 2769.03Z" fill="#263238"/>
<path d="M500.506 2766.4C500.57 2767.42 500.57 2768.44 500.506 2769.46L497.372 2784.99H493.668L496.802 2769.39C496.866 2768.58 496.866 2767.77 496.802 2766.97C496.802 2763.05 494.523 2760.77 489.679 2760.77C486.948 2760.65 484.274 2761.58 482.207 2763.36C480.14 2765.15 478.837 2767.67 478.566 2770.39L475.646 2784.99H471.941L479.635 2746.45H483.339L480.276 2761.77C481.61 2760.34 483.236 2759.22 485.044 2758.48C486.851 2757.75 488.797 2757.41 490.747 2757.49C491.998 2757.31 493.272 2757.41 494.48 2757.78C495.688 2758.15 496.798 2758.79 497.731 2759.64C498.665 2760.49 499.397 2761.54 499.877 2762.71C500.357 2763.87 500.572 2765.14 500.506 2766.4Z" fill="#263238"/>
<path d="M535.054 2757.71L515.109 2788.55C511.689 2793.75 509.125 2795.32 505.207 2795.32C504.019 2795.38 502.831 2795.19 501.717 2794.77C500.602 2794.36 499.584 2793.72 498.725 2792.9L500.719 2790.19C501.318 2790.85 502.057 2791.38 502.882 2791.72C503.707 2792.07 504.598 2792.22 505.492 2792.18C507.843 2792.18 509.695 2791.11 511.832 2787.77L513.755 2784.85L506.632 2757.71H510.407L516.035 2780.93L530.923 2757.71H535.054Z" fill="#263238"/>
<g opacity="0.3">
<path d="M182.658 2811.13L98.5302 3078.55H31V2811.13H182.658Z" fill="black"/>
</g>
<path d="M4229.89 2227.65H3518.55V2747.09H4229.89V2227.65Z" fill="white"/>
<path d="M4229.89 2227.65H3518.55V2292.55H4229.89V2227.65Z" fill="#2563EB"/>
<path d="M3557.16 2262.35C3556.97 2263.7 3556.39 2264.96 3555.5 2266C3554.61 2267.03 3553.45 2267.78 3552.14 2268.17C3550.83 2268.56 3549.44 2268.57 3548.13 2268.19C3546.82 2267.82 3545.65 2267.07 3544.75 2266.05C3543.85 2265.02 3543.26 2263.76 3543.06 2262.41C3542.86 2261.06 3543.04 2259.68 3543.6 2258.44C3544.16 2257.2 3545.06 2256.14 3546.2 2255.39C3547.34 2254.64 3548.67 2254.24 3550.03 2254.22C3552.04 2254.39 3553.91 2255.33 3555.24 2256.84C3556.57 2258.36 3557.26 2260.33 3557.16 2262.35Z" fill="white"/>
<path d="M3587.29 2262.35C3587.1 2263.7 3586.52 2264.96 3585.64 2266C3584.75 2267.03 3583.58 2267.78 3582.27 2268.17C3580.97 2268.56 3579.57 2268.57 3578.26 2268.19C3576.95 2267.82 3575.78 2267.07 3574.88 2266.05C3573.98 2265.02 3573.4 2263.76 3573.19 2262.41C3572.99 2261.06 3573.18 2259.68 3573.73 2258.44C3574.29 2257.2 3575.19 2256.14 3576.33 2255.39C3577.47 2254.64 3578.8 2254.24 3580.17 2254.22C3582.17 2254.41 3584.03 2255.35 3585.35 2256.86C3586.68 2258.37 3587.37 2260.34 3587.29 2262.35Z" fill="white"/>
<path d="M3617.35 2262.35C3617.16 2263.7 3616.59 2264.96 3615.7 2266C3614.81 2267.03 3613.64 2267.78 3612.33 2268.17C3611.03 2268.56 3609.64 2268.57 3608.33 2268.19C3607.02 2267.82 3605.84 2267.07 3604.94 2266.05C3604.04 2265.02 3603.46 2263.76 3603.25 2262.41C3603.05 2261.06 3603.24 2259.68 3603.79 2258.44C3604.35 2257.2 3605.25 2256.14 3606.39 2255.39C3607.53 2254.64 3608.86 2254.24 3610.23 2254.22C3612.24 2254.39 3614.1 2255.33 3615.43 2256.84C3616.76 2258.36 3617.45 2260.33 3617.35 2262.35Z" fill="white"/>
<path d="M3687.59 2356.16H3586.22V2611.18H3687.59V2356.16Z" fill="#2563EB"/>
<path d="M3843.88 2356.16H3742.51V2611.18H3843.88V2356.16Z" fill="#EBEBEB"/>
<path d="M4000.16 2356.16H3898.8V2611.18H4000.16V2356.16Z" fill="#FAFAFA"/>
<path d="M4156.52 2358.23H4055.16V2613.25H4156.52V2358.23Z" fill="#E0E0E0"/>
<path d="M4188.93 2639.39H3574.47V2697.66H4188.93V2639.39Z" fill="#2563EB"/>
<path d="M4142.13 2685.69L4155.38 2755.86L4166.21 2736.27L4189.57 2771.24L4201.26 2763.41L4177.89 2728.43L4199.33 2725.15L4142.13 2685.69Z" fill="#263238"/>
<path d="M4229.89 2747.09C4229.89 2747.09 4229.89 2743.82 4229.89 2737.55C4229.89 2731.28 4229.89 2722.02 4229.89 2709.98C4229.89 2685.76 4229.89 2650.36 4229.54 2605.12C4229.54 2514.66 4229.11 2384.94 4228.83 2227.58L4230.18 2228.94H3518.9L3520.54 2227.3C3520.54 2413.65 3520.54 2590.59 3520.54 2746.74L3519.05 2745.31L4031.93 2746.03L4177.89 2746.38H4216.72H4226.9H4217H4178.53L4032.86 2746.81L3518.83 2747.52H3517.41V2746.03C3517.41 2589.31 3517.41 2412.93 3517.41 2226.59V2224.95H3519.12L4230.39 2225.3H4231.67V2226.59C4231.67 2384.23 4231.18 2514.23 4231.03 2604.84C4231.03 2650 4231.03 2685.33 4230.68 2709.41C4230.68 2721.38 4230.68 2730.78 4230.68 2736.77C4230.68 2742.75 4229.89 2747.09 4229.89 2747.09Z" fill="#263238"/>
<path d="M1170.23 429.294L1130.73 722.625L1497.62 772.035L1537.12 478.705L1170.23 429.294Z" fill="#EBEBEB"/>
<path d="M1537.17 478.708H1535.38L1530.26 478.067L1510.24 475.503L1435.09 465.672L1170.31 430.269L1171.45 429.414C1159.69 516.748 1146.23 616.832 1132.06 722.757L1131.13 721.546L1497.99 771.41L1496.99 772.194C1509.1 683.934 1519.07 610.706 1526.12 559.488C1529.61 533.915 1532.46 513.827 1534.32 500.079C1535.31 492.955 1536.03 488.04 1536.52 484.407L1537.38 478.993C1537.38 478.993 1537.38 480.774 1536.74 484.265C1536.1 487.755 1535.67 493.026 1534.81 499.794C1532.96 513.471 1530.4 533.559 1527.05 559.061C1519.93 610.421 1510.52 683.863 1498.56 772.764V773.618H1497.7L1130.63 723.683H1129.56V722.615C1143.81 616.689 1157.34 516.605 1169.17 429.272V428.346H1170.09L1435.59 464.604L1510.45 474.933L1530.18 477.711L1535.24 478.423L1537.17 478.708Z" fill="#263238"/>
<path d="M1180.49 449.458L1145.96 705.866L1487.08 751.806L1521.61 495.398L1180.49 449.458Z" fill="#2563EB"/>
<path d="M1145.88 705.874L1286.49 562.551L1346.9 672.18L1404.1 625.593L1487.02 751.82L1145.88 705.874Z" fill="#2563EB"/>
<path d="M1394.27 557.137C1393.56 562.444 1391.29 567.422 1387.75 571.44C1384.21 575.458 1379.56 578.336 1374.39 579.71C1369.21 581.084 1363.75 580.893 1358.68 579.16C1353.61 577.427 1349.17 574.23 1345.92 569.974C1342.68 565.718 1340.76 560.594 1340.42 555.25C1340.09 549.906 1341.34 544.582 1344.03 539.952C1346.72 535.322 1350.72 531.593 1355.53 529.238C1360.34 526.883 1365.74 526.006 1371.05 526.72C1378.15 527.694 1384.58 531.44 1388.93 537.139C1393.28 542.838 1395.2 550.028 1394.27 557.137Z" fill="#2563EB"/>
<g opacity="0.2">
<path d="M1145.88 705.874L1286.49 562.551L1346.9 672.18L1404.1 625.593L1487.02 751.82L1145.88 705.874Z" fill="black"/>
</g>
<g opacity="0.2">
<path d="M1394.27 557.137C1393.56 562.444 1391.29 567.422 1387.75 571.44C1384.21 575.458 1379.56 578.336 1374.39 579.71C1369.21 581.084 1363.75 580.893 1358.68 579.16C1353.61 577.427 1349.17 574.23 1345.92 569.974C1342.68 565.718 1340.76 560.594 1340.42 555.25C1340.09 549.906 1341.34 544.582 1344.03 539.952C1346.72 535.322 1350.72 531.593 1355.53 529.238C1360.34 526.883 1365.74 526.006 1371.05 526.72C1378.15 527.694 1384.58 531.44 1388.93 537.139C1393.28 542.838 1395.2 550.028 1394.27 557.137Z" fill="black"/>
</g>
<path d="M1428.49 180.519L1362.46 622.897L1915.73 705.486L1981.77 263.107L1428.49 180.519Z" fill="#EBEBEB"/>
<path d="M1981.95 263.296L1979.25 262.94L1971.48 261.871L1941.42 257.526L1828.09 240.999L1428.46 182.302L1430.1 181.02C1410.51 312.732 1388 463.678 1364.21 623.385L1362.86 621.604L1916.06 704.45L1914.57 705.59C1934.72 572.453 1951.46 462.111 1963.15 385.035C1969.06 346.426 1973.76 316.152 1976.9 295.422C1978.53 285.165 1979.74 277.258 1980.6 271.773C1981.45 266.288 1981.95 263.652 1981.95 263.652C1981.95 263.652 1981.95 266.288 1980.96 271.559C1979.96 276.83 1979.03 284.809 1977.61 294.995C1974.54 315.653 1970.48 345.856 1964.57 384.394L1917.2 706.16V707.513H1915.85L1362.64 624.596H1361.07V623.029C1385.01 463.322 1407.59 312.447 1427.32 180.735V179.311H1428.75L1829.08 239.86L1941.99 257.098L1971.69 261.729L1979.32 262.94L1981.95 263.296Z" fill="#263238"/>
<path d="M1443.43 211.235L1385.72 597.885L1900.17 674.678L1957.89 288.029L1443.43 211.235Z" fill="#2563EB"/>
<path d="M1385.86 597.955L1601.42 384.466L1690.25 551.439L1777.72 482.342L1900.25 674.817L1385.86 597.955Z" fill="#2563EB"/>
<path d="M1764.33 378.695C1763.09 386.69 1759.51 394.138 1754.03 400.099C1748.56 406.06 1741.45 410.267 1733.59 412.189C1725.73 414.112 1717.48 413.663 1709.87 410.9C1702.27 408.136 1695.65 403.183 1690.86 396.663C1686.06 390.144 1683.31 382.352 1682.94 374.269C1682.57 366.186 1684.61 358.175 1688.79 351.246C1692.96 344.318 1699.1 338.782 1706.42 335.338C1713.75 331.894 1721.92 330.696 1729.93 331.894C1735.26 332.694 1740.39 334.541 1745.01 337.329C1749.64 340.117 1753.66 343.792 1756.86 348.141C1760.06 352.49 1762.36 357.429 1763.65 362.672C1764.93 367.916 1765.16 373.361 1764.33 378.695Z" fill="#2563EB"/>
<g opacity="0.2">
<path d="M1385.86 597.955L1601.42 384.466L1690.25 551.439L1777.72 482.342L1900.25 674.817L1385.86 597.955Z" fill="black"/>
</g>
<g opacity="0.2">
<path d="M1764.33 378.695C1763.09 386.69 1759.51 394.138 1754.03 400.099C1748.56 406.06 1741.45 410.267 1733.59 412.189C1725.73 414.112 1717.48 413.663 1709.87 410.9C1702.27 408.136 1695.65 403.183 1690.86 396.663C1686.06 390.144 1683.31 382.352 1682.94 374.269C1682.57 366.186 1684.61 358.175 1688.79 351.246C1692.96 344.318 1699.1 338.782 1706.42 335.338C1713.75 331.894 1721.92 330.696 1729.93 331.894C1735.26 332.694 1740.39 334.541 1745.01 337.329C1749.64 340.117 1753.66 343.792 1756.86 348.141C1760.06 352.49 1762.36 357.429 1763.65 362.672C1764.93 367.916 1765.16 373.361 1764.33 378.695Z" fill="black"/>
</g>
<path d="M957.309 1660.22L1048.36 1509.57C1051.28 1504.77 1052.2 1499.02 1050.91 1493.56C1049.63 1488.09 1046.24 1483.35 1041.49 1480.36L465.715 1132.35C460.834 1129.58 455.06 1128.84 449.641 1130.29C444.221 1131.75 439.59 1135.27 436.747 1140.11L345.623 1290.49C342.701 1295.28 341.784 1301.03 343.069 1306.5C344.354 1311.96 347.738 1316.7 352.49 1319.69L928.268 1667.71C933.122 1670.52 938.889 1671.31 944.323 1669.91C949.756 1668.51 954.421 1665.03 957.309 1660.22Z" fill="#F5F5F5"/>
<path d="M957.309 1660.22C956.595 1661.63 955.673 1662.92 954.575 1664.05C951.403 1667.56 947.159 1669.91 942.505 1670.75C939.069 1671.38 935.529 1671.14 932.212 1670.04C928.386 1668.41 924.72 1666.43 921.261 1664.13L894.904 1648.33L726.702 1547.38L477.462 1397.2L405.488 1353.72L368.289 1331.32C362.002 1327.39 355.845 1323.96 349.379 1319.64C346.223 1317.1 343.791 1313.78 342.326 1310C340.861 1306.23 340.416 1302.13 341.034 1298.13C341.738 1294.22 343.253 1290.5 345.481 1287.2L351.316 1277.6L363.016 1258.24L386.651 1219.02L435.103 1138.93C437.318 1135.24 440.505 1132.23 444.314 1130.24C448.124 1128.24 452.409 1127.33 456.702 1127.61C460.922 1127.96 464.976 1129.42 468.454 1131.83L478.748 1137.78L518.533 1161.85L595.971 1208.66L742.914 1297.97C836.539 1354.82 920.874 1405.89 991.751 1448.85L1042.24 1479.57C1046.3 1482.16 1049.4 1486 1051.09 1490.51C1052.77 1495.02 1052.95 1499.95 1051.59 1504.57C1050.03 1508.7 1047.96 1512.63 1045.43 1516.25L1038.94 1526.99L994.968 1599.02L967.119 1644.54C963.904 1649.6 961.463 1653.43 959.801 1656.31L957.172 1660.26C957.172 1660.26 957.891 1658.81 959.452 1656.1L966.49 1644.12L993.747 1598.32L1037.18 1525.91L1043.6 1515.19C1046.02 1511.71 1047.98 1507.94 1049.44 1503.97C1050.67 1499.83 1050.51 1495.4 1048.98 1491.37C1047.46 1487.33 1044.66 1483.9 1041.01 1481.59L990.317 1450.93L741.077 1300.75L594.507 1212L516.719 1164.99L476.935 1140.92L466.847 1134.92C464.668 1133.35 462.189 1132.26 459.564 1131.7C456.94 1131.14 454.228 1131.13 451.601 1131.68C448.974 1132.22 446.488 1133.31 444.302 1134.86C442.115 1136.42 440.276 1138.41 438.9 1140.71L390.448 1220.8L366.795 1259.96L355.025 1279.34L349.191 1288.94C347.176 1291.82 345.816 1295.1 345.206 1298.56C344.674 1301.91 345.032 1305.35 346.244 1308.52C347.456 1311.69 349.478 1314.48 352.11 1316.62C357.878 1320.54 364.559 1324.28 370.74 1328.08L407.889 1350.57L479.812 1394.13L728.012 1545.11L895.471 1647.14L921.884 1663.15C925.247 1665.47 928.821 1667.48 932.56 1669.14C935.74 1670.2 939.129 1670.48 942.44 1669.96C946.971 1669.24 951.151 1667.09 954.363 1663.81C956.416 1661.56 957.204 1660.1 957.309 1660.22Z" fill="#263238"/>
<path d="M366.613 1306.84L472.244 1369.76L563.998 1215.72L458.366 1152.8L366.613 1306.84Z" fill="#2563EB"/>
<path d="M710.687 1511.8L816.318 1574.72L908.072 1420.68L802.441 1357.76L710.687 1511.8Z" fill="#2563EB"/>
<path d="M595.865 1443.4L701.496 1506.31L793.25 1352.27L687.619 1289.35L595.865 1443.4Z" fill="#2563EB"/>
<path d="M480.929 1374.95L586.561 1437.87L678.314 1283.83L572.683 1220.91L480.929 1374.95Z" fill="#2563EB"/>
<g opacity="0.8">
<path d="M366.613 1306.84L472.244 1369.76L563.998 1215.72L458.366 1152.8L366.613 1306.84Z" fill="black"/>
</g>
<g opacity="0.5">
<path d="M710.687 1511.8L816.318 1574.72L908.072 1420.68L802.441 1357.76L710.687 1511.8Z" fill="black"/>
</g>
<g opacity="0.6">
<path d="M595.867 1443.4L701.498 1506.31L793.252 1352.27L687.62 1289.35L595.867 1443.4Z" fill="black"/>
</g>
<g opacity="0.7">
<path d="M480.929 1374.95L586.561 1437.87L678.314 1283.83L572.683 1220.91L480.929 1374.95Z" fill="black"/>
</g>
<path d="M934.203 1657.93L1060.91 1535.48C1064.94 1531.64 1067.3 1526.37 1067.5 1520.81C1067.71 1515.24 1065.73 1509.82 1062 1505.69L601.817 1028.18C597.849 1024.38 592.567 1022.25 587.071 1022.24C581.575 1022.23 576.286 1024.33 572.303 1028.12L445.666 1150.55C441.625 1154.39 439.242 1159.65 439.026 1165.22C438.809 1170.79 440.777 1176.22 444.509 1180.36L904.364 1658.03C908.368 1661.91 913.73 1664.07 919.305 1664.05C924.879 1664.03 930.226 1661.84 934.203 1657.93Z" fill="#F5F5F5"/>
<path d="M934.203 1657.93C933.151 1659.08 931.96 1660.09 930.66 1660.94C926.763 1663.54 922.122 1664.78 917.449 1664.48C914 1664.28 910.661 1663.2 907.754 1661.33C904.499 1658.85 901.5 1656.04 898.801 1652.96L877.543 1631.15L742.494 1491.82L542.514 1284.93L484.727 1225.04L454.919 1194.16L447.356 1186.31C444.578 1183.74 442.101 1180.87 439.972 1177.74C437.96 1174.29 436.89 1170.37 436.868 1166.38C436.846 1162.39 437.874 1158.46 439.849 1154.99C441.909 1151.69 444.477 1148.73 447.46 1146.24L455.416 1138.5C460.825 1133.36 466.164 1128.24 471.536 1122.97C482.353 1112.7 493.307 1102.39 504.183 1091.51C526.119 1070.44 548.331 1049.02 570.82 1027.27C573.877 1024.31 577.674 1022.24 581.811 1021.26C585.948 1020.28 590.273 1020.43 594.33 1021.7C598.303 1023.07 601.832 1025.49 604.539 1028.7L612.593 1037.02L644.514 1070.28L706.56 1134.78L824.391 1257.19L1023.81 1464.74C1037.97 1479.61 1051.54 1493.37 1064.22 1507.09C1067.03 1510.94 1068.52 1515.6 1068.47 1520.37C1068.42 1525.14 1066.83 1529.77 1063.94 1533.57C1057.93 1540.34 1051.68 1545.63 1045.85 1551.39C1022.38 1573.9 1002.13 1593.27 985.496 1609.08C968.863 1624.9 956.126 1637.09 947.298 1645.42L937.279 1654.82C935.051 1656.97 933.772 1657.97 933.772 1657.97C933.772 1657.97 934.84 1656.73 936.998 1654.6C939.157 1652.47 942.521 1649.06 946.715 1644.62C955.418 1636.09 968.1 1623.7 984.421 1607.82L1044.35 1549.65C1050.18 1543.89 1056.55 1538.2 1061.77 1532.08C1064.32 1528.66 1065.72 1524.52 1065.74 1520.25C1065.77 1515.98 1064.42 1511.82 1061.9 1508.37C1049.43 1495.12 1035.56 1481.06 1021.18 1466.48L821.182 1259.52L703.145 1137.17L640.823 1072.74L608.939 1039.62L600.885 1031.3C598.508 1028.53 595.403 1026.48 591.921 1025.37C588.508 1024.32 584.874 1024.19 581.398 1025.02C577.923 1025.85 574.733 1027.6 572.163 1030.08L505.526 1094.32L472.861 1125.71L456.741 1141.24L448.785 1148.98C446.087 1151.23 443.738 1153.88 441.815 1156.82C440.137 1159.75 439.26 1163.07 439.271 1166.44C439.282 1169.82 440.182 1173.13 441.879 1176.05C443.897 1178.9 446.187 1181.55 448.716 1183.95L456.26 1191.74L486.087 1222.69L543.736 1282.61L743.139 1490.1L878.561 1629.99L899.236 1652.11C901.857 1655.18 904.781 1657.98 907.964 1660.46C910.701 1662.31 913.868 1663.42 917.159 1663.68C921.696 1664.1 926.25 1663.06 930.155 1660.71C933.012 1658.99 934.166 1657.79 934.203 1657.93Z" fill="#263238"/>
<path d="M472.318 1176.63L558.158 1264.66L686.523 1139.48L600.684 1051.45L472.318 1176.63Z" fill="#2563EB"/>
<path d="M751.848 1463.32L837.688 1551.35L966.053 1426.17L880.213 1338.14L751.848 1463.32Z" fill="#2563EB"/>
<path d="M658.6 1367.69L744.439 1455.72L872.805 1330.54L786.965 1242.52L658.6 1367.69Z" fill="#2563EB"/>
<path d="M565.233 1271.96L651.072 1359.98L779.437 1234.8L693.598 1146.78L565.233 1271.96Z" fill="#2563EB"/>
<g opacity="0.5">
<path d="M472.318 1176.63L558.158 1264.66L686.523 1139.48L600.684 1051.45L472.318 1176.63Z" fill="black"/>
</g>
<g opacity="0.2">
<path d="M751.848 1463.32L837.688 1551.35L966.053 1426.17L880.213 1338.14L751.848 1463.32Z" fill="black"/>
</g>
<g opacity="0.3">
<path d="M658.6 1367.69L744.439 1455.72L872.805 1330.54L786.965 1242.52L658.6 1367.69Z" fill="black"/>
</g>
<g opacity="0.4">
<path d="M565.233 1271.96L651.072 1359.98L779.437 1234.8L693.598 1146.78L565.233 1271.96Z" fill="black"/>
</g>
<path d="M938.427 1678.92L1094.79 1598.09C1097.32 1596.79 1099.57 1595 1101.4 1592.83C1103.23 1590.66 1104.6 1588.14 1105.45 1585.43C1106.3 1582.71 1106.59 1579.86 1106.32 1577.03C1106.05 1574.2 1105.22 1571.46 1103.87 1568.96L784.042 950C782.774 947.453 781.01 945.185 778.853 943.329C776.697 941.472 774.192 940.065 771.484 939.19C768.777 938.315 765.922 937.99 763.087 938.233C760.252 938.476 757.495 939.282 754.976 940.605L598.66 1021.35C596.123 1022.64 593.87 1024.43 592.031 1026.6C590.193 1028.77 588.806 1031.29 587.954 1034C587.102 1036.72 586.8 1039.58 587.067 1042.41C587.334 1045.24 588.164 1047.99 589.509 1050.5L909.41 1669.44C910.671 1671.99 912.427 1674.26 914.576 1676.12C916.726 1677.98 919.224 1679.39 921.927 1680.28C924.629 1681.16 927.48 1681.49 930.313 1681.26C933.146 1681.03 935.905 1680.23 938.427 1678.92Z" fill="#F5F5F5"/>
<path d="M938.428 1678.92C937.023 1679.76 935.503 1680.4 933.915 1680.8C929.226 1682.08 924.241 1681.72 919.781 1679.79C916.498 1678.34 913.606 1676.13 911.344 1673.35C908.964 1669.83 906.862 1666.12 905.058 1662.27L890.194 1634.32L797.143 1455.49L659.626 1189.98L619.889 1113.23L599.385 1073.6L588.972 1053.45C586.893 1049.98 585.623 1046.09 585.256 1042.06C584.955 1037.89 585.774 1033.73 587.627 1029.99C589.376 1026.12 592.169 1022.82 595.692 1020.45C599.319 1018.3 602.593 1016.76 606.019 1014.96C612.889 1011.42 619.808 1007.8 626.678 1004.26C640.53 997.059 654.48 989.855 668.528 982.649C696.599 968.146 725.058 953.441 753.906 938.533C757.838 936.51 762.265 935.649 766.668 936.049C771.072 936.449 775.271 938.095 778.774 940.793C782.166 943.464 784.863 946.917 786.633 950.855L792.152 961.545L814.067 1003.98L856.988 1087.09L937.972 1244.01L1074.8 1509.71L1102.61 1563.69C1103.63 1565.85 1104.84 1567.89 1105.76 1570.22C1107.11 1573.63 1107.61 1577.32 1107.23 1580.96C1106.84 1584.61 1105.58 1588.11 1103.56 1591.17C1100.92 1595 1097.25 1598 1092.97 1599.83C1089.07 1601.76 1085.25 1603.74 1081.5 1605.71C1051.41 1621.14 1025.53 1634.35 1004.32 1645.19C983.107 1656.04 966.745 1664.33 955.455 1670.08C949.92 1672.82 945.687 1674.91 942.431 1676.52C939.175 1678.13 938.042 1678.58 938.042 1678.58C938.042 1678.58 939.427 1677.7 942.27 1676.2L954.839 1669.44C966.024 1663.56 982.307 1654.7 1003.33 1643.98C1024.35 1633.26 1050.31 1619.52 1080.27 1603.89C1083.96 1601.95 1087.78 1599.97 1091.66 1597.97C1095.61 1596.32 1098.99 1593.57 1101.41 1590.04C1103.82 1586.38 1104.98 1582.03 1104.73 1577.65C1104.27 1573.08 1102.72 1568.69 1100.2 1564.85L1072.2 1511L934.679 1245.48L853.507 1088.69L810.623 1005.71L788.708 963.279L783.189 952.589C781.711 949.103 779.371 946.05 776.387 943.719C773.422 941.487 769.888 940.137 766.191 939.824C762.493 939.51 758.782 940.245 755.484 941.945C726.648 956.898 698.189 971.604 670.106 986.061C656.037 993.371 642.087 1000.57 628.256 1007.67C621.405 1011.28 614.466 1014.83 607.597 1018.37C604.309 1020.14 600.571 1021.88 597.577 1023.64C594.607 1025.57 592.221 1028.27 590.676 1031.46C589.134 1034.66 588.449 1038.2 588.687 1041.74C588.926 1045.29 590.079 1048.71 592.036 1051.67L602.361 1071.77L622.864 1111.4L662.464 1188.18L799.293 1453.88L891.574 1633.14L905.924 1661.38C907.688 1665.17 909.707 1668.85 911.967 1672.37C914.12 1675.07 916.871 1677.24 920.004 1678.7C924.307 1680.62 929.118 1681.09 933.712 1680.04C936.938 1679.69 938.391 1678.79 938.428 1678.92Z" fill="#263238"/>
<path d="M939.484 1680.11C940.103 1679.95 941.697 1688.37 948.321 1702.08C957.715 1721.28 971.805 1737.8 989.286 1750.1C1015.39 1768.06 1047.47 1775.12 1078.71 1769.8C1105.42 1764.96 1129.68 1751.17 1147.49 1730.69C1165.31 1710.22 1175.61 1684.28 1176.71 1657.16C1177.81 1630.04 1169.64 1603.36 1153.54 1581.51C1137.44 1559.66 1114.38 1543.95 1088.15 1536.96C1067.48 1531.44 1045.74 1531.37 1025.04 1536.76C1021.39 1537.74 1018.16 1538.6 1015.27 1539.38C1012.38 1540.15 1010.26 1541.31 1008.59 1541.98C1006.69 1542.83 1004.67 1543.37 1002.61 1543.58C1004.24 1542.29 1006.03 1541.21 1007.94 1540.38C1009.76 1539.45 1011.93 1538.21 1014.44 1537.09C1016.94 1535.98 1020.46 1534.82 1024.09 1533.48C1045.23 1526.83 1067.79 1526.12 1089.32 1531.41C1105.38 1535.29 1120.49 1542.35 1133.77 1552.19C1147.05 1562.02 1158.21 1574.42 1166.6 1588.65C1177.04 1606.09 1183.04 1625.82 1184.08 1646.11C1185.12 1666.4 1181.17 1686.64 1172.57 1705.05C1168.03 1714.6 1162.33 1723.56 1155.6 1731.72C1135.38 1756.23 1106.59 1772.11 1075.08 1776.14C1043.57 1780.17 1011.71 1772.05 985.972 1753.43C968.096 1740.3 954.082 1722.61 945.402 1702.2C943.123 1696.7 941.305 1691.02 939.967 1685.22C939.526 1683.56 939.362 1681.83 939.484 1680.11Z" fill="#263238"/>
<path d="M971.275 1532.07C975.98 1529.64 981.3 1528.65 986.563 1529.25C991.826 1529.84 996.795 1531.98 1000.84 1535.39C1004.89 1538.81 1007.83 1543.35 1009.3 1548.44C1010.77 1553.52 1010.7 1558.93 1009.09 1563.98C1007.49 1569.03 1004.42 1573.49 1000.28 1576.79C996.146 1580.1 991.121 1582.1 985.844 1582.55C980.567 1583 975.275 1581.87 970.637 1579.32C965.999 1576.76 962.223 1572.89 959.787 1568.18C956.536 1561.87 955.92 1554.52 958.073 1547.75C960.226 1540.98 964.973 1535.34 971.275 1532.07Z" fill="#263238"/>
<path d="M610.382 1039.76L666.83 1148.99L826.113 1066.67L769.665 957.443L610.382 1039.76Z" fill="#2563EB"/>
<path d="M671.442 1157.97L727.891 1267.19L887.174 1184.87L830.725 1075.65L671.442 1157.97Z" fill="#2563EB"/>
<path d="M732.876 1276.76L789.324 1385.99L948.607 1303.67L892.159 1194.45L732.876 1276.76Z" fill="#2563EB"/>
<path d="M794.194 1395.46L850.643 1504.69L1009.93 1422.37L953.477 1313.14L794.194 1395.46Z" fill="#2563EB"/>
<g opacity="0.8">
<path d="M794.194 1395.46L850.643 1504.69L1009.93 1422.37L953.477 1313.14L794.194 1395.46Z" fill="white"/>
</g>
<g opacity="0.6">
<path d="M732.876 1276.76L789.324 1385.99L948.607 1303.67L892.159 1194.45L732.876 1276.76Z" fill="white"/>
</g>
<g opacity="0.4">
<path d="M671.444 1157.97L727.893 1267.19L887.176 1184.87L830.727 1075.65L671.444 1157.97Z" fill="white"/>
</g>
</svg>
