<svg width="200" height="200" viewBox="0 0 200 200" fill="none" xmlns="http://www.w3.org/2000/svg">
<circle cx="100" cy="100" r="100" fill="#1E293B"/>
<path d="M51.3914 114.337C55.9995 118.369 60.0314 114.265 62.6954 110.377C66.7275 104.689 82.9995 83.3768 73.2794 77.1128C64.4235 71.4248 58.1595 95.5448 56.1435 100.441C54.7035 96.3368 48.8715 73.0088 41.0954 76.3208C32.8154 79.8488 43.5435 98.6408 45.5595 102.961C47.2155 106.633 48.2955 111.529 51.3914 114.337Z" fill="white"/>
<path d="M89.9491 124.417C94.7731 124.489 99.6691 124.489 104.493 124.417C107.157 124.417 124.221 125.065 121.989 118.441C120.837 114.985 112.557 116.281 109.605 116.209C104.205 115.993 102.117 115.921 96.7171 115.993C92.1811 115.993 87.2131 115.705 82.8211 116.785C80.2291 117.433 76.4851 120.169 79.5811 122.761C82.0291 124.921 86.9971 124.345 89.9491 124.417Z" fill="white"/>
<path d="M137.735 114.337C142.343 118.369 146.375 114.265 149.039 110.377C153.071 104.689 169.343 83.3768 159.623 77.1128C150.767 71.4248 144.503 95.5448 142.487 100.441C141.047 96.3368 135.215 73.0088 127.439 76.3208C119.159 79.8488 129.887 98.6408 131.903 102.961C133.559 106.633 134.639 111.529 137.735 114.337Z" fill="white"/>
</svg>
