<?xml version="1.0" encoding="utf-8"?>
<!-- Generator: Adobe Illustrator 16.0.0, SVG Export Plug-In . SVG Version: 6.00 Build 0)  -->
<!DOCTYPE svg PUBLIC "-//W3C//DTD SVG 1.1//EN" "http://www.w3.org/Graphics/SVG/1.1/DTD/svg11.dtd">
<svg version="1.1" xmlns="http://www.w3.org/2000/svg" xmlns:xlink="http://www.w3.org/1999/xlink" x="0px" y="0px" width="500px"
	 height="500px" viewBox="0 0 500 500" enable-background="new 0 0 500 500" xml:space="preserve">
<g id="Layer_2">
	<circle fill="#112539" cx="250" cy="250" r="250"/>
</g>
<g id="Layer_6" display="none">
	<rect display="inline" fill="#112539" width="500" height="500"/>
</g>
<g id="Layer_7" display="none">
	<rect x="2" y="2" display="inline" fill="#249072" width="500" height="500"/>
</g>
<g id="Layer_8" display="none">
	<circle display="inline" fill="#249072" cx="250" cy="250" r="250"/>
</g>
<g id="Layer_3" display="none">
	<circle display="inline" fill="#7F7F7F" cx="250" cy="250" r="250"/>
</g>
<g id="Layer_9" display="none">
	<rect x="3" display="inline" fill="#7F7F7F" width="500" height="500"/>
</g>
<g id="Layer_1" display="none">
	<polygon display="inline" fill="#CCCCCC" points="262.043,287.504 277.684,293.922 249.543,344.332 	"/>
	<polygon display="inline" fill="#FFFFFF" points="192.879,278.504 149.129,276.832 333.293,154.754 	"/>
	<polygon display="inline" fill="#E5E5E5" points="249.543,344.332 192.879,278.504 333.293,154.754 263.082,292.504 	"/>
	<polyline display="inline" fill="#FFFFFF" points="263.082,292.504 333.293,154.754 351.52,339.332 	"/>
</g>
<g id="Layer_4" display="none">
	<text transform="matrix(1 0 0 1 189 351)" display="inline" fill="#FFFFFF" font-family="'LittleDays'" font-size="300">?</text>
</g>
<g id="Layer_5" display="none">
	<polygon display="inline" fill="#CCCCCC" points="450.456,242.059 452.216,242.78 449.05,248.451 	"/>
	<polygon display="inline" fill="#FFFFFF" points="442.676,241.045 437.754,240.857 458.472,227.123 	"/>
	<polygon display="inline" fill="#E5E5E5" points="449.05,248.451 442.676,241.045 458.472,227.123 450.573,242.621 	"/>
	<polyline display="inline" fill="#FFFFFF" points="450.573,242.621 458.472,227.123 460.522,247.889 	"/>
	
		<path display="inline" fill="none" stroke="#FFFFFF" stroke-width="5" stroke-linecap="round" stroke-linejoin="round" stroke-miterlimit="10" d="
		M96.081,201.67c0,0-4.125-8.625-20.25-8.625c0,0-37.126-3.234-37.125,38.813c0,0,0,34.172,36,34.688c0,0,19.877,0.938,31.125-14.25
		c0,0,0.375,16.045,16.125,14.397c0,0,16.125-1.647,16.125-14.772c0,0,1.22-12.469-9-15.375c0,0-9.69,7.895,2.528,16.313
		c0.271,0.188,0.553,0.375,0.847,0.562c13.5,8.625,21.75-0.563,23.25-3.281l8.25-12.844c0,0,7.315-8.813,0-10.5
		c0,0-3.107-0.469-4.593,0.938c-1.294,1.226-1.594,4.125,0.843,6.188l16.125,11.25c0,0,9.376,6.375,3.375,14.25
		c0,0-8.812,11.906-12.75,5.625c0,0-4.498-6.375,2.625-7.875l15.797-0.75c0,0,11.579,0,12.422-9.375l1.688-15.188
		c0,0-5.344,29.813,7.592,33.188c0.101,0.025,7.665,1.766,12.256-1.5c3.72-2.646,6.165-6.416,6.165-13.406v-18.281v65.813
		c0,0,0.022,9.561-9.163,8.625c0,0-10.347-0.938-6.597-16.125c0,0,1.859-12,20.608-24.75c0,0,12.473-7.941,16.865-14.725"/>
	
		<path display="inline" fill="none" stroke="#FFFFFF" stroke-width="5" stroke-linecap="round" stroke-linejoin="round" stroke-miterlimit="10" d="
		M105.83,252.295c0,0-0.562-22.124,23.25-15.75"/>
	
		<path display="inline" fill="none" stroke="#FFFFFF" stroke-width="5" stroke-linecap="round" stroke-linejoin="round" stroke-miterlimit="10" d="
		M349.534,252.389c0,31.641,19.442,3.102,22.86-2.26l8.249-12.844c0,0,6.627-8.803-0.688-10.49c0,0-3.108-0.469-4.594,0.938
		c-1.293,1.226-2.154,3.563,0.281,5.625l15.657,6.234c0,0-16.734,21.516-2.345,26.578c0,0,22.313,6.188,23.933-15.456
		c0,0-1.341,13.394,10.753,15.456c0.104,0.016,15.753,3.938,24.001-13.875"/>
	
		<path display="inline" fill="none" stroke="#FFFFFF" stroke-width="5" stroke-linecap="round" stroke-linejoin="round" stroke-miterlimit="10" d="
		M309.339,201.67c0,0-4.16-8.625-20.286-8.625c0,0-37.144-3.234-37.143,38.813c0,0-0.008,34.172,35.991,34.688
		c0,0,19.874,0.938,31.12-14.25c0,0,0.857,16.045,16.607,14.397c0.002,0,13.871-3.615,14.871-17.019v-16.129
		c0,0-31.064,1.36-31.064,18.75"/>
	
		<path display="inline" fill="none" stroke="#FFFFFF" stroke-width="5" stroke-linecap="round" stroke-linejoin="round" stroke-miterlimit="10" d="
		M412.888,250.714c0,0,0.068-16.325,13.006-16.185c0,0,6.328,0.703,6.328,6.469C432.222,240.998,433.772,250.714,412.888,250.714z"
		/>
</g>
<g id="heart" display="none">
	<path display="inline" fill="#FFFFFF" d="M301.692,162c-19.71,0-41.106,8.8-51.692,26.4c-10.585-17.6-31.983-26.4-51.692-26.4
		C163.823,162,138,183.619,138,219.89c0,15.644,6.281,35.962,20.461,52.829c14.18,16.867,22.614,25.85,50.077,44
		C236,334.869,250,338,250,338s14-3.131,41.462-21.281s35.897-27.133,50.076-44C355.719,255.852,362,235.533,362,219.89
		C362,183.619,336.176,162,301.692,162z"/>
</g>
<g id="Layer_11">
	<g>
		<path fill="#FFFFFF" d="M327.55,250c0-11.95,7.399-21.4,18.45-27.9c-2-6.65-4.65-13.1-7.9-19.1c-12.449,3.25-22.5-1.6-31-10.1
			c-8.449-8.45-11.05-18.55-7.8-31c-6-3.25-12.399-5.9-19.101-7.9c-6.5,11.1-18.199,18.45-30.199,18.45
			c-11.95,0-23.7-7.35-30.2-18.45c-6.7,2-13.1,4.65-19.1,7.9c3.25,12.45,0.65,22.5-7.8,31c-8.45,8.45-18.55,13.35-30.95,10.1
			c-3.3,6-5.95,12.4-7.95,19.1c11.1,6.5,18.5,15.95,18.5,27.9c0,11.95-7.4,23.7-18.5,30.2c2,6.7,4.65,13.101,7.9,19.101
			c12.45-3.25,22.5-0.65,30.95,7.799c8.5,8.451,11.05,18.551,7.8,31c6.05,3.25,12.4,5.9,19.1,7.9c6.5-11.1,18.25-18.449,30.2-18.449
			c11.951,0,23.701,7.35,30.201,18.449c6.699-2,13.1-4.65,19.1-7.9c-3.25-12.449-0.65-22.5,7.8-31c8.45-8.449,18.55-13.35,31-10.1
			c3.25-6.05,5.899-12.449,7.899-19.1C334.9,271.4,327.55,261.95,327.55,250z M250,299.15c-27.1,0-49.15-22-49.15-49.15
			c0-27.15,22-49.15,49.15-49.15c27.15,0,49.15,22,49.15,49.15C299.15,277.15,277.15,299.15,250,299.15z"/>
	</g>
</g>
<g id="Layer_12" display="none">
	<g display="inline">
		<polygon fill="#FFFFFF" points="221.005,201.61 203.984,218.668 332.031,347 349,329.941 		"/>
		<rect x="213" y="153" fill="#FFFFFF" width="16" height="32"/>
		<rect x="213" y="255" fill="#FFFFFF" width="16" height="32"/>
		<rect x="259" y="211" fill="#FFFFFF" width="32" height="16"/>
		<polygon fill="#FFFFFF" points="273.971,178.072 262.656,166.732 240.029,189.41 251.344,200.749 		"/>
		<polygon fill="#FFFFFF" points="168.03,178.072 190.657,200.749 201.97,189.41 179.343,166.732 		"/>
		<polygon fill="#FFFFFF" points="168.03,261.57 179.343,272.908 201.97,250.23 190.657,238.892 		"/>
		<rect x="151" y="211" fill="#FFFFFF" width="32" height="16"/>
	</g>
</g>
<g id="Layer_13" display="none">
	<g display="inline">
		<polygon fill="#FFFFFF" points="170,246.8 223,270.15 330,170 		"/>
		<polygon fill="#FFFFFF" points="330,170 230.95,277.85 256.9,330 		"/>
	</g>
</g>
<g id="Layer_14" display="none">
	<path display="inline" fill="#FFFFFF" d="M250,354c11.389,0,20.705-9.359,20.705-20.8h-41.411C229.294,344.641,238.61,354,250,354z
		 M317.295,291.6v-57.2c0-31.72-22.259-58.759-51.766-65.52v-7.28c0-8.841-6.729-15.6-15.529-15.6s-15.529,6.759-15.529,15.6v7.279
		c-29.508,6.762-51.765,33.801-51.765,65.521v57.2L162,312.4v10.4h176v-10.4L317.295,291.6z"/>
</g>
</svg>
